M48
; DRILL file {KiCad 9.0.5} date 2025-10-28T18:52:10+0900
; FORMAT={-:-/ absolute / inch / decimal}
; #@! TF.CreationDate,2025-10-28T18:52:10+09:00
; #@! TF.GenerationSoftware,Kicad,Pcbnew,9.0.5
; #@! TF.FileFunction,Plated,1,2,PTH
FMAT,2
INCH
; #@! TA.AperFunction,Plated,PTH,ViaDrill
T1C0.0118
; #@! TA.AperFunction,Plated,PTH,ComponentDrill
T2C0.0300
; #@! TA.AperFunction,Plated,PTH,ComponentDrill
T3C0.0315
; #@! TA.AperFunction,Plated,PTH,ComponentDrill
T4C0.0394
%
G90
G05
T1
X3.6339Y-4.315
X3.6339Y-4.3504
X3.6339Y-4.3819
X3.6732Y-4.315
X3.6732Y-4.3504
X3.6732Y-4.3819
X3.6909Y-3.75
X3.6909Y-3.7894
X3.6909Y-3.8287
X3.7165Y-4.315
X3.7165Y-4.3504
X3.7165Y-4.3819
X3.7205Y-3.75
X3.7205Y-3.7894
X3.7205Y-3.8287
X3.7559Y-4.315
X3.7559Y-4.3504
X3.7559Y-4.3819
X3.8583Y-3.6122
X3.9173Y-3.0217
X3.937Y-2.9823
X3.937Y-4.3346
X3.937Y-4.3661
X3.9567Y-2.9331
X3.9567Y-3.0217
X3.9764Y-2.8937
X3.9764Y-2.9823
X3.9882Y-4.3346
X3.9882Y-4.3661
X3.9961Y-2.9331
X3.9961Y-3.0217
X3.9961Y-3.061
X4.0059Y-3.6516
X4.0157Y-2.8937
X4.0157Y-2.9823
X4.0354Y-2.9331
X4.0453Y-3.0217
X4.0453Y-3.061
X4.0551Y-2.8937
X4.065Y-2.9823
X4.065Y-3.6417
X4.0846Y-2.7362
X4.0846Y-2.9331
X4.0846Y-3.0217
X4.0945Y-2.6969
X4.1043Y-2.9823
X4.124Y-2.6575
X4.124Y-2.6969
X4.124Y-2.7362
X4.124Y-2.9331
X4.1437Y-2.6181
X4.1634Y-2.6575
X4.1634Y-2.6969
X4.1634Y-2.7362
X4.1634Y-2.7756
X4.1831Y-2.6181
X4.2028Y-2.6575
X4.2028Y-2.6969
X4.2028Y-2.7362
X4.2028Y-2.7756
X4.2224Y-2.6181
X4.2421Y-2.6575
X4.2421Y-2.6969
X4.2421Y-2.7362
X4.2815Y-2.6575
X4.4291Y-3.2638
X4.4488Y-4.1732
X4.4488Y-4.2224
X4.4488Y-4.2618
X4.4606Y-3.2126
X4.4646Y-3.311
X4.4882Y-4.1339
X4.4882Y-4.1732
X4.4882Y-4.2224
X4.4882Y-4.2618
X4.4882Y-4.3012
X4.4961Y-3.2677
X4.5039Y-3.1732
X4.5276Y-3.9764
X4.5276Y-4.0157
X4.5276Y-4.0551
X4.5276Y-4.0945
X4.5276Y-4.1339
X4.5276Y-4.1732
X4.5276Y-4.2224
X4.5276Y-4.2618
X4.5276Y-4.3012
X4.5315Y-3.3189
X4.5394Y-3.2165
X4.5669Y-3.3701
X4.5669Y-3.9764
X4.5669Y-4.0157
X4.5669Y-4.0551
X4.5669Y-4.0945
X4.5669Y-4.1339
X4.5669Y-4.1732
X4.5669Y-4.2224
X4.5669Y-4.2618
X4.5669Y-4.3012
X4.5709Y-3.2677
X4.5748Y-2.9921
X4.6063Y-2.9488
X4.6063Y-3.2244
X4.6063Y-3.3228
X4.6063Y-3.9764
X4.6063Y-4.0157
X4.6063Y-4.0551
X4.6063Y-4.0945
X4.6063Y-4.1339
X4.6063Y-4.1732
X4.6063Y-4.2224
X4.6299Y-2.9961
X4.6339Y-2.9055
X4.6457Y-3.9764
X4.6457Y-4.0157
X4.6457Y-4.0551
X4.6457Y-4.0945
X4.6457Y-4.1339
X4.6457Y-4.1732
X4.6457Y-4.2224
X4.6496Y-3.2717
X4.6535Y-3.0433
X4.6575Y-2.9488
X4.6614Y-2.8661
X4.6752Y-3.2283
X4.6772Y-2.9961
X4.685Y-2.9094
X4.7008Y-3.0512
X4.7087Y-2.9488
X4.7283Y-3.0
X4.7362Y-2.9134
X4.7559Y-3.0512
X4.7638Y-2.9528
X4.7717Y-3.0039
X4.815Y-2.9567
X4.815Y-3.0079
T2
X3.5728Y-4.1142
X3.7894Y-3.5335
X4.0059Y-3.937
X4.3209Y-4.5866
X4.626Y-4.2913
T3
X3.4433Y-4.2224
X3.5433Y-4.2224
X3.6433Y-4.2224
X4.0929Y-3.7929
X4.1929Y-3.8929
X4.2929Y-3.7929
T4
X3.4467Y-4.5388
X3.4526Y-3.3628
X3.5018Y-3.2776
X3.5451Y-4.5388
X3.6362Y-3.0435
X3.6854Y-2.9583
X3.8232Y-2.7187
X3.8724Y-2.6335
X3.9565Y-4.5383
X4.0102Y-2.3939
X4.055Y-4.5383
X4.0594Y-2.3087
X4.8973Y-4.1874
X4.9465Y-4.1022
X5.0843Y-3.8724
X5.1335Y-3.7872
X5.2713Y-3.5575
X5.3205Y-3.4722
X5.4485Y-3.2425
X5.4977Y-3.1573
M30
