%TF.GenerationSoftware,KiCad,Pcbnew,9.0.5*%
%TF.CreationDate,2025-12-02T14:51:34+09:00*%
%TF.ProjectId,2025_power,32303235-5f70-46f7-9765-722e6b696361,rev?*%
%TF.SameCoordinates,Original*%
%TF.FileFunction,Soldermask,Top*%
%TF.FilePolarity,Negative*%
%FSLAX46Y46*%
G04 Gerber Fmt 4.6, Leading zero omitted, Abs format (unit mm)*
G04 Created by KiCad (PCBNEW 9.0.5) date 2025-12-02 14:51:34*
%MOMM*%
%LPD*%
G01*
G04 APERTURE LIST*
G04 Aperture macros list*
%AMRoundRect*
0 Rectangle with rounded corners*
0 $1 Rounding radius*
0 $2 $3 $4 $5 $6 $7 $8 $9 X,Y pos of 4 corners*
0 Add a 4 corners polygon primitive as box body*
4,1,4,$2,$3,$4,$5,$6,$7,$8,$9,$2,$3,0*
0 Add four circle primitives for the rounded corners*
1,1,$1+$1,$2,$3*
1,1,$1+$1,$4,$5*
1,1,$1+$1,$6,$7*
1,1,$1+$1,$8,$9*
0 Add four rect primitives between the rounded corners*
20,1,$1+$1,$2,$3,$4,$5,0*
20,1,$1+$1,$4,$5,$6,$7,0*
20,1,$1+$1,$6,$7,$8,$9,0*
20,1,$1+$1,$8,$9,$2,$3,0*%
%AMHorizOval*
0 Thick line with rounded ends*
0 $1 width*
0 $2 $3 position (X,Y) of the first rounded end (center of the circle)*
0 $4 $5 position (X,Y) of the second rounded end (center of the circle)*
0 Add line between two ends*
20,1,$1,$2,$3,$4,$5,0*
0 Add two circle primitives to create the rounded ends*
1,1,$1,$2,$3*
1,1,$1,$4,$5*%
%AMRotRect*
0 Rectangle, with rotation*
0 The origin of the aperture is its center*
0 $1 length*
0 $2 width*
0 $3 Rotation angle, in degrees counterclockwise*
0 Add horizontal line*
21,1,$1,$2,0,0,$3*%
G04 Aperture macros list end*
%ADD10C,0.010000*%
%ADD11RotRect,2.500000X4.000000X120.000000*%
%ADD12C,1.524000*%
%ADD13RoundRect,0.135000X-0.024413X-0.227715X0.209413X-0.092715X0.024413X0.227715X-0.209413X0.092715X0*%
%ADD14RotRect,0.900000X0.900000X210.000000*%
%ADD15RoundRect,0.237500X-0.130232X-0.349431X0.367732X-0.061931X0.130232X0.349431X-0.367732X0.061931X0*%
%ADD16RoundRect,0.250001X-1.099999X-1.099999X1.099999X-1.099999X1.099999X1.099999X-1.099999X1.099999X0*%
%ADD17C,2.700000*%
%ADD18RoundRect,0.250000X1.015544X1.741025X-2.015544X-0.008975X-1.015544X-1.741025X2.015544X0.008975X0*%
%ADD19RoundRect,0.250000X0.849519X0.028590X0.449519X0.721410X-0.849519X-0.028590X-0.449519X-0.721410X0*%
%ADD20RoundRect,0.250000X1.024519X-0.274519X0.274519X1.024519X-1.024519X0.274519X-0.274519X-1.024519X0*%
%ADD21RoundRect,0.250000X0.949519X-0.144615X0.349519X0.894615X-0.949519X0.144615X-0.349519X-0.894615X0*%
%ADD22HorizOval,1.700000X0.129904X0.075000X-0.129904X-0.075000X0*%
%ADD23RoundRect,0.250000X1.500000X0.550000X-1.500000X0.550000X-1.500000X-0.550000X1.500000X-0.550000X0*%
%ADD24RoundRect,0.250000X-0.541025X-1.062917X1.191025X-0.062917X0.541025X1.062917X-1.191025X0.062917X0*%
%ADD25RoundRect,0.250000X-0.943894X0.177665X-0.380528X-0.881872X0.943894X-0.177665X0.380528X0.881872X0*%
%ADD26HorizOval,1.700000X-0.132442X-0.070421X0.132442X0.070421X0*%
%ADD27RoundRect,0.250000X1.024038X1.226314X-1.574038X-0.273686X-1.024038X-1.226314X1.574038X0.273686X0*%
%ADD28RoundRect,0.250000X1.000000X-1.950000X1.000000X1.950000X-1.000000X1.950000X-1.000000X-1.950000X0*%
%ADD29RotRect,0.900000X0.900000X120.000000*%
%ADD30RoundRect,0.250000X0.634327X1.001314X-1.184327X-0.048686X-0.634327X-1.001314X1.184327X0.048686X0*%
%ADD31O,1.800000X2.500000*%
%ADD32O,1.800000X2.600000*%
%ADD33O,1.500000X2.500000*%
G04 APERTURE END LIST*
D10*
%TO.C,U1*%
X111356404Y-92260581D02*
X109104738Y-93560581D01*
X107554738Y-90875903D01*
X109806404Y-89575903D01*
X111356404Y-92260581D01*
G36*
X111356404Y-92260581D02*
G01*
X109104738Y-93560581D01*
X107554738Y-90875903D01*
X109806404Y-89575903D01*
X111356404Y-92260581D01*
G37*
X113274980Y-91143653D02*
X113277212Y-91143519D01*
X113279945Y-91144251D01*
X113282177Y-91144117D01*
X113284909Y-91144849D01*
X113287641Y-91145581D01*
X113290373Y-91146313D01*
X113293105Y-91147045D01*
X113294971Y-91148278D01*
X113297703Y-91149010D01*
X113299569Y-91150242D01*
X113302301Y-91150974D01*
X113304667Y-91153072D01*
X113306533Y-91154304D01*
X113308899Y-91156402D01*
X113309899Y-91158134D01*
X113312265Y-91160232D01*
X113313265Y-91161964D01*
X113315631Y-91164062D01*
X113316631Y-91165794D01*
X113318131Y-91168392D01*
X113638131Y-91722649D01*
X113639631Y-91725247D01*
X113640631Y-91726979D01*
X113641265Y-91730077D01*
X113642265Y-91731809D01*
X113642899Y-91734907D01*
X113643899Y-91736639D01*
X113644533Y-91739737D01*
X113644667Y-91741969D01*
X113645301Y-91745067D01*
X113644569Y-91747799D01*
X113644703Y-91750031D01*
X113643971Y-91752763D01*
X113644105Y-91754995D01*
X113643373Y-91757727D01*
X113642641Y-91760459D01*
X113641909Y-91763191D01*
X113641177Y-91765924D01*
X113639945Y-91767790D01*
X113639212Y-91770522D01*
X113637980Y-91772388D01*
X113637248Y-91775120D01*
X113635150Y-91777486D01*
X113633918Y-91779352D01*
X113631820Y-91781718D01*
X113630088Y-91782718D01*
X113627990Y-91785084D01*
X113626258Y-91786084D01*
X113624160Y-91788450D01*
X113622428Y-91789450D01*
X113619830Y-91790950D01*
X112242849Y-92585950D01*
X112240251Y-92587450D01*
X112238519Y-92588450D01*
X112235421Y-92589084D01*
X112233689Y-92590084D01*
X112230591Y-92590718D01*
X112228859Y-92591718D01*
X112225761Y-92592352D01*
X112223529Y-92592486D01*
X112220431Y-92593120D01*
X112217699Y-92592388D01*
X112215467Y-92592522D01*
X112212735Y-92591790D01*
X112210503Y-92591924D01*
X112207771Y-92591191D01*
X112205039Y-92590459D01*
X112202306Y-92589726D01*
X112199574Y-92588995D01*
X112197708Y-92587763D01*
X112194976Y-92587031D01*
X112193110Y-92585799D01*
X112190378Y-92585067D01*
X112188012Y-92582969D01*
X112186146Y-92581737D01*
X112183780Y-92579639D01*
X112182780Y-92577907D01*
X112180414Y-92575809D01*
X112179414Y-92574077D01*
X112177048Y-92571979D01*
X112176048Y-92570247D01*
X112174548Y-92567649D01*
X111854548Y-92013392D01*
X111853048Y-92010794D01*
X111852048Y-92009062D01*
X111851414Y-92005964D01*
X111850414Y-92004232D01*
X111849780Y-92001134D01*
X111848780Y-91999402D01*
X111848146Y-91996304D01*
X111848012Y-91994072D01*
X111847378Y-91990974D01*
X111848110Y-91988242D01*
X111847976Y-91986010D01*
X111848708Y-91983278D01*
X111848574Y-91981045D01*
X111849306Y-91978313D01*
X111850039Y-91975581D01*
X111850771Y-91972849D01*
X111851503Y-91970117D01*
X111852735Y-91968251D01*
X111853467Y-91965519D01*
X111854699Y-91963653D01*
X111855431Y-91960921D01*
X111857529Y-91958555D01*
X111858761Y-91956689D01*
X111860859Y-91954323D01*
X111862591Y-91953323D01*
X111864689Y-91950957D01*
X111866421Y-91949957D01*
X111868519Y-91947591D01*
X111870251Y-91946591D01*
X111872849Y-91945091D01*
X113249830Y-91150091D01*
X113252428Y-91148591D01*
X113254160Y-91147591D01*
X113257258Y-91146957D01*
X113258990Y-91145957D01*
X113262088Y-91145323D01*
X113263820Y-91144323D01*
X113266918Y-91143689D01*
X113269150Y-91143555D01*
X113272248Y-91142921D01*
X113274980Y-91143653D01*
G36*
X113274980Y-91143653D02*
G01*
X113277212Y-91143519D01*
X113279945Y-91144251D01*
X113282177Y-91144117D01*
X113284909Y-91144849D01*
X113287641Y-91145581D01*
X113290373Y-91146313D01*
X113293105Y-91147045D01*
X113294971Y-91148278D01*
X113297703Y-91149010D01*
X113299569Y-91150242D01*
X113302301Y-91150974D01*
X113304667Y-91153072D01*
X113306533Y-91154304D01*
X113308899Y-91156402D01*
X113309899Y-91158134D01*
X113312265Y-91160232D01*
X113313265Y-91161964D01*
X113315631Y-91164062D01*
X113316631Y-91165794D01*
X113318131Y-91168392D01*
X113638131Y-91722649D01*
X113639631Y-91725247D01*
X113640631Y-91726979D01*
X113641265Y-91730077D01*
X113642265Y-91731809D01*
X113642899Y-91734907D01*
X113643899Y-91736639D01*
X113644533Y-91739737D01*
X113644667Y-91741969D01*
X113645301Y-91745067D01*
X113644569Y-91747799D01*
X113644703Y-91750031D01*
X113643971Y-91752763D01*
X113644105Y-91754995D01*
X113643373Y-91757727D01*
X113642641Y-91760459D01*
X113641909Y-91763191D01*
X113641177Y-91765924D01*
X113639945Y-91767790D01*
X113639212Y-91770522D01*
X113637980Y-91772388D01*
X113637248Y-91775120D01*
X113635150Y-91777486D01*
X113633918Y-91779352D01*
X113631820Y-91781718D01*
X113630088Y-91782718D01*
X113627990Y-91785084D01*
X113626258Y-91786084D01*
X113624160Y-91788450D01*
X113622428Y-91789450D01*
X113619830Y-91790950D01*
X112242849Y-92585950D01*
X112240251Y-92587450D01*
X112238519Y-92588450D01*
X112235421Y-92589084D01*
X112233689Y-92590084D01*
X112230591Y-92590718D01*
X112228859Y-92591718D01*
X112225761Y-92592352D01*
X112223529Y-92592486D01*
X112220431Y-92593120D01*
X112217699Y-92592388D01*
X112215467Y-92592522D01*
X112212735Y-92591790D01*
X112210503Y-92591924D01*
X112207771Y-92591191D01*
X112205039Y-92590459D01*
X112202306Y-92589726D01*
X112199574Y-92588995D01*
X112197708Y-92587763D01*
X112194976Y-92587031D01*
X112193110Y-92585799D01*
X112190378Y-92585067D01*
X112188012Y-92582969D01*
X112186146Y-92581737D01*
X112183780Y-92579639D01*
X112182780Y-92577907D01*
X112180414Y-92575809D01*
X112179414Y-92574077D01*
X112177048Y-92571979D01*
X112176048Y-92570247D01*
X112174548Y-92567649D01*
X111854548Y-92013392D01*
X111853048Y-92010794D01*
X111852048Y-92009062D01*
X111851414Y-92005964D01*
X111850414Y-92004232D01*
X111849780Y-92001134D01*
X111848780Y-91999402D01*
X111848146Y-91996304D01*
X111848012Y-91994072D01*
X111847378Y-91990974D01*
X111848110Y-91988242D01*
X111847976Y-91986010D01*
X111848708Y-91983278D01*
X111848574Y-91981045D01*
X111849306Y-91978313D01*
X111850039Y-91975581D01*
X111850771Y-91972849D01*
X111851503Y-91970117D01*
X111852735Y-91968251D01*
X111853467Y-91965519D01*
X111854699Y-91963653D01*
X111855431Y-91960921D01*
X111857529Y-91958555D01*
X111858761Y-91956689D01*
X111860859Y-91954323D01*
X111862591Y-91953323D01*
X111864689Y-91950957D01*
X111866421Y-91949957D01*
X111868519Y-91947591D01*
X111870251Y-91946591D01*
X111872849Y-91945091D01*
X113249830Y-91150091D01*
X113252428Y-91148591D01*
X113254160Y-91147591D01*
X113257258Y-91146957D01*
X113258990Y-91145957D01*
X113262088Y-91145323D01*
X113263820Y-91144323D01*
X113266918Y-91143689D01*
X113269150Y-91143555D01*
X113272248Y-91142921D01*
X113274980Y-91143653D01*
G37*
X112639980Y-90043801D02*
X112642212Y-90043667D01*
X112644945Y-90044399D01*
X112647177Y-90044265D01*
X112649909Y-90044997D01*
X112652641Y-90045729D01*
X112655373Y-90046461D01*
X112658105Y-90047193D01*
X112659971Y-90048425D01*
X112662703Y-90049157D01*
X112664569Y-90050389D01*
X112667301Y-90051121D01*
X112669667Y-90053219D01*
X112671533Y-90054452D01*
X112673899Y-90056550D01*
X112674899Y-90058282D01*
X112677265Y-90060380D01*
X112678265Y-90062112D01*
X112680631Y-90064210D01*
X112681631Y-90065942D01*
X112683131Y-90068540D01*
X113003131Y-90622796D01*
X113004631Y-90625394D01*
X113005631Y-90627126D01*
X113006265Y-90630224D01*
X113007265Y-90631957D01*
X113007899Y-90635055D01*
X113008899Y-90636787D01*
X113009533Y-90639885D01*
X113009667Y-90642117D01*
X113010301Y-90645215D01*
X113009569Y-90647947D01*
X113009703Y-90650179D01*
X113008971Y-90652911D01*
X113009105Y-90655143D01*
X113008373Y-90657875D01*
X113007641Y-90660607D01*
X113006909Y-90663339D01*
X113006177Y-90666071D01*
X113004945Y-90667937D01*
X113004212Y-90670668D01*
X113002980Y-90672534D01*
X113002248Y-90675267D01*
X113000150Y-90677633D01*
X112998918Y-90679499D01*
X112996820Y-90681865D01*
X112995088Y-90682865D01*
X112992990Y-90685232D01*
X112991258Y-90686232D01*
X112989160Y-90688598D01*
X112987428Y-90689598D01*
X112984830Y-90691098D01*
X111607849Y-91486098D01*
X111605250Y-91487598D01*
X111603519Y-91488598D01*
X111600421Y-91489232D01*
X111598689Y-91490232D01*
X111595591Y-91490865D01*
X111593859Y-91491865D01*
X111590761Y-91492499D01*
X111588529Y-91492633D01*
X111585431Y-91493267D01*
X111582699Y-91492535D01*
X111580467Y-91492669D01*
X111577735Y-91491937D01*
X111575503Y-91492071D01*
X111572771Y-91491339D01*
X111570039Y-91490607D01*
X111567306Y-91489875D01*
X111564574Y-91489143D01*
X111562708Y-91487911D01*
X111559976Y-91487179D01*
X111558110Y-91485947D01*
X111555378Y-91485215D01*
X111553012Y-91483117D01*
X111551146Y-91481885D01*
X111548780Y-91479787D01*
X111547780Y-91478055D01*
X111545414Y-91475957D01*
X111544414Y-91474224D01*
X111542048Y-91472126D01*
X111541048Y-91470394D01*
X111539548Y-91467796D01*
X111219548Y-90913540D01*
X111218048Y-90910942D01*
X111217048Y-90909210D01*
X111216414Y-90906112D01*
X111215414Y-90904380D01*
X111214780Y-90901282D01*
X111213780Y-90899550D01*
X111213146Y-90896452D01*
X111213012Y-90894219D01*
X111212378Y-90891121D01*
X111213110Y-90888389D01*
X111212976Y-90886157D01*
X111213708Y-90883425D01*
X111213574Y-90881193D01*
X111214306Y-90878461D01*
X111215039Y-90875729D01*
X111215771Y-90872997D01*
X111216503Y-90870265D01*
X111217735Y-90868399D01*
X111218467Y-90865667D01*
X111219699Y-90863801D01*
X111220431Y-90861069D01*
X111222529Y-90858703D01*
X111223761Y-90856837D01*
X111225859Y-90854471D01*
X111227591Y-90853471D01*
X111229689Y-90851105D01*
X111231421Y-90850105D01*
X111233519Y-90847739D01*
X111235251Y-90846739D01*
X111237849Y-90845239D01*
X112614830Y-90050239D01*
X112617428Y-90048739D01*
X112619160Y-90047739D01*
X112622258Y-90047105D01*
X112623990Y-90046105D01*
X112627088Y-90045471D01*
X112628820Y-90044471D01*
X112631918Y-90043837D01*
X112634150Y-90043703D01*
X112637248Y-90043069D01*
X112639980Y-90043801D01*
G36*
X112639980Y-90043801D02*
G01*
X112642212Y-90043667D01*
X112644945Y-90044399D01*
X112647177Y-90044265D01*
X112649909Y-90044997D01*
X112652641Y-90045729D01*
X112655373Y-90046461D01*
X112658105Y-90047193D01*
X112659971Y-90048425D01*
X112662703Y-90049157D01*
X112664569Y-90050389D01*
X112667301Y-90051121D01*
X112669667Y-90053219D01*
X112671533Y-90054452D01*
X112673899Y-90056550D01*
X112674899Y-90058282D01*
X112677265Y-90060380D01*
X112678265Y-90062112D01*
X112680631Y-90064210D01*
X112681631Y-90065942D01*
X112683131Y-90068540D01*
X113003131Y-90622796D01*
X113004631Y-90625394D01*
X113005631Y-90627126D01*
X113006265Y-90630224D01*
X113007265Y-90631957D01*
X113007899Y-90635055D01*
X113008899Y-90636787D01*
X113009533Y-90639885D01*
X113009667Y-90642117D01*
X113010301Y-90645215D01*
X113009569Y-90647947D01*
X113009703Y-90650179D01*
X113008971Y-90652911D01*
X113009105Y-90655143D01*
X113008373Y-90657875D01*
X113007641Y-90660607D01*
X113006909Y-90663339D01*
X113006177Y-90666071D01*
X113004945Y-90667937D01*
X113004212Y-90670668D01*
X113002980Y-90672534D01*
X113002248Y-90675267D01*
X113000150Y-90677633D01*
X112998918Y-90679499D01*
X112996820Y-90681865D01*
X112995088Y-90682865D01*
X112992990Y-90685232D01*
X112991258Y-90686232D01*
X112989160Y-90688598D01*
X112987428Y-90689598D01*
X112984830Y-90691098D01*
X111607849Y-91486098D01*
X111605250Y-91487598D01*
X111603519Y-91488598D01*
X111600421Y-91489232D01*
X111598689Y-91490232D01*
X111595591Y-91490865D01*
X111593859Y-91491865D01*
X111590761Y-91492499D01*
X111588529Y-91492633D01*
X111585431Y-91493267D01*
X111582699Y-91492535D01*
X111580467Y-91492669D01*
X111577735Y-91491937D01*
X111575503Y-91492071D01*
X111572771Y-91491339D01*
X111570039Y-91490607D01*
X111567306Y-91489875D01*
X111564574Y-91489143D01*
X111562708Y-91487911D01*
X111559976Y-91487179D01*
X111558110Y-91485947D01*
X111555378Y-91485215D01*
X111553012Y-91483117D01*
X111551146Y-91481885D01*
X111548780Y-91479787D01*
X111547780Y-91478055D01*
X111545414Y-91475957D01*
X111544414Y-91474224D01*
X111542048Y-91472126D01*
X111541048Y-91470394D01*
X111539548Y-91467796D01*
X111219548Y-90913540D01*
X111218048Y-90910942D01*
X111217048Y-90909210D01*
X111216414Y-90906112D01*
X111215414Y-90904380D01*
X111214780Y-90901282D01*
X111213780Y-90899550D01*
X111213146Y-90896452D01*
X111213012Y-90894219D01*
X111212378Y-90891121D01*
X111213110Y-90888389D01*
X111212976Y-90886157D01*
X111213708Y-90883425D01*
X111213574Y-90881193D01*
X111214306Y-90878461D01*
X111215039Y-90875729D01*
X111215771Y-90872997D01*
X111216503Y-90870265D01*
X111217735Y-90868399D01*
X111218467Y-90865667D01*
X111219699Y-90863801D01*
X111220431Y-90861069D01*
X111222529Y-90858703D01*
X111223761Y-90856837D01*
X111225859Y-90854471D01*
X111227591Y-90853471D01*
X111229689Y-90851105D01*
X111231421Y-90850105D01*
X111233519Y-90847739D01*
X111235251Y-90846739D01*
X111237849Y-90845239D01*
X112614830Y-90050239D01*
X112617428Y-90048739D01*
X112619160Y-90047739D01*
X112622258Y-90047105D01*
X112623990Y-90046105D01*
X112627088Y-90045471D01*
X112628820Y-90044471D01*
X112631918Y-90043837D01*
X112634150Y-90043703D01*
X112637248Y-90043069D01*
X112639980Y-90043801D01*
G37*
X112004980Y-88943949D02*
X112007212Y-88943815D01*
X112009945Y-88944547D01*
X112012177Y-88944413D01*
X112014909Y-88945145D01*
X112017641Y-88945877D01*
X112020373Y-88946609D01*
X112023105Y-88947341D01*
X112024971Y-88948573D01*
X112027703Y-88949305D01*
X112029569Y-88950537D01*
X112032301Y-88951269D01*
X112034667Y-88953367D01*
X112036533Y-88954599D01*
X112038899Y-88956697D01*
X112039899Y-88958429D01*
X112042265Y-88960527D01*
X112043265Y-88962260D01*
X112045631Y-88964358D01*
X112046631Y-88966090D01*
X112048131Y-88968688D01*
X112368131Y-89522944D01*
X112369631Y-89525542D01*
X112370631Y-89527274D01*
X112371265Y-89530372D01*
X112372265Y-89532104D01*
X112372899Y-89535202D01*
X112373899Y-89536934D01*
X112374533Y-89540032D01*
X112374667Y-89542265D01*
X112375301Y-89545363D01*
X112374569Y-89548095D01*
X112374703Y-89550327D01*
X112373971Y-89553059D01*
X112374105Y-89555291D01*
X112373373Y-89558023D01*
X112372641Y-89560755D01*
X112371909Y-89563487D01*
X112371177Y-89566219D01*
X112369945Y-89568085D01*
X112369212Y-89570817D01*
X112367980Y-89572683D01*
X112367248Y-89575415D01*
X112365150Y-89577781D01*
X112363918Y-89579647D01*
X112361820Y-89582013D01*
X112360088Y-89583013D01*
X112357990Y-89585379D01*
X112356258Y-89586379D01*
X112354160Y-89588745D01*
X112352428Y-89589745D01*
X112349830Y-89591245D01*
X110972849Y-90386245D01*
X110970251Y-90387745D01*
X110968519Y-90388745D01*
X110965421Y-90389379D01*
X110963689Y-90390379D01*
X110960591Y-90391013D01*
X110958859Y-90392013D01*
X110955761Y-90392647D01*
X110953529Y-90392781D01*
X110950431Y-90393415D01*
X110947699Y-90392683D01*
X110945467Y-90392817D01*
X110942735Y-90392085D01*
X110940503Y-90392219D01*
X110937771Y-90391487D01*
X110935039Y-90390755D01*
X110932306Y-90390023D01*
X110929574Y-90389291D01*
X110927708Y-90388059D01*
X110924976Y-90387327D01*
X110923110Y-90386095D01*
X110920378Y-90385363D01*
X110918012Y-90383265D01*
X110916146Y-90382032D01*
X110913780Y-90379934D01*
X110912780Y-90378202D01*
X110910414Y-90376104D01*
X110909414Y-90374372D01*
X110907048Y-90372274D01*
X110906048Y-90370542D01*
X110904548Y-90367944D01*
X110584548Y-89813688D01*
X110583048Y-89811090D01*
X110582048Y-89809358D01*
X110581414Y-89806260D01*
X110580414Y-89804527D01*
X110579780Y-89801429D01*
X110578780Y-89799697D01*
X110578146Y-89796599D01*
X110578012Y-89794367D01*
X110577378Y-89791269D01*
X110578110Y-89788537D01*
X110577976Y-89786305D01*
X110578708Y-89783573D01*
X110578574Y-89781341D01*
X110579306Y-89778609D01*
X110580039Y-89775877D01*
X110580771Y-89773145D01*
X110581503Y-89770413D01*
X110582735Y-89768547D01*
X110583467Y-89765815D01*
X110584699Y-89763949D01*
X110585431Y-89761217D01*
X110587529Y-89758851D01*
X110588761Y-89756985D01*
X110590859Y-89754619D01*
X110592591Y-89753619D01*
X110594689Y-89751252D01*
X110596421Y-89750252D01*
X110598519Y-89747886D01*
X110600251Y-89746886D01*
X110602849Y-89745386D01*
X111979830Y-88950386D01*
X111982428Y-88948886D01*
X111984160Y-88947886D01*
X111987258Y-88947252D01*
X111988990Y-88946252D01*
X111992088Y-88945619D01*
X111993820Y-88944619D01*
X111996918Y-88943985D01*
X111999150Y-88943851D01*
X112002248Y-88943217D01*
X112004980Y-88943949D01*
G36*
X112004980Y-88943949D02*
G01*
X112007212Y-88943815D01*
X112009945Y-88944547D01*
X112012177Y-88944413D01*
X112014909Y-88945145D01*
X112017641Y-88945877D01*
X112020373Y-88946609D01*
X112023105Y-88947341D01*
X112024971Y-88948573D01*
X112027703Y-88949305D01*
X112029569Y-88950537D01*
X112032301Y-88951269D01*
X112034667Y-88953367D01*
X112036533Y-88954599D01*
X112038899Y-88956697D01*
X112039899Y-88958429D01*
X112042265Y-88960527D01*
X112043265Y-88962260D01*
X112045631Y-88964358D01*
X112046631Y-88966090D01*
X112048131Y-88968688D01*
X112368131Y-89522944D01*
X112369631Y-89525542D01*
X112370631Y-89527274D01*
X112371265Y-89530372D01*
X112372265Y-89532104D01*
X112372899Y-89535202D01*
X112373899Y-89536934D01*
X112374533Y-89540032D01*
X112374667Y-89542265D01*
X112375301Y-89545363D01*
X112374569Y-89548095D01*
X112374703Y-89550327D01*
X112373971Y-89553059D01*
X112374105Y-89555291D01*
X112373373Y-89558023D01*
X112372641Y-89560755D01*
X112371909Y-89563487D01*
X112371177Y-89566219D01*
X112369945Y-89568085D01*
X112369212Y-89570817D01*
X112367980Y-89572683D01*
X112367248Y-89575415D01*
X112365150Y-89577781D01*
X112363918Y-89579647D01*
X112361820Y-89582013D01*
X112360088Y-89583013D01*
X112357990Y-89585379D01*
X112356258Y-89586379D01*
X112354160Y-89588745D01*
X112352428Y-89589745D01*
X112349830Y-89591245D01*
X110972849Y-90386245D01*
X110970251Y-90387745D01*
X110968519Y-90388745D01*
X110965421Y-90389379D01*
X110963689Y-90390379D01*
X110960591Y-90391013D01*
X110958859Y-90392013D01*
X110955761Y-90392647D01*
X110953529Y-90392781D01*
X110950431Y-90393415D01*
X110947699Y-90392683D01*
X110945467Y-90392817D01*
X110942735Y-90392085D01*
X110940503Y-90392219D01*
X110937771Y-90391487D01*
X110935039Y-90390755D01*
X110932306Y-90390023D01*
X110929574Y-90389291D01*
X110927708Y-90388059D01*
X110924976Y-90387327D01*
X110923110Y-90386095D01*
X110920378Y-90385363D01*
X110918012Y-90383265D01*
X110916146Y-90382032D01*
X110913780Y-90379934D01*
X110912780Y-90378202D01*
X110910414Y-90376104D01*
X110909414Y-90374372D01*
X110907048Y-90372274D01*
X110906048Y-90370542D01*
X110904548Y-90367944D01*
X110584548Y-89813688D01*
X110583048Y-89811090D01*
X110582048Y-89809358D01*
X110581414Y-89806260D01*
X110580414Y-89804527D01*
X110579780Y-89801429D01*
X110578780Y-89799697D01*
X110578146Y-89796599D01*
X110578012Y-89794367D01*
X110577378Y-89791269D01*
X110578110Y-89788537D01*
X110577976Y-89786305D01*
X110578708Y-89783573D01*
X110578574Y-89781341D01*
X110579306Y-89778609D01*
X110580039Y-89775877D01*
X110580771Y-89773145D01*
X110581503Y-89770413D01*
X110582735Y-89768547D01*
X110583467Y-89765815D01*
X110584699Y-89763949D01*
X110585431Y-89761217D01*
X110587529Y-89758851D01*
X110588761Y-89756985D01*
X110590859Y-89754619D01*
X110592591Y-89753619D01*
X110594689Y-89751252D01*
X110596421Y-89750252D01*
X110598519Y-89747886D01*
X110600251Y-89746886D01*
X110602849Y-89745386D01*
X111979830Y-88950386D01*
X111982428Y-88948886D01*
X111984160Y-88947886D01*
X111987258Y-88947252D01*
X111988990Y-88946252D01*
X111992088Y-88945619D01*
X111993820Y-88944619D01*
X111996918Y-88943985D01*
X111999150Y-88943851D01*
X112002248Y-88943217D01*
X112004980Y-88943949D01*
G37*
X111369980Y-87844096D02*
X111372212Y-87843962D01*
X111374945Y-87844694D01*
X111377177Y-87844560D01*
X111379909Y-87845293D01*
X111382641Y-87846025D01*
X111385373Y-87846757D01*
X111388105Y-87847489D01*
X111389971Y-87848721D01*
X111392703Y-87849453D01*
X111394569Y-87850685D01*
X111397301Y-87851417D01*
X111399667Y-87853515D01*
X111401533Y-87854747D01*
X111403899Y-87856845D01*
X111404899Y-87858577D01*
X111407265Y-87860675D01*
X111408265Y-87862407D01*
X111410631Y-87864505D01*
X111411631Y-87866237D01*
X111413131Y-87868835D01*
X111733131Y-88423092D01*
X111734631Y-88425690D01*
X111735631Y-88427422D01*
X111736265Y-88430520D01*
X111737265Y-88432252D01*
X111737899Y-88435350D01*
X111738899Y-88437082D01*
X111739533Y-88440180D01*
X111739667Y-88442412D01*
X111740301Y-88445510D01*
X111739569Y-88448242D01*
X111739703Y-88450474D01*
X111738971Y-88453206D01*
X111739105Y-88455439D01*
X111738373Y-88458171D01*
X111737641Y-88460903D01*
X111736909Y-88463635D01*
X111736177Y-88466367D01*
X111734945Y-88468233D01*
X111734212Y-88470965D01*
X111732980Y-88472831D01*
X111732248Y-88475563D01*
X111730150Y-88477929D01*
X111728918Y-88479795D01*
X111726820Y-88482161D01*
X111725088Y-88483161D01*
X111722990Y-88485527D01*
X111721258Y-88486527D01*
X111719160Y-88488893D01*
X111717428Y-88489893D01*
X111714830Y-88491393D01*
X110337849Y-89286393D01*
X110335251Y-89287893D01*
X110333519Y-89288893D01*
X110330421Y-89289527D01*
X110328689Y-89290527D01*
X110325591Y-89291161D01*
X110323859Y-89292161D01*
X110320761Y-89292795D01*
X110318529Y-89292929D01*
X110315431Y-89293563D01*
X110312699Y-89292831D01*
X110310467Y-89292965D01*
X110307735Y-89292233D01*
X110305503Y-89292367D01*
X110302771Y-89291636D01*
X110300039Y-89290903D01*
X110297306Y-89290171D01*
X110294574Y-89289439D01*
X110292708Y-89288206D01*
X110289976Y-89287474D01*
X110288110Y-89286242D01*
X110285378Y-89285510D01*
X110283012Y-89283412D01*
X110281146Y-89282180D01*
X110278780Y-89280082D01*
X110277780Y-89278350D01*
X110275414Y-89276252D01*
X110274414Y-89274520D01*
X110272048Y-89272422D01*
X110271048Y-89270690D01*
X110269548Y-89268092D01*
X109949548Y-88713835D01*
X109948048Y-88711237D01*
X109947048Y-88709505D01*
X109946414Y-88706407D01*
X109945414Y-88704675D01*
X109944780Y-88701577D01*
X109943780Y-88699845D01*
X109943146Y-88696747D01*
X109943012Y-88694515D01*
X109942378Y-88691417D01*
X109943110Y-88688685D01*
X109942976Y-88686453D01*
X109943708Y-88683721D01*
X109943574Y-88681489D01*
X109944306Y-88678757D01*
X109945039Y-88676025D01*
X109945771Y-88673293D01*
X109946503Y-88670560D01*
X109947736Y-88668694D01*
X109948467Y-88665962D01*
X109949699Y-88664096D01*
X109950431Y-88661364D01*
X109952529Y-88658998D01*
X109953761Y-88657132D01*
X109955859Y-88654766D01*
X109957591Y-88653766D01*
X109959689Y-88651400D01*
X109961421Y-88650400D01*
X109963519Y-88648034D01*
X109965251Y-88647034D01*
X109967849Y-88645534D01*
X111344830Y-87850534D01*
X111347428Y-87849034D01*
X111349160Y-87848034D01*
X111352258Y-87847400D01*
X111353990Y-87846400D01*
X111357088Y-87845766D01*
X111358820Y-87844766D01*
X111361918Y-87844132D01*
X111364150Y-87843998D01*
X111367248Y-87843364D01*
X111369980Y-87844096D01*
G36*
X111369980Y-87844096D02*
G01*
X111372212Y-87843962D01*
X111374945Y-87844694D01*
X111377177Y-87844560D01*
X111379909Y-87845293D01*
X111382641Y-87846025D01*
X111385373Y-87846757D01*
X111388105Y-87847489D01*
X111389971Y-87848721D01*
X111392703Y-87849453D01*
X111394569Y-87850685D01*
X111397301Y-87851417D01*
X111399667Y-87853515D01*
X111401533Y-87854747D01*
X111403899Y-87856845D01*
X111404899Y-87858577D01*
X111407265Y-87860675D01*
X111408265Y-87862407D01*
X111410631Y-87864505D01*
X111411631Y-87866237D01*
X111413131Y-87868835D01*
X111733131Y-88423092D01*
X111734631Y-88425690D01*
X111735631Y-88427422D01*
X111736265Y-88430520D01*
X111737265Y-88432252D01*
X111737899Y-88435350D01*
X111738899Y-88437082D01*
X111739533Y-88440180D01*
X111739667Y-88442412D01*
X111740301Y-88445510D01*
X111739569Y-88448242D01*
X111739703Y-88450474D01*
X111738971Y-88453206D01*
X111739105Y-88455439D01*
X111738373Y-88458171D01*
X111737641Y-88460903D01*
X111736909Y-88463635D01*
X111736177Y-88466367D01*
X111734945Y-88468233D01*
X111734212Y-88470965D01*
X111732980Y-88472831D01*
X111732248Y-88475563D01*
X111730150Y-88477929D01*
X111728918Y-88479795D01*
X111726820Y-88482161D01*
X111725088Y-88483161D01*
X111722990Y-88485527D01*
X111721258Y-88486527D01*
X111719160Y-88488893D01*
X111717428Y-88489893D01*
X111714830Y-88491393D01*
X110337849Y-89286393D01*
X110335251Y-89287893D01*
X110333519Y-89288893D01*
X110330421Y-89289527D01*
X110328689Y-89290527D01*
X110325591Y-89291161D01*
X110323859Y-89292161D01*
X110320761Y-89292795D01*
X110318529Y-89292929D01*
X110315431Y-89293563D01*
X110312699Y-89292831D01*
X110310467Y-89292965D01*
X110307735Y-89292233D01*
X110305503Y-89292367D01*
X110302771Y-89291636D01*
X110300039Y-89290903D01*
X110297306Y-89290171D01*
X110294574Y-89289439D01*
X110292708Y-89288206D01*
X110289976Y-89287474D01*
X110288110Y-89286242D01*
X110285378Y-89285510D01*
X110283012Y-89283412D01*
X110281146Y-89282180D01*
X110278780Y-89280082D01*
X110277780Y-89278350D01*
X110275414Y-89276252D01*
X110274414Y-89274520D01*
X110272048Y-89272422D01*
X110271048Y-89270690D01*
X110269548Y-89268092D01*
X109949548Y-88713835D01*
X109948048Y-88711237D01*
X109947048Y-88709505D01*
X109946414Y-88706407D01*
X109945414Y-88704675D01*
X109944780Y-88701577D01*
X109943780Y-88699845D01*
X109943146Y-88696747D01*
X109943012Y-88694515D01*
X109942378Y-88691417D01*
X109943110Y-88688685D01*
X109942976Y-88686453D01*
X109943708Y-88683721D01*
X109943574Y-88681489D01*
X109944306Y-88678757D01*
X109945039Y-88676025D01*
X109945771Y-88673293D01*
X109946503Y-88670560D01*
X109947736Y-88668694D01*
X109948467Y-88665962D01*
X109949699Y-88664096D01*
X109950431Y-88661364D01*
X109952529Y-88658998D01*
X109953761Y-88657132D01*
X109955859Y-88654766D01*
X109957591Y-88653766D01*
X109959689Y-88651400D01*
X109961421Y-88650400D01*
X109963519Y-88648034D01*
X109965251Y-88647034D01*
X109967849Y-88645534D01*
X111344830Y-87850534D01*
X111347428Y-87849034D01*
X111349160Y-87848034D01*
X111352258Y-87847400D01*
X111353990Y-87846400D01*
X111357088Y-87845766D01*
X111358820Y-87844766D01*
X111361918Y-87844132D01*
X111364150Y-87843998D01*
X111367248Y-87843364D01*
X111369980Y-87844096D01*
G37*
X108598443Y-93843653D02*
X108600675Y-93843519D01*
X108603407Y-93844251D01*
X108605639Y-93844117D01*
X108608371Y-93844848D01*
X108611103Y-93845581D01*
X108613836Y-93846313D01*
X108616568Y-93847045D01*
X108618434Y-93848278D01*
X108621166Y-93849010D01*
X108623032Y-93850242D01*
X108625764Y-93850974D01*
X108628130Y-93853072D01*
X108629996Y-93854304D01*
X108632362Y-93856402D01*
X108633362Y-93858134D01*
X108635728Y-93860232D01*
X108636728Y-93861964D01*
X108639094Y-93864062D01*
X108640094Y-93865794D01*
X108641594Y-93868392D01*
X108961594Y-94422649D01*
X108963094Y-94425247D01*
X108964094Y-94426979D01*
X108964728Y-94430077D01*
X108965728Y-94431809D01*
X108966362Y-94434907D01*
X108967362Y-94436639D01*
X108967996Y-94439737D01*
X108968130Y-94441969D01*
X108968764Y-94445067D01*
X108968032Y-94447799D01*
X108968166Y-94450031D01*
X108967434Y-94452763D01*
X108967568Y-94454995D01*
X108966836Y-94457727D01*
X108966103Y-94460459D01*
X108965371Y-94463191D01*
X108964639Y-94465924D01*
X108963406Y-94467790D01*
X108962675Y-94470522D01*
X108961443Y-94472388D01*
X108960711Y-94475120D01*
X108958613Y-94477486D01*
X108957381Y-94479352D01*
X108955283Y-94481718D01*
X108953551Y-94482718D01*
X108951453Y-94485084D01*
X108949721Y-94486084D01*
X108947623Y-94488450D01*
X108945891Y-94489450D01*
X108943293Y-94490950D01*
X107566312Y-95285950D01*
X107563714Y-95287450D01*
X107561982Y-95288450D01*
X107558884Y-95289084D01*
X107557152Y-95290084D01*
X107554054Y-95290718D01*
X107552322Y-95291718D01*
X107549224Y-95292352D01*
X107546992Y-95292486D01*
X107543894Y-95293120D01*
X107541162Y-95292388D01*
X107538930Y-95292522D01*
X107536197Y-95291790D01*
X107533965Y-95291924D01*
X107531233Y-95291191D01*
X107528501Y-95290459D01*
X107525769Y-95289727D01*
X107523037Y-95288995D01*
X107521171Y-95287763D01*
X107518439Y-95287031D01*
X107516573Y-95285799D01*
X107513841Y-95285067D01*
X107511475Y-95282969D01*
X107509609Y-95281737D01*
X107507243Y-95279639D01*
X107506243Y-95277907D01*
X107503877Y-95275809D01*
X107502877Y-95274077D01*
X107500511Y-95271979D01*
X107499511Y-95270247D01*
X107498011Y-95267649D01*
X107178011Y-94713392D01*
X107176511Y-94710794D01*
X107175511Y-94709062D01*
X107174877Y-94705964D01*
X107173877Y-94704232D01*
X107173243Y-94701134D01*
X107172243Y-94699402D01*
X107171609Y-94696304D01*
X107171475Y-94694072D01*
X107170841Y-94690974D01*
X107171573Y-94688242D01*
X107171439Y-94686010D01*
X107172171Y-94683278D01*
X107172037Y-94681045D01*
X107172769Y-94678313D01*
X107173501Y-94675581D01*
X107174233Y-94672849D01*
X107174965Y-94670117D01*
X107176197Y-94668251D01*
X107176930Y-94665519D01*
X107178162Y-94663653D01*
X107178894Y-94660921D01*
X107180992Y-94658555D01*
X107182224Y-94656689D01*
X107184322Y-94654323D01*
X107186054Y-94653323D01*
X107188152Y-94650957D01*
X107189884Y-94649957D01*
X107191982Y-94647591D01*
X107193714Y-94646591D01*
X107196312Y-94645091D01*
X108573293Y-93850091D01*
X108575891Y-93848591D01*
X108577623Y-93847591D01*
X108580721Y-93846957D01*
X108582453Y-93845957D01*
X108585551Y-93845323D01*
X108587283Y-93844323D01*
X108590381Y-93843689D01*
X108592613Y-93843555D01*
X108595711Y-93842921D01*
X108598443Y-93843653D01*
G36*
X108598443Y-93843653D02*
G01*
X108600675Y-93843519D01*
X108603407Y-93844251D01*
X108605639Y-93844117D01*
X108608371Y-93844848D01*
X108611103Y-93845581D01*
X108613836Y-93846313D01*
X108616568Y-93847045D01*
X108618434Y-93848278D01*
X108621166Y-93849010D01*
X108623032Y-93850242D01*
X108625764Y-93850974D01*
X108628130Y-93853072D01*
X108629996Y-93854304D01*
X108632362Y-93856402D01*
X108633362Y-93858134D01*
X108635728Y-93860232D01*
X108636728Y-93861964D01*
X108639094Y-93864062D01*
X108640094Y-93865794D01*
X108641594Y-93868392D01*
X108961594Y-94422649D01*
X108963094Y-94425247D01*
X108964094Y-94426979D01*
X108964728Y-94430077D01*
X108965728Y-94431809D01*
X108966362Y-94434907D01*
X108967362Y-94436639D01*
X108967996Y-94439737D01*
X108968130Y-94441969D01*
X108968764Y-94445067D01*
X108968032Y-94447799D01*
X108968166Y-94450031D01*
X108967434Y-94452763D01*
X108967568Y-94454995D01*
X108966836Y-94457727D01*
X108966103Y-94460459D01*
X108965371Y-94463191D01*
X108964639Y-94465924D01*
X108963406Y-94467790D01*
X108962675Y-94470522D01*
X108961443Y-94472388D01*
X108960711Y-94475120D01*
X108958613Y-94477486D01*
X108957381Y-94479352D01*
X108955283Y-94481718D01*
X108953551Y-94482718D01*
X108951453Y-94485084D01*
X108949721Y-94486084D01*
X108947623Y-94488450D01*
X108945891Y-94489450D01*
X108943293Y-94490950D01*
X107566312Y-95285950D01*
X107563714Y-95287450D01*
X107561982Y-95288450D01*
X107558884Y-95289084D01*
X107557152Y-95290084D01*
X107554054Y-95290718D01*
X107552322Y-95291718D01*
X107549224Y-95292352D01*
X107546992Y-95292486D01*
X107543894Y-95293120D01*
X107541162Y-95292388D01*
X107538930Y-95292522D01*
X107536197Y-95291790D01*
X107533965Y-95291924D01*
X107531233Y-95291191D01*
X107528501Y-95290459D01*
X107525769Y-95289727D01*
X107523037Y-95288995D01*
X107521171Y-95287763D01*
X107518439Y-95287031D01*
X107516573Y-95285799D01*
X107513841Y-95285067D01*
X107511475Y-95282969D01*
X107509609Y-95281737D01*
X107507243Y-95279639D01*
X107506243Y-95277907D01*
X107503877Y-95275809D01*
X107502877Y-95274077D01*
X107500511Y-95271979D01*
X107499511Y-95270247D01*
X107498011Y-95267649D01*
X107178011Y-94713392D01*
X107176511Y-94710794D01*
X107175511Y-94709062D01*
X107174877Y-94705964D01*
X107173877Y-94704232D01*
X107173243Y-94701134D01*
X107172243Y-94699402D01*
X107171609Y-94696304D01*
X107171475Y-94694072D01*
X107170841Y-94690974D01*
X107171573Y-94688242D01*
X107171439Y-94686010D01*
X107172171Y-94683278D01*
X107172037Y-94681045D01*
X107172769Y-94678313D01*
X107173501Y-94675581D01*
X107174233Y-94672849D01*
X107174965Y-94670117D01*
X107176197Y-94668251D01*
X107176930Y-94665519D01*
X107178162Y-94663653D01*
X107178894Y-94660921D01*
X107180992Y-94658555D01*
X107182224Y-94656689D01*
X107184322Y-94654323D01*
X107186054Y-94653323D01*
X107188152Y-94650957D01*
X107189884Y-94649957D01*
X107191982Y-94647591D01*
X107193714Y-94646591D01*
X107196312Y-94645091D01*
X108573293Y-93850091D01*
X108575891Y-93848591D01*
X108577623Y-93847591D01*
X108580721Y-93846957D01*
X108582453Y-93845957D01*
X108585551Y-93845323D01*
X108587283Y-93844323D01*
X108590381Y-93843689D01*
X108592613Y-93843555D01*
X108595711Y-93842921D01*
X108598443Y-93843653D01*
G37*
X107963443Y-92743801D02*
X107965675Y-92743667D01*
X107968407Y-92744399D01*
X107970639Y-92744265D01*
X107973371Y-92744997D01*
X107976103Y-92745729D01*
X107978836Y-92746461D01*
X107981568Y-92747193D01*
X107983434Y-92748425D01*
X107986166Y-92749157D01*
X107988032Y-92750389D01*
X107990764Y-92751121D01*
X107993130Y-92753219D01*
X107994996Y-92754452D01*
X107997362Y-92756550D01*
X107998362Y-92758282D01*
X108000728Y-92760380D01*
X108001728Y-92762112D01*
X108004094Y-92764210D01*
X108005094Y-92765942D01*
X108006594Y-92768540D01*
X108326594Y-93322796D01*
X108328094Y-93325394D01*
X108329094Y-93327126D01*
X108329728Y-93330224D01*
X108330728Y-93331957D01*
X108331362Y-93335055D01*
X108332362Y-93336787D01*
X108332996Y-93339885D01*
X108333130Y-93342117D01*
X108333764Y-93345215D01*
X108333032Y-93347947D01*
X108333166Y-93350179D01*
X108332434Y-93352911D01*
X108332568Y-93355143D01*
X108331836Y-93357875D01*
X108331103Y-93360607D01*
X108330371Y-93363339D01*
X108329639Y-93366071D01*
X108328407Y-93367937D01*
X108327675Y-93370669D01*
X108326443Y-93372535D01*
X108325711Y-93375267D01*
X108323613Y-93377633D01*
X108322381Y-93379499D01*
X108320283Y-93381865D01*
X108318551Y-93382865D01*
X108316453Y-93385232D01*
X108314721Y-93386232D01*
X108312623Y-93388598D01*
X108310891Y-93389598D01*
X108308293Y-93391098D01*
X106931312Y-94186098D01*
X106928714Y-94187598D01*
X106926982Y-94188598D01*
X106923884Y-94189232D01*
X106922152Y-94190232D01*
X106919054Y-94190865D01*
X106917322Y-94191865D01*
X106914224Y-94192499D01*
X106911992Y-94192633D01*
X106908894Y-94193267D01*
X106906162Y-94192535D01*
X106903930Y-94192669D01*
X106901197Y-94191937D01*
X106898965Y-94192071D01*
X106896233Y-94191339D01*
X106893501Y-94190607D01*
X106890769Y-94189875D01*
X106888037Y-94189143D01*
X106886171Y-94187911D01*
X106883439Y-94187179D01*
X106881573Y-94185947D01*
X106878841Y-94185215D01*
X106876475Y-94183117D01*
X106874609Y-94181885D01*
X106872243Y-94179787D01*
X106871243Y-94178055D01*
X106868877Y-94175957D01*
X106867877Y-94174224D01*
X106865511Y-94172126D01*
X106864511Y-94170394D01*
X106863011Y-94167796D01*
X106543011Y-93613540D01*
X106541511Y-93610942D01*
X106540511Y-93609210D01*
X106539877Y-93606112D01*
X106538877Y-93604380D01*
X106538243Y-93601282D01*
X106537243Y-93599550D01*
X106536609Y-93596452D01*
X106536475Y-93594219D01*
X106535841Y-93591121D01*
X106536573Y-93588389D01*
X106536439Y-93586157D01*
X106537171Y-93583425D01*
X106537037Y-93581193D01*
X106537769Y-93578461D01*
X106538501Y-93575729D01*
X106539233Y-93572997D01*
X106539965Y-93570265D01*
X106541197Y-93568399D01*
X106541930Y-93565667D01*
X106543162Y-93563801D01*
X106543894Y-93561069D01*
X106545992Y-93558703D01*
X106547224Y-93556837D01*
X106549322Y-93554471D01*
X106551054Y-93553471D01*
X106553152Y-93551105D01*
X106554884Y-93550105D01*
X106556982Y-93547739D01*
X106558714Y-93546739D01*
X106561312Y-93545239D01*
X107938293Y-92750239D01*
X107940891Y-92748739D01*
X107942623Y-92747739D01*
X107945721Y-92747105D01*
X107947453Y-92746105D01*
X107950551Y-92745471D01*
X107952283Y-92744471D01*
X107955381Y-92743837D01*
X107957613Y-92743703D01*
X107960711Y-92743069D01*
X107963443Y-92743801D01*
G36*
X107963443Y-92743801D02*
G01*
X107965675Y-92743667D01*
X107968407Y-92744399D01*
X107970639Y-92744265D01*
X107973371Y-92744997D01*
X107976103Y-92745729D01*
X107978836Y-92746461D01*
X107981568Y-92747193D01*
X107983434Y-92748425D01*
X107986166Y-92749157D01*
X107988032Y-92750389D01*
X107990764Y-92751121D01*
X107993130Y-92753219D01*
X107994996Y-92754452D01*
X107997362Y-92756550D01*
X107998362Y-92758282D01*
X108000728Y-92760380D01*
X108001728Y-92762112D01*
X108004094Y-92764210D01*
X108005094Y-92765942D01*
X108006594Y-92768540D01*
X108326594Y-93322796D01*
X108328094Y-93325394D01*
X108329094Y-93327126D01*
X108329728Y-93330224D01*
X108330728Y-93331957D01*
X108331362Y-93335055D01*
X108332362Y-93336787D01*
X108332996Y-93339885D01*
X108333130Y-93342117D01*
X108333764Y-93345215D01*
X108333032Y-93347947D01*
X108333166Y-93350179D01*
X108332434Y-93352911D01*
X108332568Y-93355143D01*
X108331836Y-93357875D01*
X108331103Y-93360607D01*
X108330371Y-93363339D01*
X108329639Y-93366071D01*
X108328407Y-93367937D01*
X108327675Y-93370669D01*
X108326443Y-93372535D01*
X108325711Y-93375267D01*
X108323613Y-93377633D01*
X108322381Y-93379499D01*
X108320283Y-93381865D01*
X108318551Y-93382865D01*
X108316453Y-93385232D01*
X108314721Y-93386232D01*
X108312623Y-93388598D01*
X108310891Y-93389598D01*
X108308293Y-93391098D01*
X106931312Y-94186098D01*
X106928714Y-94187598D01*
X106926982Y-94188598D01*
X106923884Y-94189232D01*
X106922152Y-94190232D01*
X106919054Y-94190865D01*
X106917322Y-94191865D01*
X106914224Y-94192499D01*
X106911992Y-94192633D01*
X106908894Y-94193267D01*
X106906162Y-94192535D01*
X106903930Y-94192669D01*
X106901197Y-94191937D01*
X106898965Y-94192071D01*
X106896233Y-94191339D01*
X106893501Y-94190607D01*
X106890769Y-94189875D01*
X106888037Y-94189143D01*
X106886171Y-94187911D01*
X106883439Y-94187179D01*
X106881573Y-94185947D01*
X106878841Y-94185215D01*
X106876475Y-94183117D01*
X106874609Y-94181885D01*
X106872243Y-94179787D01*
X106871243Y-94178055D01*
X106868877Y-94175957D01*
X106867877Y-94174224D01*
X106865511Y-94172126D01*
X106864511Y-94170394D01*
X106863011Y-94167796D01*
X106543011Y-93613540D01*
X106541511Y-93610942D01*
X106540511Y-93609210D01*
X106539877Y-93606112D01*
X106538877Y-93604380D01*
X106538243Y-93601282D01*
X106537243Y-93599550D01*
X106536609Y-93596452D01*
X106536475Y-93594219D01*
X106535841Y-93591121D01*
X106536573Y-93588389D01*
X106536439Y-93586157D01*
X106537171Y-93583425D01*
X106537037Y-93581193D01*
X106537769Y-93578461D01*
X106538501Y-93575729D01*
X106539233Y-93572997D01*
X106539965Y-93570265D01*
X106541197Y-93568399D01*
X106541930Y-93565667D01*
X106543162Y-93563801D01*
X106543894Y-93561069D01*
X106545992Y-93558703D01*
X106547224Y-93556837D01*
X106549322Y-93554471D01*
X106551054Y-93553471D01*
X106553152Y-93551105D01*
X106554884Y-93550105D01*
X106556982Y-93547739D01*
X106558714Y-93546739D01*
X106561312Y-93545239D01*
X107938293Y-92750239D01*
X107940891Y-92748739D01*
X107942623Y-92747739D01*
X107945721Y-92747105D01*
X107947453Y-92746105D01*
X107950551Y-92745471D01*
X107952283Y-92744471D01*
X107955381Y-92743837D01*
X107957613Y-92743703D01*
X107960711Y-92743069D01*
X107963443Y-92743801D01*
G37*
X107328443Y-91643949D02*
X107330675Y-91643815D01*
X107333407Y-91644547D01*
X107335639Y-91644413D01*
X107338371Y-91645145D01*
X107341103Y-91645877D01*
X107343836Y-91646609D01*
X107346568Y-91647341D01*
X107348434Y-91648573D01*
X107351166Y-91649305D01*
X107353032Y-91650537D01*
X107355764Y-91651269D01*
X107358130Y-91653367D01*
X107359996Y-91654599D01*
X107362362Y-91656697D01*
X107363362Y-91658429D01*
X107365728Y-91660527D01*
X107366728Y-91662260D01*
X107369094Y-91664358D01*
X107370094Y-91666090D01*
X107371594Y-91668688D01*
X107691594Y-92222944D01*
X107693094Y-92225542D01*
X107694094Y-92227274D01*
X107694728Y-92230372D01*
X107695728Y-92232104D01*
X107696362Y-92235202D01*
X107697362Y-92236934D01*
X107697996Y-92240032D01*
X107698130Y-92242265D01*
X107698764Y-92245363D01*
X107698032Y-92248095D01*
X107698166Y-92250327D01*
X107697434Y-92253059D01*
X107697568Y-92255291D01*
X107696836Y-92258023D01*
X107696103Y-92260755D01*
X107695371Y-92263487D01*
X107694639Y-92266219D01*
X107693407Y-92268085D01*
X107692675Y-92270817D01*
X107691443Y-92272683D01*
X107690711Y-92275415D01*
X107688613Y-92277781D01*
X107687381Y-92279647D01*
X107685283Y-92282013D01*
X107683551Y-92283013D01*
X107681453Y-92285379D01*
X107679721Y-92286379D01*
X107677623Y-92288745D01*
X107675891Y-92289745D01*
X107673293Y-92291245D01*
X106296312Y-93086245D01*
X106293714Y-93087745D01*
X106291982Y-93088745D01*
X106288884Y-93089379D01*
X106287152Y-93090379D01*
X106284054Y-93091013D01*
X106282322Y-93092013D01*
X106279224Y-93092647D01*
X106276992Y-93092781D01*
X106273894Y-93093415D01*
X106271162Y-93092683D01*
X106268930Y-93092817D01*
X106266197Y-93092085D01*
X106263965Y-93092219D01*
X106261233Y-93091487D01*
X106258501Y-93090755D01*
X106255769Y-93090023D01*
X106253037Y-93089291D01*
X106251171Y-93088059D01*
X106248439Y-93087327D01*
X106246573Y-93086095D01*
X106243841Y-93085363D01*
X106241475Y-93083265D01*
X106239609Y-93082032D01*
X106237243Y-93079934D01*
X106236243Y-93078202D01*
X106233877Y-93076104D01*
X106232877Y-93074372D01*
X106230511Y-93072274D01*
X106229511Y-93070542D01*
X106228011Y-93067944D01*
X105908011Y-92513688D01*
X105906511Y-92511090D01*
X105905511Y-92509358D01*
X105904877Y-92506260D01*
X105903877Y-92504527D01*
X105903243Y-92501429D01*
X105902243Y-92499697D01*
X105901609Y-92496599D01*
X105901475Y-92494367D01*
X105900841Y-92491269D01*
X105901573Y-92488537D01*
X105901439Y-92486305D01*
X105902171Y-92483573D01*
X105902037Y-92481341D01*
X105902769Y-92478609D01*
X105903501Y-92475877D01*
X105904233Y-92473145D01*
X105904965Y-92470413D01*
X105906197Y-92468547D01*
X105906930Y-92465816D01*
X105908162Y-92463950D01*
X105908894Y-92461217D01*
X105910992Y-92458851D01*
X105912224Y-92456985D01*
X105914322Y-92454619D01*
X105916054Y-92453619D01*
X105918152Y-92451252D01*
X105919884Y-92450252D01*
X105921982Y-92447886D01*
X105923714Y-92446886D01*
X105926312Y-92445386D01*
X107303293Y-91650386D01*
X107305892Y-91648886D01*
X107307623Y-91647886D01*
X107310721Y-91647252D01*
X107312453Y-91646252D01*
X107315551Y-91645619D01*
X107317283Y-91644619D01*
X107320381Y-91643985D01*
X107322613Y-91643851D01*
X107325711Y-91643217D01*
X107328443Y-91643949D01*
G36*
X107328443Y-91643949D02*
G01*
X107330675Y-91643815D01*
X107333407Y-91644547D01*
X107335639Y-91644413D01*
X107338371Y-91645145D01*
X107341103Y-91645877D01*
X107343836Y-91646609D01*
X107346568Y-91647341D01*
X107348434Y-91648573D01*
X107351166Y-91649305D01*
X107353032Y-91650537D01*
X107355764Y-91651269D01*
X107358130Y-91653367D01*
X107359996Y-91654599D01*
X107362362Y-91656697D01*
X107363362Y-91658429D01*
X107365728Y-91660527D01*
X107366728Y-91662260D01*
X107369094Y-91664358D01*
X107370094Y-91666090D01*
X107371594Y-91668688D01*
X107691594Y-92222944D01*
X107693094Y-92225542D01*
X107694094Y-92227274D01*
X107694728Y-92230372D01*
X107695728Y-92232104D01*
X107696362Y-92235202D01*
X107697362Y-92236934D01*
X107697996Y-92240032D01*
X107698130Y-92242265D01*
X107698764Y-92245363D01*
X107698032Y-92248095D01*
X107698166Y-92250327D01*
X107697434Y-92253059D01*
X107697568Y-92255291D01*
X107696836Y-92258023D01*
X107696103Y-92260755D01*
X107695371Y-92263487D01*
X107694639Y-92266219D01*
X107693407Y-92268085D01*
X107692675Y-92270817D01*
X107691443Y-92272683D01*
X107690711Y-92275415D01*
X107688613Y-92277781D01*
X107687381Y-92279647D01*
X107685283Y-92282013D01*
X107683551Y-92283013D01*
X107681453Y-92285379D01*
X107679721Y-92286379D01*
X107677623Y-92288745D01*
X107675891Y-92289745D01*
X107673293Y-92291245D01*
X106296312Y-93086245D01*
X106293714Y-93087745D01*
X106291982Y-93088745D01*
X106288884Y-93089379D01*
X106287152Y-93090379D01*
X106284054Y-93091013D01*
X106282322Y-93092013D01*
X106279224Y-93092647D01*
X106276992Y-93092781D01*
X106273894Y-93093415D01*
X106271162Y-93092683D01*
X106268930Y-93092817D01*
X106266197Y-93092085D01*
X106263965Y-93092219D01*
X106261233Y-93091487D01*
X106258501Y-93090755D01*
X106255769Y-93090023D01*
X106253037Y-93089291D01*
X106251171Y-93088059D01*
X106248439Y-93087327D01*
X106246573Y-93086095D01*
X106243841Y-93085363D01*
X106241475Y-93083265D01*
X106239609Y-93082032D01*
X106237243Y-93079934D01*
X106236243Y-93078202D01*
X106233877Y-93076104D01*
X106232877Y-93074372D01*
X106230511Y-93072274D01*
X106229511Y-93070542D01*
X106228011Y-93067944D01*
X105908011Y-92513688D01*
X105906511Y-92511090D01*
X105905511Y-92509358D01*
X105904877Y-92506260D01*
X105903877Y-92504527D01*
X105903243Y-92501429D01*
X105902243Y-92499697D01*
X105901609Y-92496599D01*
X105901475Y-92494367D01*
X105900841Y-92491269D01*
X105901573Y-92488537D01*
X105901439Y-92486305D01*
X105902171Y-92483573D01*
X105902037Y-92481341D01*
X105902769Y-92478609D01*
X105903501Y-92475877D01*
X105904233Y-92473145D01*
X105904965Y-92470413D01*
X105906197Y-92468547D01*
X105906930Y-92465816D01*
X105908162Y-92463950D01*
X105908894Y-92461217D01*
X105910992Y-92458851D01*
X105912224Y-92456985D01*
X105914322Y-92454619D01*
X105916054Y-92453619D01*
X105918152Y-92451252D01*
X105919884Y-92450252D01*
X105921982Y-92447886D01*
X105923714Y-92446886D01*
X105926312Y-92445386D01*
X107303293Y-91650386D01*
X107305892Y-91648886D01*
X107307623Y-91647886D01*
X107310721Y-91647252D01*
X107312453Y-91646252D01*
X107315551Y-91645619D01*
X107317283Y-91644619D01*
X107320381Y-91643985D01*
X107322613Y-91643851D01*
X107325711Y-91643217D01*
X107328443Y-91643949D01*
G37*
X106693443Y-90544096D02*
X106695675Y-90543962D01*
X106698407Y-90544694D01*
X106700639Y-90544560D01*
X106703371Y-90545293D01*
X106706103Y-90546025D01*
X106708836Y-90546758D01*
X106711568Y-90547489D01*
X106713434Y-90548721D01*
X106716166Y-90549453D01*
X106718032Y-90550685D01*
X106720764Y-90551417D01*
X106723130Y-90553515D01*
X106724996Y-90554747D01*
X106727362Y-90556845D01*
X106728362Y-90558577D01*
X106730728Y-90560675D01*
X106731728Y-90562407D01*
X106734094Y-90564505D01*
X106735094Y-90566237D01*
X106736594Y-90568835D01*
X107056594Y-91123092D01*
X107058094Y-91125690D01*
X107059094Y-91127422D01*
X107059728Y-91130520D01*
X107060728Y-91132252D01*
X107061362Y-91135350D01*
X107062362Y-91137082D01*
X107062996Y-91140180D01*
X107063130Y-91142412D01*
X107063764Y-91145510D01*
X107063032Y-91148242D01*
X107063166Y-91150474D01*
X107062434Y-91153206D01*
X107062568Y-91155439D01*
X107061836Y-91158171D01*
X107061103Y-91160903D01*
X107060371Y-91163635D01*
X107059639Y-91166367D01*
X107058407Y-91168233D01*
X107057675Y-91170965D01*
X107056443Y-91172831D01*
X107055711Y-91175563D01*
X107053613Y-91177929D01*
X107052381Y-91179795D01*
X107050283Y-91182161D01*
X107048551Y-91183161D01*
X107046453Y-91185527D01*
X107044721Y-91186527D01*
X107042623Y-91188893D01*
X107040891Y-91189893D01*
X107038293Y-91191393D01*
X105661312Y-91986393D01*
X105658714Y-91987893D01*
X105656982Y-91988893D01*
X105653884Y-91989527D01*
X105652152Y-91990527D01*
X105649054Y-91991161D01*
X105647322Y-91992161D01*
X105644224Y-91992795D01*
X105641992Y-91992929D01*
X105638894Y-91993563D01*
X105636162Y-91992831D01*
X105633930Y-91992965D01*
X105631197Y-91992233D01*
X105628965Y-91992367D01*
X105626233Y-91991635D01*
X105623501Y-91990903D01*
X105620769Y-91990171D01*
X105618037Y-91989439D01*
X105616171Y-91988206D01*
X105613439Y-91987474D01*
X105611573Y-91986242D01*
X105608841Y-91985510D01*
X105606475Y-91983412D01*
X105604609Y-91982180D01*
X105602243Y-91980082D01*
X105601243Y-91978350D01*
X105598877Y-91976252D01*
X105597877Y-91974520D01*
X105595511Y-91972422D01*
X105594511Y-91970690D01*
X105593011Y-91968092D01*
X105273011Y-91413835D01*
X105271511Y-91411237D01*
X105270511Y-91409505D01*
X105269877Y-91406407D01*
X105268877Y-91404675D01*
X105268243Y-91401577D01*
X105267243Y-91399845D01*
X105266609Y-91396747D01*
X105266475Y-91394515D01*
X105265841Y-91391417D01*
X105266573Y-91388685D01*
X105266439Y-91386453D01*
X105267171Y-91383721D01*
X105267037Y-91381489D01*
X105267769Y-91378757D01*
X105268501Y-91376025D01*
X105269233Y-91373293D01*
X105269965Y-91370560D01*
X105271197Y-91368694D01*
X105271930Y-91365962D01*
X105273162Y-91364096D01*
X105273894Y-91361364D01*
X105275992Y-91358998D01*
X105277224Y-91357132D01*
X105279322Y-91354766D01*
X105281054Y-91353766D01*
X105283152Y-91351400D01*
X105284884Y-91350400D01*
X105286982Y-91348034D01*
X105288714Y-91347034D01*
X105291312Y-91345534D01*
X106668293Y-90550534D01*
X106670891Y-90549034D01*
X106672623Y-90548034D01*
X106675721Y-90547400D01*
X106677453Y-90546400D01*
X106680551Y-90545766D01*
X106682283Y-90544766D01*
X106685381Y-90544132D01*
X106687613Y-90543998D01*
X106690711Y-90543364D01*
X106693443Y-90544096D01*
G36*
X106693443Y-90544096D02*
G01*
X106695675Y-90543962D01*
X106698407Y-90544694D01*
X106700639Y-90544560D01*
X106703371Y-90545293D01*
X106706103Y-90546025D01*
X106708836Y-90546758D01*
X106711568Y-90547489D01*
X106713434Y-90548721D01*
X106716166Y-90549453D01*
X106718032Y-90550685D01*
X106720764Y-90551417D01*
X106723130Y-90553515D01*
X106724996Y-90554747D01*
X106727362Y-90556845D01*
X106728362Y-90558577D01*
X106730728Y-90560675D01*
X106731728Y-90562407D01*
X106734094Y-90564505D01*
X106735094Y-90566237D01*
X106736594Y-90568835D01*
X107056594Y-91123092D01*
X107058094Y-91125690D01*
X107059094Y-91127422D01*
X107059728Y-91130520D01*
X107060728Y-91132252D01*
X107061362Y-91135350D01*
X107062362Y-91137082D01*
X107062996Y-91140180D01*
X107063130Y-91142412D01*
X107063764Y-91145510D01*
X107063032Y-91148242D01*
X107063166Y-91150474D01*
X107062434Y-91153206D01*
X107062568Y-91155439D01*
X107061836Y-91158171D01*
X107061103Y-91160903D01*
X107060371Y-91163635D01*
X107059639Y-91166367D01*
X107058407Y-91168233D01*
X107057675Y-91170965D01*
X107056443Y-91172831D01*
X107055711Y-91175563D01*
X107053613Y-91177929D01*
X107052381Y-91179795D01*
X107050283Y-91182161D01*
X107048551Y-91183161D01*
X107046453Y-91185527D01*
X107044721Y-91186527D01*
X107042623Y-91188893D01*
X107040891Y-91189893D01*
X107038293Y-91191393D01*
X105661312Y-91986393D01*
X105658714Y-91987893D01*
X105656982Y-91988893D01*
X105653884Y-91989527D01*
X105652152Y-91990527D01*
X105649054Y-91991161D01*
X105647322Y-91992161D01*
X105644224Y-91992795D01*
X105641992Y-91992929D01*
X105638894Y-91993563D01*
X105636162Y-91992831D01*
X105633930Y-91992965D01*
X105631197Y-91992233D01*
X105628965Y-91992367D01*
X105626233Y-91991635D01*
X105623501Y-91990903D01*
X105620769Y-91990171D01*
X105618037Y-91989439D01*
X105616171Y-91988206D01*
X105613439Y-91987474D01*
X105611573Y-91986242D01*
X105608841Y-91985510D01*
X105606475Y-91983412D01*
X105604609Y-91982180D01*
X105602243Y-91980082D01*
X105601243Y-91978350D01*
X105598877Y-91976252D01*
X105597877Y-91974520D01*
X105595511Y-91972422D01*
X105594511Y-91970690D01*
X105593011Y-91968092D01*
X105273011Y-91413835D01*
X105271511Y-91411237D01*
X105270511Y-91409505D01*
X105269877Y-91406407D01*
X105268877Y-91404675D01*
X105268243Y-91401577D01*
X105267243Y-91399845D01*
X105266609Y-91396747D01*
X105266475Y-91394515D01*
X105265841Y-91391417D01*
X105266573Y-91388685D01*
X105266439Y-91386453D01*
X105267171Y-91383721D01*
X105267037Y-91381489D01*
X105267769Y-91378757D01*
X105268501Y-91376025D01*
X105269233Y-91373293D01*
X105269965Y-91370560D01*
X105271197Y-91368694D01*
X105271930Y-91365962D01*
X105273162Y-91364096D01*
X105273894Y-91361364D01*
X105275992Y-91358998D01*
X105277224Y-91357132D01*
X105279322Y-91354766D01*
X105281054Y-91353766D01*
X105283152Y-91351400D01*
X105284884Y-91350400D01*
X105286982Y-91348034D01*
X105288714Y-91347034D01*
X105291312Y-91345534D01*
X106668293Y-90550534D01*
X106670891Y-90549034D01*
X106672623Y-90548034D01*
X106675721Y-90547400D01*
X106677453Y-90546400D01*
X106680551Y-90545766D01*
X106682283Y-90544766D01*
X106685381Y-90544132D01*
X106687613Y-90543998D01*
X106690711Y-90543364D01*
X106693443Y-90544096D01*
G37*
%TD*%
D11*
%TO.C,L1*%
X116618935Y-83275550D03*
X112118935Y-75481322D03*
%TD*%
D12*
%TO.C,TP1*%
X133972036Y-115252690D03*
%TD*%
D13*
%TO.C,R4*%
X103808327Y-78005000D03*
X104691673Y-77495000D03*
%TD*%
D14*
%TO.C,C9*%
X108493592Y-87678044D03*
X107173770Y-88440044D03*
%TD*%
D15*
%TO.C,LED3*%
X100894152Y-79687501D03*
X102409696Y-78812501D03*
%TD*%
D16*
%TO.C,J1*%
X112747658Y-105711377D03*
D17*
X116707658Y-105711377D03*
%TD*%
D18*
%TO.C,C2*%
X93186138Y-74002690D03*
X86257934Y-78002690D03*
%TD*%
D19*
%TO.C,RV1*%
X103151629Y-83949495D03*
D20*
X107190731Y-82945424D03*
D19*
X104301629Y-85941353D03*
%TD*%
D21*
%TO.C,J6*%
X130642372Y-84847722D03*
D22*
X129392372Y-82682658D03*
%TD*%
D16*
%TO.C,J2*%
X102589420Y-105740954D03*
D17*
X106549420Y-105740954D03*
%TD*%
D23*
%TO.C,C5*%
X117422036Y-99002690D03*
X112022036Y-99002690D03*
%TD*%
D24*
%TO.C,D3*%
X118642433Y-86930234D03*
X122106535Y-84930234D03*
%TD*%
D12*
%TO.C,TP4*%
X110864770Y-86309044D03*
%TD*%
D21*
%TO.C,J8*%
X121228914Y-68487691D03*
D22*
X119978914Y-66322627D03*
%TD*%
D23*
%TO.C,C4*%
X137922036Y-93002690D03*
X132522036Y-93002690D03*
%TD*%
D12*
%TO.C,TP2*%
X116045593Y-88906374D03*
%TD*%
%TO.C,TP3*%
X101610553Y-88452690D03*
%TD*%
D25*
%TO.C,J9*%
X79089783Y-78869964D03*
D26*
X80263462Y-81077333D03*
%TD*%
D21*
%TO.C,J7*%
X116478914Y-60237691D03*
D22*
X115228914Y-58072627D03*
%TD*%
D13*
%TO.C,R1*%
X105798097Y-78553309D03*
X106681443Y-78043309D03*
%TD*%
D27*
%TO.C,C8*%
X96396907Y-84352690D03*
X91547165Y-87152690D03*
%TD*%
D21*
%TO.C,J3*%
X125978914Y-76737691D03*
D22*
X124728914Y-74572627D03*
%TD*%
D25*
%TO.C,J5*%
X91848744Y-102402533D03*
D26*
X93022423Y-104609902D03*
%TD*%
D28*
%TO.C,C1*%
X137472036Y-107952690D03*
X137472036Y-99552690D03*
%TD*%
D27*
%TO.C,C6*%
X102060305Y-66902690D03*
X97383767Y-69602690D03*
%TD*%
D29*
%TO.C,C3*%
X113895288Y-90058057D03*
X113133288Y-88738235D03*
%TD*%
D30*
%TO.C,C10*%
X98030882Y-91352690D03*
X94913190Y-93152690D03*
%TD*%
D25*
%TO.C,J4*%
X83348744Y-86652533D03*
D26*
X84522423Y-88859902D03*
%TD*%
D31*
%TO.C,SW1*%
X122487305Y-114967331D03*
X122487304Y-110467331D03*
D32*
X122487304Y-105967331D03*
D31*
X122487303Y-101467331D03*
X128987305Y-114967331D03*
X128987304Y-110467331D03*
D33*
X128987304Y-105967331D03*
D31*
X128987303Y-101467331D03*
%TD*%
D12*
%TO.C,TP5*%
X119022036Y-74352690D03*
%TD*%
D25*
%TO.C,J10*%
X87598744Y-94402533D03*
D26*
X88772423Y-96609902D03*
%TD*%
D27*
%TO.C,C7*%
X110810305Y-61902690D03*
X106133767Y-64602690D03*
%TD*%
M02*
