%TF.GenerationSoftware,KiCad,Pcbnew,9.0.5*%
%TF.CreationDate,2025-10-28T18:52:09+09:00*%
%TF.ProjectId,2025_power,32303235-5f70-46f7-9765-722e6b696361,rev?*%
%TF.SameCoordinates,Original*%
%TF.FileFunction,Copper,L1,Top*%
%TF.FilePolarity,Positive*%
%FSLAX46Y46*%
G04 Gerber Fmt 4.6, Leading zero omitted, Abs format (unit mm)*
G04 Created by KiCad (PCBNEW 9.0.5) date 2025-10-28 18:52:09*
%MOMM*%
%LPD*%
G01*
G04 APERTURE LIST*
G04 Aperture macros list*
%AMRoundRect*
0 Rectangle with rounded corners*
0 $1 Rounding radius*
0 $2 $3 $4 $5 $6 $7 $8 $9 X,Y pos of 4 corners*
0 Add a 4 corners polygon primitive as box body*
4,1,4,$2,$3,$4,$5,$6,$7,$8,$9,$2,$3,0*
0 Add four circle primitives for the rounded corners*
1,1,$1+$1,$2,$3*
1,1,$1+$1,$4,$5*
1,1,$1+$1,$6,$7*
1,1,$1+$1,$8,$9*
0 Add four rect primitives between the rounded corners*
20,1,$1+$1,$2,$3,$4,$5,0*
20,1,$1+$1,$4,$5,$6,$7,0*
20,1,$1+$1,$6,$7,$8,$9,0*
20,1,$1+$1,$8,$9,$2,$3,0*%
%AMHorizOval*
0 Thick line with rounded ends*
0 $1 width*
0 $2 $3 position (X,Y) of the first rounded end (center of the circle)*
0 $4 $5 position (X,Y) of the second rounded end (center of the circle)*
0 Add line between two ends*
20,1,$1,$2,$3,$4,$5,0*
0 Add two circle primitives to create the rounded ends*
1,1,$1,$2,$3*
1,1,$1,$4,$5*%
G04 Aperture macros list end*
%TA.AperFunction,SMDPad,CuDef*%
%ADD10RoundRect,0.135000X-0.185000X0.135000X-0.185000X-0.135000X0.185000X-0.135000X0.185000X0.135000X0*%
%TD*%
%TA.AperFunction,SMDPad,CuDef*%
%ADD11R,0.900000X0.900000*%
%TD*%
%TA.AperFunction,SMDPad,CuDef*%
%ADD12RoundRect,0.237500X-0.237500X0.287500X-0.237500X-0.287500X0.237500X-0.287500X0.237500X0.287500X0*%
%TD*%
%TA.AperFunction,ComponentPad*%
%ADD13RoundRect,0.250000X-0.600000X-0.750000X0.600000X-0.750000X0.600000X0.750000X-0.600000X0.750000X0*%
%TD*%
%TA.AperFunction,ComponentPad*%
%ADD14O,1.700000X2.000000*%
%TD*%
%TA.AperFunction,SMDPad,CuDef*%
%ADD15RoundRect,0.250000X-2.015544X0.008975X1.015544X-1.741025X2.015544X-0.008975X-1.015544X1.741025X0*%
%TD*%
%TA.AperFunction,ComponentPad*%
%ADD16RoundRect,0.250000X-0.349519X0.894615X-0.949519X-0.144615X0.349519X-0.894615X0.949519X0.144615X0*%
%TD*%
%TA.AperFunction,ComponentPad*%
%ADD17HorizOval,1.700000X-0.129904X0.075000X0.129904X-0.075000X0*%
%TD*%
%TA.AperFunction,SMDPad,CuDef*%
%ADD18RoundRect,0.030000X-0.270000X0.745000X-0.270000X-0.745000X0.270000X-0.745000X0.270000X0.745000X0*%
%TD*%
%TA.AperFunction,SMDPad,CuDef*%
%ADD19R,4.900000X2.950000*%
%TD*%
%TA.AperFunction,SMDPad,CuDef*%
%ADD20RoundRect,0.250000X-0.650000X1.000000X-0.650000X-1.000000X0.650000X-1.000000X0.650000X1.000000X0*%
%TD*%
%TA.AperFunction,ComponentPad*%
%ADD21C,1.524000*%
%TD*%
%TA.AperFunction,ComponentPad*%
%ADD22RoundRect,0.250000X0.349519X-0.894615X0.949519X0.144615X-0.349519X0.894615X-0.949519X-0.144615X0*%
%TD*%
%TA.AperFunction,SMDPad,CuDef*%
%ADD23RoundRect,0.250000X1.000000X-1.950000X1.000000X1.950000X-1.000000X1.950000X-1.000000X-1.950000X0*%
%TD*%
%TA.AperFunction,ComponentPad*%
%ADD24R,1.524000X1.524000*%
%TD*%
%TA.AperFunction,SMDPad,CuDef*%
%ADD25R,2.500000X4.000000*%
%TD*%
%TA.AperFunction,ComponentPad*%
%ADD26C,1.900000*%
%TD*%
%TA.AperFunction,ViaPad*%
%ADD27C,0.600000*%
%TD*%
%TA.AperFunction,Conductor*%
%ADD28C,0.200000*%
%TD*%
%TA.AperFunction,Conductor*%
%ADD29C,0.500000*%
%TD*%
G04 APERTURE END LIST*
D10*
%TO.P,R4,1*%
%TO.N,Net-(LED3-A)*%
X113000000Y-103240000D03*
%TO.P,R4,2*%
%TO.N,V+*%
X113000000Y-104260000D03*
%TD*%
D11*
%TO.P,C9,1*%
%TO.N,Net-(D3-K)*%
X101750000Y-97262000D03*
%TO.P,C9,2*%
%TO.N,Net-(U1-BOOT)*%
X101750000Y-95738000D03*
%TD*%
D12*
%TO.P,LED3,1,K*%
%TO.N,GND*%
X113000000Y-99875000D03*
%TO.P,LED3,2,A*%
%TO.N,Net-(LED3-A)*%
X113000000Y-101625000D03*
%TD*%
D13*
%TO.P,J1,1,Pin_1*%
%TO.N,GND*%
X87545181Y-115284609D03*
D14*
%TO.P,J1,2,Pin_2*%
%TO.N,+12V*%
X90045181Y-115284609D03*
%TD*%
D15*
%TO.P,C2,1*%
%TO.N,V+*%
X117285898Y-79500000D03*
%TO.P,C2,2*%
%TO.N,GND*%
X124214102Y-83500000D03*
%TD*%
D16*
%TO.P,J6,1,Pin_1*%
%TO.N,GND*%
X88945000Y-83250000D03*
D17*
%TO.P,J6,2,Pin_2*%
%TO.N,V+*%
X87695000Y-85415064D03*
%TD*%
D13*
%TO.P,J2,1,Pin_1*%
%TO.N,GND*%
X100496169Y-115271592D03*
D14*
%TO.P,J2,2,Pin_2*%
%TO.N,+12V*%
X102996169Y-115271592D03*
%TD*%
D18*
%TO.P,U1,1,BOOT*%
%TO.N,Net-(U1-BOOT)*%
X99805000Y-93450000D03*
%TO.P,U1,2,NC_2*%
%TO.N,unconnected-(U1-NC_2-Pad2)*%
X98535000Y-93450000D03*
%TO.P,U1,3,NC_3*%
%TO.N,unconnected-(U1-NC_3-Pad3)*%
X97265000Y-93450000D03*
%TO.P,U1,4,VSENSE*%
%TO.N,Vsense*%
X95995000Y-93450000D03*
%TO.P,U1,5,ENA*%
%TO.N,unconnected-(U1-ENA-Pad5)*%
X95995000Y-98850000D03*
%TO.P,U1,6,GND*%
%TO.N,GND*%
X97265000Y-98850000D03*
%TO.P,U1,7,VIN*%
%TO.N,+V_SW*%
X98535000Y-98850000D03*
%TO.P,U1,8,PH*%
%TO.N,Net-(D3-K)*%
X99805000Y-98850000D03*
D19*
%TO.P,U1,9,POWERPAD*%
%TO.N,GND*%
X97900000Y-96150000D03*
%TD*%
D20*
%TO.P,D3,1,K*%
%TO.N,Net-(D3-K)*%
X98000000Y-106000000D03*
%TO.P,D3,2,A*%
%TO.N,GND*%
X98000000Y-110000000D03*
%TD*%
D21*
%TO.P,TP4,1,1*%
%TO.N,Net-(D3-K)*%
X101750000Y-100000000D03*
%TD*%
D16*
%TO.P,J8,1,Pin_1*%
%TO.N,GND*%
X98358458Y-66889969D03*
D17*
%TO.P,J8,2,Pin_2*%
%TO.N,V+*%
X97108458Y-69055033D03*
%TD*%
D15*
%TO.P,C4,1*%
%TO.N,V+*%
X104035898Y-72000000D03*
%TO.P,C4,2*%
%TO.N,GND*%
X110964102Y-76000000D03*
%TD*%
D21*
%TO.P,TP2,1,1*%
%TO.N,+V_SW*%
X90750000Y-104500000D03*
%TD*%
%TO.P,TP3,1,1*%
%TO.N,Vsense*%
X96250000Y-89750000D03*
%TD*%
D22*
%TO.P,J9,1,Pin_1*%
%TO.N,GND*%
X138391543Y-82360032D03*
D17*
%TO.P,J9,2,Pin_2*%
%TO.N,V+*%
X139641543Y-80194968D03*
%TD*%
D16*
%TO.P,J7,1,Pin_1*%
%TO.N,GND*%
X103108458Y-58639969D03*
D17*
%TO.P,J7,2,Pin_2*%
%TO.N,V+*%
X101858458Y-60805033D03*
%TD*%
D10*
%TO.P,R1,1*%
%TO.N,Vsense*%
X111000000Y-99490000D03*
%TO.P,R1,2*%
%TO.N,V+*%
X111000000Y-100510000D03*
%TD*%
D16*
%TO.P,J3,1,Pin_1*%
%TO.N,GND*%
X93608458Y-75139969D03*
D17*
%TO.P,J3,2,Pin_2*%
%TO.N,V+*%
X92358458Y-77305033D03*
%TD*%
D22*
%TO.P,J5,1,Pin_1*%
%TO.N,GND*%
X124391543Y-106360032D03*
D17*
%TO.P,J5,2,Pin_2*%
%TO.N,V+*%
X125641543Y-104194968D03*
%TD*%
D23*
%TO.P,C1,1*%
%TO.N,+V_SW*%
X87500000Y-101450000D03*
%TO.P,C1,2*%
%TO.N,GND*%
X87500000Y-93050000D03*
%TD*%
D11*
%TO.P,C3,1*%
%TO.N,GND*%
X96988000Y-100750000D03*
%TO.P,C3,2*%
%TO.N,+V_SW*%
X98512000Y-100750000D03*
%TD*%
D22*
%TO.P,J4,1,Pin_1*%
%TO.N,GND*%
X133891543Y-90360032D03*
D17*
%TO.P,J4,2,Pin_2*%
%TO.N,V+*%
X135141543Y-88194968D03*
%TD*%
D24*
%TO.P,SW1,1,A*%
%TO.N,+V_SW*%
X87460000Y-107250000D03*
D21*
%TO.P,SW1,2,B*%
%TO.N,+12V*%
X90000000Y-107250000D03*
%TO.P,SW1,3,C*%
%TO.N,unconnected-(SW1-C-Pad3)*%
X92540000Y-107250000D03*
%TD*%
%TO.P,TP5,1,1*%
%TO.N,V+*%
X117500000Y-109000000D03*
%TD*%
D22*
%TO.P,J10,1,Pin_1*%
%TO.N,GND*%
X129141543Y-98360032D03*
D17*
%TO.P,J10,2,Pin_2*%
%TO.N,V+*%
X130391543Y-96194968D03*
%TD*%
D25*
%TO.P,L1,1,1*%
%TO.N,Net-(D3-K)*%
X101500000Y-106500000D03*
%TO.P,L1,2,2*%
%TO.N,V+*%
X110500000Y-106500000D03*
%TD*%
D21*
%TO.P,TP1,1,1*%
%TO.N,GND*%
X109750000Y-116500000D03*
%TD*%
D26*
%TO.P,RV1,1,1*%
%TO.N,unconnected-(RV1-Pad1)*%
X103960000Y-96340000D03*
%TO.P,RV1,2,2*%
%TO.N,GND*%
X106500000Y-98880000D03*
%TO.P,RV1,3,3*%
%TO.N,Vsense*%
X109040000Y-96340000D03*
%TD*%
D27*
%TO.N,Vsense*%
X103250000Y-92500000D03*
%TO.N,GND*%
X93750000Y-95250000D03*
X100000000Y-110900000D03*
X101300000Y-110100000D03*
X92300000Y-111300000D03*
X101300000Y-110900000D03*
X93300000Y-110500000D03*
X94500000Y-96250000D03*
X93300000Y-109600000D03*
X94400000Y-109600000D03*
X100000000Y-110100000D03*
X94400000Y-111300000D03*
X94500000Y-95250000D03*
X95400000Y-111300000D03*
X93300000Y-111300000D03*
X95400000Y-110500000D03*
X94500000Y-97250000D03*
X92300000Y-109600000D03*
X93750000Y-97250000D03*
X94400000Y-110500000D03*
X95400000Y-109600000D03*
X93750000Y-96250000D03*
X92300000Y-110500000D03*
%TO.N,V+*%
X103750000Y-74500000D03*
X118100000Y-83100000D03*
X116000000Y-101000000D03*
X106750000Y-70500000D03*
X100500000Y-74500000D03*
X114200000Y-83000000D03*
X117000000Y-105000000D03*
X118000000Y-107250000D03*
X102750000Y-76750000D03*
X117000000Y-103000000D03*
X113000000Y-107250000D03*
X115000000Y-101000000D03*
X115000000Y-103000000D03*
X106750000Y-69500000D03*
X113000000Y-106000000D03*
X115000000Y-105000000D03*
X105750000Y-70500000D03*
X107250000Y-66500000D03*
X103750000Y-69500000D03*
X117000000Y-74900000D03*
X117000000Y-102000000D03*
X105750000Y-68500000D03*
X117000000Y-84400000D03*
X103250000Y-75750000D03*
X119400000Y-77500000D03*
X100500000Y-76750000D03*
X104750000Y-68500000D03*
X113000000Y-108250000D03*
X115000000Y-106000000D03*
X102750000Y-77750000D03*
X116000000Y-106000000D03*
X120100000Y-76200000D03*
X100000000Y-75750000D03*
X116000000Y-85600000D03*
X101000000Y-75750000D03*
X101000000Y-73500000D03*
X116000000Y-102000000D03*
X121000000Y-75000000D03*
X116000000Y-108250000D03*
X114000000Y-105000000D03*
X104000000Y-68500000D03*
X117000000Y-106000000D03*
X106750000Y-67500000D03*
X115000000Y-107250000D03*
X118000000Y-102000000D03*
X118000000Y-103000000D03*
X118800000Y-76100000D03*
X115000000Y-102000000D03*
X105750000Y-67500000D03*
X116000000Y-105000000D03*
X118750000Y-82000000D03*
X115000000Y-104000000D03*
X104750000Y-67500000D03*
X104750000Y-69500000D03*
X114000000Y-108250000D03*
X116100000Y-83000000D03*
X118200000Y-77300000D03*
X117000000Y-81900000D03*
X116000000Y-107250000D03*
X102500000Y-74500000D03*
X115000000Y-109250000D03*
X101500000Y-74500000D03*
X116000000Y-109250000D03*
X105750000Y-69500000D03*
X117000000Y-101000000D03*
X106250000Y-66500000D03*
X114400000Y-80600000D03*
X114000000Y-106000000D03*
X101500000Y-77750000D03*
X107750000Y-69500000D03*
X114000000Y-107250000D03*
X119000000Y-73900000D03*
X117000000Y-107250000D03*
X118000000Y-106000000D03*
X99500000Y-76750000D03*
X106750000Y-68500000D03*
X101500000Y-76750000D03*
X121200000Y-76300000D03*
X117700000Y-73800000D03*
X102000000Y-75750000D03*
X113300000Y-81600000D03*
X117000000Y-104000000D03*
X108750000Y-67500000D03*
X113400000Y-84100000D03*
X120800000Y-77500000D03*
X105250000Y-66500000D03*
X118300000Y-74900000D03*
X122300000Y-75100000D03*
X120300000Y-74000000D03*
X102000000Y-73500000D03*
X112500000Y-82900000D03*
X122300000Y-76400000D03*
X115000000Y-108250000D03*
X116000000Y-103000000D03*
X118000000Y-101000000D03*
X116000000Y-104000000D03*
X118000000Y-105000000D03*
X119600000Y-74900000D03*
X107750000Y-67500000D03*
X118400000Y-72800000D03*
X104750000Y-74500000D03*
X104250000Y-75750000D03*
X103750000Y-76750000D03*
X107750000Y-68500000D03*
X114000000Y-109250000D03*
X115100000Y-84300000D03*
X118000000Y-104000000D03*
X117600000Y-76100000D03*
X115300000Y-81700000D03*
X116200000Y-76000000D03*
X103000000Y-73500000D03*
%TO.N,Vsense*%
X101750000Y-92750000D03*
X98000000Y-91750000D03*
%TD*%
D28*
%TO.N,Vsense*%
X103000000Y-92750000D02*
X103250000Y-92500000D01*
X101750000Y-92750000D02*
X103000000Y-92750000D01*
X111000000Y-98300000D02*
X109040000Y-96340000D01*
X111000000Y-99490000D02*
X111000000Y-98300000D01*
D29*
%TO.N,GND*%
X96988000Y-99127000D02*
X97265000Y-98850000D01*
X97265000Y-97634943D02*
X97900000Y-96999943D01*
X96988000Y-100750000D02*
X96988000Y-99127000D01*
X97265000Y-98850000D02*
X97265000Y-97634943D01*
D28*
%TO.N,Net-(U1-BOOT)*%
X99805000Y-93450000D02*
X100950000Y-93450000D01*
X101750000Y-94250000D02*
X101750000Y-95738000D01*
X100950000Y-93450000D02*
X101750000Y-94250000D01*
%TO.N,Net-(D3-K)*%
X101750000Y-97262000D02*
X101750000Y-100000000D01*
%TO.N,Net-(LED3-A)*%
X113000000Y-103240000D02*
X113000000Y-101625000D01*
%TO.N,Vsense*%
X96250000Y-91750000D02*
X98000000Y-91750000D01*
X95995000Y-92005000D02*
X96250000Y-91750000D01*
X96250000Y-89750000D02*
X96250000Y-91750000D01*
X95995000Y-93450000D02*
X95995000Y-92005000D01*
%TD*%
%TA.AperFunction,Conductor*%
%TO.N,+V_SW*%
G36*
X98947539Y-98145184D02*
G01*
X98993294Y-98197988D01*
X99004500Y-98249499D01*
X99004500Y-99636530D01*
X99014736Y-99721783D01*
X99068236Y-99857449D01*
X99156352Y-99973647D01*
X99200925Y-100007447D01*
X99242448Y-100063639D01*
X99250000Y-100106251D01*
X99250000Y-104266127D01*
X99230315Y-104333166D01*
X99177511Y-104378921D01*
X99108353Y-104388865D01*
X99060904Y-104371666D01*
X98969340Y-104315189D01*
X98969335Y-104315187D01*
X98969334Y-104315186D01*
X98802797Y-104260001D01*
X98802795Y-104260000D01*
X98700010Y-104249500D01*
X97299998Y-104249500D01*
X97299981Y-104249501D01*
X97197203Y-104260000D01*
X97197200Y-104260001D01*
X97030668Y-104315185D01*
X97030663Y-104315187D01*
X96881342Y-104407289D01*
X96824951Y-104463681D01*
X96763628Y-104497166D01*
X96737270Y-104500000D01*
X96000000Y-104500000D01*
X93781239Y-105979174D01*
X93714540Y-105999982D01*
X93712456Y-106000000D01*
X92728041Y-106000000D01*
X92708642Y-105998473D01*
X92639365Y-105987500D01*
X92639361Y-105987500D01*
X92440639Y-105987500D01*
X92440635Y-105987500D01*
X92371358Y-105998473D01*
X92351959Y-106000000D01*
X90188041Y-106000000D01*
X90168642Y-105998473D01*
X90099365Y-105987500D01*
X90099361Y-105987500D01*
X89900639Y-105987500D01*
X89900635Y-105987500D01*
X89831358Y-105998473D01*
X89811959Y-106000000D01*
X88750000Y-106000000D01*
X88750000Y-107061959D01*
X88748473Y-107081358D01*
X88737500Y-107150634D01*
X88737500Y-107349360D01*
X88748473Y-107418640D01*
X88750000Y-107438038D01*
X88750000Y-108626000D01*
X88730315Y-108693039D01*
X88677511Y-108738794D01*
X88626000Y-108750000D01*
X86124000Y-108750000D01*
X86056961Y-108730315D01*
X86011206Y-108677511D01*
X86000000Y-108626000D01*
X86000000Y-99374000D01*
X86019685Y-99306961D01*
X86072489Y-99261206D01*
X86124000Y-99250000D01*
X95070501Y-99250000D01*
X95137540Y-99269685D01*
X95183295Y-99322489D01*
X95194500Y-99373999D01*
X95194501Y-99636536D01*
X95199482Y-99678021D01*
X95204736Y-99721783D01*
X95258236Y-99857449D01*
X95346352Y-99973647D01*
X95462550Y-100061763D01*
X95462551Y-100061763D01*
X95462552Y-100061764D01*
X95598215Y-100115263D01*
X95683463Y-100125500D01*
X95913500Y-100125499D01*
X95980539Y-100145183D01*
X96026294Y-100197987D01*
X96037500Y-100249499D01*
X96037500Y-101247870D01*
X96037501Y-101247876D01*
X96043908Y-101307483D01*
X96094202Y-101442328D01*
X96094206Y-101442335D01*
X96180452Y-101557544D01*
X96180455Y-101557547D01*
X96295664Y-101643793D01*
X96295671Y-101643797D01*
X96430517Y-101694091D01*
X96430516Y-101694091D01*
X96437444Y-101694835D01*
X96490127Y-101700500D01*
X97485872Y-101700499D01*
X97545483Y-101694091D01*
X97680331Y-101643796D01*
X97795546Y-101557546D01*
X97881796Y-101442331D01*
X97932091Y-101307483D01*
X97938500Y-101247873D01*
X97938499Y-100252128D01*
X97932091Y-100192517D01*
X97914437Y-100145183D01*
X97895127Y-100093410D01*
X97890143Y-100023718D01*
X97912506Y-99975151D01*
X98001763Y-99857449D01*
X98001762Y-99857449D01*
X98001764Y-99857448D01*
X98055263Y-99721785D01*
X98065500Y-99636537D01*
X98065499Y-98249498D01*
X98085184Y-98182460D01*
X98137987Y-98136705D01*
X98189499Y-98125499D01*
X98880500Y-98125499D01*
X98947539Y-98145184D01*
G37*
%TD.AperFunction*%
%TD*%
%TA.AperFunction,Conductor*%
%TO.N,+12V*%
G36*
X85437539Y-106019685D02*
G01*
X85483294Y-106072489D01*
X85494500Y-106124000D01*
X85494500Y-108626000D01*
X85494501Y-108626009D01*
X85506052Y-108733450D01*
X85506054Y-108733462D01*
X85517260Y-108784972D01*
X85551383Y-108887497D01*
X85551386Y-108887503D01*
X85629171Y-109008537D01*
X85629179Y-109008548D01*
X85674923Y-109061340D01*
X85674926Y-109061343D01*
X85674930Y-109061347D01*
X85783664Y-109155567D01*
X85783667Y-109155568D01*
X85783668Y-109155569D01*
X85877925Y-109198616D01*
X85914541Y-109215338D01*
X85981580Y-109235023D01*
X85981584Y-109235024D01*
X86124000Y-109255500D01*
X86124003Y-109255500D01*
X88625990Y-109255500D01*
X88626000Y-109255500D01*
X88733456Y-109243947D01*
X88784967Y-109232741D01*
X88820780Y-109220821D01*
X88887497Y-109198616D01*
X88887501Y-109198613D01*
X88887504Y-109198613D01*
X89008543Y-109120825D01*
X89061347Y-109075070D01*
X89155567Y-108966336D01*
X89215338Y-108835459D01*
X89235023Y-108768420D01*
X89235024Y-108768416D01*
X89255500Y-108626000D01*
X89255500Y-107438038D01*
X89253941Y-107398368D01*
X89252414Y-107378970D01*
X89247749Y-107339561D01*
X89247749Y-107339560D01*
X89244527Y-107319217D01*
X89243000Y-107299819D01*
X89243000Y-107200181D01*
X89244527Y-107180781D01*
X89247750Y-107160432D01*
X89252412Y-107121042D01*
X89252414Y-107121026D01*
X89253941Y-107101627D01*
X89255500Y-107061959D01*
X89255500Y-106629500D01*
X89275185Y-106562461D01*
X89327989Y-106516706D01*
X89379500Y-106505500D01*
X89811969Y-106505500D01*
X89851609Y-106503942D01*
X89851616Y-106503941D01*
X89851627Y-106503941D01*
X89871026Y-106502414D01*
X89910440Y-106497749D01*
X89930782Y-106494527D01*
X89950181Y-106493000D01*
X90049824Y-106493000D01*
X90069221Y-106494526D01*
X90089565Y-106497749D01*
X90118907Y-106501222D01*
X90128963Y-106502413D01*
X90128970Y-106502413D01*
X90128974Y-106502414D01*
X90148373Y-106503941D01*
X90148379Y-106503941D01*
X90148389Y-106503942D01*
X90188031Y-106505500D01*
X90188041Y-106505500D01*
X90876000Y-106505500D01*
X90943039Y-106525185D01*
X90988794Y-106577989D01*
X91000000Y-106629500D01*
X91000000Y-112250000D01*
X104876000Y-112250000D01*
X104943039Y-112269685D01*
X104988794Y-112322489D01*
X105000000Y-112374000D01*
X105000000Y-119318373D01*
X104980315Y-119385412D01*
X104927511Y-119431167D01*
X104876237Y-119442373D01*
X82624237Y-119484920D01*
X82557160Y-119465363D01*
X82511304Y-119412647D01*
X82500000Y-119360920D01*
X82500000Y-114484592D01*
X86194681Y-114484592D01*
X86194681Y-116084610D01*
X86194682Y-116084627D01*
X86205181Y-116187405D01*
X86205182Y-116187408D01*
X86256053Y-116340923D01*
X86260367Y-116353943D01*
X86352469Y-116503265D01*
X86476525Y-116627321D01*
X86625847Y-116719423D01*
X86792384Y-116774608D01*
X86895172Y-116785109D01*
X88195189Y-116785108D01*
X88297978Y-116774608D01*
X88464515Y-116719423D01*
X88613837Y-116627321D01*
X88737893Y-116503265D01*
X88829995Y-116353943D01*
X88885180Y-116187406D01*
X88895681Y-116084618D01*
X88895680Y-114484601D01*
X88894349Y-114471575D01*
X99145669Y-114471575D01*
X99145669Y-116071593D01*
X99145670Y-116071610D01*
X99156169Y-116174388D01*
X99156170Y-116174391D01*
X99211354Y-116340923D01*
X99211355Y-116340926D01*
X99303457Y-116490248D01*
X99427513Y-116614304D01*
X99576835Y-116706406D01*
X99743372Y-116761591D01*
X99846160Y-116772092D01*
X101146177Y-116772091D01*
X101248966Y-116761591D01*
X101415503Y-116706406D01*
X101564825Y-116614304D01*
X101688881Y-116490248D01*
X101780983Y-116340926D01*
X101836168Y-116174389D01*
X101846669Y-116071601D01*
X101846668Y-114471584D01*
X101836168Y-114368795D01*
X101780983Y-114202258D01*
X101688881Y-114052936D01*
X101564825Y-113928880D01*
X101436607Y-113849795D01*
X101415505Y-113836779D01*
X101415500Y-113836777D01*
X101414031Y-113836290D01*
X101248966Y-113781593D01*
X101248964Y-113781592D01*
X101146179Y-113771092D01*
X99846167Y-113771092D01*
X99846150Y-113771093D01*
X99743372Y-113781592D01*
X99743369Y-113781593D01*
X99576837Y-113836777D01*
X99576832Y-113836779D01*
X99427511Y-113928881D01*
X99303458Y-114052934D01*
X99211356Y-114202255D01*
X99211354Y-114202260D01*
X99207041Y-114215277D01*
X99156170Y-114368795D01*
X99156170Y-114368796D01*
X99156169Y-114368796D01*
X99145669Y-114471575D01*
X88894349Y-114471575D01*
X88885180Y-114381812D01*
X88829995Y-114215275D01*
X88737893Y-114065953D01*
X88613837Y-113941897D01*
X88464515Y-113849795D01*
X88297978Y-113794610D01*
X88297976Y-113794609D01*
X88195191Y-113784109D01*
X86895179Y-113784109D01*
X86895162Y-113784110D01*
X86792384Y-113794609D01*
X86792381Y-113794610D01*
X86625849Y-113849794D01*
X86625844Y-113849796D01*
X86476523Y-113941898D01*
X86352470Y-114065951D01*
X86260368Y-114215272D01*
X86260367Y-114215275D01*
X86205182Y-114381812D01*
X86205182Y-114381813D01*
X86205181Y-114381813D01*
X86194681Y-114484592D01*
X82500000Y-114484592D01*
X82500000Y-106124000D01*
X82519685Y-106056961D01*
X82572489Y-106011206D01*
X82624000Y-106000000D01*
X85370500Y-106000000D01*
X85437539Y-106019685D01*
G37*
%TD.AperFunction*%
%TD*%
%TA.AperFunction,Conductor*%
%TO.N,GND*%
G36*
X101390822Y-53945415D02*
G01*
X144723188Y-78929842D01*
X144771433Y-78980381D01*
X144784695Y-79048980D01*
X144770282Y-79096324D01*
X126863969Y-112154131D01*
X126863159Y-112155629D01*
X126833608Y-112206814D01*
X126831819Y-112213487D01*
X126828531Y-112219558D01*
X126828531Y-112219559D01*
X126815178Y-112275421D01*
X126814361Y-112278641D01*
X126799500Y-112334104D01*
X126799500Y-112334108D01*
X126799500Y-112341013D01*
X126797894Y-112347732D01*
X126799500Y-112406812D01*
X126799500Y-119276692D01*
X126779815Y-119343731D01*
X126727011Y-119389486D01*
X126675737Y-119400692D01*
X105629737Y-119440933D01*
X105562660Y-119421376D01*
X105516804Y-119368660D01*
X105505500Y-119316933D01*
X105505500Y-116400678D01*
X108488000Y-116400678D01*
X108488000Y-116599321D01*
X108519075Y-116795520D01*
X108519075Y-116795523D01*
X108580457Y-116984437D01*
X108670641Y-117161432D01*
X108697730Y-117198715D01*
X108697731Y-117198716D01*
X109369000Y-116527447D01*
X109369000Y-116550160D01*
X109394964Y-116647061D01*
X109445124Y-116733940D01*
X109516060Y-116804876D01*
X109602939Y-116855036D01*
X109699840Y-116881000D01*
X109722553Y-116881000D01*
X109051283Y-117552268D01*
X109051283Y-117552269D01*
X109088567Y-117579358D01*
X109265562Y-117669542D01*
X109454477Y-117730924D01*
X109650679Y-117762000D01*
X109849321Y-117762000D01*
X110045520Y-117730924D01*
X110045523Y-117730924D01*
X110234437Y-117669542D01*
X110411425Y-117579362D01*
X110448716Y-117552268D01*
X109777448Y-116881000D01*
X109800160Y-116881000D01*
X109897061Y-116855036D01*
X109983940Y-116804876D01*
X110054876Y-116733940D01*
X110105036Y-116647061D01*
X110131000Y-116550160D01*
X110131000Y-116527447D01*
X110802268Y-117198715D01*
X110829362Y-117161425D01*
X110919542Y-116984437D01*
X110980924Y-116795523D01*
X110980924Y-116795520D01*
X111012000Y-116599321D01*
X111012000Y-116400678D01*
X110980924Y-116204479D01*
X110980924Y-116204476D01*
X110934946Y-116062971D01*
X110934945Y-116062969D01*
X110923814Y-116028711D01*
X120774500Y-116028711D01*
X120774500Y-116271288D01*
X120806161Y-116511785D01*
X120868947Y-116746104D01*
X120924823Y-116881000D01*
X120961776Y-116970212D01*
X121083064Y-117180289D01*
X121083066Y-117180292D01*
X121083067Y-117180293D01*
X121230733Y-117372736D01*
X121230739Y-117372743D01*
X121402256Y-117544260D01*
X121402263Y-117544266D01*
X121412693Y-117552269D01*
X121594711Y-117691936D01*
X121804788Y-117813224D01*
X122028900Y-117906054D01*
X122263211Y-117968838D01*
X122443586Y-117992584D01*
X122503711Y-118000500D01*
X122503712Y-118000500D01*
X122746289Y-118000500D01*
X122794388Y-117994167D01*
X122986789Y-117968838D01*
X123221100Y-117906054D01*
X123445212Y-117813224D01*
X123655289Y-117691936D01*
X123847738Y-117544265D01*
X124019265Y-117372738D01*
X124166936Y-117180289D01*
X124288224Y-116970212D01*
X124381054Y-116746100D01*
X124443838Y-116511789D01*
X124475500Y-116271288D01*
X124475500Y-116028712D01*
X124443838Y-115788211D01*
X124381054Y-115553900D01*
X124288224Y-115329788D01*
X124166936Y-115119711D01*
X124019265Y-114927262D01*
X124019260Y-114927256D01*
X123847743Y-114755739D01*
X123847736Y-114755733D01*
X123655293Y-114608067D01*
X123655292Y-114608066D01*
X123655289Y-114608064D01*
X123445212Y-114486776D01*
X123445205Y-114486773D01*
X123221104Y-114393947D01*
X122986785Y-114331161D01*
X122746289Y-114299500D01*
X122746288Y-114299500D01*
X122503712Y-114299500D01*
X122503711Y-114299500D01*
X122263214Y-114331161D01*
X122028895Y-114393947D01*
X121804794Y-114486773D01*
X121804785Y-114486777D01*
X121594706Y-114608067D01*
X121402263Y-114755733D01*
X121402256Y-114755739D01*
X121230739Y-114927256D01*
X121230733Y-114927263D01*
X121083067Y-115119706D01*
X120961777Y-115329785D01*
X120961773Y-115329794D01*
X120868947Y-115553895D01*
X120806161Y-115788214D01*
X120774500Y-116028711D01*
X110923814Y-116028711D01*
X110919543Y-116015564D01*
X110829358Y-115838567D01*
X110802268Y-115801283D01*
X110131000Y-116472551D01*
X110131000Y-116449840D01*
X110105036Y-116352939D01*
X110054876Y-116266060D01*
X109983940Y-116195124D01*
X109897061Y-116144964D01*
X109800160Y-116119000D01*
X109777447Y-116119000D01*
X110448716Y-115447731D01*
X110448715Y-115447730D01*
X110411432Y-115420641D01*
X110234437Y-115330457D01*
X110045522Y-115269075D01*
X109849321Y-115238000D01*
X109650679Y-115238000D01*
X109454479Y-115269075D01*
X109454476Y-115269075D01*
X109265562Y-115330457D01*
X109088564Y-115420643D01*
X109051283Y-115447729D01*
X109051282Y-115447730D01*
X109722554Y-116119000D01*
X109699840Y-116119000D01*
X109602939Y-116144964D01*
X109516060Y-116195124D01*
X109445124Y-116266060D01*
X109394964Y-116352939D01*
X109369000Y-116449840D01*
X109369000Y-116472552D01*
X108697730Y-115801282D01*
X108697729Y-115801283D01*
X108670643Y-115838564D01*
X108580457Y-116015562D01*
X108519075Y-116204476D01*
X108519075Y-116204479D01*
X108488000Y-116400678D01*
X105505500Y-116400678D01*
X105505500Y-112374010D01*
X105505500Y-112374000D01*
X105493947Y-112266544D01*
X105482741Y-112215033D01*
X105480005Y-112206814D01*
X105448616Y-112112502D01*
X105448613Y-112112496D01*
X105370828Y-111991462D01*
X105370825Y-111991457D01*
X105370820Y-111991451D01*
X105325076Y-111938659D01*
X105325072Y-111938656D01*
X105325070Y-111938653D01*
X105216336Y-111844433D01*
X105216333Y-111844431D01*
X105216331Y-111844430D01*
X105085465Y-111784664D01*
X105085460Y-111784662D01*
X105085459Y-111784662D01*
X105018420Y-111764977D01*
X105018422Y-111764977D01*
X105018417Y-111764976D01*
X104970944Y-111758150D01*
X104876000Y-111744500D01*
X104875998Y-111744500D01*
X99265523Y-111744500D01*
X99198484Y-111724815D01*
X99152729Y-111672011D01*
X99142785Y-111602853D01*
X99171810Y-111539297D01*
X99177842Y-111532819D01*
X99242315Y-111468345D01*
X99334356Y-111319124D01*
X99334358Y-111319119D01*
X99389505Y-111152697D01*
X99389506Y-111152690D01*
X99399999Y-111049986D01*
X99400000Y-111049973D01*
X99400000Y-110250000D01*
X96600001Y-110250000D01*
X96600001Y-111049986D01*
X96610494Y-111152697D01*
X96665641Y-111319119D01*
X96665643Y-111319124D01*
X96757684Y-111468345D01*
X96822158Y-111532819D01*
X96855643Y-111594142D01*
X96850659Y-111663834D01*
X96808787Y-111719767D01*
X96743323Y-111744184D01*
X96734477Y-111744500D01*
X91629500Y-111744500D01*
X91562461Y-111724815D01*
X91516706Y-111672011D01*
X91505500Y-111620500D01*
X91505500Y-108300307D01*
X91525185Y-108233268D01*
X91577989Y-108187513D01*
X91647147Y-108177569D01*
X91710703Y-108206594D01*
X91717181Y-108212626D01*
X91717536Y-108212981D01*
X91878306Y-108329787D01*
X91965149Y-108374035D01*
X92055367Y-108420005D01*
X92055370Y-108420006D01*
X92143320Y-108448582D01*
X92244364Y-108481413D01*
X92440639Y-108512500D01*
X92440640Y-108512500D01*
X92639360Y-108512500D01*
X92639361Y-108512500D01*
X92835636Y-108481413D01*
X93024632Y-108420005D01*
X93201694Y-108329787D01*
X93362464Y-108212981D01*
X93502981Y-108072464D01*
X93619787Y-107911694D01*
X93710005Y-107734632D01*
X93771413Y-107545636D01*
X93802500Y-107349361D01*
X93802500Y-107150639D01*
X93771413Y-106954364D01*
X93740709Y-106859866D01*
X93710006Y-106765370D01*
X93710005Y-106765367D01*
X93665856Y-106678721D01*
X93661474Y-106655392D01*
X93652818Y-106633294D01*
X93655144Y-106621686D01*
X93652960Y-106610052D01*
X93661885Y-106588060D01*
X93666551Y-106564787D01*
X93674783Y-106556280D01*
X93679236Y-106545311D01*
X93698637Y-106531634D01*
X93715142Y-106514581D01*
X93730466Y-106509196D01*
X93736343Y-106505054D01*
X93748004Y-106501707D01*
X93752282Y-106500702D01*
X93865084Y-106482545D01*
X93931783Y-106461737D01*
X93931785Y-106461736D01*
X94061640Y-106399775D01*
X95301717Y-105573055D01*
X95368416Y-105552248D01*
X95435777Y-105570803D01*
X95482413Y-105622830D01*
X95494500Y-105676230D01*
X95494500Y-107903193D01*
X95496623Y-107949472D01*
X95497261Y-107956405D01*
X95498704Y-107972094D01*
X95502814Y-108001781D01*
X95505060Y-108018002D01*
X95505061Y-108018007D01*
X95550193Y-108151410D01*
X95551169Y-108154294D01*
X95582751Y-108216618D01*
X95665387Y-108334395D01*
X95777860Y-108424124D01*
X95777864Y-108424126D01*
X95777865Y-108424127D01*
X95838127Y-108459483D01*
X95839840Y-108460260D01*
X95841912Y-108461028D01*
X95891816Y-108481412D01*
X95971323Y-108513888D01*
X96072474Y-108539175D01*
X96533951Y-108654544D01*
X96594212Y-108689899D01*
X96625794Y-108752224D01*
X96621581Y-108813842D01*
X96610494Y-108847302D01*
X96600000Y-108950013D01*
X96600000Y-109750000D01*
X99399999Y-109750000D01*
X99399999Y-109529872D01*
X99419684Y-109462833D01*
X99472488Y-109417078D01*
X99541646Y-109407134D01*
X99554042Y-109409567D01*
X99862589Y-109486705D01*
X99923435Y-109498011D01*
X99953510Y-109501713D01*
X100015255Y-109505499D01*
X100015258Y-109505500D01*
X100015267Y-109505500D01*
X103875990Y-109505500D01*
X103876000Y-109505500D01*
X103983456Y-109493947D01*
X104034967Y-109482741D01*
X104069197Y-109471347D01*
X104137497Y-109448616D01*
X104137501Y-109448613D01*
X104137504Y-109448613D01*
X104258543Y-109370825D01*
X104311347Y-109325070D01*
X104405567Y-109216336D01*
X104465338Y-109085459D01*
X104485023Y-109018420D01*
X104485024Y-109018416D01*
X104505500Y-108876000D01*
X104505500Y-98765883D01*
X105050000Y-98765883D01*
X105050000Y-98994116D01*
X105085704Y-99219544D01*
X105156230Y-99436604D01*
X105259851Y-99639969D01*
X105313135Y-99713309D01*
X105313137Y-99713309D01*
X106100000Y-98926446D01*
X106100000Y-98932661D01*
X106127259Y-99034394D01*
X106179920Y-99125606D01*
X106254394Y-99200080D01*
X106345606Y-99252741D01*
X106447339Y-99280000D01*
X106453553Y-99280000D01*
X105666688Y-100066862D01*
X105666689Y-100066863D01*
X105740030Y-100120148D01*
X105943395Y-100223769D01*
X106160455Y-100294295D01*
X106385884Y-100330000D01*
X106614116Y-100330000D01*
X106839544Y-100294295D01*
X107056604Y-100223769D01*
X107259966Y-100120150D01*
X107333309Y-100066862D01*
X107333310Y-100066862D01*
X106546447Y-99280000D01*
X106552661Y-99280000D01*
X106654394Y-99252741D01*
X106745606Y-99200080D01*
X106820080Y-99125606D01*
X106872741Y-99034394D01*
X106900000Y-98932661D01*
X106900000Y-98926448D01*
X107686862Y-99713310D01*
X107686862Y-99713309D01*
X107740150Y-99639966D01*
X107843769Y-99436604D01*
X107914295Y-99219544D01*
X107950000Y-98994116D01*
X107950000Y-98765883D01*
X107914295Y-98540455D01*
X107843769Y-98323395D01*
X107740148Y-98120030D01*
X107686863Y-98046689D01*
X107686862Y-98046688D01*
X106900000Y-98833551D01*
X106900000Y-98827339D01*
X106872741Y-98725606D01*
X106820080Y-98634394D01*
X106745606Y-98559920D01*
X106654394Y-98507259D01*
X106552661Y-98480000D01*
X106546446Y-98480000D01*
X107333309Y-97693137D01*
X107333309Y-97693135D01*
X107259969Y-97639851D01*
X107056604Y-97536230D01*
X106839544Y-97465704D01*
X106614116Y-97430000D01*
X106385884Y-97430000D01*
X106160455Y-97465704D01*
X105943395Y-97536230D01*
X105740035Y-97639848D01*
X105740033Y-97639849D01*
X105666689Y-97693135D01*
X105666689Y-97693136D01*
X106453554Y-98480000D01*
X106447339Y-98480000D01*
X106345606Y-98507259D01*
X106254394Y-98559920D01*
X106179920Y-98634394D01*
X106127259Y-98725606D01*
X106100000Y-98827339D01*
X106100000Y-98833553D01*
X105313136Y-98046689D01*
X105313135Y-98046689D01*
X105259849Y-98120033D01*
X105259848Y-98120035D01*
X105156230Y-98323395D01*
X105085704Y-98540455D01*
X105050000Y-98765883D01*
X104505500Y-98765883D01*
X104505500Y-98124000D01*
X104493947Y-98016544D01*
X104482741Y-97965033D01*
X104471508Y-97931284D01*
X104448616Y-97862502D01*
X104445267Y-97855503D01*
X104448289Y-97854056D01*
X104432871Y-97801673D01*
X104452512Y-97734621D01*
X104501576Y-97690604D01*
X104509809Y-97686502D01*
X104516799Y-97684231D01*
X104720228Y-97580579D01*
X104904937Y-97446379D01*
X105066379Y-97284937D01*
X105200579Y-97100228D01*
X105304231Y-96896799D01*
X105374784Y-96679660D01*
X105392205Y-96569669D01*
X105410500Y-96454162D01*
X105410500Y-96225837D01*
X107589500Y-96225837D01*
X107589500Y-96454162D01*
X107625215Y-96679660D01*
X107695770Y-96896803D01*
X107767339Y-97037264D01*
X107799421Y-97100228D01*
X107933621Y-97284937D01*
X108095063Y-97446379D01*
X108279772Y-97580579D01*
X108321735Y-97601960D01*
X108483196Y-97684229D01*
X108483198Y-97684229D01*
X108483201Y-97684231D01*
X108595973Y-97720873D01*
X108700339Y-97754784D01*
X108925838Y-97790500D01*
X108925843Y-97790500D01*
X109154162Y-97790500D01*
X109256658Y-97774265D01*
X109379660Y-97754784D01*
X109477886Y-97722867D01*
X109547724Y-97720873D01*
X109603883Y-97753118D01*
X110363181Y-98512416D01*
X110377884Y-98539343D01*
X110394477Y-98565162D01*
X110395368Y-98571362D01*
X110396666Y-98573739D01*
X110399500Y-98600097D01*
X110399500Y-98776357D01*
X110383603Y-98837100D01*
X110327110Y-98937640D01*
X110313244Y-98955932D01*
X110313643Y-98956241D01*
X110308865Y-98962400D01*
X110227131Y-99100605D01*
X110227129Y-99100611D01*
X110182335Y-99254791D01*
X110182334Y-99254797D01*
X110179500Y-99290811D01*
X110179500Y-99370500D01*
X110159815Y-99437539D01*
X110107011Y-99483294D01*
X110055500Y-99494500D01*
X108624000Y-99494500D01*
X108623991Y-99494500D01*
X108623990Y-99494501D01*
X108516549Y-99506052D01*
X108516537Y-99506054D01*
X108465027Y-99517260D01*
X108362502Y-99551383D01*
X108362496Y-99551386D01*
X108241462Y-99629171D01*
X108241451Y-99629179D01*
X108188659Y-99674923D01*
X108094433Y-99783664D01*
X108094430Y-99783668D01*
X108034664Y-99914534D01*
X108014976Y-99981582D01*
X108009949Y-100016549D01*
X107994502Y-100123990D01*
X107994500Y-100124001D01*
X107994500Y-108156463D01*
X107995921Y-108194366D01*
X107997315Y-108212901D01*
X108001577Y-108250596D01*
X108001577Y-108250598D01*
X108001578Y-108250600D01*
X108043120Y-108388352D01*
X108071169Y-108448604D01*
X108072002Y-108450531D01*
X108072611Y-108451702D01*
X108151281Y-108572168D01*
X108151281Y-108572169D01*
X108260698Y-108665587D01*
X108260701Y-108665589D01*
X108260704Y-108665591D01*
X108319757Y-108702935D01*
X108451063Y-108761745D01*
X108850947Y-108875997D01*
X108935973Y-108900290D01*
X108976219Y-108920253D01*
X109007665Y-108943793D01*
X109007669Y-108943796D01*
X109142517Y-108994091D01*
X109202127Y-109000500D01*
X109269338Y-109000499D01*
X109303403Y-109005269D01*
X118703063Y-111690888D01*
X118736281Y-111699173D01*
X118752699Y-111702682D01*
X118752705Y-111702683D01*
X118786405Y-111708700D01*
X118786406Y-111708700D01*
X118786417Y-111708702D01*
X118930297Y-111708701D01*
X118999455Y-111698757D01*
X119137504Y-111658222D01*
X119258543Y-111580434D01*
X119311347Y-111534679D01*
X119405567Y-111425945D01*
X119465338Y-111295068D01*
X119485023Y-111228029D01*
X119485024Y-111228025D01*
X119505500Y-111085609D01*
X119505500Y-106438833D01*
X122689791Y-106438833D01*
X122694889Y-106614085D01*
X122740269Y-106783440D01*
X122823477Y-106937757D01*
X122940031Y-107068729D01*
X122940030Y-107068729D01*
X123023741Y-107129177D01*
X123500036Y-107404165D01*
X123500037Y-107404165D01*
X123958530Y-106610030D01*
X123991444Y-106667039D01*
X124084536Y-106760131D01*
X124198550Y-106825957D01*
X124325717Y-106860032D01*
X124391541Y-106860032D01*
X123933049Y-107654164D01*
X123933049Y-107654165D01*
X124409341Y-107929151D01*
X124409361Y-107929161D01*
X124503547Y-107971425D01*
X124675249Y-108006879D01*
X124850500Y-108001781D01*
X125019847Y-107956405D01*
X125174169Y-107873194D01*
X125305144Y-107756639D01*
X125365595Y-107672925D01*
X125565579Y-107326538D01*
X125565579Y-107326537D01*
X124641543Y-106793043D01*
X124698550Y-106760131D01*
X124791642Y-106667039D01*
X124857468Y-106553025D01*
X124891543Y-106425858D01*
X124891543Y-106360032D01*
X125815579Y-106893524D01*
X125815580Y-106893524D01*
X126015566Y-106547137D01*
X126015576Y-106547117D01*
X126057840Y-106452931D01*
X126093294Y-106281230D01*
X126088196Y-106105978D01*
X126042816Y-105936623D01*
X125956482Y-105776508D01*
X125941991Y-105708157D01*
X125966754Y-105642823D01*
X126022908Y-105601248D01*
X126033515Y-105597887D01*
X126223648Y-105546942D01*
X126417843Y-105460480D01*
X126596122Y-105344704D01*
X126754094Y-105202465D01*
X126887871Y-105037264D01*
X126994158Y-104853170D01*
X127070337Y-104654716D01*
X127114533Y-104446788D01*
X127125658Y-104234506D01*
X127103439Y-104023097D01*
X127048421Y-103817767D01*
X127011667Y-103735217D01*
X126961960Y-103623575D01*
X126961957Y-103623570D01*
X126846185Y-103445296D01*
X126846184Y-103445295D01*
X126846183Y-103445293D01*
X126703944Y-103287320D01*
X126538743Y-103153544D01*
X126351136Y-103045229D01*
X126094845Y-102897259D01*
X126094836Y-102897254D01*
X125896387Y-102821078D01*
X125896390Y-102821078D01*
X125688463Y-102776882D01*
X125688454Y-102776881D01*
X125476182Y-102765757D01*
X125476173Y-102765757D01*
X125264768Y-102787975D01*
X125059441Y-102842992D01*
X125059434Y-102842995D01*
X124865241Y-102929456D01*
X124686966Y-103045229D01*
X124686961Y-103045234D01*
X124528990Y-103187471D01*
X124528988Y-103187472D01*
X124395221Y-103352662D01*
X124395211Y-103352677D01*
X124288930Y-103536761D01*
X124288925Y-103536770D01*
X124212749Y-103735217D01*
X124168553Y-103943143D01*
X124168552Y-103943152D01*
X124157428Y-104155424D01*
X124157428Y-104155433D01*
X124179646Y-104366838D01*
X124230587Y-104556951D01*
X124228924Y-104626801D01*
X124189761Y-104684663D01*
X124125533Y-104712167D01*
X124114419Y-104712992D01*
X123932585Y-104718282D01*
X123763238Y-104763658D01*
X123608916Y-104846869D01*
X123477941Y-104963424D01*
X123417493Y-105047134D01*
X123217505Y-105393524D01*
X123217505Y-105393525D01*
X124141543Y-105927019D01*
X124084536Y-105959933D01*
X123991444Y-106053025D01*
X123925618Y-106167039D01*
X123891543Y-106294206D01*
X123891543Y-106360031D01*
X122967505Y-105826538D01*
X122967504Y-105826538D01*
X122767521Y-106172921D01*
X122767514Y-106172935D01*
X122725245Y-106267132D01*
X122689791Y-106438833D01*
X119505500Y-106438833D01*
X119505500Y-100124000D01*
X119493947Y-100016544D01*
X119482741Y-99965033D01*
X119470802Y-99929161D01*
X119448616Y-99862502D01*
X119448613Y-99862496D01*
X119416350Y-99812294D01*
X119370825Y-99741457D01*
X119370824Y-99741456D01*
X119370821Y-99741451D01*
X119350368Y-99717847D01*
X119350367Y-99717846D01*
X119325077Y-99688659D01*
X119285268Y-99654164D01*
X119216336Y-99594433D01*
X119216333Y-99594431D01*
X119216331Y-99594430D01*
X119085465Y-99534664D01*
X119085460Y-99534662D01*
X119085459Y-99534662D01*
X119018420Y-99514977D01*
X119018422Y-99514977D01*
X119018417Y-99514976D01*
X118956347Y-99506052D01*
X118876000Y-99494500D01*
X114099500Y-99494500D01*
X114099492Y-99494500D01*
X114099488Y-99494501D01*
X114087084Y-99495834D01*
X114018325Y-99483424D01*
X113967191Y-99435811D01*
X113956131Y-99411547D01*
X113910454Y-99273701D01*
X113910448Y-99273688D01*
X113819947Y-99126965D01*
X113819944Y-99126961D01*
X113698038Y-99005055D01*
X113698034Y-99005052D01*
X113551311Y-98914551D01*
X113551300Y-98914546D01*
X113387652Y-98860319D01*
X113286654Y-98850000D01*
X113250000Y-98850000D01*
X113250000Y-99751000D01*
X113230315Y-99818039D01*
X113177511Y-99863794D01*
X113126000Y-99875000D01*
X112874000Y-99875000D01*
X112806961Y-99855315D01*
X112761206Y-99802511D01*
X112750000Y-99751000D01*
X112750000Y-98850000D01*
X112713361Y-98850000D01*
X112713343Y-98850001D01*
X112612347Y-98860319D01*
X112448699Y-98914546D01*
X112448688Y-98914551D01*
X112301965Y-99005052D01*
X112301961Y-99005055D01*
X112180055Y-99126961D01*
X112180052Y-99126965D01*
X112089551Y-99273688D01*
X112089546Y-99273699D01*
X112062205Y-99356210D01*
X112022432Y-99413655D01*
X111957916Y-99440478D01*
X111889140Y-99428163D01*
X111837941Y-99380620D01*
X111820499Y-99317206D01*
X111820499Y-99290830D01*
X111820498Y-99290807D01*
X111819151Y-99273688D01*
X111817665Y-99254796D01*
X111772869Y-99100607D01*
X111691135Y-98962402D01*
X111691132Y-98962399D01*
X111686352Y-98956236D01*
X111686751Y-98955926D01*
X111672882Y-98937631D01*
X111616396Y-98837100D01*
X111600500Y-98776359D01*
X111600500Y-98438833D01*
X127439791Y-98438833D01*
X127444889Y-98614085D01*
X127490269Y-98783440D01*
X127573477Y-98937757D01*
X127690031Y-99068729D01*
X127690030Y-99068729D01*
X127773741Y-99129177D01*
X128250036Y-99404165D01*
X128250037Y-99404165D01*
X128708530Y-98610030D01*
X128741444Y-98667039D01*
X128834536Y-98760131D01*
X128948550Y-98825957D01*
X129075717Y-98860032D01*
X129141541Y-98860032D01*
X128683049Y-99654164D01*
X128683049Y-99654165D01*
X129159341Y-99929151D01*
X129159361Y-99929161D01*
X129253547Y-99971425D01*
X129425249Y-100006879D01*
X129600500Y-100001781D01*
X129769847Y-99956405D01*
X129924169Y-99873194D01*
X130055144Y-99756639D01*
X130115595Y-99672925D01*
X130315579Y-99326538D01*
X130315579Y-99326537D01*
X129391543Y-98793043D01*
X129448550Y-98760131D01*
X129541642Y-98667039D01*
X129607468Y-98553025D01*
X129641543Y-98425858D01*
X129641543Y-98360032D01*
X130565579Y-98893524D01*
X130565580Y-98893524D01*
X130765566Y-98547137D01*
X130765576Y-98547117D01*
X130807840Y-98452931D01*
X130843294Y-98281230D01*
X130838196Y-98105978D01*
X130792816Y-97936623D01*
X130706482Y-97776508D01*
X130691991Y-97708157D01*
X130716754Y-97642823D01*
X130772908Y-97601248D01*
X130783515Y-97597887D01*
X130973648Y-97546942D01*
X131167843Y-97460480D01*
X131346122Y-97344704D01*
X131504094Y-97202465D01*
X131637871Y-97037264D01*
X131744158Y-96853170D01*
X131745317Y-96850152D01*
X131773058Y-96777883D01*
X131820337Y-96654716D01*
X131864533Y-96446788D01*
X131875658Y-96234506D01*
X131853439Y-96023097D01*
X131798421Y-95817767D01*
X131761667Y-95735217D01*
X131711960Y-95623575D01*
X131711957Y-95623570D01*
X131596185Y-95445296D01*
X131596184Y-95445295D01*
X131596183Y-95445293D01*
X131453944Y-95287320D01*
X131288743Y-95153544D01*
X131186471Y-95094497D01*
X130844845Y-94897259D01*
X130844836Y-94897254D01*
X130646387Y-94821078D01*
X130646390Y-94821078D01*
X130438463Y-94776882D01*
X130438454Y-94776881D01*
X130226182Y-94765757D01*
X130226173Y-94765757D01*
X130014768Y-94787975D01*
X129809441Y-94842992D01*
X129809434Y-94842995D01*
X129615241Y-94929456D01*
X129436966Y-95045229D01*
X129436961Y-95045234D01*
X129278990Y-95187471D01*
X129278988Y-95187472D01*
X129145221Y-95352662D01*
X129145211Y-95352677D01*
X129038930Y-95536761D01*
X129038925Y-95536770D01*
X128962749Y-95735217D01*
X128918553Y-95943143D01*
X128918552Y-95943152D01*
X128907428Y-96155424D01*
X128907428Y-96155433D01*
X128929646Y-96366838D01*
X128980587Y-96556951D01*
X128978924Y-96626801D01*
X128939761Y-96684663D01*
X128875533Y-96712167D01*
X128864419Y-96712992D01*
X128682585Y-96718282D01*
X128513238Y-96763658D01*
X128358916Y-96846869D01*
X128227941Y-96963424D01*
X128167493Y-97047134D01*
X127967505Y-97393524D01*
X127967505Y-97393525D01*
X128891543Y-97927019D01*
X128834536Y-97959933D01*
X128741444Y-98053025D01*
X128675618Y-98167039D01*
X128641543Y-98294206D01*
X128641543Y-98360031D01*
X127717505Y-97826538D01*
X127717504Y-97826538D01*
X127517521Y-98172921D01*
X127517514Y-98172935D01*
X127475245Y-98267132D01*
X127439791Y-98438833D01*
X111600500Y-98438833D01*
X111600500Y-98389060D01*
X111600501Y-98389047D01*
X111600501Y-98220944D01*
X111591747Y-98188275D01*
X111559577Y-98068216D01*
X111559573Y-98068209D01*
X111480524Y-97931290D01*
X111480518Y-97931282D01*
X111012923Y-97463687D01*
X110453118Y-96903883D01*
X110419633Y-96842560D01*
X110422867Y-96777886D01*
X110454784Y-96679660D01*
X110474265Y-96556658D01*
X110490500Y-96454162D01*
X110490500Y-96225837D01*
X110454784Y-96000339D01*
X110384229Y-95783196D01*
X110329550Y-95675884D01*
X110280579Y-95579772D01*
X110146379Y-95395063D01*
X109984937Y-95233621D01*
X109800228Y-95099421D01*
X109771187Y-95084624D01*
X109596803Y-94995770D01*
X109379660Y-94925215D01*
X109154162Y-94889500D01*
X109154157Y-94889500D01*
X108925843Y-94889500D01*
X108925838Y-94889500D01*
X108700339Y-94925215D01*
X108483196Y-94995770D01*
X108279771Y-95099421D01*
X108095061Y-95233622D01*
X107933622Y-95395061D01*
X107799421Y-95579771D01*
X107695770Y-95783196D01*
X107625215Y-96000339D01*
X107589500Y-96225837D01*
X105410500Y-96225837D01*
X105374784Y-96000339D01*
X105304229Y-95783196D01*
X105249550Y-95675884D01*
X105200579Y-95579772D01*
X105066379Y-95395063D01*
X104904937Y-95233621D01*
X104720228Y-95099421D01*
X104691187Y-95084624D01*
X104516803Y-94995770D01*
X104299660Y-94925215D01*
X104074162Y-94889500D01*
X104074157Y-94889500D01*
X103845843Y-94889500D01*
X103845838Y-94889500D01*
X103620339Y-94925215D01*
X103403196Y-94995770D01*
X103199771Y-95099421D01*
X103015061Y-95233622D01*
X103015060Y-95233623D01*
X102912180Y-95336504D01*
X102850857Y-95369989D01*
X102781165Y-95365005D01*
X102725232Y-95323133D01*
X102702580Y-95271444D01*
X102700499Y-95260228D01*
X102700499Y-95240128D01*
X102694091Y-95180517D01*
X102680419Y-95143863D01*
X102663955Y-95094497D01*
X102663291Y-95093332D01*
X102654824Y-95075238D01*
X102643796Y-95045669D01*
X102616164Y-95008758D01*
X102607721Y-94995881D01*
X102607657Y-94995769D01*
X102592683Y-94969509D01*
X102592682Y-94969507D01*
X102376620Y-94691711D01*
X102351000Y-94626708D01*
X102350500Y-94615583D01*
X102350500Y-94339059D01*
X102350501Y-94339046D01*
X102350501Y-94170945D01*
X102350501Y-94170943D01*
X102309577Y-94018215D01*
X102258946Y-93930520D01*
X102230520Y-93881284D01*
X102118716Y-93769480D01*
X102118715Y-93769479D01*
X102114385Y-93765149D01*
X102114374Y-93765139D01*
X102036354Y-93687119D01*
X102002869Y-93625796D01*
X102007853Y-93556104D01*
X102049725Y-93500171D01*
X102081766Y-93482865D01*
X102260003Y-93418241D01*
X102426358Y-93357926D01*
X102468624Y-93350500D01*
X102913331Y-93350500D01*
X102913347Y-93350501D01*
X102920943Y-93350501D01*
X103079054Y-93350501D01*
X103079057Y-93350501D01*
X103231785Y-93309577D01*
X103231786Y-93309575D01*
X103239635Y-93307473D01*
X103239820Y-93308165D01*
X103278364Y-93300500D01*
X103328844Y-93300500D01*
X103328845Y-93300499D01*
X103483497Y-93269737D01*
X103629179Y-93209394D01*
X103760289Y-93121789D01*
X103871789Y-93010289D01*
X103959394Y-92879179D01*
X104019737Y-92733497D01*
X104050500Y-92578842D01*
X104050500Y-92421158D01*
X104050500Y-92421155D01*
X104050499Y-92421153D01*
X104023219Y-92284008D01*
X104019737Y-92266503D01*
X104014081Y-92252848D01*
X103959397Y-92120827D01*
X103959390Y-92120814D01*
X103871789Y-91989711D01*
X103871786Y-91989707D01*
X103760292Y-91878213D01*
X103760288Y-91878210D01*
X103629185Y-91790609D01*
X103629172Y-91790602D01*
X103534062Y-91751207D01*
X103483501Y-91730264D01*
X103483489Y-91730261D01*
X103328845Y-91699500D01*
X103328842Y-91699500D01*
X103171158Y-91699500D01*
X103171155Y-91699500D01*
X103016510Y-91730261D01*
X103016498Y-91730264D01*
X102870827Y-91790602D01*
X102870814Y-91790609D01*
X102739711Y-91878210D01*
X102739707Y-91878213D01*
X102628213Y-91989707D01*
X102628210Y-91989711D01*
X102560891Y-92090462D01*
X102507279Y-92135267D01*
X102437954Y-92143974D01*
X102415522Y-92138145D01*
X102011490Y-91991652D01*
X102011456Y-91991640D01*
X102007516Y-91990212D01*
X101983497Y-91980263D01*
X101969991Y-91977576D01*
X101958178Y-91973779D01*
X101956520Y-91973312D01*
X101859793Y-91955377D01*
X101855598Y-91954822D01*
X101851292Y-91953965D01*
X101828842Y-91949500D01*
X101671158Y-91949500D01*
X101671155Y-91949500D01*
X101516510Y-91980261D01*
X101516498Y-91980264D01*
X101370827Y-92040602D01*
X101370814Y-92040609D01*
X101239711Y-92128210D01*
X101239707Y-92128213D01*
X101128213Y-92239707D01*
X101128210Y-92239711D01*
X101040609Y-92370814D01*
X101040602Y-92370827D01*
X100980264Y-92516498D01*
X100980261Y-92516510D01*
X100949500Y-92671153D01*
X100949500Y-92725500D01*
X100946949Y-92734185D01*
X100948238Y-92743147D01*
X100937259Y-92767187D01*
X100929815Y-92792539D01*
X100922974Y-92798466D01*
X100919213Y-92806703D01*
X100896978Y-92820992D01*
X100877011Y-92838294D01*
X100866496Y-92840581D01*
X100860435Y-92844477D01*
X100825500Y-92849500D01*
X100729499Y-92849500D01*
X100662460Y-92829815D01*
X100616705Y-92777011D01*
X100605499Y-92725500D01*
X100605499Y-92663469D01*
X100605499Y-92663464D01*
X100595263Y-92578215D01*
X100541764Y-92442552D01*
X100541763Y-92442551D01*
X100541763Y-92442550D01*
X100453647Y-92326352D01*
X100337449Y-92238236D01*
X100244792Y-92201697D01*
X100201785Y-92184737D01*
X100201784Y-92184736D01*
X100201782Y-92184736D01*
X100161687Y-92179921D01*
X100116537Y-92174500D01*
X100116531Y-92174500D01*
X99493469Y-92174500D01*
X99408216Y-92184736D01*
X99272550Y-92238236D01*
X99244924Y-92259186D01*
X99179612Y-92284008D01*
X99111248Y-92269579D01*
X99095076Y-92259186D01*
X99067449Y-92238236D01*
X98997095Y-92210492D01*
X98931785Y-92184737D01*
X98931783Y-92184736D01*
X98931779Y-92184735D01*
X98860361Y-92176159D01*
X98796146Y-92148622D01*
X98757014Y-92090740D01*
X98755387Y-92020889D01*
X98760581Y-92005601D01*
X98769737Y-91983497D01*
X98800500Y-91828842D01*
X98800500Y-91671158D01*
X98800500Y-91671155D01*
X98800499Y-91671153D01*
X98773930Y-91537583D01*
X98769737Y-91516503D01*
X98728036Y-91415826D01*
X98709397Y-91370827D01*
X98709390Y-91370814D01*
X98621789Y-91239711D01*
X98621786Y-91239707D01*
X98510292Y-91128213D01*
X98510288Y-91128210D01*
X98379185Y-91040609D01*
X98379172Y-91040602D01*
X98233501Y-90980264D01*
X98233489Y-90980261D01*
X98078845Y-90949500D01*
X98078842Y-90949500D01*
X97921158Y-90949500D01*
X97921156Y-90949500D01*
X97766504Y-90980262D01*
X97766499Y-90980264D01*
X97745058Y-90989144D01*
X97739879Y-90991154D01*
X97323640Y-91142074D01*
X97318695Y-91142942D01*
X97316308Y-91144477D01*
X97281373Y-91149500D01*
X97166275Y-91149500D01*
X97099236Y-91129815D01*
X97053481Y-91077011D01*
X97043537Y-91007853D01*
X97054982Y-90970820D01*
X97109414Y-90860032D01*
X97316356Y-90438833D01*
X132189791Y-90438833D01*
X132194889Y-90614085D01*
X132240269Y-90783440D01*
X132323477Y-90937757D01*
X132440031Y-91068729D01*
X132440030Y-91068729D01*
X132523741Y-91129177D01*
X133000036Y-91404165D01*
X133000037Y-91404165D01*
X133458530Y-90610030D01*
X133491444Y-90667039D01*
X133584536Y-90760131D01*
X133698550Y-90825957D01*
X133825717Y-90860032D01*
X133891541Y-90860032D01*
X133433049Y-91654164D01*
X133433049Y-91654165D01*
X133909341Y-91929151D01*
X133909361Y-91929161D01*
X134003547Y-91971425D01*
X134175249Y-92006879D01*
X134350500Y-92001781D01*
X134519847Y-91956405D01*
X134674169Y-91873194D01*
X134805144Y-91756639D01*
X134865595Y-91672925D01*
X135065579Y-91326538D01*
X135065579Y-91326537D01*
X134141543Y-90793043D01*
X134198550Y-90760131D01*
X134291642Y-90667039D01*
X134357468Y-90553025D01*
X134391543Y-90425858D01*
X134391543Y-90360032D01*
X135315579Y-90893524D01*
X135315580Y-90893524D01*
X135515566Y-90547137D01*
X135515576Y-90547117D01*
X135557840Y-90452931D01*
X135593294Y-90281230D01*
X135588196Y-90105978D01*
X135542816Y-89936623D01*
X135456482Y-89776508D01*
X135441991Y-89708157D01*
X135466754Y-89642823D01*
X135522908Y-89601248D01*
X135533515Y-89597887D01*
X135723648Y-89546942D01*
X135917843Y-89460480D01*
X136096122Y-89344704D01*
X136254094Y-89202465D01*
X136387871Y-89037264D01*
X136494158Y-88853170D01*
X136570337Y-88654716D01*
X136614533Y-88446788D01*
X136625658Y-88234506D01*
X136603439Y-88023097D01*
X136548421Y-87817767D01*
X136511667Y-87735217D01*
X136461960Y-87623575D01*
X136461957Y-87623570D01*
X136346185Y-87445296D01*
X136346184Y-87445295D01*
X136346183Y-87445293D01*
X136203944Y-87287320D01*
X136038743Y-87153544D01*
X135851136Y-87045229D01*
X135594845Y-86897259D01*
X135594836Y-86897254D01*
X135396387Y-86821078D01*
X135396390Y-86821078D01*
X135188463Y-86776882D01*
X135188454Y-86776881D01*
X134976182Y-86765757D01*
X134976173Y-86765757D01*
X134764768Y-86787975D01*
X134559441Y-86842992D01*
X134559434Y-86842995D01*
X134365241Y-86929456D01*
X134186966Y-87045229D01*
X134186961Y-87045234D01*
X134028990Y-87187471D01*
X134028988Y-87187472D01*
X133895221Y-87352662D01*
X133895211Y-87352677D01*
X133788930Y-87536761D01*
X133788925Y-87536770D01*
X133712749Y-87735217D01*
X133668553Y-87943143D01*
X133668552Y-87943152D01*
X133657428Y-88155424D01*
X133657428Y-88155433D01*
X133679646Y-88366838D01*
X133730587Y-88556951D01*
X133728924Y-88626801D01*
X133689761Y-88684663D01*
X133625533Y-88712167D01*
X133614419Y-88712992D01*
X133432585Y-88718282D01*
X133263238Y-88763658D01*
X133108916Y-88846869D01*
X132977941Y-88963424D01*
X132917493Y-89047134D01*
X132717505Y-89393524D01*
X132717505Y-89393525D01*
X133641543Y-89927019D01*
X133584536Y-89959933D01*
X133491444Y-90053025D01*
X133425618Y-90167039D01*
X133391543Y-90294206D01*
X133391543Y-90360031D01*
X132467505Y-89826538D01*
X132467504Y-89826538D01*
X132267521Y-90172921D01*
X132267514Y-90172935D01*
X132225245Y-90267132D01*
X132189791Y-90438833D01*
X97316356Y-90438833D01*
X97326738Y-90417701D01*
X97327653Y-90416133D01*
X97327552Y-90416082D01*
X97346482Y-90378929D01*
X97346482Y-90378928D01*
X97420005Y-90234632D01*
X97420006Y-90234629D01*
X97449607Y-90143526D01*
X97481413Y-90045636D01*
X97512500Y-89849361D01*
X97512500Y-89650639D01*
X97481413Y-89454364D01*
X97481412Y-89454360D01*
X97468404Y-89414323D01*
X97420006Y-89265370D01*
X97420005Y-89265367D01*
X97329786Y-89088305D01*
X97212981Y-88927536D01*
X97072464Y-88787019D01*
X96911694Y-88670213D01*
X96734632Y-88579994D01*
X96734629Y-88579993D01*
X96545637Y-88518587D01*
X96447498Y-88503043D01*
X96349361Y-88487500D01*
X96150639Y-88487500D01*
X96085214Y-88497862D01*
X95954362Y-88518587D01*
X95765370Y-88579993D01*
X95765367Y-88579994D01*
X95588305Y-88670213D01*
X95427533Y-88787021D01*
X95287021Y-88927533D01*
X95170213Y-89088305D01*
X95079994Y-89265367D01*
X95079993Y-89265370D01*
X95018587Y-89454362D01*
X94987500Y-89650639D01*
X94987500Y-89849360D01*
X95018587Y-90045637D01*
X95079993Y-90234629D01*
X95079994Y-90234632D01*
X95172411Y-90416007D01*
X95173219Y-90417622D01*
X95636793Y-91361146D01*
X95639628Y-91373345D01*
X95644477Y-91380891D01*
X95649500Y-91415826D01*
X95649500Y-91449902D01*
X95629815Y-91516941D01*
X95613181Y-91537583D01*
X95514481Y-91636282D01*
X95514477Y-91636287D01*
X95464445Y-91722947D01*
X95464445Y-91722948D01*
X95435423Y-91773214D01*
X95435423Y-91773215D01*
X95394499Y-91925943D01*
X95394499Y-91925945D01*
X95394499Y-92094046D01*
X95394500Y-92094059D01*
X95394500Y-92187452D01*
X95375853Y-92252848D01*
X95270899Y-92421927D01*
X95265786Y-92430875D01*
X95259184Y-92440866D01*
X95256314Y-92445970D01*
X95253539Y-92451760D01*
X95253706Y-92451848D01*
X95251876Y-92455340D01*
X95251867Y-92455357D01*
X95217241Y-92538813D01*
X95216917Y-92539950D01*
X95210218Y-92564314D01*
X95204737Y-92578211D01*
X95204737Y-92578212D01*
X95204661Y-92578844D01*
X95194500Y-92663463D01*
X95194500Y-92678844D01*
X95194178Y-92680827D01*
X95194015Y-92689781D01*
X95194500Y-92703498D01*
X95194500Y-94179616D01*
X95174815Y-94246655D01*
X95144812Y-94278882D01*
X95092814Y-94317807D01*
X95092808Y-94317814D01*
X95006649Y-94432906D01*
X95006645Y-94432913D01*
X94956403Y-94567620D01*
X94956401Y-94567627D01*
X94950000Y-94627155D01*
X94950000Y-95900000D01*
X97776000Y-95900000D01*
X97843039Y-95919685D01*
X97888794Y-95972489D01*
X97900000Y-96024000D01*
X97900000Y-96276000D01*
X97880315Y-96343039D01*
X97827511Y-96388794D01*
X97776000Y-96400000D01*
X94950000Y-96400000D01*
X94950000Y-97672844D01*
X94956401Y-97732372D01*
X94956403Y-97732379D01*
X95006645Y-97867086D01*
X95006649Y-97867093D01*
X95092809Y-97982187D01*
X95092810Y-97982188D01*
X95144810Y-98021115D01*
X95186682Y-98077048D01*
X95194500Y-98120382D01*
X95194500Y-98620500D01*
X95174815Y-98687539D01*
X95122011Y-98733294D01*
X95070500Y-98744500D01*
X86124000Y-98744500D01*
X86123991Y-98744500D01*
X86123990Y-98744501D01*
X86016549Y-98756052D01*
X86016537Y-98756054D01*
X85965027Y-98767260D01*
X85862502Y-98801383D01*
X85862496Y-98801386D01*
X85741462Y-98879171D01*
X85741451Y-98879179D01*
X85688659Y-98924923D01*
X85594433Y-99033664D01*
X85594430Y-99033668D01*
X85534664Y-99164534D01*
X85514976Y-99231582D01*
X85494500Y-99374001D01*
X85494500Y-105370500D01*
X85474815Y-105437539D01*
X85422011Y-105483294D01*
X85370500Y-105494500D01*
X82624000Y-105494500D01*
X82623991Y-105494500D01*
X82623990Y-105494501D01*
X82516549Y-105506052D01*
X82516537Y-105506054D01*
X82465027Y-105517260D01*
X82362502Y-105551383D01*
X82362496Y-105551386D01*
X82241462Y-105629171D01*
X82241451Y-105629179D01*
X82188659Y-105674923D01*
X82094433Y-105783664D01*
X82094430Y-105783668D01*
X82034664Y-105914534D01*
X82014976Y-105981582D01*
X81994500Y-106124001D01*
X81994500Y-119362361D01*
X81974815Y-119429400D01*
X81922011Y-119475155D01*
X81870737Y-119486361D01*
X75625599Y-119498302D01*
X75558522Y-119478745D01*
X75512666Y-119426029D01*
X75501362Y-119374131D01*
X75501379Y-119362361D01*
X75505973Y-116028711D01*
X77174500Y-116028711D01*
X77174500Y-116271288D01*
X77206161Y-116511785D01*
X77268947Y-116746104D01*
X77324823Y-116881000D01*
X77361776Y-116970212D01*
X77483064Y-117180289D01*
X77483066Y-117180292D01*
X77483067Y-117180293D01*
X77630733Y-117372736D01*
X77630739Y-117372743D01*
X77802256Y-117544260D01*
X77802263Y-117544266D01*
X77812693Y-117552269D01*
X77994711Y-117691936D01*
X78204788Y-117813224D01*
X78428900Y-117906054D01*
X78663211Y-117968838D01*
X78843586Y-117992584D01*
X78903711Y-118000500D01*
X78903712Y-118000500D01*
X79146289Y-118000500D01*
X79194388Y-117994167D01*
X79386789Y-117968838D01*
X79621100Y-117906054D01*
X79845212Y-117813224D01*
X80055289Y-117691936D01*
X80247738Y-117544265D01*
X80419265Y-117372738D01*
X80566936Y-117180289D01*
X80688224Y-116970212D01*
X80781054Y-116746100D01*
X80843838Y-116511789D01*
X80875500Y-116271288D01*
X80875500Y-116028712D01*
X80843838Y-115788211D01*
X80781054Y-115553900D01*
X80688224Y-115329788D01*
X80566936Y-115119711D01*
X80419265Y-114927262D01*
X80419260Y-114927256D01*
X80247743Y-114755739D01*
X80247736Y-114755733D01*
X80055293Y-114608067D01*
X80055292Y-114608066D01*
X80055289Y-114608064D01*
X79845212Y-114486776D01*
X79845205Y-114486773D01*
X79621104Y-114393947D01*
X79386785Y-114331161D01*
X79146289Y-114299500D01*
X79146288Y-114299500D01*
X78903712Y-114299500D01*
X78903711Y-114299500D01*
X78663214Y-114331161D01*
X78428895Y-114393947D01*
X78204794Y-114486773D01*
X78204785Y-114486777D01*
X77994706Y-114608067D01*
X77802263Y-114755733D01*
X77802256Y-114755739D01*
X77630739Y-114927256D01*
X77630733Y-114927263D01*
X77483067Y-115119706D01*
X77361777Y-115329785D01*
X77361773Y-115329794D01*
X77268947Y-115553895D01*
X77206161Y-115788214D01*
X77174500Y-116028711D01*
X75505973Y-116028711D01*
X75530064Y-98549140D01*
X75546656Y-98487349D01*
X77529751Y-95049986D01*
X85750001Y-95049986D01*
X85760494Y-95152697D01*
X85815641Y-95319119D01*
X85815643Y-95319124D01*
X85907684Y-95468345D01*
X86031654Y-95592315D01*
X86180875Y-95684356D01*
X86180880Y-95684358D01*
X86347302Y-95739505D01*
X86347309Y-95739506D01*
X86450019Y-95749999D01*
X87249999Y-95749999D01*
X87750000Y-95749999D01*
X88549972Y-95749999D01*
X88549986Y-95749998D01*
X88652697Y-95739505D01*
X88819119Y-95684358D01*
X88819124Y-95684356D01*
X88968345Y-95592315D01*
X89092315Y-95468345D01*
X89184356Y-95319124D01*
X89184358Y-95319119D01*
X89239505Y-95152697D01*
X89239506Y-95152690D01*
X89249999Y-95049986D01*
X89250000Y-95049973D01*
X89250000Y-93300000D01*
X87750000Y-93300000D01*
X87750000Y-95749999D01*
X87249999Y-95749999D01*
X87250000Y-95749998D01*
X87250000Y-93300000D01*
X85750001Y-93300000D01*
X85750001Y-95049986D01*
X77529751Y-95049986D01*
X79837428Y-91050013D01*
X85750000Y-91050013D01*
X85750000Y-92800000D01*
X87250000Y-92800000D01*
X87750000Y-92800000D01*
X89249999Y-92800000D01*
X89249999Y-91050028D01*
X89249998Y-91050013D01*
X89239505Y-90947302D01*
X89184358Y-90780880D01*
X89184356Y-90780875D01*
X89092315Y-90631654D01*
X88968345Y-90507684D01*
X88819124Y-90415643D01*
X88819119Y-90415641D01*
X88652697Y-90360494D01*
X88652690Y-90360493D01*
X88549986Y-90350000D01*
X87750000Y-90350000D01*
X87750000Y-92800000D01*
X87250000Y-92800000D01*
X87250000Y-90350000D01*
X86450028Y-90350000D01*
X86450012Y-90350001D01*
X86347302Y-90360494D01*
X86180880Y-90415641D01*
X86180875Y-90415643D01*
X86031654Y-90507684D01*
X85907684Y-90631654D01*
X85815643Y-90780875D01*
X85815641Y-90780880D01*
X85760494Y-90947302D01*
X85760493Y-90947309D01*
X85750000Y-91050013D01*
X79837428Y-91050013D01*
X83111174Y-85375520D01*
X86210885Y-85375520D01*
X86210885Y-85375529D01*
X86233103Y-85586934D01*
X86288120Y-85792261D01*
X86288123Y-85792268D01*
X86374584Y-85986461D01*
X86490357Y-86164736D01*
X86490362Y-86164741D01*
X86632599Y-86322712D01*
X86632600Y-86322714D01*
X86797790Y-86456481D01*
X86797799Y-86456488D01*
X86985405Y-86564802D01*
X87241697Y-86712772D01*
X87241706Y-86712777D01*
X87327012Y-86745522D01*
X87440153Y-86788953D01*
X87440155Y-86788953D01*
X87440156Y-86788954D01*
X87648084Y-86833150D01*
X87860366Y-86844275D01*
X88071775Y-86822056D01*
X88277105Y-86767038D01*
X88471300Y-86680576D01*
X88649579Y-86564800D01*
X88807551Y-86422561D01*
X88941328Y-86257360D01*
X89047615Y-86073266D01*
X89123794Y-85874812D01*
X89167990Y-85666884D01*
X89179115Y-85454602D01*
X89156896Y-85243193D01*
X89105955Y-85053078D01*
X89107618Y-84983231D01*
X89146780Y-84925368D01*
X89211009Y-84897864D01*
X89222124Y-84897039D01*
X89403957Y-84891749D01*
X89573304Y-84846373D01*
X89727626Y-84763162D01*
X89858601Y-84646607D01*
X89919052Y-84562893D01*
X90119036Y-84216506D01*
X90119036Y-84216505D01*
X89194999Y-83683012D01*
X89252007Y-83650099D01*
X89345099Y-83557007D01*
X89410925Y-83442993D01*
X89445000Y-83315826D01*
X89445000Y-83250000D01*
X90369036Y-83783492D01*
X90369037Y-83783492D01*
X90539070Y-83488986D01*
X110643356Y-83488986D01*
X110648503Y-83632781D01*
X110660915Y-83701538D01*
X110660915Y-83701539D01*
X110706359Y-83838042D01*
X110706364Y-83838052D01*
X110788426Y-83956222D01*
X110788429Y-83956225D01*
X110788430Y-83956227D01*
X110836045Y-84007361D01*
X110948083Y-84097633D01*
X116634659Y-87471026D01*
X116734728Y-87516495D01*
X116785654Y-87533233D01*
X116893192Y-87555997D01*
X116893192Y-87555996D01*
X116893193Y-87555997D01*
X116899396Y-87555729D01*
X117036939Y-87549794D01*
X117105604Y-87536878D01*
X117241775Y-87490429D01*
X117241777Y-87490427D01*
X117241782Y-87490425D01*
X117311519Y-87441233D01*
X117359349Y-87407497D01*
X117410132Y-87359508D01*
X117410134Y-87359506D01*
X117499580Y-87246808D01*
X118728235Y-85140543D01*
X123555608Y-85140543D01*
X123555608Y-85140544D01*
X124897918Y-85915527D01*
X124897937Y-85915536D01*
X124992129Y-85957803D01*
X124992132Y-85957804D01*
X125163833Y-85993257D01*
X125339085Y-85988159D01*
X125508431Y-85942783D01*
X125662760Y-85859570D01*
X125793724Y-85743022D01*
X125793728Y-85743018D01*
X125854176Y-85659307D01*
X126254164Y-84966505D01*
X126254164Y-84966504D01*
X124305608Y-83841505D01*
X124305607Y-83841505D01*
X123555608Y-85140543D01*
X118728235Y-85140543D01*
X119728845Y-83425211D01*
X121446324Y-83425211D01*
X121451423Y-83600464D01*
X121496799Y-83769810D01*
X121580012Y-83924139D01*
X121696560Y-84055103D01*
X121696563Y-84055105D01*
X121780276Y-84115555D01*
X121780290Y-84115565D01*
X123122595Y-84890543D01*
X123122596Y-84890543D01*
X123872595Y-83591506D01*
X123872595Y-83591505D01*
X123711264Y-83498361D01*
X123555606Y-83408492D01*
X124555607Y-83408492D01*
X124555607Y-83408493D01*
X126504163Y-84533492D01*
X126504164Y-84533492D01*
X126904150Y-83840697D01*
X126904162Y-83840673D01*
X126946424Y-83746491D01*
X126946424Y-83746490D01*
X126974284Y-83611570D01*
X126974284Y-83611569D01*
X126981879Y-83574788D01*
X126976780Y-83399535D01*
X126931404Y-83230189D01*
X126848191Y-83075860D01*
X126731643Y-82944896D01*
X126731640Y-82944894D01*
X126647927Y-82884444D01*
X126647913Y-82884434D01*
X126055854Y-82542610D01*
X125876107Y-82438833D01*
X136689791Y-82438833D01*
X136694889Y-82614085D01*
X136740269Y-82783440D01*
X136823477Y-82937757D01*
X136940031Y-83068729D01*
X136940030Y-83068729D01*
X137023741Y-83129177D01*
X137500036Y-83404165D01*
X137500037Y-83404165D01*
X137958530Y-82610030D01*
X137991444Y-82667039D01*
X138084536Y-82760131D01*
X138198550Y-82825957D01*
X138325717Y-82860032D01*
X138391541Y-82860032D01*
X137933049Y-83654164D01*
X137933049Y-83654165D01*
X138409341Y-83929151D01*
X138409361Y-83929161D01*
X138503547Y-83971425D01*
X138675249Y-84006879D01*
X138850500Y-84001781D01*
X139019847Y-83956405D01*
X139174169Y-83873194D01*
X139305144Y-83756639D01*
X139365595Y-83672925D01*
X139565579Y-83326538D01*
X139565579Y-83326537D01*
X138641543Y-82793043D01*
X138698550Y-82760131D01*
X138791642Y-82667039D01*
X138857468Y-82553025D01*
X138891543Y-82425858D01*
X138891543Y-82360032D01*
X139815579Y-82893524D01*
X139815580Y-82893524D01*
X140015566Y-82547137D01*
X140015576Y-82547117D01*
X140057840Y-82452931D01*
X140093294Y-82281230D01*
X140088196Y-82105978D01*
X140042816Y-81936623D01*
X139956482Y-81776508D01*
X139941991Y-81708157D01*
X139966754Y-81642823D01*
X140022908Y-81601248D01*
X140033515Y-81597887D01*
X140223648Y-81546942D01*
X140417843Y-81460480D01*
X140596122Y-81344704D01*
X140754094Y-81202465D01*
X140887871Y-81037264D01*
X140994158Y-80853170D01*
X141070337Y-80654716D01*
X141114533Y-80446788D01*
X141125658Y-80234506D01*
X141103439Y-80023097D01*
X141048421Y-79817767D01*
X141011667Y-79735217D01*
X140961960Y-79623575D01*
X140961957Y-79623570D01*
X140846185Y-79445296D01*
X140846184Y-79445295D01*
X140846183Y-79445293D01*
X140703944Y-79287320D01*
X140538743Y-79153544D01*
X140349395Y-79044224D01*
X140094845Y-78897259D01*
X140094836Y-78897254D01*
X139896387Y-78821078D01*
X139896390Y-78821078D01*
X139688463Y-78776882D01*
X139688454Y-78776881D01*
X139476182Y-78765757D01*
X139476173Y-78765757D01*
X139264768Y-78787975D01*
X139059441Y-78842992D01*
X139059434Y-78842995D01*
X138865241Y-78929456D01*
X138686966Y-79045229D01*
X138686961Y-79045234D01*
X138528990Y-79187471D01*
X138528988Y-79187472D01*
X138395221Y-79352662D01*
X138395211Y-79352677D01*
X138288930Y-79536761D01*
X138288925Y-79536770D01*
X138212749Y-79735217D01*
X138168553Y-79943143D01*
X138168552Y-79943152D01*
X138157428Y-80155424D01*
X138157428Y-80155433D01*
X138179646Y-80366838D01*
X138230587Y-80556951D01*
X138228924Y-80626801D01*
X138189761Y-80684663D01*
X138125533Y-80712167D01*
X138114419Y-80712992D01*
X137932585Y-80718282D01*
X137763238Y-80763658D01*
X137608916Y-80846869D01*
X137477941Y-80963424D01*
X137417493Y-81047134D01*
X137217505Y-81393524D01*
X137217505Y-81393525D01*
X138141543Y-81927019D01*
X138084536Y-81959933D01*
X137991444Y-82053025D01*
X137925618Y-82167039D01*
X137891543Y-82294206D01*
X137891543Y-82360031D01*
X136967505Y-81826538D01*
X136967504Y-81826538D01*
X136767521Y-82172921D01*
X136767514Y-82172935D01*
X136725245Y-82267132D01*
X136689791Y-82438833D01*
X125876107Y-82438833D01*
X125305607Y-82109455D01*
X125305606Y-82109455D01*
X124555607Y-83408492D01*
X123555606Y-83408492D01*
X121924039Y-82466506D01*
X121924038Y-82466506D01*
X121524055Y-83159297D01*
X121524046Y-83159316D01*
X121481779Y-83253508D01*
X121481778Y-83253511D01*
X121446324Y-83425211D01*
X119728845Y-83425211D01*
X120440130Y-82205865D01*
X120540680Y-82033493D01*
X122174038Y-82033493D01*
X122174038Y-82033494D01*
X124122594Y-83158493D01*
X124122595Y-83158493D01*
X124872594Y-81859455D01*
X124872594Y-81859454D01*
X124221236Y-81483393D01*
X123530285Y-81084472D01*
X123530266Y-81084463D01*
X123436074Y-81042196D01*
X123436071Y-81042195D01*
X123264369Y-81006741D01*
X123089118Y-81011840D01*
X122919772Y-81057216D01*
X122765443Y-81140429D01*
X122634479Y-81256977D01*
X122634475Y-81256981D01*
X122574027Y-81340692D01*
X122174038Y-82033493D01*
X120540680Y-82033493D01*
X120587346Y-81953495D01*
X121636217Y-80155430D01*
X124374159Y-75461815D01*
X124418323Y-75363179D01*
X124434599Y-75313038D01*
X124456786Y-75207267D01*
X124450583Y-75063520D01*
X124437667Y-74994855D01*
X124423341Y-74952858D01*
X124391218Y-74858684D01*
X124391214Y-74858676D01*
X124308291Y-74741117D01*
X124308290Y-74741116D01*
X124308286Y-74741110D01*
X124260297Y-74690327D01*
X124260295Y-74690325D01*
X124260293Y-74690323D01*
X124158402Y-74609455D01*
X124147597Y-74600879D01*
X118818480Y-71492227D01*
X118368945Y-71229998D01*
X118254742Y-71181057D01*
X118254738Y-71181056D01*
X118242078Y-71177393D01*
X118196636Y-71164244D01*
X118196626Y-71164242D01*
X118073942Y-71144639D01*
X117930895Y-71160084D01*
X117930892Y-71160085D01*
X117863209Y-71177393D01*
X117863203Y-71177395D01*
X117730301Y-71232515D01*
X117730300Y-71232516D01*
X117618315Y-71322842D01*
X117618305Y-71322851D01*
X117572250Y-71372363D01*
X117571093Y-71373561D01*
X117570726Y-71374001D01*
X117488721Y-71492225D01*
X116857102Y-72755460D01*
X116853228Y-72762611D01*
X110725880Y-83238401D01*
X110725878Y-83238404D01*
X110725877Y-83238407D01*
X110719065Y-83253511D01*
X110682082Y-83335512D01*
X110665830Y-83384863D01*
X110643356Y-83488986D01*
X90539070Y-83488986D01*
X90569023Y-83437105D01*
X90569031Y-83437090D01*
X90569988Y-83434958D01*
X90569990Y-83434954D01*
X90611297Y-83342899D01*
X90646751Y-83171198D01*
X90641653Y-82995946D01*
X90596273Y-82826591D01*
X90513065Y-82672274D01*
X90396511Y-82541302D01*
X90396512Y-82541302D01*
X90312801Y-82480854D01*
X89836505Y-82205865D01*
X89836504Y-82205865D01*
X89378011Y-82999998D01*
X89345099Y-82942993D01*
X89252007Y-82849901D01*
X89137993Y-82784075D01*
X89010826Y-82750000D01*
X88944999Y-82750000D01*
X89403492Y-81955866D01*
X89403492Y-81955865D01*
X88927201Y-81680880D01*
X88927181Y-81680870D01*
X88832995Y-81638606D01*
X88661292Y-81603151D01*
X88486042Y-81608250D01*
X88316695Y-81653626D01*
X88162373Y-81736837D01*
X88031398Y-81853392D01*
X87970950Y-81937102D01*
X87770962Y-82283492D01*
X87770962Y-82283493D01*
X88695000Y-82816987D01*
X88637993Y-82849901D01*
X88544901Y-82942993D01*
X88479075Y-83057007D01*
X88445000Y-83184174D01*
X88445000Y-83249999D01*
X88442162Y-83248361D01*
X87520962Y-82716506D01*
X87520961Y-82716506D01*
X87320978Y-83062889D01*
X87320971Y-83062903D01*
X87278702Y-83157100D01*
X87243248Y-83328801D01*
X87248346Y-83504053D01*
X87293726Y-83673408D01*
X87380060Y-83833523D01*
X87394551Y-83901874D01*
X87369788Y-83967208D01*
X87313634Y-84008783D01*
X87303009Y-84012149D01*
X87112895Y-84063089D01*
X87112891Y-84063091D01*
X86918698Y-84149552D01*
X86740423Y-84265325D01*
X86740418Y-84265330D01*
X86582447Y-84407567D01*
X86582445Y-84407568D01*
X86448678Y-84572758D01*
X86448668Y-84572773D01*
X86342387Y-84756857D01*
X86342382Y-84756866D01*
X86266206Y-84955313D01*
X86222010Y-85163239D01*
X86222009Y-85163248D01*
X86210885Y-85375520D01*
X83111174Y-85375520D01*
X83186161Y-85245543D01*
X87791003Y-77265489D01*
X90874343Y-77265489D01*
X90874343Y-77265498D01*
X90896561Y-77476903D01*
X90951578Y-77682230D01*
X90951581Y-77682237D01*
X91038042Y-77876430D01*
X91153815Y-78054705D01*
X91153820Y-78054710D01*
X91296057Y-78212681D01*
X91296058Y-78212683D01*
X91461248Y-78346450D01*
X91461257Y-78346457D01*
X91849388Y-78570544D01*
X91905155Y-78602741D01*
X91905164Y-78602746D01*
X91990470Y-78635491D01*
X92103611Y-78678922D01*
X92103613Y-78678922D01*
X92103614Y-78678923D01*
X92250131Y-78710066D01*
X92299375Y-78720533D01*
X92311542Y-78723119D01*
X92523824Y-78734244D01*
X92735233Y-78712025D01*
X92940563Y-78657007D01*
X93134758Y-78570545D01*
X93313037Y-78454769D01*
X93471009Y-78312530D01*
X93604786Y-78147329D01*
X93711073Y-77963235D01*
X93787252Y-77764781D01*
X93831448Y-77556853D01*
X93842573Y-77344571D01*
X93820354Y-77133162D01*
X93769413Y-76943047D01*
X93771076Y-76873200D01*
X93810238Y-76815337D01*
X93874467Y-76787833D01*
X93885582Y-76787008D01*
X94067415Y-76781718D01*
X94236762Y-76736342D01*
X94348809Y-76675926D01*
X98142037Y-76675926D01*
X98143849Y-76819791D01*
X98154664Y-76888826D01*
X98154666Y-76888832D01*
X98196930Y-77026338D01*
X98196932Y-77026341D01*
X98196933Y-77026344D01*
X98214685Y-77053217D01*
X98276240Y-77146400D01*
X98322653Y-77198620D01*
X98351724Y-77223176D01*
X98432574Y-77291468D01*
X98991094Y-77640543D01*
X99131188Y-77728102D01*
X99135189Y-77730577D01*
X99137103Y-77731748D01*
X99140917Y-77734060D01*
X100836465Y-78751389D01*
X102427035Y-79705731D01*
X102531989Y-79768703D01*
X102633661Y-79815279D01*
X102685442Y-79832366D01*
X102794860Y-79855448D01*
X102938590Y-79848869D01*
X103007221Y-79835774D01*
X103143273Y-79788970D01*
X103260630Y-79705731D01*
X103311287Y-79657610D01*
X103311290Y-79657607D01*
X103400441Y-79544675D01*
X104504518Y-77640543D01*
X110305608Y-77640543D01*
X110305608Y-77640544D01*
X111647918Y-78415527D01*
X111647937Y-78415536D01*
X111742129Y-78457803D01*
X111742132Y-78457804D01*
X111913833Y-78493257D01*
X112089085Y-78488159D01*
X112258431Y-78442783D01*
X112412760Y-78359570D01*
X112543724Y-78243022D01*
X112543728Y-78243018D01*
X112604176Y-78159307D01*
X113004164Y-77466505D01*
X113004164Y-77466504D01*
X111055608Y-76341505D01*
X111055607Y-76341505D01*
X110305608Y-77640543D01*
X104504518Y-77640543D01*
X105499122Y-75925211D01*
X108196324Y-75925211D01*
X108201423Y-76100464D01*
X108246799Y-76269810D01*
X108330012Y-76424139D01*
X108446560Y-76555103D01*
X108446563Y-76555105D01*
X108530276Y-76615555D01*
X108530290Y-76615565D01*
X109872595Y-77390543D01*
X109872596Y-77390543D01*
X110622595Y-76091506D01*
X110622595Y-76091505D01*
X110461264Y-75998361D01*
X110305606Y-75908492D01*
X111305607Y-75908492D01*
X111305607Y-75908493D01*
X113254163Y-77033492D01*
X113254164Y-77033492D01*
X113654150Y-76340697D01*
X113654162Y-76340673D01*
X113696424Y-76246491D01*
X113696425Y-76246488D01*
X113731879Y-76074788D01*
X113726780Y-75899535D01*
X113681404Y-75730189D01*
X113598191Y-75575860D01*
X113481643Y-75444896D01*
X113481640Y-75444894D01*
X113397927Y-75384444D01*
X113397913Y-75384434D01*
X112055607Y-74609455D01*
X112055606Y-74609455D01*
X111305607Y-75908492D01*
X110305606Y-75908492D01*
X108674039Y-74966506D01*
X108674038Y-74966506D01*
X108274055Y-75659297D01*
X108274046Y-75659316D01*
X108231779Y-75753508D01*
X108231778Y-75753511D01*
X108196324Y-75925211D01*
X105499122Y-75925211D01*
X106306085Y-74533493D01*
X108924038Y-74533493D01*
X108924038Y-74533494D01*
X110872594Y-75658493D01*
X110872595Y-75658493D01*
X111622594Y-74359455D01*
X111622594Y-74359454D01*
X110280285Y-73584472D01*
X110280266Y-73584463D01*
X110186074Y-73542196D01*
X110186071Y-73542195D01*
X110014369Y-73506741D01*
X109839118Y-73511840D01*
X109669772Y-73557216D01*
X109515443Y-73640429D01*
X109384479Y-73756977D01*
X109384475Y-73756981D01*
X109324027Y-73840692D01*
X108924038Y-74533493D01*
X106306085Y-74533493D01*
X110176029Y-67859242D01*
X110218764Y-67764083D01*
X110234715Y-67715744D01*
X110257007Y-67613847D01*
X110252579Y-67470035D01*
X110252578Y-67470034D01*
X110252578Y-67470024D01*
X110240511Y-67401213D01*
X110225675Y-67355894D01*
X110195745Y-67264473D01*
X110114269Y-67145885D01*
X110066916Y-67094520D01*
X110066914Y-67094518D01*
X110066910Y-67094514D01*
X109955326Y-67003686D01*
X109955324Y-67003684D01*
X109955319Y-67003681D01*
X109560605Y-66766853D01*
X109560037Y-66766514D01*
X109558853Y-66765807D01*
X109558085Y-66765350D01*
X109556376Y-66764338D01*
X109556271Y-66764276D01*
X109556271Y-66764275D01*
X105764529Y-64528121D01*
X105764524Y-64528118D01*
X105664027Y-64482805D01*
X105612896Y-64466182D01*
X105612893Y-64466181D01*
X105504952Y-64443732D01*
X105504945Y-64443732D01*
X105361239Y-64450493D01*
X105361230Y-64450494D01*
X105292612Y-64463677D01*
X105156622Y-64510656D01*
X105156621Y-64510656D01*
X105156620Y-64510657D01*
X105132065Y-64528121D01*
X105039370Y-64594047D01*
X104983057Y-64647677D01*
X104978664Y-64655075D01*
X104899769Y-64755277D01*
X101262734Y-71046365D01*
X101261277Y-71048900D01*
X101260920Y-71049525D01*
X101259476Y-71052070D01*
X98217816Y-76448562D01*
X98178617Y-76536937D01*
X98178614Y-76536946D01*
X98163692Y-76581718D01*
X98163688Y-76581734D01*
X98142038Y-76675917D01*
X98142037Y-76675926D01*
X94348809Y-76675926D01*
X94391084Y-76653131D01*
X94476128Y-76577451D01*
X94476130Y-76577449D01*
X94522056Y-76536580D01*
X94522059Y-76536577D01*
X94582510Y-76452862D01*
X94782494Y-76106475D01*
X94782494Y-76106474D01*
X93858457Y-75572981D01*
X93915465Y-75540068D01*
X94008557Y-75446976D01*
X94074383Y-75332962D01*
X94108458Y-75205795D01*
X94108458Y-75139969D01*
X95032494Y-75673461D01*
X95032495Y-75673461D01*
X95232481Y-75327074D01*
X95232491Y-75327054D01*
X95274755Y-75232868D01*
X95310209Y-75061167D01*
X95305111Y-74885915D01*
X95259731Y-74716560D01*
X95176523Y-74562243D01*
X95059969Y-74431271D01*
X95059970Y-74431271D01*
X94976259Y-74370823D01*
X94499963Y-74095834D01*
X94499962Y-74095834D01*
X94041469Y-74889967D01*
X94008557Y-74832962D01*
X93915465Y-74739870D01*
X93801451Y-74674044D01*
X93674284Y-74639969D01*
X93608457Y-74639969D01*
X94066950Y-73845835D01*
X94066950Y-73845834D01*
X93590659Y-73570849D01*
X93590639Y-73570839D01*
X93496453Y-73528575D01*
X93324750Y-73493120D01*
X93149500Y-73498219D01*
X92980153Y-73543595D01*
X92825831Y-73626806D01*
X92694856Y-73743361D01*
X92634408Y-73827071D01*
X92434420Y-74173461D01*
X92434420Y-74173462D01*
X93358458Y-74706956D01*
X93301451Y-74739870D01*
X93208359Y-74832962D01*
X93142533Y-74946976D01*
X93108458Y-75074143D01*
X93108458Y-75139968D01*
X93105620Y-75138330D01*
X92184420Y-74606475D01*
X92184419Y-74606475D01*
X91984436Y-74952858D01*
X91984429Y-74952872D01*
X91942160Y-75047069D01*
X91906706Y-75218770D01*
X91911804Y-75394022D01*
X91957184Y-75563377D01*
X92043518Y-75723492D01*
X92058009Y-75791843D01*
X92033246Y-75857177D01*
X91977092Y-75898752D01*
X91966467Y-75902118D01*
X91776353Y-75953058D01*
X91776349Y-75953060D01*
X91582156Y-76039521D01*
X91403881Y-76155294D01*
X91403876Y-76155299D01*
X91245905Y-76297536D01*
X91245903Y-76297537D01*
X91112136Y-76462727D01*
X91112126Y-76462742D01*
X91005845Y-76646826D01*
X91005840Y-76646835D01*
X90929664Y-76845282D01*
X90885468Y-77053208D01*
X90885467Y-77053217D01*
X90874343Y-77265489D01*
X87791003Y-77265489D01*
X92551616Y-69015489D01*
X95624343Y-69015489D01*
X95624343Y-69015498D01*
X95646561Y-69226903D01*
X95701578Y-69432230D01*
X95701581Y-69432237D01*
X95788042Y-69626430D01*
X95903815Y-69804705D01*
X95903820Y-69804710D01*
X96046057Y-69962681D01*
X96046058Y-69962683D01*
X96211248Y-70096450D01*
X96211257Y-70096457D01*
X96398863Y-70204771D01*
X96655155Y-70352741D01*
X96655164Y-70352746D01*
X96740470Y-70385491D01*
X96853611Y-70428922D01*
X96853613Y-70428922D01*
X96853614Y-70428923D01*
X97061542Y-70473119D01*
X97273824Y-70484244D01*
X97485233Y-70462025D01*
X97690563Y-70407007D01*
X97884758Y-70320545D01*
X98063037Y-70204769D01*
X98221009Y-70062530D01*
X98354786Y-69897329D01*
X98461073Y-69713235D01*
X98537252Y-69514781D01*
X98581448Y-69306853D01*
X98592573Y-69094571D01*
X98570354Y-68883162D01*
X98519413Y-68693047D01*
X98521076Y-68623200D01*
X98560238Y-68565337D01*
X98624467Y-68537833D01*
X98635582Y-68537008D01*
X98817415Y-68531718D01*
X98986762Y-68486342D01*
X99141084Y-68403131D01*
X99272059Y-68286576D01*
X99332510Y-68202862D01*
X99532494Y-67856475D01*
X99532494Y-67856474D01*
X98608457Y-67322981D01*
X98665465Y-67290068D01*
X98758557Y-67196976D01*
X98824383Y-67082962D01*
X98858458Y-66955795D01*
X98858458Y-66889969D01*
X99782494Y-67423461D01*
X99782495Y-67423461D01*
X99982481Y-67077074D01*
X99982491Y-67077054D01*
X100024755Y-66982868D01*
X100060209Y-66811167D01*
X100055111Y-66635915D01*
X100009731Y-66466560D01*
X99926523Y-66312243D01*
X99809969Y-66181271D01*
X99809970Y-66181271D01*
X99726259Y-66120823D01*
X99249963Y-65845834D01*
X99249962Y-65845834D01*
X98791469Y-66639967D01*
X98758557Y-66582962D01*
X98665465Y-66489870D01*
X98551451Y-66424044D01*
X98424284Y-66389969D01*
X98358457Y-66389969D01*
X98816950Y-65595835D01*
X98816950Y-65595834D01*
X98340659Y-65320849D01*
X98340639Y-65320839D01*
X98246453Y-65278575D01*
X98074750Y-65243120D01*
X97899500Y-65248219D01*
X97730153Y-65293595D01*
X97575831Y-65376806D01*
X97444856Y-65493361D01*
X97384408Y-65577071D01*
X97184420Y-65923461D01*
X97184420Y-65923462D01*
X98108458Y-66456956D01*
X98051451Y-66489870D01*
X97958359Y-66582962D01*
X97892533Y-66696976D01*
X97858458Y-66824143D01*
X97858458Y-66889968D01*
X97855620Y-66888330D01*
X96934420Y-66356475D01*
X96934419Y-66356475D01*
X96734436Y-66702858D01*
X96734429Y-66702872D01*
X96692160Y-66797069D01*
X96656706Y-66968770D01*
X96661804Y-67144022D01*
X96707184Y-67313377D01*
X96793518Y-67473492D01*
X96808009Y-67541843D01*
X96783246Y-67607177D01*
X96727092Y-67648752D01*
X96716467Y-67652118D01*
X96526353Y-67703058D01*
X96526349Y-67703060D01*
X96332156Y-67789521D01*
X96153881Y-67905294D01*
X96153876Y-67905299D01*
X95995905Y-68047536D01*
X95995903Y-68047537D01*
X95862136Y-68212727D01*
X95862126Y-68212742D01*
X95755845Y-68396826D01*
X95755840Y-68396835D01*
X95679664Y-68595282D01*
X95635468Y-68803208D01*
X95635467Y-68803217D01*
X95624343Y-69015489D01*
X92551616Y-69015489D01*
X97312229Y-60765489D01*
X100374343Y-60765489D01*
X100374343Y-60765498D01*
X100396561Y-60976903D01*
X100451578Y-61182230D01*
X100451581Y-61182237D01*
X100538042Y-61376430D01*
X100653815Y-61554705D01*
X100653820Y-61554710D01*
X100796057Y-61712681D01*
X100796058Y-61712683D01*
X100961248Y-61846450D01*
X100961257Y-61846457D01*
X101148863Y-61954771D01*
X101405155Y-62102741D01*
X101405164Y-62102746D01*
X101490470Y-62135491D01*
X101603611Y-62178922D01*
X101603613Y-62178922D01*
X101603614Y-62178923D01*
X101811542Y-62223119D01*
X102023824Y-62234244D01*
X102235233Y-62212025D01*
X102440563Y-62157007D01*
X102634758Y-62070545D01*
X102813037Y-61954769D01*
X102971009Y-61812530D01*
X103104786Y-61647329D01*
X103211073Y-61463235D01*
X103287252Y-61264781D01*
X103331448Y-61056853D01*
X103342573Y-60844571D01*
X103320354Y-60633162D01*
X103269413Y-60443047D01*
X103271076Y-60373200D01*
X103310238Y-60315337D01*
X103374467Y-60287833D01*
X103385582Y-60287008D01*
X103567415Y-60281718D01*
X103736762Y-60236342D01*
X103891084Y-60153131D01*
X104022059Y-60036576D01*
X104082510Y-59952862D01*
X104282494Y-59606475D01*
X104282494Y-59606474D01*
X103358457Y-59072981D01*
X103415465Y-59040068D01*
X103508557Y-58946976D01*
X103574383Y-58832962D01*
X103608458Y-58705795D01*
X103608458Y-58639969D01*
X104532494Y-59173461D01*
X104532495Y-59173461D01*
X104732481Y-58827074D01*
X104732491Y-58827054D01*
X104774755Y-58732868D01*
X104810209Y-58561167D01*
X104805111Y-58385915D01*
X104759731Y-58216560D01*
X104676523Y-58062243D01*
X104559969Y-57931271D01*
X104559970Y-57931271D01*
X104476259Y-57870823D01*
X103999963Y-57595834D01*
X103999962Y-57595834D01*
X103541469Y-58389967D01*
X103508557Y-58332962D01*
X103415465Y-58239870D01*
X103301451Y-58174044D01*
X103174284Y-58139969D01*
X103108457Y-58139969D01*
X103566950Y-57345835D01*
X103566950Y-57345834D01*
X103090659Y-57070849D01*
X103090639Y-57070839D01*
X102996453Y-57028575D01*
X102824750Y-56993120D01*
X102649500Y-56998219D01*
X102480153Y-57043595D01*
X102325831Y-57126806D01*
X102194856Y-57243361D01*
X102134408Y-57327071D01*
X101934420Y-57673461D01*
X101934420Y-57673462D01*
X102858458Y-58206956D01*
X102801451Y-58239870D01*
X102708359Y-58332962D01*
X102642533Y-58446976D01*
X102608458Y-58574143D01*
X102608458Y-58639968D01*
X102605620Y-58638330D01*
X101684420Y-58106475D01*
X101684419Y-58106475D01*
X101484436Y-58452858D01*
X101484429Y-58452872D01*
X101442160Y-58547069D01*
X101406706Y-58718770D01*
X101411804Y-58894022D01*
X101457184Y-59063377D01*
X101543518Y-59223492D01*
X101558009Y-59291843D01*
X101533246Y-59357177D01*
X101477092Y-59398752D01*
X101466467Y-59402118D01*
X101276353Y-59453058D01*
X101276349Y-59453060D01*
X101082156Y-59539521D01*
X100903881Y-59655294D01*
X100903876Y-59655299D01*
X100745905Y-59797536D01*
X100745903Y-59797537D01*
X100612136Y-59962727D01*
X100612126Y-59962742D01*
X100505845Y-60146826D01*
X100505840Y-60146835D01*
X100429664Y-60345282D01*
X100385468Y-60553208D01*
X100385467Y-60553217D01*
X100374343Y-60765489D01*
X97312229Y-60765489D01*
X101221487Y-53990862D01*
X101272042Y-53942636D01*
X101340646Y-53929398D01*
X101390822Y-53945415D01*
G37*
%TD.AperFunction*%
%TD*%
%TA.AperFunction,Conductor*%
%TO.N,V+*%
G36*
X105507738Y-64963538D02*
G01*
X109299590Y-67199758D01*
X109300358Y-67200215D01*
X109695249Y-67437149D01*
X109742608Y-67488520D01*
X109754675Y-67557339D01*
X109738724Y-67605678D01*
X102963136Y-79291111D01*
X102912479Y-79339232D01*
X102843848Y-79352327D01*
X102792067Y-79335240D01*
X99400995Y-77300597D01*
X99399072Y-77299420D01*
X98700488Y-76862805D01*
X98654072Y-76810581D01*
X98643258Y-76741554D01*
X98658183Y-76696770D01*
X101699762Y-71300421D01*
X101700283Y-71299509D01*
X105337398Y-65008283D01*
X105387992Y-64960098D01*
X105456607Y-64946915D01*
X105507738Y-64963538D01*
G37*
%TD.AperFunction*%
%TD*%
%TA.AperFunction,Conductor*%
%TO.N,Net-(D3-K)*%
G36*
X103943039Y-98019685D02*
G01*
X103988794Y-98072489D01*
X104000000Y-98124000D01*
X104000000Y-108876000D01*
X103980315Y-108943039D01*
X103927511Y-108988794D01*
X103876000Y-109000000D01*
X100015267Y-109000000D01*
X99985192Y-108996298D01*
X99456280Y-108864069D01*
X99396017Y-108828712D01*
X99368650Y-108782777D01*
X99334814Y-108680666D01*
X99242712Y-108531344D01*
X99118656Y-108407288D01*
X98969334Y-108315186D01*
X98802797Y-108260001D01*
X98802795Y-108260000D01*
X98700010Y-108249500D01*
X97299998Y-108249500D01*
X97299981Y-108249501D01*
X97197203Y-108260000D01*
X97197196Y-108260002D01*
X97163766Y-108271080D01*
X97094689Y-108273672D01*
X96093926Y-108023481D01*
X96033662Y-107988124D01*
X96002080Y-107925800D01*
X96000000Y-107903183D01*
X96000000Y-105173896D01*
X96002255Y-105166215D01*
X96000983Y-105158312D01*
X96011958Y-105133170D01*
X96019685Y-105106857D01*
X96026448Y-105099979D01*
X96028937Y-105094278D01*
X96055214Y-105070724D01*
X96121815Y-105026325D01*
X96188514Y-105005517D01*
X96190596Y-105005500D01*
X96737272Y-105005500D01*
X96747418Y-105004955D01*
X96791310Y-105002603D01*
X96791318Y-105002602D01*
X96791320Y-105002602D01*
X96791321Y-105002602D01*
X96798314Y-105001849D01*
X96817668Y-104999769D01*
X96817678Y-104999767D01*
X96817681Y-104999767D01*
X96827280Y-104998211D01*
X96871080Y-104991114D01*
X97005889Y-104940832D01*
X97067212Y-104907347D01*
X97067215Y-104907346D01*
X97182397Y-104821120D01*
X97192865Y-104810650D01*
X97199751Y-104805455D01*
X97202238Y-104804516D01*
X97209334Y-104798904D01*
X97233421Y-104784047D01*
X97259499Y-104771887D01*
X97290766Y-104761526D01*
X97317196Y-104755873D01*
X97319516Y-104755636D01*
X97332063Y-104755000D01*
X98667944Y-104755000D01*
X98680485Y-104755636D01*
X98682803Y-104755872D01*
X98709238Y-104761528D01*
X98740489Y-104771884D01*
X98766578Y-104784049D01*
X98795530Y-104801907D01*
X98888641Y-104846909D01*
X98912786Y-104855660D01*
X98936078Y-104864104D01*
X98936084Y-104864105D01*
X98936090Y-104864108D01*
X98936095Y-104864109D01*
X98936104Y-104864112D01*
X98996673Y-104879272D01*
X99036417Y-104889220D01*
X99180297Y-104889219D01*
X99249455Y-104879275D01*
X99387504Y-104838740D01*
X99508543Y-104760952D01*
X99561347Y-104715197D01*
X99655567Y-104606463D01*
X99715338Y-104475586D01*
X99735023Y-104408547D01*
X99735024Y-104408543D01*
X99755500Y-104266127D01*
X99755500Y-100106251D01*
X99755500Y-100106242D01*
X99755499Y-100106241D01*
X99747744Y-100018037D01*
X99740192Y-99975425D01*
X99717164Y-99889928D01*
X99648994Y-99763222D01*
X99629077Y-99736268D01*
X99607476Y-99707036D01*
X99607472Y-99707031D01*
X99607465Y-99707023D01*
X99545777Y-99644565D01*
X99512673Y-99583035D01*
X99510000Y-99557429D01*
X99510000Y-98249499D01*
X99529685Y-98182460D01*
X99582489Y-98136705D01*
X99634000Y-98125499D01*
X100397871Y-98125499D01*
X100397872Y-98125499D01*
X100457483Y-98119091D01*
X100592331Y-98068796D01*
X100651191Y-98024733D01*
X100716653Y-98000316D01*
X100725501Y-98000000D01*
X103876000Y-98000000D01*
X103943039Y-98019685D01*
G37*
%TD.AperFunction*%
%TD*%
%TA.AperFunction,Conductor*%
%TO.N,V+*%
G36*
X110306944Y-100019685D02*
G01*
X110327581Y-100036314D01*
X110422402Y-100131135D01*
X110560607Y-100212869D01*
X110601268Y-100224682D01*
X110714791Y-100257664D01*
X110714794Y-100257664D01*
X110714796Y-100257665D01*
X110750819Y-100260500D01*
X111249180Y-100260499D01*
X111285204Y-100257665D01*
X111439393Y-100212869D01*
X111577598Y-100131135D01*
X111672415Y-100036317D01*
X111699346Y-100021611D01*
X111725160Y-100005023D01*
X111731359Y-100004131D01*
X111733736Y-100002834D01*
X111760095Y-100000000D01*
X111900501Y-100000000D01*
X111967540Y-100019685D01*
X112013295Y-100072489D01*
X112024501Y-100124000D01*
X112024501Y-100211686D01*
X112034825Y-100312752D01*
X112089092Y-100476515D01*
X112089093Y-100476518D01*
X112179661Y-100623351D01*
X112218629Y-100662319D01*
X112252114Y-100723642D01*
X112247130Y-100793334D01*
X112218629Y-100837681D01*
X112179661Y-100876648D01*
X112089093Y-101023481D01*
X112089092Y-101023484D01*
X112034826Y-101187247D01*
X112034826Y-101187248D01*
X112034825Y-101187248D01*
X112024500Y-101288315D01*
X112024500Y-101961669D01*
X112024501Y-101961687D01*
X112034825Y-102062752D01*
X112034826Y-102062756D01*
X112052955Y-102117464D01*
X112052956Y-102117467D01*
X112055648Y-102125594D01*
X112056448Y-102129933D01*
X112060281Y-102139576D01*
X112061422Y-102143019D01*
X112089090Y-102226513D01*
X112089091Y-102226515D01*
X112099604Y-102243559D01*
X112109289Y-102262836D01*
X112109605Y-102263631D01*
X112109610Y-102263641D01*
X112302522Y-102599616D01*
X112318833Y-102667555D01*
X112301720Y-102724481D01*
X112227133Y-102850602D01*
X112227129Y-102850611D01*
X112182335Y-103004791D01*
X112182334Y-103004797D01*
X112179500Y-103040811D01*
X112179500Y-103439169D01*
X112179501Y-103439191D01*
X112182335Y-103475205D01*
X112227129Y-103629388D01*
X112227131Y-103629393D01*
X112308863Y-103767595D01*
X112308869Y-103767603D01*
X112422396Y-103881130D01*
X112422400Y-103881133D01*
X112422402Y-103881135D01*
X112560607Y-103962869D01*
X112601268Y-103974682D01*
X112714791Y-104007664D01*
X112714794Y-104007664D01*
X112714796Y-104007665D01*
X112750819Y-104010500D01*
X113249180Y-104010499D01*
X113285204Y-104007665D01*
X113439393Y-103962869D01*
X113577598Y-103881135D01*
X113691135Y-103767598D01*
X113772869Y-103629393D01*
X113817665Y-103475204D01*
X113820500Y-103439181D01*
X113820499Y-103040820D01*
X113817665Y-103004796D01*
X113772869Y-102850607D01*
X113772866Y-102850602D01*
X113698279Y-102724481D01*
X113681096Y-102656757D01*
X113697477Y-102599616D01*
X113890394Y-102263633D01*
X113895628Y-102254289D01*
X113895630Y-102254284D01*
X113897629Y-102249970D01*
X113898089Y-102250183D01*
X113904849Y-102236336D01*
X113910908Y-102226516D01*
X113965174Y-102062753D01*
X113975500Y-101961677D01*
X113975499Y-101288324D01*
X113965174Y-101187247D01*
X113910908Y-101023484D01*
X113820340Y-100876650D01*
X113781371Y-100837681D01*
X113747886Y-100776358D01*
X113752870Y-100706666D01*
X113781371Y-100662319D01*
X113820340Y-100623350D01*
X113910908Y-100476516D01*
X113965174Y-100312753D01*
X113975500Y-100211677D01*
X113975500Y-100124000D01*
X113995185Y-100056961D01*
X114047989Y-100011206D01*
X114099500Y-100000000D01*
X118876000Y-100000000D01*
X118943039Y-100019685D01*
X118988794Y-100072489D01*
X119000000Y-100124000D01*
X119000000Y-111085609D01*
X118980315Y-111152648D01*
X118927511Y-111198403D01*
X118858353Y-111208347D01*
X118841935Y-111204838D01*
X108589935Y-108275695D01*
X108530882Y-108238351D01*
X108501394Y-108175009D01*
X108500000Y-108156466D01*
X108500000Y-100124000D01*
X108519685Y-100056961D01*
X108572489Y-100011206D01*
X108624000Y-100000000D01*
X110239905Y-100000000D01*
X110306944Y-100019685D01*
G37*
%TD.AperFunction*%
%TD*%
%TA.AperFunction,Conductor*%
%TO.N,V+*%
G36*
X118114239Y-71666639D02*
G01*
X123892890Y-75037519D01*
X123940879Y-75088302D01*
X123953795Y-75156967D01*
X123937519Y-75207108D01*
X117062940Y-86992101D01*
X117012157Y-87040090D01*
X116943492Y-87053006D01*
X116892566Y-87036268D01*
X111205990Y-83662875D01*
X111158375Y-83611741D01*
X111145964Y-83542983D01*
X111162218Y-83493626D01*
X117300000Y-73000000D01*
X117940853Y-71718293D01*
X117988439Y-71667136D01*
X118056131Y-71649826D01*
X118114239Y-71666639D01*
G37*
%TD.AperFunction*%
%TD*%
%TA.AperFunction,Conductor*%
%TO.N,Vsense*%
G36*
X101821282Y-92460389D02*
G01*
X102336525Y-92647204D01*
X102343134Y-92653244D01*
X102344236Y-92658202D01*
X102344236Y-92841797D01*
X102340809Y-92850070D01*
X102336524Y-92852796D01*
X101821290Y-93039608D01*
X101812344Y-93039207D01*
X101806303Y-93032597D01*
X101805837Y-93030939D01*
X101749469Y-92752318D01*
X101749469Y-92747680D01*
X101805835Y-92469067D01*
X101810834Y-92461641D01*
X101819622Y-92459922D01*
X101821282Y-92460389D01*
G37*
%TD.AperFunction*%
%TD*%
%TA.AperFunction,Conductor*%
%TO.N,Vsense*%
G36*
X111101427Y-98953427D02*
G01*
X111103354Y-98955969D01*
X111265368Y-99244309D01*
X111266433Y-99253200D01*
X111262913Y-99258810D01*
X111007745Y-99484160D01*
X110999275Y-99487068D01*
X110992255Y-99484160D01*
X110737086Y-99258810D01*
X110733153Y-99250765D01*
X110734630Y-99244310D01*
X110896646Y-98955968D01*
X110903686Y-98950435D01*
X110906846Y-98950000D01*
X111093154Y-98950000D01*
X111101427Y-98953427D01*
G37*
%TD.AperFunction*%
%TD*%
%TA.AperFunction,Conductor*%
%TO.N,Net-(U1-BOOT)*%
G36*
X100112966Y-93155310D02*
G01*
X100399790Y-93346527D01*
X100404773Y-93353966D01*
X100405000Y-93356261D01*
X100405000Y-93543738D01*
X100401573Y-93552011D01*
X100399790Y-93553473D01*
X100112967Y-93744688D01*
X100104182Y-93746426D01*
X100098218Y-93743240D01*
X99898050Y-93543738D01*
X99812313Y-93458285D01*
X99808873Y-93450019D01*
X99812285Y-93441741D01*
X100098218Y-93156758D01*
X100106496Y-93153346D01*
X100112966Y-93155310D01*
G37*
%TD.AperFunction*%
%TD*%
%TA.AperFunction,Conductor*%
%TO.N,Net-(U1-BOOT)*%
G36*
X101852551Y-94841427D02*
G01*
X101853513Y-94842517D01*
X102193665Y-95279856D01*
X102196040Y-95288490D01*
X102192712Y-95295303D01*
X101758282Y-95730699D01*
X101750013Y-95734135D01*
X101741736Y-95730717D01*
X101741718Y-95730699D01*
X101307287Y-95295303D01*
X101303869Y-95287026D01*
X101306334Y-95279856D01*
X101646487Y-94842517D01*
X101654271Y-94838090D01*
X101655722Y-94838000D01*
X101844278Y-94838000D01*
X101852551Y-94841427D01*
G37*
%TD.AperFunction*%
%TD*%
%TA.AperFunction,Conductor*%
%TO.N,Net-(D3-K)*%
G36*
X101758264Y-97269282D02*
G01*
X101758282Y-97269300D01*
X102192712Y-97704696D01*
X102196130Y-97712973D01*
X102193665Y-97720143D01*
X101975999Y-98000000D01*
X101976000Y-98000000D01*
X101850000Y-98162000D01*
X101650000Y-98162000D01*
X101524000Y-98000000D01*
X101306334Y-97720143D01*
X101303959Y-97711509D01*
X101307286Y-97704697D01*
X101741718Y-97269299D01*
X101749987Y-97265864D01*
X101758264Y-97269282D01*
G37*
%TD.AperFunction*%
%TD*%
%TA.AperFunction,Conductor*%
%TO.N,Net-(LED3-A)*%
G36*
X113101427Y-102703427D02*
G01*
X113103354Y-102705969D01*
X113265368Y-102994309D01*
X113266433Y-103003200D01*
X113262913Y-103008810D01*
X113007745Y-103234160D01*
X112999275Y-103237068D01*
X112992255Y-103234160D01*
X112737086Y-103008810D01*
X112733153Y-103000765D01*
X112734630Y-102994310D01*
X112896646Y-102705968D01*
X112903686Y-102700435D01*
X112906846Y-102700000D01*
X113093154Y-102700000D01*
X113101427Y-102703427D01*
G37*
%TD.AperFunction*%
%TD*%
%TA.AperFunction,Conductor*%
%TO.N,Net-(LED3-A)*%
G36*
X113007472Y-101630204D02*
G01*
X113449346Y-101997097D01*
X113453522Y-102005019D01*
X113452018Y-102011925D01*
X113103373Y-102619126D01*
X113096282Y-102624594D01*
X113093227Y-102625000D01*
X112906773Y-102625000D01*
X112898500Y-102621573D01*
X112896627Y-102619126D01*
X112547981Y-102011925D01*
X112546833Y-102003044D01*
X112550651Y-101997099D01*
X112992527Y-101630204D01*
X113001080Y-101627557D01*
X113007472Y-101630204D01*
G37*
%TD.AperFunction*%
%TD*%
%TA.AperFunction,Conductor*%
%TO.N,Vsense*%
G36*
X97937655Y-91460792D02*
G01*
X97943696Y-91467402D01*
X97944165Y-91469070D01*
X98000530Y-91747680D01*
X98000530Y-91752320D01*
X97944165Y-92030929D01*
X97939165Y-92038358D01*
X97930377Y-92040077D01*
X97928709Y-92039608D01*
X97413476Y-91852796D01*
X97406866Y-91846755D01*
X97405764Y-91841797D01*
X97405764Y-91658202D01*
X97409191Y-91649929D01*
X97413473Y-91647204D01*
X97928711Y-91460391D01*
X97937655Y-91460792D01*
G37*
%TD.AperFunction*%
%TD*%
%TA.AperFunction,Conductor*%
%TO.N,Vsense*%
G36*
X96256507Y-89753358D02*
G01*
X96875077Y-90167650D01*
X96880044Y-90175101D01*
X96879067Y-90182530D01*
X96353214Y-91252817D01*
X96346490Y-91258732D01*
X96342713Y-91259358D01*
X96157287Y-91259358D01*
X96149014Y-91255931D01*
X96146786Y-91252817D01*
X95620931Y-90182528D01*
X95620359Y-90173594D01*
X95624920Y-90167651D01*
X96243490Y-89753359D01*
X96252270Y-89751603D01*
X96256507Y-89753358D01*
G37*
%TD.AperFunction*%
%TD*%
%TA.AperFunction,Conductor*%
%TO.N,Vsense*%
G36*
X96096765Y-92378427D02*
G01*
X96098433Y-92380530D01*
X96289620Y-92688532D01*
X96291071Y-92697368D01*
X96290568Y-92698982D01*
X96005889Y-93423295D01*
X95999674Y-93429741D01*
X95990720Y-93429904D01*
X95984274Y-93423689D01*
X95984111Y-93423295D01*
X95699431Y-92698982D01*
X95699594Y-92690028D01*
X95700375Y-92688538D01*
X95891567Y-92380529D01*
X95898842Y-92375308D01*
X95901508Y-92375000D01*
X96088492Y-92375000D01*
X96096765Y-92378427D01*
G37*
%TD.AperFunction*%
%TD*%
M02*
