%TF.GenerationSoftware,KiCad,Pcbnew,9.0.5*%
%TF.CreationDate,2025-12-02T14:51:34+09:00*%
%TF.ProjectId,2025_power,32303235-5f70-46f7-9765-722e6b696361,rev?*%
%TF.SameCoordinates,Original*%
%TF.FileFunction,Copper,L1,Top*%
%TF.FilePolarity,Positive*%
%FSLAX46Y46*%
G04 Gerber Fmt 4.6, Leading zero omitted, Abs format (unit mm)*
G04 Created by KiCad (PCBNEW 9.0.5) date 2025-12-02 14:51:34*
%MOMM*%
%LPD*%
G01*
G04 APERTURE LIST*
G04 Aperture macros list*
%AMRoundRect*
0 Rectangle with rounded corners*
0 $1 Rounding radius*
0 $2 $3 $4 $5 $6 $7 $8 $9 X,Y pos of 4 corners*
0 Add a 4 corners polygon primitive as box body*
4,1,4,$2,$3,$4,$5,$6,$7,$8,$9,$2,$3,0*
0 Add four circle primitives for the rounded corners*
1,1,$1+$1,$2,$3*
1,1,$1+$1,$4,$5*
1,1,$1+$1,$6,$7*
1,1,$1+$1,$8,$9*
0 Add four rect primitives between the rounded corners*
20,1,$1+$1,$2,$3,$4,$5,0*
20,1,$1+$1,$4,$5,$6,$7,0*
20,1,$1+$1,$6,$7,$8,$9,0*
20,1,$1+$1,$8,$9,$2,$3,0*%
%AMHorizOval*
0 Thick line with rounded ends*
0 $1 width*
0 $2 $3 position (X,Y) of the first rounded end (center of the circle)*
0 $4 $5 position (X,Y) of the second rounded end (center of the circle)*
0 Add line between two ends*
20,1,$1,$2,$3,$4,$5,0*
0 Add two circle primitives to create the rounded ends*
1,1,$1,$2,$3*
1,1,$1,$4,$5*%
%AMRotRect*
0 Rectangle, with rotation*
0 The origin of the aperture is its center*
0 $1 length*
0 $2 width*
0 $3 Rotation angle, in degrees counterclockwise*
0 Add horizontal line*
21,1,$1,$2,0,0,$3*%
G04 Aperture macros list end*
%TA.AperFunction,SMDPad,CuDef*%
%ADD10RotRect,2.500000X4.000000X120.000000*%
%TD*%
%TA.AperFunction,ComponentPad*%
%ADD11C,1.524000*%
%TD*%
%TA.AperFunction,SMDPad,CuDef*%
%ADD12RoundRect,0.135000X-0.024413X-0.227715X0.209413X-0.092715X0.024413X0.227715X-0.209413X0.092715X0*%
%TD*%
%TA.AperFunction,SMDPad,CuDef*%
%ADD13RotRect,0.900000X0.900000X210.000000*%
%TD*%
%TA.AperFunction,SMDPad,CuDef*%
%ADD14RoundRect,0.237500X-0.130232X-0.349431X0.367732X-0.061931X0.130232X0.349431X-0.367732X0.061931X0*%
%TD*%
%TA.AperFunction,ComponentPad*%
%ADD15RoundRect,0.250001X-1.099999X-1.099999X1.099999X-1.099999X1.099999X1.099999X-1.099999X1.099999X0*%
%TD*%
%TA.AperFunction,ComponentPad*%
%ADD16C,2.700000*%
%TD*%
%TA.AperFunction,SMDPad,CuDef*%
%ADD17RoundRect,0.250000X1.015544X1.741025X-2.015544X-0.008975X-1.015544X-1.741025X2.015544X0.008975X0*%
%TD*%
%TA.AperFunction,SMDPad,CuDef*%
%ADD18RoundRect,0.250000X0.849519X0.028590X0.449519X0.721410X-0.849519X-0.028590X-0.449519X-0.721410X0*%
%TD*%
%TA.AperFunction,SMDPad,CuDef*%
%ADD19RoundRect,0.250000X1.024519X-0.274519X0.274519X1.024519X-1.024519X0.274519X-0.274519X-1.024519X0*%
%TD*%
%TA.AperFunction,ComponentPad*%
%ADD20RoundRect,0.250000X0.949519X-0.144615X0.349519X0.894615X-0.949519X0.144615X-0.349519X-0.894615X0*%
%TD*%
%TA.AperFunction,ComponentPad*%
%ADD21HorizOval,1.700000X0.129904X0.075000X-0.129904X-0.075000X0*%
%TD*%
%TA.AperFunction,SMDPad,CuDef*%
%ADD22RoundRect,0.030000X-0.510189X-0.606327X0.780189X0.138673X0.510189X0.606327X-0.780189X-0.138673X0*%
%TD*%
%TA.AperFunction,SMDPad,CuDef*%
%ADD23RotRect,2.950000X4.900000X30.000000*%
%TD*%
%TA.AperFunction,SMDPad,CuDef*%
%ADD24RoundRect,0.250000X1.500000X0.550000X-1.500000X0.550000X-1.500000X-0.550000X1.500000X-0.550000X0*%
%TD*%
%TA.AperFunction,SMDPad,CuDef*%
%ADD25RoundRect,0.250000X-0.541025X-1.062917X1.191025X-0.062917X0.541025X1.062917X-1.191025X0.062917X0*%
%TD*%
%TA.AperFunction,ComponentPad*%
%ADD26RoundRect,0.250000X-0.943894X0.177665X-0.380528X-0.881872X0.943894X-0.177665X0.380528X0.881872X0*%
%TD*%
%TA.AperFunction,ComponentPad*%
%ADD27HorizOval,1.700000X-0.132442X-0.070421X0.132442X0.070421X0*%
%TD*%
%TA.AperFunction,SMDPad,CuDef*%
%ADD28RoundRect,0.250000X1.024038X1.226314X-1.574038X-0.273686X-1.024038X-1.226314X1.574038X0.273686X0*%
%TD*%
%TA.AperFunction,SMDPad,CuDef*%
%ADD29RoundRect,0.250000X1.000000X-1.950000X1.000000X1.950000X-1.000000X1.950000X-1.000000X-1.950000X0*%
%TD*%
%TA.AperFunction,SMDPad,CuDef*%
%ADD30RotRect,0.900000X0.900000X120.000000*%
%TD*%
%TA.AperFunction,SMDPad,CuDef*%
%ADD31RoundRect,0.250000X0.634327X1.001314X-1.184327X-0.048686X-0.634327X-1.001314X1.184327X0.048686X0*%
%TD*%
%TA.AperFunction,ComponentPad*%
%ADD32O,1.800000X2.500000*%
%TD*%
%TA.AperFunction,ComponentPad*%
%ADD33O,1.800000X2.600000*%
%TD*%
%TA.AperFunction,ComponentPad*%
%ADD34O,1.500000X2.500000*%
%TD*%
%TA.AperFunction,ViaPad*%
%ADD35C,0.600000*%
%TD*%
%TA.AperFunction,Conductor*%
%ADD36C,0.500000*%
%TD*%
%TA.AperFunction,Conductor*%
%ADD37C,0.200000*%
%TD*%
G04 APERTURE END LIST*
D10*
%TO.P,L1,1,1*%
%TO.N,Net-(D3-K)*%
X116618935Y-83275550D03*
%TO.P,L1,2,2*%
%TO.N,V+*%
X112118935Y-75481322D03*
%TD*%
D11*
%TO.P,TP1,1,1*%
%TO.N,GND*%
X133972036Y-115252690D03*
%TD*%
D12*
%TO.P,R4,1*%
%TO.N,Net-(LED3-A)*%
X103808327Y-78005000D03*
%TO.P,R4,2*%
%TO.N,V+*%
X104691673Y-77495000D03*
%TD*%
D13*
%TO.P,C9,1*%
%TO.N,Net-(D3-K)*%
X108493592Y-87678044D03*
%TO.P,C9,2*%
%TO.N,Net-(U1-BOOT)*%
X107173770Y-88440044D03*
%TD*%
D14*
%TO.P,LED3,1,K*%
%TO.N,GND*%
X100894152Y-79687501D03*
%TO.P,LED3,2,A*%
%TO.N,Net-(LED3-A)*%
X102409696Y-78812501D03*
%TD*%
D15*
%TO.P,J1,1,Pin_1*%
%TO.N,+12V*%
X112747658Y-105711377D03*
D16*
%TO.P,J1,2,Pin_2*%
%TO.N,GND*%
X116707658Y-105711377D03*
%TD*%
D17*
%TO.P,C2,1*%
%TO.N,V+*%
X93186138Y-74002690D03*
%TO.P,C2,2*%
%TO.N,GND*%
X86257934Y-78002690D03*
%TD*%
D18*
%TO.P,RV1,1,1*%
%TO.N,unconnected-(RV1-Pad1)*%
X103151629Y-83949495D03*
D19*
%TO.P,RV1,2,2*%
%TO.N,GND*%
X107190731Y-82945424D03*
D18*
%TO.P,RV1,3,3*%
%TO.N,Vsense*%
X104301629Y-85941353D03*
%TD*%
D20*
%TO.P,J6,1,Pin_1*%
%TO.N,V+*%
X130642372Y-84847722D03*
D21*
%TO.P,J6,2,Pin_2*%
%TO.N,GND*%
X129392372Y-82682658D03*
%TD*%
D15*
%TO.P,J2,1,Pin_1*%
%TO.N,+12V*%
X102589420Y-105740954D03*
D16*
%TO.P,J2,2,Pin_2*%
%TO.N,GND*%
X106549420Y-105740954D03*
%TD*%
D22*
%TO.P,U1,1,BOOT*%
%TO.N,Net-(U1-BOOT)*%
X106164802Y-91268464D03*
%TO.P,U1,2,NC_2*%
%TO.N,unconnected-(U1-NC_2-Pad2)*%
X106799802Y-92368316D03*
%TO.P,U1,3,NC_3*%
%TO.N,unconnected-(U1-NC_3-Pad3)*%
X107434802Y-93468168D03*
%TO.P,U1,4,VSENSE*%
%TO.N,Vsense*%
X108069802Y-94568020D03*
%TO.P,U1,5,ENA*%
%TO.N,unconnected-(U1-ENA-Pad5)*%
X112746340Y-91868020D03*
%TO.P,U1,6,GND*%
%TO.N,GND*%
X112111340Y-90768168D03*
%TO.P,U1,7,VIN*%
%TO.N,+V_SW*%
X111476340Y-89668316D03*
%TO.P,U1,8,PH*%
%TO.N,Net-(D3-K)*%
X110841340Y-88568464D03*
D23*
%TO.P,U1,9,POWERPAD*%
%TO.N,GND*%
X109455571Y-91568242D03*
%TD*%
D24*
%TO.P,C5,1*%
%TO.N,+V_SW*%
X117422036Y-99002690D03*
%TO.P,C5,2*%
%TO.N,GND*%
X112022036Y-99002690D03*
%TD*%
D25*
%TO.P,D3,1,K*%
%TO.N,Net-(D3-K)*%
X118642433Y-86930234D03*
%TO.P,D3,2,A*%
%TO.N,GND*%
X122106535Y-84930234D03*
%TD*%
D11*
%TO.P,TP4,1,1*%
%TO.N,Net-(D3-K)*%
X110864770Y-86309044D03*
%TD*%
D20*
%TO.P,J8,1,Pin_1*%
%TO.N,V+*%
X121228914Y-68487691D03*
D21*
%TO.P,J8,2,Pin_2*%
%TO.N,GND*%
X119978914Y-66322627D03*
%TD*%
D24*
%TO.P,C4,1*%
%TO.N,+V_SW*%
X137922036Y-93002690D03*
%TO.P,C4,2*%
%TO.N,GND*%
X132522036Y-93002690D03*
%TD*%
D11*
%TO.P,TP2,1,1*%
%TO.N,+V_SW*%
X116045593Y-88906374D03*
%TD*%
%TO.P,TP3,1,1*%
%TO.N,Vsense*%
X101610553Y-88452690D03*
%TD*%
D26*
%TO.P,J9,1,Pin_1*%
%TO.N,V+*%
X79089783Y-78869964D03*
D27*
%TO.P,J9,2,Pin_2*%
%TO.N,GND*%
X80263462Y-81077333D03*
%TD*%
D20*
%TO.P,J7,1,Pin_1*%
%TO.N,V+*%
X116478914Y-60237691D03*
D21*
%TO.P,J7,2,Pin_2*%
%TO.N,GND*%
X115228914Y-58072627D03*
%TD*%
D12*
%TO.P,R1,1*%
%TO.N,Vsense*%
X105798097Y-78553309D03*
%TO.P,R1,2*%
%TO.N,V+*%
X106681443Y-78043309D03*
%TD*%
D28*
%TO.P,C8,1*%
%TO.N,V+*%
X96396907Y-84352690D03*
%TO.P,C8,2*%
%TO.N,GND*%
X91547165Y-87152690D03*
%TD*%
D20*
%TO.P,J3,1,Pin_1*%
%TO.N,V+*%
X125978914Y-76737691D03*
D21*
%TO.P,J3,2,Pin_2*%
%TO.N,GND*%
X124728914Y-74572627D03*
%TD*%
D26*
%TO.P,J5,1,Pin_1*%
%TO.N,V+*%
X91848744Y-102402533D03*
D27*
%TO.P,J5,2,Pin_2*%
%TO.N,GND*%
X93022423Y-104609902D03*
%TD*%
D29*
%TO.P,C1,1*%
%TO.N,+V_SW*%
X137472036Y-107952690D03*
%TO.P,C1,2*%
%TO.N,GND*%
X137472036Y-99552690D03*
%TD*%
D28*
%TO.P,C6,1*%
%TO.N,V+*%
X102060305Y-66902690D03*
%TO.P,C6,2*%
%TO.N,GND*%
X97383767Y-69602690D03*
%TD*%
D30*
%TO.P,C3,1*%
%TO.N,GND*%
X113895288Y-90058057D03*
%TO.P,C3,2*%
%TO.N,+V_SW*%
X113133288Y-88738235D03*
%TD*%
D31*
%TO.P,C10,1*%
%TO.N,V+*%
X98030882Y-91352690D03*
%TO.P,C10,2*%
%TO.N,GND*%
X94913190Y-93152690D03*
%TD*%
D26*
%TO.P,J4,1,Pin_1*%
%TO.N,V+*%
X83348744Y-86652533D03*
D27*
%TO.P,J4,2,Pin_2*%
%TO.N,GND*%
X84522423Y-88859902D03*
%TD*%
D32*
%TO.P,SW1,1,1*%
%TO.N,+12V*%
X122487305Y-114967331D03*
%TO.P,SW1,2,2*%
%TO.N,+V_SW*%
X122487304Y-110467331D03*
D33*
%TO.P,SW1,3,3*%
%TO.N,unconnected-(SW1-Pad3)*%
X122487304Y-105967331D03*
D32*
%TO.P,SW1,4,4*%
%TO.N,unconnected-(SW1-Pad4)*%
X122487303Y-101467331D03*
%TO.P,SW1,5,5*%
%TO.N,+12V*%
X128987305Y-114967331D03*
%TO.P,SW1,6,6*%
%TO.N,+V_SW*%
X128987304Y-110467331D03*
D34*
%TO.P,SW1,7,7*%
%TO.N,unconnected-(SW1-Pad7)*%
X128987304Y-105967331D03*
D32*
%TO.P,SW1,8*%
%TO.N,N/C*%
X128987303Y-101467331D03*
%TD*%
D11*
%TO.P,TP5,1,1*%
%TO.N,V+*%
X119022036Y-74352690D03*
%TD*%
D26*
%TO.P,J10,1,Pin_1*%
%TO.N,V+*%
X87598744Y-94402533D03*
D27*
%TO.P,J10,2,Pin_2*%
%TO.N,GND*%
X88772423Y-96609902D03*
%TD*%
D28*
%TO.P,C7,1*%
%TO.N,V+*%
X110810305Y-61902690D03*
%TO.P,C7,2*%
%TO.N,GND*%
X106133767Y-64602690D03*
%TD*%
D35*
%TO.N,GND*%
X99750000Y-80500000D03*
X95122036Y-94952690D03*
X108122036Y-65952690D03*
X96122036Y-68352690D03*
X99322036Y-70452690D03*
X134722036Y-98502690D03*
X110722036Y-100752690D03*
X110722036Y-101752690D03*
X114422036Y-100752690D03*
X84922036Y-76452690D03*
X114422036Y-101652690D03*
X86522036Y-75452690D03*
X120722036Y-84002690D03*
X133722036Y-95752690D03*
X133722036Y-98502690D03*
X96922036Y-71652690D03*
X124722036Y-88002690D03*
X106422036Y-81052690D03*
X106522036Y-66952690D03*
X91722036Y-85152690D03*
X123972036Y-85752690D03*
X122972036Y-87502690D03*
X112522036Y-101652690D03*
X123972036Y-87752690D03*
X90922036Y-85552690D03*
X123722036Y-87002690D03*
X97822036Y-71452690D03*
X107022036Y-65752690D03*
X94422036Y-95452690D03*
X92722036Y-92552690D03*
X123222036Y-88252690D03*
X85822036Y-80452690D03*
X105822036Y-67352690D03*
X123972036Y-88502690D03*
X104022036Y-63952690D03*
X92722036Y-88352690D03*
X89522036Y-86352690D03*
X121472036Y-83502690D03*
X134722036Y-97502690D03*
X85722036Y-75952690D03*
X93422036Y-92052690D03*
X88422036Y-78952690D03*
X113522036Y-101652690D03*
X134722036Y-96752690D03*
X111622036Y-101752690D03*
X107322036Y-66452690D03*
X95322036Y-68752690D03*
X123222036Y-86252690D03*
X122222036Y-83002690D03*
X133722036Y-96752690D03*
X111622036Y-100752690D03*
X134722036Y-99502690D03*
X87522036Y-79452690D03*
X134722036Y-94752690D03*
X105622036Y-62952690D03*
X86722036Y-79952690D03*
X96522036Y-94152690D03*
X114622036Y-91252690D03*
X106422036Y-62552690D03*
X113522036Y-100752690D03*
X104822036Y-63452690D03*
X94222036Y-91652690D03*
X96822036Y-67952690D03*
X93422036Y-87852690D03*
X124472036Y-86502690D03*
X105522036Y-66652690D03*
X134722036Y-100502690D03*
X94922036Y-91252690D03*
X91922036Y-88852690D03*
X90222036Y-85952690D03*
X133722036Y-97502690D03*
X106322036Y-66152690D03*
X124972036Y-87252690D03*
X97622036Y-67552690D03*
X133722036Y-94752690D03*
X112522036Y-100752690D03*
X134722036Y-95752690D03*
X107822036Y-65252690D03*
X122472036Y-86752690D03*
X98622036Y-70952690D03*
X95822036Y-94552690D03*
X91322036Y-89452690D03*
X84122036Y-76852690D03*
%TO.N,Vsense*%
X103860820Y-89301728D03*
X105494795Y-94131855D03*
X104407454Y-79748525D03*
X105916428Y-84362145D03*
%TD*%
D36*
%TO.N,GND*%
X100081653Y-80500000D02*
X99750000Y-80500000D01*
X100894152Y-79687501D02*
X100081653Y-80500000D01*
%TO.N,Net-(LED3-A)*%
X103000826Y-78812501D02*
X103808327Y-78005000D01*
X102409696Y-78812501D02*
X103000826Y-78812501D01*
%TO.N,GND*%
X113895288Y-90525942D02*
X114622036Y-91252690D01*
D37*
X106422036Y-82176729D02*
X106422036Y-81052690D01*
X109455571Y-91568242D02*
X111006484Y-91568242D01*
X111526818Y-91352690D02*
X112111340Y-90768168D01*
X111222036Y-91352690D02*
X111526818Y-91352690D01*
D36*
X112111339Y-90768168D02*
X113516899Y-89956668D01*
D37*
X107190731Y-82945424D02*
X106422036Y-82176729D01*
X107783465Y-82352690D02*
X107190731Y-82945424D01*
D36*
X113895288Y-90058057D02*
X113895288Y-90525942D01*
D37*
X111006484Y-91568242D02*
X111222036Y-91352690D01*
D36*
X113516899Y-89956668D02*
X113895288Y-90058057D01*
D37*
%TO.N,Net-(U1-BOOT)*%
X106164801Y-91268464D02*
X105481215Y-90084458D01*
X105692715Y-89295131D02*
X107173769Y-88440044D01*
X105481215Y-90084458D02*
X105692715Y-89295131D01*
%TO.N,Vsense*%
X105711368Y-85127439D02*
X104301629Y-85941353D01*
X103077327Y-87444677D02*
X103329799Y-86502439D01*
X106519314Y-94406374D02*
X105494795Y-94131855D01*
X103077327Y-87444677D02*
X102618566Y-87444677D01*
X103329799Y-86502439D02*
X104301629Y-85941353D01*
X104232170Y-86200578D02*
X104301629Y-85941353D01*
X108069802Y-94568020D02*
X106976931Y-95198989D01*
X106976931Y-95198989D02*
X106519314Y-94406374D01*
X103952327Y-88960222D02*
X103077327Y-87444677D01*
X102618566Y-87444677D02*
X101610553Y-88452690D01*
X105916428Y-84362145D02*
X105711368Y-85127439D01*
X104531817Y-79284396D02*
X104407454Y-79748525D01*
X105798097Y-78553309D02*
X104531817Y-79284396D01*
X103860820Y-89301728D02*
X103952327Y-88960222D01*
D36*
%TO.N,+V_SW*%
X111476339Y-89668316D02*
X113101869Y-88729816D01*
X113101869Y-88729816D02*
X113133288Y-88738234D01*
%TD*%
%TA.AperFunction,Conductor*%
%TO.N,V+*%
G36*
X117465133Y-53204563D02*
G01*
X117500548Y-53243554D01*
X135535868Y-84498223D01*
X135535871Y-84498234D01*
X135535874Y-84498233D01*
X137548512Y-87986806D01*
X137591446Y-88061224D01*
X137607897Y-88129130D01*
X137585023Y-88195149D01*
X137530088Y-88238322D01*
X137484039Y-88247190D01*
X135596036Y-88247190D01*
X135596027Y-88247190D01*
X135596026Y-88247191D01*
X135488585Y-88258742D01*
X135488573Y-88258744D01*
X135437063Y-88269950D01*
X135334538Y-88304073D01*
X135334532Y-88304076D01*
X135213498Y-88381861D01*
X135213487Y-88381869D01*
X135160695Y-88427613D01*
X135066469Y-88536354D01*
X135066466Y-88536358D01*
X135006700Y-88667224D01*
X134987012Y-88734272D01*
X134966536Y-88876691D01*
X134966536Y-90123190D01*
X134946851Y-90190229D01*
X134894047Y-90235984D01*
X134842536Y-90247190D01*
X131722036Y-90247190D01*
X129096036Y-90247190D01*
X129096027Y-90247190D01*
X129096026Y-90247191D01*
X128988585Y-90258742D01*
X128988573Y-90258744D01*
X128937063Y-90269950D01*
X128834538Y-90304073D01*
X128834532Y-90304076D01*
X128713498Y-90381861D01*
X128713487Y-90381869D01*
X128660694Y-90427613D01*
X128568915Y-90533530D01*
X128510136Y-90571304D01*
X128440266Y-90571303D01*
X128381489Y-90533527D01*
X128370662Y-90519013D01*
X128354934Y-90494357D01*
X128316278Y-90449441D01*
X128261081Y-90385304D01*
X128261079Y-90385303D01*
X128261080Y-90385303D01*
X128140301Y-90307105D01*
X128140299Y-90307104D01*
X128078633Y-90278691D01*
X128077262Y-90278032D01*
X128076842Y-90277866D01*
X127938931Y-90236868D01*
X127721121Y-90204802D01*
X124501712Y-89730840D01*
X124438255Y-89701601D01*
X124400679Y-89642696D01*
X124400914Y-89572826D01*
X124438887Y-89514176D01*
X124455968Y-89501838D01*
X126125104Y-88500358D01*
X126212467Y-88434068D01*
X126251318Y-88397305D01*
X126322334Y-88313724D01*
X126385281Y-88184344D01*
X126406596Y-88117805D01*
X126414893Y-88068648D01*
X126430542Y-87975936D01*
X126430542Y-87975933D01*
X126417446Y-87865824D01*
X126413549Y-87833061D01*
X126395507Y-87765561D01*
X126395506Y-87765558D01*
X126338948Y-87633260D01*
X124148479Y-84034632D01*
X123389838Y-82788293D01*
X123349603Y-82722192D01*
X127908257Y-82722192D01*
X127908257Y-82722201D01*
X127919381Y-82934473D01*
X127919382Y-82934482D01*
X127963578Y-83142408D01*
X128039754Y-83340855D01*
X128039759Y-83340864D01*
X128092569Y-83432333D01*
X128146044Y-83524955D01*
X128146047Y-83524959D01*
X128146050Y-83524963D01*
X128279817Y-83690153D01*
X128279819Y-83690154D01*
X128279820Y-83690155D01*
X128384492Y-83784402D01*
X128437790Y-83832391D01*
X128437795Y-83832396D01*
X128612655Y-83945951D01*
X128616072Y-83948170D01*
X128810267Y-84034632D01*
X128810268Y-84034632D01*
X128810270Y-84034633D01*
X128903490Y-84059611D01*
X129015597Y-84089650D01*
X129227006Y-84111869D01*
X129439288Y-84100744D01*
X129647216Y-84056548D01*
X129845670Y-83980369D01*
X130289572Y-83724082D01*
X130454773Y-83590306D01*
X130597012Y-83432333D01*
X130712787Y-83254054D01*
X130799250Y-83059859D01*
X130854268Y-82854529D01*
X130876487Y-82643120D01*
X130865362Y-82430838D01*
X130821166Y-82222910D01*
X130821165Y-82222907D01*
X130744989Y-82024460D01*
X130744984Y-82024451D01*
X130638700Y-81840362D01*
X130504923Y-81675161D01*
X130346951Y-81532922D01*
X130346948Y-81532919D01*
X130168673Y-81417146D01*
X129974480Y-81330685D01*
X129974473Y-81330682D01*
X129769146Y-81275665D01*
X129597947Y-81257673D01*
X129557738Y-81253447D01*
X129557736Y-81253447D01*
X129345460Y-81264571D01*
X129345451Y-81264572D01*
X129137525Y-81308768D01*
X128939078Y-81384944D01*
X128939069Y-81384949D01*
X128495177Y-81641230D01*
X128495162Y-81641240D01*
X128329972Y-81775007D01*
X128329971Y-81775009D01*
X128187734Y-81932980D01*
X128187729Y-81932985D01*
X128071956Y-82111260D01*
X127985495Y-82305453D01*
X127985492Y-82305460D01*
X127930475Y-82510787D01*
X127908257Y-82722192D01*
X123349603Y-82722192D01*
X122967898Y-82095106D01*
X122903270Y-82010495D01*
X122892155Y-81998749D01*
X122867566Y-81972764D01*
X122786646Y-81903565D01*
X122754459Y-81887651D01*
X122657670Y-81839796D01*
X122591268Y-81818058D01*
X122591269Y-81818058D01*
X122520412Y-81805634D01*
X122449557Y-81793210D01*
X122449555Y-81793210D01*
X122306573Y-81809292D01*
X122242415Y-81826004D01*
X122240328Y-81826484D01*
X122238964Y-81826902D01*
X122106299Y-81882620D01*
X119851616Y-83235431D01*
X119784003Y-83253043D01*
X119717601Y-83231305D01*
X119680433Y-83191103D01*
X117939439Y-80175612D01*
X117683511Y-79732331D01*
X117683511Y-79732330D01*
X117619780Y-79645050D01*
X117619778Y-79645048D01*
X117619776Y-79645045D01*
X117584316Y-79606038D01*
X117572893Y-79595899D01*
X117503495Y-79534303D01*
X117503492Y-79534302D01*
X117388875Y-79475212D01*
X117375610Y-79468373D01*
X117309583Y-79445520D01*
X117309580Y-79445519D01*
X117309579Y-79445518D01*
X117309577Y-79445518D01*
X117168302Y-79418289D01*
X117168299Y-79418288D01*
X117025070Y-79431965D01*
X117025067Y-79431965D01*
X116960049Y-79447738D01*
X116957570Y-79448277D01*
X116823602Y-79501909D01*
X116823599Y-79501910D01*
X110249026Y-83297742D01*
X110141343Y-83381092D01*
X110141342Y-83381093D01*
X110094933Y-83428289D01*
X110094930Y-83428292D01*
X110094927Y-83428296D01*
X110013408Y-83537354D01*
X110013404Y-83537361D01*
X108699636Y-85903930D01*
X108653221Y-85951132D01*
X107313222Y-86724779D01*
X107313206Y-86724789D01*
X107212793Y-86800896D01*
X107212792Y-86800897D01*
X107168910Y-86843749D01*
X107168907Y-86843752D01*
X107090450Y-86942310D01*
X107090447Y-86942315D01*
X107090446Y-86942317D01*
X107090445Y-86942320D01*
X107033809Y-87074577D01*
X107033807Y-87074583D01*
X107015725Y-87142066D01*
X107015725Y-87142069D01*
X106998644Y-87284932D01*
X106998645Y-87284935D01*
X107008689Y-87344664D01*
X107000394Y-87414039D01*
X106955909Y-87467917D01*
X106948406Y-87472614D01*
X106330604Y-87829301D01*
X106330605Y-87829302D01*
X106321989Y-87834275D01*
X106316335Y-87836428D01*
X106310195Y-87841085D01*
X106303455Y-87844977D01*
X106303451Y-87844981D01*
X106267350Y-87865824D01*
X106218929Y-87901179D01*
X106218927Y-87901181D01*
X106195372Y-87929707D01*
X106195373Y-87929708D01*
X106193978Y-87931398D01*
X106159502Y-87970286D01*
X106153763Y-87980103D01*
X106147385Y-87987828D01*
X106147383Y-87987828D01*
X106127295Y-88012159D01*
X106109151Y-88054530D01*
X106102217Y-88068290D01*
X106086899Y-88094496D01*
X105954348Y-88420517D01*
X105910864Y-88475206D01*
X105901479Y-88481201D01*
X105462556Y-88734614D01*
X105462541Y-88734623D01*
X105323999Y-88814609D01*
X105307058Y-88831551D01*
X105237534Y-88901077D01*
X105212198Y-88926412D01*
X105212196Y-88926415D01*
X105133138Y-89063345D01*
X105133138Y-89063346D01*
X105092214Y-89216074D01*
X105092214Y-89216076D01*
X104921638Y-89852672D01*
X104921638Y-89852673D01*
X104880714Y-90005401D01*
X104880714Y-90005402D01*
X104880714Y-90005403D01*
X104880714Y-90163513D01*
X104883160Y-90172641D01*
X104921637Y-90316243D01*
X104950810Y-90366771D01*
X104998540Y-90449441D01*
X105182503Y-90768075D01*
X105198976Y-90835975D01*
X105176123Y-90902002D01*
X105137117Y-90937461D01*
X105115316Y-90950048D01*
X105083386Y-90968483D01*
X105014684Y-91019967D01*
X105014683Y-91019968D01*
X104923942Y-91134134D01*
X104923941Y-91134135D01*
X104867371Y-91268540D01*
X104849160Y-91413230D01*
X104849160Y-91413233D01*
X104870659Y-91557468D01*
X104870660Y-91557470D01*
X104904418Y-91636415D01*
X104904421Y-91636420D01*
X105215945Y-92175996D01*
X105215956Y-92176014D01*
X105267443Y-92244719D01*
X105267444Y-92244720D01*
X105381606Y-92335458D01*
X105381607Y-92335458D01*
X105381608Y-92335459D01*
X105413564Y-92348909D01*
X105467717Y-92393057D01*
X105489405Y-92459475D01*
X105488490Y-92478683D01*
X105484160Y-92513082D01*
X105484160Y-92513085D01*
X105505659Y-92657320D01*
X105505660Y-92657322D01*
X105539418Y-92736267D01*
X105539421Y-92736272D01*
X105786291Y-93163864D01*
X105802764Y-93231764D01*
X105779911Y-93297791D01*
X105724990Y-93340982D01*
X105655437Y-93347623D01*
X105654713Y-93347481D01*
X105573641Y-93331355D01*
X105573637Y-93331355D01*
X105415953Y-93331355D01*
X105415950Y-93331355D01*
X105261305Y-93362116D01*
X105261293Y-93362119D01*
X105115622Y-93422457D01*
X105115609Y-93422464D01*
X104984506Y-93510065D01*
X104984502Y-93510068D01*
X104873008Y-93621562D01*
X104873005Y-93621566D01*
X104785404Y-93752669D01*
X104785397Y-93752682D01*
X104725059Y-93898353D01*
X104725056Y-93898365D01*
X104694295Y-94053008D01*
X104694295Y-94210701D01*
X104725056Y-94365344D01*
X104725059Y-94365356D01*
X104785397Y-94511027D01*
X104785404Y-94511040D01*
X104873005Y-94642143D01*
X104873008Y-94642147D01*
X104984502Y-94753641D01*
X104984506Y-94753644D01*
X105115609Y-94841245D01*
X105115622Y-94841252D01*
X105249671Y-94896776D01*
X105261298Y-94901592D01*
X105415948Y-94932354D01*
X105415951Y-94932355D01*
X105415953Y-94932355D01*
X105573639Y-94932355D01*
X105573640Y-94932354D01*
X105728292Y-94901592D01*
X105814724Y-94865790D01*
X105837451Y-94863347D01*
X105859224Y-94856387D01*
X105879566Y-94858819D01*
X105884191Y-94858322D01*
X105894268Y-94860577D01*
X105922494Y-94868140D01*
X106074020Y-94908741D01*
X106133681Y-94945106D01*
X106149314Y-94966516D01*
X106453959Y-95494175D01*
X106464252Y-95512003D01*
X106496411Y-95567704D01*
X106608215Y-95679508D01*
X106745146Y-95758566D01*
X106897873Y-95799490D01*
X107055989Y-95799489D01*
X107208715Y-95758566D01*
X107276655Y-95719340D01*
X107293368Y-95715127D01*
X107307281Y-95706762D01*
X107342080Y-95702850D01*
X107342348Y-95702782D01*
X107541522Y-95709144D01*
X107553977Y-95709091D01*
X107556064Y-95709154D01*
X107556824Y-95709402D01*
X107563747Y-95709822D01*
X107565706Y-95709799D01*
X107565708Y-95709800D01*
X107565709Y-95709799D01*
X107569857Y-95709753D01*
X107575754Y-95709307D01*
X107575745Y-95709083D01*
X107577966Y-95708993D01*
X107577983Y-95708993D01*
X107579673Y-95708925D01*
X107669597Y-95697165D01*
X107669600Y-95697163D01*
X107671129Y-95696779D01*
X107695187Y-95690500D01*
X107697368Y-95690174D01*
X107709946Y-95688300D01*
X107788891Y-95654542D01*
X107802241Y-95646833D01*
X107804118Y-95646122D01*
X107811953Y-95641786D01*
X107823555Y-95634528D01*
X109101378Y-94896775D01*
X109169276Y-94880303D01*
X109212188Y-94890175D01*
X109272307Y-94915919D01*
X109272309Y-94915919D01*
X109272313Y-94915921D01*
X109399953Y-94931183D01*
X109415216Y-94933008D01*
X109415216Y-94933007D01*
X109415217Y-94933008D01*
X109534343Y-94912975D01*
X109557141Y-94909142D01*
X109557141Y-94909141D01*
X109557146Y-94909141D01*
X109611974Y-94884886D01*
X112249666Y-93362013D01*
X112298087Y-93326658D01*
X112389721Y-93215677D01*
X112446375Y-93083375D01*
X112454140Y-93018433D01*
X112481643Y-92954208D01*
X112515258Y-92925772D01*
X113827750Y-92168004D01*
X113896459Y-92116515D01*
X113987198Y-92002352D01*
X113998267Y-91976051D01*
X114042416Y-91921898D01*
X114108835Y-91900210D01*
X114176435Y-91917873D01*
X114181448Y-91921052D01*
X114242857Y-91962084D01*
X114242859Y-91962085D01*
X114242863Y-91962087D01*
X114340068Y-92002350D01*
X114388539Y-92022427D01*
X114543189Y-92053189D01*
X114543192Y-92053190D01*
X114543194Y-92053190D01*
X114700880Y-92053190D01*
X114841286Y-92025261D01*
X114910878Y-92031488D01*
X114966055Y-92074351D01*
X114989300Y-92140240D01*
X114989471Y-92148231D01*
X114983054Y-92736267D01*
X114966573Y-94246532D01*
X114966572Y-94246685D01*
X114966571Y-94246684D01*
X114966566Y-94247174D01*
X114966567Y-94247175D01*
X114966563Y-94247657D01*
X114966553Y-94248899D01*
X114966549Y-94249541D01*
X114966549Y-94249551D01*
X114966540Y-94250886D01*
X114966537Y-94251260D01*
X114966539Y-94251363D01*
X114966538Y-94251934D01*
X114966536Y-94253469D01*
X114966536Y-97223190D01*
X114946851Y-97290229D01*
X114894047Y-97335984D01*
X114842536Y-97347190D01*
X110046036Y-97347190D01*
X110046027Y-97347190D01*
X110046026Y-97347191D01*
X109938585Y-97358742D01*
X109938573Y-97358744D01*
X109887063Y-97369950D01*
X109784538Y-97404073D01*
X109784532Y-97404076D01*
X109663498Y-97481861D01*
X109663487Y-97481869D01*
X109610695Y-97527613D01*
X109516469Y-97636354D01*
X109516466Y-97636358D01*
X109456700Y-97767224D01*
X109437012Y-97834272D01*
X109424308Y-97922636D01*
X109416536Y-97976690D01*
X109416536Y-103028690D01*
X109416537Y-103028699D01*
X109425271Y-103109935D01*
X109412866Y-103178694D01*
X109365256Y-103229832D01*
X109301982Y-103247190D01*
X107208306Y-103247190D01*
X107208301Y-103247190D01*
X107208292Y-103247191D01*
X107092057Y-103260738D01*
X107092056Y-103260738D01*
X107036554Y-103273853D01*
X106926527Y-103313777D01*
X106808339Y-103395837D01*
X106757207Y-103443443D01*
X106666926Y-103555475D01*
X106666925Y-103555477D01*
X106662736Y-103565591D01*
X106618894Y-103619994D01*
X106552600Y-103642057D01*
X106484900Y-103624777D01*
X106443861Y-103585176D01*
X106385363Y-103494152D01*
X106385354Y-103494141D01*
X106339610Y-103441349D01*
X106339606Y-103441346D01*
X106339604Y-103441343D01*
X106230870Y-103347123D01*
X106230867Y-103347121D01*
X106230865Y-103347120D01*
X106099999Y-103287354D01*
X106099994Y-103287352D01*
X106099993Y-103287352D01*
X106032954Y-103267667D01*
X106032956Y-103267667D01*
X106032951Y-103267666D01*
X105970881Y-103258742D01*
X105890534Y-103247190D01*
X100346036Y-103247190D01*
X100346027Y-103247190D01*
X100346026Y-103247191D01*
X100238585Y-103258742D01*
X100238573Y-103258744D01*
X100187063Y-103269950D01*
X100084538Y-103304073D01*
X100084532Y-103304076D01*
X99963498Y-103381861D01*
X99963487Y-103381869D01*
X99910695Y-103427613D01*
X99816469Y-103536354D01*
X99816466Y-103536358D01*
X99756700Y-103667224D01*
X99737012Y-103734272D01*
X99716536Y-103876691D01*
X99716536Y-118543811D01*
X99696851Y-118610850D01*
X99644047Y-118656605D01*
X99592299Y-118667811D01*
X92046299Y-118653382D01*
X91979297Y-118633569D01*
X91933643Y-118580678D01*
X91922536Y-118529382D01*
X91922536Y-115281401D01*
X94246536Y-115281401D01*
X94246536Y-115523978D01*
X94278197Y-115764475D01*
X94340983Y-115998794D01*
X94433809Y-116222895D01*
X94433812Y-116222902D01*
X94555100Y-116432979D01*
X94555102Y-116432982D01*
X94555103Y-116432983D01*
X94702769Y-116625426D01*
X94702775Y-116625433D01*
X94874292Y-116796950D01*
X94874298Y-116796955D01*
X95066747Y-116944626D01*
X95276824Y-117065914D01*
X95500936Y-117158744D01*
X95735247Y-117221528D01*
X95915622Y-117245274D01*
X95975747Y-117253190D01*
X95975748Y-117253190D01*
X96218325Y-117253190D01*
X96266424Y-117246857D01*
X96458825Y-117221528D01*
X96693136Y-117158744D01*
X96917248Y-117065914D01*
X97127325Y-116944626D01*
X97319774Y-116796955D01*
X97491301Y-116625428D01*
X97638972Y-116432979D01*
X97760260Y-116222902D01*
X97853090Y-115998790D01*
X97915874Y-115764479D01*
X97947536Y-115523978D01*
X97947536Y-115281402D01*
X97915874Y-115040901D01*
X97853090Y-114806590D01*
X97760260Y-114582478D01*
X97638972Y-114372401D01*
X97491301Y-114179952D01*
X97491296Y-114179946D01*
X97319779Y-114008429D01*
X97319772Y-114008423D01*
X97127329Y-113860757D01*
X97127328Y-113860756D01*
X97127325Y-113860754D01*
X96917248Y-113739466D01*
X96917241Y-113739463D01*
X96693140Y-113646637D01*
X96458821Y-113583851D01*
X96218325Y-113552190D01*
X96218324Y-113552190D01*
X95975748Y-113552190D01*
X95975747Y-113552190D01*
X95735250Y-113583851D01*
X95500931Y-113646637D01*
X95276830Y-113739463D01*
X95276821Y-113739467D01*
X95066742Y-113860757D01*
X94874299Y-114008423D01*
X94874292Y-114008429D01*
X94702775Y-114179946D01*
X94702769Y-114179953D01*
X94555103Y-114372396D01*
X94433813Y-114582475D01*
X94433809Y-114582484D01*
X94340983Y-114806585D01*
X94278197Y-115040904D01*
X94246536Y-115281401D01*
X91922536Y-115281401D01*
X91922536Y-111659502D01*
X91924142Y-111600422D01*
X91922536Y-111593703D01*
X91922536Y-111586798D01*
X91907682Y-111531367D01*
X91906855Y-111528103D01*
X91893505Y-111472248D01*
X91890215Y-111466175D01*
X91888428Y-111459504D01*
X91858884Y-111408334D01*
X88169754Y-104597632D01*
X91537832Y-104597632D01*
X91541541Y-104810162D01*
X91541542Y-104810165D01*
X91578455Y-105019509D01*
X91578457Y-105019514D01*
X91647661Y-105220497D01*
X91647667Y-105220510D01*
X91747460Y-105408193D01*
X91875391Y-105577961D01*
X91875399Y-105577969D01*
X92028296Y-105725620D01*
X92028306Y-105725628D01*
X92202433Y-105847552D01*
X92202438Y-105847555D01*
X92356377Y-105922636D01*
X92393493Y-105940739D01*
X92596778Y-106002889D01*
X92807283Y-106032472D01*
X93019823Y-106028762D01*
X93229167Y-105991849D01*
X93430159Y-105922641D01*
X93882734Y-105682002D01*
X94052503Y-105554071D01*
X94122843Y-105481230D01*
X94200162Y-105401165D01*
X94200170Y-105401155D01*
X94322094Y-105227029D01*
X94415281Y-105035969D01*
X94477431Y-104832684D01*
X94507014Y-104622179D01*
X94503304Y-104409639D01*
X94466391Y-104200295D01*
X94397183Y-103999303D01*
X94297386Y-103811612D01*
X94297385Y-103811610D01*
X94188581Y-103667224D01*
X94169455Y-103641843D01*
X94169446Y-103641834D01*
X94016549Y-103494183D01*
X94016539Y-103494175D01*
X93842412Y-103372251D01*
X93842407Y-103372248D01*
X93651362Y-103279069D01*
X93651358Y-103279067D01*
X93651353Y-103279065D01*
X93527051Y-103241062D01*
X93448066Y-103216914D01*
X93237570Y-103187333D01*
X93237563Y-103187332D01*
X93237556Y-103187332D01*
X93237555Y-103187332D01*
X93025025Y-103191041D01*
X93025021Y-103191042D01*
X92815688Y-103227953D01*
X92815683Y-103227954D01*
X92815679Y-103227955D01*
X92815673Y-103227956D01*
X92815673Y-103227957D01*
X92614690Y-103297161D01*
X92614677Y-103297167D01*
X92162110Y-103537802D01*
X91992342Y-103665733D01*
X91992334Y-103665741D01*
X91844683Y-103818638D01*
X91844675Y-103818648D01*
X91722751Y-103992775D01*
X91722748Y-103992780D01*
X91629569Y-104183825D01*
X91629565Y-104183836D01*
X91567414Y-104387121D01*
X91537833Y-104597617D01*
X91537832Y-104597632D01*
X88169754Y-104597632D01*
X83836421Y-96597632D01*
X87287832Y-96597632D01*
X87291541Y-96810162D01*
X87291542Y-96810166D01*
X87320537Y-96974607D01*
X87328455Y-97019509D01*
X87328457Y-97019514D01*
X87397661Y-97220497D01*
X87397667Y-97220510D01*
X87497460Y-97408193D01*
X87625391Y-97577961D01*
X87625399Y-97577969D01*
X87778296Y-97725620D01*
X87778306Y-97725628D01*
X87952433Y-97847552D01*
X87952438Y-97847555D01*
X88106377Y-97922636D01*
X88143493Y-97940739D01*
X88346778Y-98002889D01*
X88557283Y-98032472D01*
X88769823Y-98028762D01*
X88979167Y-97991849D01*
X89180159Y-97922641D01*
X89632734Y-97682002D01*
X89802503Y-97554071D01*
X89911364Y-97441341D01*
X89950162Y-97401165D01*
X89950170Y-97401155D01*
X89972020Y-97369950D01*
X90072094Y-97227029D01*
X90165281Y-97035969D01*
X90227431Y-96832684D01*
X90257014Y-96622179D01*
X90253304Y-96409639D01*
X90216391Y-96200295D01*
X90147183Y-95999303D01*
X90047386Y-95811612D01*
X90047385Y-95811610D01*
X89947837Y-95679507D01*
X89919455Y-95641843D01*
X89910743Y-95633430D01*
X89766549Y-95494183D01*
X89766539Y-95494175D01*
X89592412Y-95372251D01*
X89592407Y-95372248D01*
X89401362Y-95279069D01*
X89401358Y-95279067D01*
X89401353Y-95279065D01*
X89277051Y-95241062D01*
X89198066Y-95216914D01*
X88987570Y-95187333D01*
X88987563Y-95187332D01*
X88987556Y-95187332D01*
X88987555Y-95187332D01*
X88775025Y-95191041D01*
X88775021Y-95191042D01*
X88565688Y-95227953D01*
X88565683Y-95227954D01*
X88565679Y-95227955D01*
X88565673Y-95227956D01*
X88565673Y-95227957D01*
X88364690Y-95297161D01*
X88364677Y-95297167D01*
X87912110Y-95537802D01*
X87742342Y-95665733D01*
X87742334Y-95665741D01*
X87594683Y-95818638D01*
X87594675Y-95818648D01*
X87472751Y-95992775D01*
X87472748Y-95992780D01*
X87379569Y-96183825D01*
X87379565Y-96183836D01*
X87317414Y-96387121D01*
X87287833Y-96597617D01*
X87287832Y-96597632D01*
X83836421Y-96597632D01*
X81514438Y-92310894D01*
X91346065Y-92310894D01*
X91360902Y-92454007D01*
X91377923Y-92521767D01*
X91377926Y-92521778D01*
X91377927Y-92521782D01*
X91377928Y-92521783D01*
X91377930Y-92521789D01*
X91432482Y-92654909D01*
X91432484Y-92654913D01*
X91839877Y-93347481D01*
X93804682Y-96687651D01*
X93855595Y-96755489D01*
X93872565Y-96778101D01*
X93902788Y-96810162D01*
X93910381Y-96818216D01*
X93996654Y-96891299D01*
X94126332Y-96953613D01*
X94126335Y-96953614D01*
X94126339Y-96953616D01*
X94192981Y-96974607D01*
X94334966Y-96997862D01*
X94477755Y-96980174D01*
X94543928Y-96962141D01*
X94544997Y-96961861D01*
X94545158Y-96961807D01*
X94545163Y-96961804D01*
X94545166Y-96961804D01*
X94545170Y-96961803D01*
X94677191Y-96904602D01*
X97717921Y-95033383D01*
X97738194Y-95018005D01*
X97796151Y-94974045D01*
X97796155Y-94974041D01*
X97796158Y-94974039D01*
X97831365Y-94941488D01*
X97896652Y-94868135D01*
X97964012Y-94740996D01*
X97987603Y-94675229D01*
X97987605Y-94675223D01*
X98016414Y-94534257D01*
X98004342Y-94390884D01*
X97988631Y-94322804D01*
X97936658Y-94188645D01*
X95806041Y-90400883D01*
X95793545Y-90366666D01*
X95793109Y-90366771D01*
X95792426Y-90363922D01*
X95778599Y-90316243D01*
X95765972Y-90272701D01*
X95764400Y-90269950D01*
X95694590Y-90147782D01*
X95694587Y-90147777D01*
X95651642Y-90092666D01*
X95651633Y-90092656D01*
X95547958Y-89992918D01*
X95420365Y-89926418D01*
X95420359Y-89926415D01*
X95361821Y-89905863D01*
X95360966Y-89905500D01*
X95354444Y-89903272D01*
X95213282Y-89875413D01*
X95213281Y-89875413D01*
X95184623Y-89878020D01*
X95069989Y-89888452D01*
X95002023Y-89904621D01*
X95002018Y-89904622D01*
X94868211Y-89957500D01*
X91662752Y-91789190D01*
X91572837Y-91854664D01*
X91572830Y-91854671D01*
X91532772Y-91891220D01*
X91532768Y-91891224D01*
X91459347Y-91974782D01*
X91459341Y-91974791D01*
X91394460Y-92103196D01*
X91394454Y-92103213D01*
X91372144Y-92169409D01*
X91357586Y-92248390D01*
X91346065Y-92310894D01*
X81514438Y-92310894D01*
X79638504Y-88847632D01*
X83037832Y-88847632D01*
X83041541Y-89060162D01*
X83041542Y-89060166D01*
X83070233Y-89222883D01*
X83078455Y-89269509D01*
X83084122Y-89285967D01*
X83147661Y-89470497D01*
X83147667Y-89470510D01*
X83247460Y-89658193D01*
X83375391Y-89827961D01*
X83375399Y-89827969D01*
X83528296Y-89975620D01*
X83528306Y-89975628D01*
X83702433Y-90097552D01*
X83702438Y-90097555D01*
X83818303Y-90154066D01*
X83893493Y-90190739D01*
X84096778Y-90252889D01*
X84307283Y-90282472D01*
X84519823Y-90278762D01*
X84729167Y-90241849D01*
X84930159Y-90172641D01*
X85382734Y-89932002D01*
X85552503Y-89804071D01*
X85668355Y-89684102D01*
X85700162Y-89651165D01*
X85700170Y-89651155D01*
X85763815Y-89560260D01*
X85822094Y-89477029D01*
X85915281Y-89285969D01*
X85977431Y-89082684D01*
X86007014Y-88872179D01*
X86003304Y-88659639D01*
X85966391Y-88450295D01*
X85897183Y-88249303D01*
X85896059Y-88247190D01*
X85797385Y-88061610D01*
X85699262Y-87931398D01*
X85669455Y-87891843D01*
X85669446Y-87891834D01*
X85516549Y-87744183D01*
X85516539Y-87744175D01*
X85342412Y-87622251D01*
X85342407Y-87622248D01*
X85151362Y-87529069D01*
X85151358Y-87529067D01*
X85151353Y-87529065D01*
X85022624Y-87489709D01*
X84948066Y-87466914D01*
X84737570Y-87437333D01*
X84737563Y-87437332D01*
X84737556Y-87437332D01*
X84737555Y-87437332D01*
X84525025Y-87441041D01*
X84525021Y-87441042D01*
X84315688Y-87477953D01*
X84315683Y-87477954D01*
X84315679Y-87477955D01*
X84315673Y-87477956D01*
X84315673Y-87477957D01*
X84114690Y-87547161D01*
X84114677Y-87547167D01*
X83662110Y-87787802D01*
X83492342Y-87915733D01*
X83492334Y-87915741D01*
X83344683Y-88068638D01*
X83344675Y-88068648D01*
X83222751Y-88242775D01*
X83222748Y-88242780D01*
X83129569Y-88433825D01*
X83129566Y-88433832D01*
X83129565Y-88433835D01*
X83116917Y-88475206D01*
X83067414Y-88637121D01*
X83037833Y-88847617D01*
X83037832Y-88847632D01*
X79638504Y-88847632D01*
X78155113Y-86109063D01*
X88155257Y-86109063D01*
X88170094Y-86252176D01*
X88187115Y-86319936D01*
X88187118Y-86319947D01*
X88187119Y-86319951D01*
X88187120Y-86319952D01*
X88187122Y-86319958D01*
X88229506Y-86423385D01*
X88241676Y-86453082D01*
X88729677Y-87282683D01*
X90613874Y-90485820D01*
X90681758Y-90576271D01*
X90719573Y-90616385D01*
X90805846Y-90689468D01*
X90935524Y-90751782D01*
X90935527Y-90751783D01*
X90935531Y-90751785D01*
X91002173Y-90772776D01*
X91144158Y-90796031D01*
X91286947Y-90778343D01*
X91353120Y-90760310D01*
X91354189Y-90760030D01*
X91354350Y-90759976D01*
X91354355Y-90759973D01*
X91354358Y-90759973D01*
X91354362Y-90759972D01*
X91486383Y-90702771D01*
X94527113Y-88831552D01*
X94585952Y-88786922D01*
X94605343Y-88772214D01*
X94605347Y-88772210D01*
X94605350Y-88772208D01*
X94640557Y-88739657D01*
X94705844Y-88666304D01*
X94773204Y-88539165D01*
X94796795Y-88473398D01*
X94796797Y-88473392D01*
X94821334Y-88353329D01*
X100348053Y-88353329D01*
X100348053Y-88552051D01*
X100353188Y-88584469D01*
X100379140Y-88748327D01*
X100440546Y-88937319D01*
X100440547Y-88937322D01*
X100507247Y-89068226D01*
X100530766Y-89114384D01*
X100647572Y-89275154D01*
X100788089Y-89415671D01*
X100948859Y-89532477D01*
X101003386Y-89560260D01*
X101125920Y-89622695D01*
X101125923Y-89622696D01*
X101187478Y-89642696D01*
X101314917Y-89684103D01*
X101511192Y-89715190D01*
X101511193Y-89715190D01*
X101709913Y-89715190D01*
X101709914Y-89715190D01*
X101906189Y-89684103D01*
X102095185Y-89622695D01*
X102272247Y-89532477D01*
X102433017Y-89415671D01*
X102573534Y-89275154D01*
X102690340Y-89114384D01*
X102780558Y-88937322D01*
X102841966Y-88748326D01*
X102841966Y-88748319D01*
X102842440Y-88746864D01*
X102844299Y-88740286D01*
X102861896Y-88686306D01*
X102901389Y-88628668D01*
X102965774Y-88601533D01*
X103034609Y-88613514D01*
X103086039Y-88660808D01*
X103087177Y-88662738D01*
X103150504Y-88772424D01*
X103158875Y-88786922D01*
X103175348Y-88854822D01*
X103154593Y-88917809D01*
X103151429Y-88922544D01*
X103151422Y-88922556D01*
X103091084Y-89068226D01*
X103091081Y-89068238D01*
X103060320Y-89222881D01*
X103060320Y-89380574D01*
X103091081Y-89535217D01*
X103091084Y-89535229D01*
X103151422Y-89680900D01*
X103151429Y-89680913D01*
X103239030Y-89812016D01*
X103239033Y-89812020D01*
X103350527Y-89923514D01*
X103350531Y-89923517D01*
X103481634Y-90011118D01*
X103481647Y-90011125D01*
X103583007Y-90053109D01*
X103627323Y-90071465D01*
X103781973Y-90102227D01*
X103781976Y-90102228D01*
X103781978Y-90102228D01*
X103939664Y-90102228D01*
X103939665Y-90102227D01*
X104094317Y-90071465D01*
X104239999Y-90011122D01*
X104371109Y-89923517D01*
X104482609Y-89812017D01*
X104570214Y-89680907D01*
X104630557Y-89535225D01*
X104661320Y-89380570D01*
X104661320Y-89222886D01*
X104661320Y-89222883D01*
X104661319Y-89222881D01*
X104633432Y-89082684D01*
X104630557Y-89068231D01*
X104570214Y-88922549D01*
X104570210Y-88922543D01*
X104568837Y-88919975D01*
X104568294Y-88919481D01*
X104554400Y-88887036D01*
X104552827Y-88881165D01*
X104552827Y-88881164D01*
X104523691Y-88772427D01*
X104511905Y-88728439D01*
X104510493Y-88725994D01*
X104503305Y-88713543D01*
X104503303Y-88713540D01*
X104477984Y-88669685D01*
X104428785Y-88584469D01*
X104428780Y-88584462D01*
X103857215Y-87594482D01*
X103840742Y-87526582D01*
X103863595Y-87460555D01*
X103918516Y-87417364D01*
X103939528Y-87411044D01*
X103947977Y-87409299D01*
X104089783Y-87380020D01*
X104184051Y-87337720D01*
X105569706Y-86537710D01*
X105653474Y-86477223D01*
X105770106Y-86346162D01*
X105853372Y-86191739D01*
X105898780Y-86022275D01*
X105903881Y-85846908D01*
X105896672Y-85811996D01*
X105902392Y-85742365D01*
X105944851Y-85686876D01*
X105956110Y-85679535D01*
X106080084Y-85607959D01*
X106135986Y-85552056D01*
X106191888Y-85496155D01*
X106270946Y-85359223D01*
X106311869Y-85206496D01*
X106311868Y-85206494D01*
X106315955Y-85191245D01*
X106315957Y-85191232D01*
X106343228Y-85089456D01*
X106347383Y-85073950D01*
X106383747Y-85014291D01*
X106398256Y-85002950D01*
X106426717Y-84983934D01*
X106538217Y-84872434D01*
X106617382Y-84753955D01*
X106670993Y-84709151D01*
X106740317Y-84700444D01*
X106752565Y-84703069D01*
X106806700Y-84717575D01*
X106982068Y-84722676D01*
X106982068Y-84722675D01*
X106982070Y-84722676D01*
X107050794Y-84708485D01*
X107153885Y-84687199D01*
X107248153Y-84644900D01*
X108633808Y-83844890D01*
X108717576Y-83784402D01*
X108834208Y-83653342D01*
X108917474Y-83498919D01*
X108962882Y-83329455D01*
X108967983Y-83154087D01*
X108967982Y-83154086D01*
X108967983Y-83154084D01*
X108936757Y-83002859D01*
X108932506Y-82982270D01*
X108890207Y-82888002D01*
X108090202Y-81502356D01*
X108090201Y-81502353D01*
X108079075Y-81486945D01*
X108029709Y-81418579D01*
X107898649Y-81301947D01*
X107744226Y-81218681D01*
X107688126Y-81203649D01*
X107574759Y-81173272D01*
X107399390Y-81168171D01*
X107371610Y-81173908D01*
X107301975Y-81168187D01*
X107246488Y-81125726D01*
X107222765Y-81060007D01*
X107222536Y-81052470D01*
X107222536Y-80973845D01*
X107222535Y-80973843D01*
X107203705Y-80879179D01*
X107191773Y-80819193D01*
X107191771Y-80819188D01*
X107131433Y-80673517D01*
X107131426Y-80673504D01*
X107043825Y-80542401D01*
X107043822Y-80542397D01*
X106932328Y-80430903D01*
X106932324Y-80430900D01*
X106801221Y-80343299D01*
X106801208Y-80343292D01*
X106655537Y-80282954D01*
X106655525Y-80282951D01*
X106500881Y-80252190D01*
X106500878Y-80252190D01*
X106343194Y-80252190D01*
X106343191Y-80252190D01*
X106188546Y-80282951D01*
X106188534Y-80282954D01*
X106042863Y-80343292D01*
X106042850Y-80343299D01*
X105911747Y-80430900D01*
X105911743Y-80430903D01*
X105800249Y-80542397D01*
X105800246Y-80542401D01*
X105712645Y-80673504D01*
X105712638Y-80673517D01*
X105652300Y-80819188D01*
X105652297Y-80819200D01*
X105621536Y-80973843D01*
X105621536Y-81131536D01*
X105652297Y-81286179D01*
X105652300Y-81286191D01*
X105712638Y-81431862D01*
X105712645Y-81431875D01*
X105800638Y-81563564D01*
X105821516Y-81630241D01*
X105821536Y-81632455D01*
X105821536Y-81931710D01*
X105801851Y-81998749D01*
X105759538Y-82039096D01*
X105747664Y-82045951D01*
X105747660Y-82045953D01*
X105663884Y-82106447D01*
X105547254Y-82237505D01*
X105463988Y-82391928D01*
X105418579Y-82561395D01*
X105413478Y-82736763D01*
X105444706Y-82887996D01*
X105448956Y-82908578D01*
X105491255Y-83002846D01*
X105491258Y-83002851D01*
X105491262Y-83002859D01*
X105732242Y-83420247D01*
X105748715Y-83488147D01*
X105725863Y-83554174D01*
X105672307Y-83596808D01*
X105537255Y-83652747D01*
X105537242Y-83652754D01*
X105406139Y-83740355D01*
X105406135Y-83740358D01*
X105294641Y-83851852D01*
X105294638Y-83851856D01*
X105207037Y-83982959D01*
X105207030Y-83982972D01*
X105146692Y-84128643D01*
X105146689Y-84128655D01*
X105115928Y-84283298D01*
X105115928Y-84379109D01*
X105110824Y-84396489D01*
X105110739Y-84414605D01*
X105101184Y-84429318D01*
X105096243Y-84446148D01*
X105082553Y-84458010D01*
X105072687Y-84473204D01*
X105056695Y-84480416D01*
X105043439Y-84491903D01*
X105025509Y-84494481D01*
X105008995Y-84501929D01*
X104984334Y-84500401D01*
X104974281Y-84501847D01*
X104973702Y-84501762D01*
X104966674Y-84500717D01*
X104860660Y-84472311D01*
X104754790Y-84469231D01*
X104747506Y-84468149D01*
X104722205Y-84456449D01*
X104695687Y-84447818D01*
X104690921Y-84441983D01*
X104684088Y-84438824D01*
X104669126Y-84415300D01*
X104651487Y-84393705D01*
X104650632Y-84386223D01*
X104646591Y-84379869D01*
X104646722Y-84351988D01*
X104643559Y-84324287D01*
X104646899Y-84314636D01*
X104646921Y-84310000D01*
X104650310Y-84304779D01*
X104656586Y-84286647D01*
X104703372Y-84199881D01*
X104748780Y-84030417D01*
X104753881Y-83855050D01*
X104753880Y-83855049D01*
X104753881Y-83855047D01*
X104722624Y-83703669D01*
X104718404Y-83683232D01*
X104676105Y-83588964D01*
X104226100Y-82809536D01*
X104226099Y-82809533D01*
X104210762Y-82788293D01*
X104165607Y-82725759D01*
X104165603Y-82725756D01*
X104165602Y-82725754D01*
X104034547Y-82609126D01*
X103880124Y-82525861D01*
X103710657Y-82480452D01*
X103535289Y-82475351D01*
X103363474Y-82510828D01*
X103363471Y-82510829D01*
X103269225Y-82553119D01*
X103269201Y-82553131D01*
X101883556Y-83353135D01*
X101883544Y-83353143D01*
X101799784Y-83413624D01*
X101683152Y-83544685D01*
X101599886Y-83699108D01*
X101554477Y-83868575D01*
X101549376Y-84043942D01*
X101584853Y-84215756D01*
X101584854Y-84215758D01*
X101627153Y-84310026D01*
X101627156Y-84310031D01*
X101627160Y-84310039D01*
X102077156Y-85089451D01*
X102077158Y-85089456D01*
X102077162Y-85089462D01*
X102077163Y-85089463D01*
X102137651Y-85173231D01*
X102137653Y-85173233D01*
X102137655Y-85173235D01*
X102242499Y-85266537D01*
X102268711Y-85289864D01*
X102423134Y-85373129D01*
X102592598Y-85418537D01*
X102691130Y-85421403D01*
X102757569Y-85443029D01*
X102801769Y-85497141D01*
X102809698Y-85566559D01*
X102796670Y-85604202D01*
X102749886Y-85690966D01*
X102704477Y-85860433D01*
X102699376Y-86035800D01*
X102734853Y-86207615D01*
X102749514Y-86240288D01*
X102752853Y-86264662D01*
X102760346Y-86288099D01*
X102758351Y-86304783D01*
X102758999Y-86309511D01*
X102756156Y-86323144D01*
X102727201Y-86431205D01*
X102727194Y-86431235D01*
X102640808Y-86753632D01*
X102604443Y-86813292D01*
X102547109Y-86841142D01*
X102547359Y-86842073D01*
X102542531Y-86843366D01*
X102541596Y-86843821D01*
X102539870Y-86844079D01*
X102386780Y-86885100D01*
X102386777Y-86885102D01*
X102312880Y-86927765D01*
X102285500Y-86939447D01*
X101331025Y-87216948D01*
X101329636Y-87217400D01*
X101319567Y-87219826D01*
X101319643Y-87220142D01*
X101314914Y-87221277D01*
X101125923Y-87282683D01*
X101125920Y-87282684D01*
X100948858Y-87372903D01*
X100788086Y-87489711D01*
X100647574Y-87630223D01*
X100530766Y-87790995D01*
X100440547Y-87968057D01*
X100440546Y-87968060D01*
X100379140Y-88157052D01*
X100351364Y-88332424D01*
X100348053Y-88353329D01*
X94821334Y-88353329D01*
X94825606Y-88332426D01*
X94813534Y-88189053D01*
X94797823Y-88120973D01*
X94745850Y-87986814D01*
X92615233Y-84199052D01*
X92602737Y-84164835D01*
X92602301Y-84164940D01*
X92601618Y-84162091D01*
X92600706Y-84158946D01*
X92575164Y-84070870D01*
X92568743Y-84059633D01*
X92503782Y-83945951D01*
X92503779Y-83945946D01*
X92460834Y-83890835D01*
X92460825Y-83890825D01*
X92357150Y-83791087D01*
X92229557Y-83724587D01*
X92229551Y-83724584D01*
X92171013Y-83704032D01*
X92170158Y-83703669D01*
X92163636Y-83701441D01*
X92022474Y-83673582D01*
X92022473Y-83673582D01*
X91993815Y-83676189D01*
X91879181Y-83686621D01*
X91811215Y-83702790D01*
X91811210Y-83702791D01*
X91677403Y-83755669D01*
X88471944Y-85587359D01*
X88382029Y-85652833D01*
X88382022Y-85652840D01*
X88341964Y-85689389D01*
X88341960Y-85689393D01*
X88268539Y-85772951D01*
X88268533Y-85772960D01*
X88203652Y-85901365D01*
X88203646Y-85901382D01*
X88181336Y-85967578D01*
X88168761Y-86035800D01*
X88155257Y-86109063D01*
X78155113Y-86109063D01*
X75422946Y-81065063D01*
X78778871Y-81065063D01*
X78782580Y-81277593D01*
X78782581Y-81277597D01*
X78809784Y-81431875D01*
X78819494Y-81486940D01*
X78819496Y-81486945D01*
X78888700Y-81687928D01*
X78888706Y-81687941D01*
X78988499Y-81875624D01*
X79116430Y-82045392D01*
X79116438Y-82045400D01*
X79269335Y-82193051D01*
X79269345Y-82193059D01*
X79443472Y-82314983D01*
X79443477Y-82314986D01*
X79597416Y-82390067D01*
X79634532Y-82408170D01*
X79837817Y-82470320D01*
X80048322Y-82499903D01*
X80260862Y-82496193D01*
X80470206Y-82459280D01*
X80671198Y-82390072D01*
X81123773Y-82149433D01*
X81293542Y-82021502D01*
X81405401Y-81905668D01*
X81441201Y-81868596D01*
X81441209Y-81868586D01*
X81460967Y-81840368D01*
X81563133Y-81694460D01*
X81656320Y-81503400D01*
X81718470Y-81300115D01*
X81748053Y-81089610D01*
X81744343Y-80877070D01*
X81707430Y-80667726D01*
X81638222Y-80466734D01*
X81619170Y-80430903D01*
X81538424Y-80279041D01*
X81452331Y-80164793D01*
X81410494Y-80109274D01*
X81410485Y-80109265D01*
X81257588Y-79961614D01*
X81257578Y-79961606D01*
X81083451Y-79839682D01*
X81083446Y-79839679D01*
X80892401Y-79746500D01*
X80892397Y-79746498D01*
X80892392Y-79746496D01*
X80738674Y-79699500D01*
X80689105Y-79684345D01*
X80478609Y-79654764D01*
X80478602Y-79654763D01*
X80478595Y-79654763D01*
X80478594Y-79654763D01*
X80266064Y-79658472D01*
X80266060Y-79658473D01*
X80056727Y-79695384D01*
X80056722Y-79695385D01*
X80056718Y-79695386D01*
X80056712Y-79695387D01*
X80056712Y-79695388D01*
X79855729Y-79764592D01*
X79855716Y-79764598D01*
X79403149Y-80005233D01*
X79233381Y-80133164D01*
X79233373Y-80133172D01*
X79085722Y-80286069D01*
X79085714Y-80286079D01*
X78963790Y-80460206D01*
X78963787Y-80460211D01*
X78870608Y-80651256D01*
X78870604Y-80651267D01*
X78808453Y-80854552D01*
X78778872Y-81065048D01*
X78778871Y-81065063D01*
X75422946Y-81065063D01*
X73951751Y-78349011D01*
X73937131Y-78280691D01*
X73961768Y-78215310D01*
X73998842Y-78182534D01*
X76195490Y-76915998D01*
X82288749Y-76915998D01*
X82303588Y-77059111D01*
X82320611Y-77126875D01*
X82320612Y-77126879D01*
X82375170Y-77260014D01*
X84935837Y-81613148D01*
X84950327Y-81632455D01*
X85003714Y-81703593D01*
X85041526Y-81743704D01*
X85127807Y-81816795D01*
X85257485Y-81879109D01*
X85257488Y-81879110D01*
X85257492Y-81879112D01*
X85324134Y-81900103D01*
X85466119Y-81923358D01*
X85608908Y-81905670D01*
X85675081Y-81887637D01*
X85676150Y-81887357D01*
X85676311Y-81887303D01*
X85676316Y-81887300D01*
X85676319Y-81887300D01*
X85676323Y-81887299D01*
X85808344Y-81830098D01*
X88097879Y-80421153D01*
X98949500Y-80421153D01*
X98949500Y-80578846D01*
X98980261Y-80733489D01*
X98980264Y-80733501D01*
X99040602Y-80879172D01*
X99040609Y-80879185D01*
X99128210Y-81010288D01*
X99128213Y-81010292D01*
X99239707Y-81121786D01*
X99239711Y-81121789D01*
X99370814Y-81209390D01*
X99370827Y-81209397D01*
X99470060Y-81250500D01*
X99516503Y-81269737D01*
X99671153Y-81300499D01*
X99671156Y-81300500D01*
X99671158Y-81300500D01*
X99828844Y-81300500D01*
X99828845Y-81300499D01*
X99905152Y-81285320D01*
X99983488Y-81269739D01*
X99983489Y-81269738D01*
X99983497Y-81269737D01*
X100007155Y-81259937D01*
X100054604Y-81250500D01*
X100155573Y-81250500D01*
X100253115Y-81231096D01*
X100300566Y-81221658D01*
X100437148Y-81165084D01*
X100509472Y-81116759D01*
X100560069Y-81082952D01*
X100641161Y-81001858D01*
X100644601Y-80998890D01*
X100647310Y-80997659D01*
X100660360Y-80987324D01*
X100835070Y-80879185D01*
X101440877Y-80504213D01*
X101461604Y-80490671D01*
X101462549Y-80490020D01*
X101473233Y-80481355D01*
X101489331Y-80470282D01*
X101673471Y-80363970D01*
X101755844Y-80304490D01*
X101870534Y-80175612D01*
X101952412Y-80023761D01*
X101966676Y-79970525D01*
X102003040Y-79910868D01*
X102065887Y-79880339D01*
X102118540Y-79882846D01*
X102171776Y-79897111D01*
X102344222Y-79902128D01*
X102344222Y-79902127D01*
X102344224Y-79902128D01*
X102387306Y-79893232D01*
X102513178Y-79867243D01*
X102605875Y-79825647D01*
X103035728Y-79577470D01*
X103073533Y-79563242D01*
X103096685Y-79558636D01*
X103219739Y-79534159D01*
X103356321Y-79477585D01*
X103408978Y-79442401D01*
X103440530Y-79421318D01*
X103464850Y-79413704D01*
X103507202Y-79400442D01*
X103507207Y-79400442D01*
X103530607Y-79406862D01*
X103574583Y-79418925D01*
X103574586Y-79418928D01*
X103582091Y-79427283D01*
X103621274Y-79470903D01*
X103621274Y-79470905D01*
X103621276Y-79470907D01*
X103624609Y-79491478D01*
X103632452Y-79539873D01*
X103631035Y-79548613D01*
X103606954Y-79669678D01*
X103606954Y-79827371D01*
X103637715Y-79982014D01*
X103637718Y-79982026D01*
X103698056Y-80127697D01*
X103698063Y-80127710D01*
X103785664Y-80258813D01*
X103785667Y-80258817D01*
X103897161Y-80370311D01*
X103897165Y-80370314D01*
X104028268Y-80457915D01*
X104028281Y-80457922D01*
X104107348Y-80490672D01*
X104173957Y-80518262D01*
X104328607Y-80549024D01*
X104328610Y-80549025D01*
X104328612Y-80549025D01*
X104486298Y-80549025D01*
X104486299Y-80549024D01*
X104640951Y-80518262D01*
X104786633Y-80457919D01*
X104917743Y-80370314D01*
X105029243Y-80258814D01*
X105116848Y-80127704D01*
X105177191Y-79982022D01*
X105207954Y-79827367D01*
X105207954Y-79669683D01*
X105207954Y-79663591D01*
X105209612Y-79663591D01*
X105211480Y-79653731D01*
X105209768Y-79635795D01*
X105217850Y-79620116D01*
X105221135Y-79602786D01*
X105233527Y-79589707D01*
X105241784Y-79573692D01*
X105268933Y-79552341D01*
X105269191Y-79552069D01*
X105480316Y-79430176D01*
X105540867Y-79413572D01*
X105656180Y-79412226D01*
X105678952Y-79415089D01*
X105679021Y-79414589D01*
X105686745Y-79415646D01*
X105686751Y-79415648D01*
X105840713Y-79417260D01*
X105847303Y-79417330D01*
X105847303Y-79417329D01*
X105847307Y-79417330D01*
X106003237Y-79379030D01*
X106035851Y-79363473D01*
X106380841Y-79164292D01*
X106410622Y-79143826D01*
X106521756Y-79027937D01*
X106600578Y-78888050D01*
X106642135Y-78732956D01*
X106643305Y-78621134D01*
X107322517Y-79797563D01*
X116303897Y-74612161D01*
X123244799Y-74612161D01*
X123244799Y-74612170D01*
X123255923Y-74824442D01*
X123255924Y-74824451D01*
X123300120Y-75032377D01*
X123376296Y-75230824D01*
X123376301Y-75230833D01*
X123429111Y-75322302D01*
X123482586Y-75414924D01*
X123482589Y-75414928D01*
X123482592Y-75414932D01*
X123616359Y-75580122D01*
X123616361Y-75580123D01*
X123774332Y-75722360D01*
X123774337Y-75722365D01*
X123952612Y-75838138D01*
X123952614Y-75838139D01*
X124146809Y-75924601D01*
X124146810Y-75924601D01*
X124146812Y-75924602D01*
X124352139Y-75979619D01*
X124563548Y-76001838D01*
X124775830Y-75990713D01*
X124983758Y-75946517D01*
X125182212Y-75870338D01*
X125626114Y-75614051D01*
X125791315Y-75480275D01*
X125933554Y-75322302D01*
X126049329Y-75144023D01*
X126135792Y-74949828D01*
X126190810Y-74744498D01*
X126213029Y-74533089D01*
X126201904Y-74320807D01*
X126157708Y-74112879D01*
X126148789Y-74089643D01*
X126081531Y-73914429D01*
X126081526Y-73914420D01*
X125975245Y-73730337D01*
X125975242Y-73730331D01*
X125841465Y-73565130D01*
X125683493Y-73422891D01*
X125683490Y-73422888D01*
X125505215Y-73307115D01*
X125311022Y-73220654D01*
X125311015Y-73220651D01*
X125105688Y-73165634D01*
X124934489Y-73147642D01*
X124894280Y-73143416D01*
X124894278Y-73143416D01*
X124682002Y-73154540D01*
X124681993Y-73154541D01*
X124474067Y-73198737D01*
X124275620Y-73274913D01*
X124275611Y-73274918D01*
X123831719Y-73531199D01*
X123831704Y-73531209D01*
X123666514Y-73664976D01*
X123666513Y-73664978D01*
X123524276Y-73822949D01*
X123524271Y-73822954D01*
X123408498Y-74001229D01*
X123322037Y-74195422D01*
X123322034Y-74195429D01*
X123267017Y-74400756D01*
X123244799Y-74612161D01*
X116303897Y-74612161D01*
X117498316Y-73922563D01*
X113748316Y-67427372D01*
X103572517Y-73302372D01*
X106161962Y-77787423D01*
X106064537Y-77732527D01*
X106064536Y-77732526D01*
X106064533Y-77732525D01*
X105909444Y-77690970D01*
X105748890Y-77689287D01*
X105748884Y-77689288D01*
X105631939Y-77718013D01*
X105592957Y-77727588D01*
X105592954Y-77727589D01*
X105592952Y-77727590D01*
X105560346Y-77743143D01*
X105560340Y-77743146D01*
X105215354Y-77942324D01*
X105185576Y-77962788D01*
X105185569Y-77962794D01*
X105074438Y-78078680D01*
X104995615Y-78218569D01*
X104992670Y-78225786D01*
X104992203Y-78225595D01*
X104983293Y-78246752D01*
X104924472Y-78345941D01*
X104879816Y-78390079D01*
X104804874Y-78433347D01*
X104736974Y-78449820D01*
X104670947Y-78426968D01*
X104627756Y-78372046D01*
X104621115Y-78302493D01*
X104623092Y-78293894D01*
X104652365Y-78184647D01*
X104654046Y-78024091D01*
X104615746Y-77868161D01*
X104600190Y-77835547D01*
X104600184Y-77835536D01*
X104351020Y-77403972D01*
X104351017Y-77403969D01*
X104351009Y-77403954D01*
X104330542Y-77374174D01*
X104214653Y-77263040D01*
X104074767Y-77184218D01*
X104074766Y-77184217D01*
X104074763Y-77184216D01*
X103919674Y-77142661D01*
X103759120Y-77140978D01*
X103759114Y-77140979D01*
X103642169Y-77169704D01*
X103603187Y-77179279D01*
X103603184Y-77179280D01*
X103603182Y-77179281D01*
X103570576Y-77194834D01*
X103570570Y-77194837D01*
X103225584Y-77394015D01*
X103195806Y-77414479D01*
X103195799Y-77414485D01*
X103084668Y-77530371D01*
X103084666Y-77530374D01*
X103005845Y-77670260D01*
X103002896Y-77677487D01*
X103000662Y-77676575D01*
X102988900Y-77695867D01*
X102971133Y-77725456D01*
X102970744Y-77725648D01*
X102970518Y-77726019D01*
X102939413Y-77741124D01*
X102908489Y-77756400D01*
X102907922Y-77756417D01*
X102907668Y-77756541D01*
X102873212Y-77757474D01*
X102683419Y-77736054D01*
X102665238Y-77732612D01*
X102647616Y-77727891D01*
X102647614Y-77727890D01*
X102647616Y-77727890D01*
X102475167Y-77722873D01*
X102306214Y-77757759D01*
X102306211Y-77757759D01*
X102213533Y-77799347D01*
X102213513Y-77799357D01*
X101630380Y-78136029D01*
X101630378Y-78136030D01*
X101548002Y-78195513D01*
X101433316Y-78324387D01*
X101351435Y-78476242D01*
X101337171Y-78529475D01*
X101300805Y-78589135D01*
X101237957Y-78619663D01*
X101185305Y-78617154D01*
X101132072Y-78602890D01*
X100959623Y-78597873D01*
X100790670Y-78632759D01*
X100790667Y-78632759D01*
X100697989Y-78674347D01*
X100697969Y-78674357D01*
X100114836Y-79011029D01*
X100114834Y-79011030D01*
X100032458Y-79070513D01*
X99917772Y-79199387D01*
X99917770Y-79199388D01*
X99917770Y-79199390D01*
X99913467Y-79207371D01*
X99835891Y-79351242D01*
X99808505Y-79453443D01*
X99800421Y-79475212D01*
X99721349Y-79639168D01*
X99674497Y-79691001D01*
X99633851Y-79706920D01*
X99516508Y-79730261D01*
X99516498Y-79730264D01*
X99370827Y-79790602D01*
X99370814Y-79790609D01*
X99239711Y-79878210D01*
X99239707Y-79878213D01*
X99128213Y-79989707D01*
X99128210Y-79989711D01*
X99040609Y-80120814D01*
X99040602Y-80120827D01*
X98980264Y-80266498D01*
X98980261Y-80266510D01*
X98949500Y-80421153D01*
X88097879Y-80421153D01*
X89488274Y-79565525D01*
X89529436Y-79534303D01*
X89566504Y-79506187D01*
X89566508Y-79506183D01*
X89566511Y-79506181D01*
X89601718Y-79473630D01*
X89667005Y-79400277D01*
X89734365Y-79273138D01*
X89757956Y-79207371D01*
X89757958Y-79207365D01*
X89786767Y-79066399D01*
X89774695Y-78923026D01*
X89758984Y-78854946D01*
X89707011Y-78720787D01*
X87596307Y-74968425D01*
X87580382Y-74907633D01*
X87580382Y-74636195D01*
X87579367Y-74625440D01*
X87579366Y-74625438D01*
X87578114Y-74612170D01*
X87571459Y-74541645D01*
X87568908Y-74528251D01*
X87562785Y-74496090D01*
X87562779Y-74496065D01*
X87561867Y-74492920D01*
X87536325Y-74404844D01*
X87488301Y-74320802D01*
X87464943Y-74279925D01*
X87464940Y-74279920D01*
X87421995Y-74224809D01*
X87421986Y-74224799D01*
X87318311Y-74125061D01*
X87190718Y-74058561D01*
X87190712Y-74058558D01*
X87124798Y-74035416D01*
X87124783Y-74035412D01*
X86983642Y-74007556D01*
X86983635Y-74007556D01*
X86840352Y-74020592D01*
X86777913Y-74035445D01*
X86775905Y-74035826D01*
X86772375Y-74036762D01*
X86638560Y-74089644D01*
X82605448Y-76394280D01*
X82605435Y-76394289D01*
X82515517Y-76459764D01*
X82515512Y-76459768D01*
X82475451Y-76496321D01*
X82475450Y-76496322D01*
X82402031Y-76579879D01*
X82402025Y-76579888D01*
X82337144Y-76708293D01*
X82337138Y-76708310D01*
X82314828Y-76774508D01*
X82289054Y-76914342D01*
X82288749Y-76915998D01*
X76195490Y-76915998D01*
X90665034Y-68573198D01*
X93963572Y-68573198D01*
X93978409Y-68716311D01*
X93995430Y-68784071D01*
X93995433Y-68784082D01*
X93995434Y-68784086D01*
X93995435Y-68784087D01*
X93995437Y-68784093D01*
X94049989Y-68917213D01*
X96422189Y-72949955D01*
X96490073Y-73040406D01*
X96527888Y-73080520D01*
X96614161Y-73153603D01*
X96743839Y-73215917D01*
X96743842Y-73215918D01*
X96743846Y-73215920D01*
X96810488Y-73236911D01*
X96952473Y-73260166D01*
X97095262Y-73242478D01*
X97161435Y-73224445D01*
X97162504Y-73224165D01*
X97162665Y-73224111D01*
X97162670Y-73224108D01*
X97162673Y-73224108D01*
X97162677Y-73224107D01*
X97294698Y-73166906D01*
X100335428Y-71295687D01*
X100355701Y-71280309D01*
X100413658Y-71236349D01*
X100413662Y-71236345D01*
X100413665Y-71236343D01*
X100448872Y-71203792D01*
X100514159Y-71130439D01*
X100581519Y-71003300D01*
X100605110Y-70937533D01*
X100605112Y-70937527D01*
X100633921Y-70796561D01*
X100621849Y-70653188D01*
X100606138Y-70585108D01*
X100554165Y-70450949D01*
X98423548Y-66663187D01*
X98411052Y-66628970D01*
X98410616Y-66629075D01*
X98409933Y-66626226D01*
X98394917Y-66574447D01*
X98383479Y-66535005D01*
X98383477Y-66535001D01*
X98312097Y-66410086D01*
X98312094Y-66410081D01*
X98269149Y-66354970D01*
X98269140Y-66354960D01*
X98165465Y-66255222D01*
X98037872Y-66188722D01*
X98037866Y-66188719D01*
X97979328Y-66168167D01*
X97978473Y-66167804D01*
X97971951Y-66165576D01*
X97830789Y-66137717D01*
X97830788Y-66137717D01*
X97802130Y-66140324D01*
X97687496Y-66150756D01*
X97619530Y-66166925D01*
X97619525Y-66166926D01*
X97485718Y-66219804D01*
X94280259Y-68051494D01*
X94190344Y-68116968D01*
X94190337Y-68116975D01*
X94150279Y-68153524D01*
X94150275Y-68153528D01*
X94076854Y-68237086D01*
X94076848Y-68237095D01*
X94011967Y-68365500D01*
X94011961Y-68365517D01*
X93989651Y-68431713D01*
X93982642Y-68469741D01*
X93963572Y-68573198D01*
X90665034Y-68573198D01*
X98990034Y-63773198D01*
X102763572Y-63773198D01*
X102778409Y-63916311D01*
X102795430Y-63984071D01*
X102795433Y-63984082D01*
X102795434Y-63984086D01*
X102795435Y-63984087D01*
X102795437Y-63984093D01*
X102849989Y-64117213D01*
X102849991Y-64117217D01*
X103352011Y-64970651D01*
X105222189Y-68149955D01*
X105224868Y-68153524D01*
X105287583Y-68237089D01*
X105290073Y-68240406D01*
X105327888Y-68280520D01*
X105414161Y-68353603D01*
X105543839Y-68415917D01*
X105543842Y-68415918D01*
X105543846Y-68415920D01*
X105610488Y-68436911D01*
X105752473Y-68460166D01*
X105895262Y-68442478D01*
X105961435Y-68424445D01*
X105962504Y-68424165D01*
X105962665Y-68424111D01*
X105962670Y-68424108D01*
X105962673Y-68424108D01*
X105962677Y-68424107D01*
X106094698Y-68366906D01*
X109135428Y-66495687D01*
X109155701Y-66480309D01*
X109213658Y-66436349D01*
X109213662Y-66436345D01*
X109213665Y-66436343D01*
X109248872Y-66403792D01*
X109285925Y-66362161D01*
X118494799Y-66362161D01*
X118494799Y-66362170D01*
X118505923Y-66574442D01*
X118505924Y-66574451D01*
X118550120Y-66782377D01*
X118626296Y-66980824D01*
X118626301Y-66980833D01*
X118679111Y-67072302D01*
X118732586Y-67164924D01*
X118732589Y-67164928D01*
X118732592Y-67164932D01*
X118866359Y-67330122D01*
X118866361Y-67330123D01*
X119024332Y-67472360D01*
X119024337Y-67472365D01*
X119202612Y-67588138D01*
X119202614Y-67588139D01*
X119396809Y-67674601D01*
X119396810Y-67674601D01*
X119396812Y-67674602D01*
X119602139Y-67729619D01*
X119813548Y-67751838D01*
X120025830Y-67740713D01*
X120233758Y-67696517D01*
X120432212Y-67620338D01*
X120876114Y-67364051D01*
X121041315Y-67230275D01*
X121183554Y-67072302D01*
X121299329Y-66894023D01*
X121385792Y-66699828D01*
X121440810Y-66494498D01*
X121463029Y-66283089D01*
X121451904Y-66070807D01*
X121407708Y-65862879D01*
X121331529Y-65664425D01*
X121225242Y-65480331D01*
X121091465Y-65315130D01*
X120933493Y-65172891D01*
X120933490Y-65172888D01*
X120755215Y-65057115D01*
X120561022Y-64970654D01*
X120561015Y-64970651D01*
X120355688Y-64915634D01*
X120184489Y-64897642D01*
X120144280Y-64893416D01*
X120144278Y-64893416D01*
X119932002Y-64904540D01*
X119931993Y-64904541D01*
X119724067Y-64948737D01*
X119525620Y-65024913D01*
X119525611Y-65024918D01*
X119081719Y-65281199D01*
X119081704Y-65281209D01*
X118916514Y-65414976D01*
X118916513Y-65414978D01*
X118774276Y-65572949D01*
X118774271Y-65572954D01*
X118658498Y-65751229D01*
X118572037Y-65945422D01*
X118572034Y-65945429D01*
X118517017Y-66150756D01*
X118494799Y-66362161D01*
X109285925Y-66362161D01*
X109314159Y-66330439D01*
X109381519Y-66203300D01*
X109405110Y-66137533D01*
X109405112Y-66137527D01*
X109433921Y-65996561D01*
X109421849Y-65853188D01*
X109406138Y-65785108D01*
X109354165Y-65650949D01*
X107223548Y-61863187D01*
X107211052Y-61828970D01*
X107210616Y-61829075D01*
X107209933Y-61826226D01*
X107209021Y-61823081D01*
X107183479Y-61735005D01*
X107183477Y-61735001D01*
X107112097Y-61610086D01*
X107112094Y-61610081D01*
X107069149Y-61554970D01*
X107069140Y-61554960D01*
X106965465Y-61455222D01*
X106837872Y-61388722D01*
X106837866Y-61388719D01*
X106779328Y-61368167D01*
X106778473Y-61367804D01*
X106771951Y-61365576D01*
X106630789Y-61337717D01*
X106630788Y-61337717D01*
X106602130Y-61340324D01*
X106487496Y-61350756D01*
X106419530Y-61366925D01*
X106419525Y-61366926D01*
X106285718Y-61419804D01*
X103080259Y-63251494D01*
X102990344Y-63316968D01*
X102990337Y-63316975D01*
X102950279Y-63353524D01*
X102950275Y-63353528D01*
X102876854Y-63437086D01*
X102876848Y-63437095D01*
X102811967Y-63565500D01*
X102811961Y-63565517D01*
X102789651Y-63631713D01*
X102782642Y-63669741D01*
X102763572Y-63773198D01*
X98990034Y-63773198D01*
X108808396Y-58112161D01*
X113744799Y-58112161D01*
X113744799Y-58112170D01*
X113755923Y-58324442D01*
X113755924Y-58324451D01*
X113800120Y-58532377D01*
X113876296Y-58730824D01*
X113876301Y-58730833D01*
X113929111Y-58822302D01*
X113982586Y-58914924D01*
X113982589Y-58914928D01*
X113982592Y-58914932D01*
X114116359Y-59080122D01*
X114116361Y-59080123D01*
X114274332Y-59222360D01*
X114274337Y-59222365D01*
X114452612Y-59338138D01*
X114452614Y-59338139D01*
X114646809Y-59424601D01*
X114646810Y-59424601D01*
X114646812Y-59424602D01*
X114852139Y-59479619D01*
X115063548Y-59501838D01*
X115275830Y-59490713D01*
X115483758Y-59446517D01*
X115682212Y-59370338D01*
X116126114Y-59114051D01*
X116291315Y-58980275D01*
X116433554Y-58822302D01*
X116549329Y-58644023D01*
X116635792Y-58449828D01*
X116690810Y-58244498D01*
X116713029Y-58033089D01*
X116701904Y-57820807D01*
X116657708Y-57612879D01*
X116581529Y-57414425D01*
X116475242Y-57230331D01*
X116341465Y-57065130D01*
X116183493Y-56922891D01*
X116183490Y-56922888D01*
X116005215Y-56807115D01*
X115811022Y-56720654D01*
X115811015Y-56720651D01*
X115605688Y-56665634D01*
X115434489Y-56647642D01*
X115394280Y-56643416D01*
X115394278Y-56643416D01*
X115182002Y-56654540D01*
X115181993Y-56654541D01*
X114974067Y-56698737D01*
X114775620Y-56774913D01*
X114775611Y-56774918D01*
X114331719Y-57031199D01*
X114331704Y-57031209D01*
X114166514Y-57164976D01*
X114166513Y-57164978D01*
X114024276Y-57322949D01*
X114024271Y-57322954D01*
X113908498Y-57501229D01*
X113822037Y-57695422D01*
X113822034Y-57695429D01*
X113767017Y-57900756D01*
X113744799Y-58112161D01*
X108808396Y-58112161D01*
X117331212Y-53198105D01*
X117399119Y-53181673D01*
X117465133Y-53204563D01*
G37*
%TD.AperFunction*%
%TD*%
%TA.AperFunction,Conductor*%
%TO.N,+V_SW*%
G36*
X131905312Y-97522375D02*
G01*
X131951067Y-97575179D01*
X131951586Y-97576329D01*
X132051810Y-97801832D01*
X133977376Y-102134354D01*
X133978007Y-102135763D01*
X133978525Y-102136920D01*
X133978557Y-102136990D01*
X133979076Y-102138140D01*
X133979096Y-102138185D01*
X133980006Y-102140191D01*
X133980008Y-102140194D01*
X134057792Y-102261227D01*
X134057800Y-102261238D01*
X134103544Y-102314030D01*
X134103547Y-102314033D01*
X134103551Y-102314037D01*
X134212285Y-102408257D01*
X134212288Y-102408258D01*
X134212289Y-102408259D01*
X134306546Y-102451306D01*
X134343162Y-102468028D01*
X134410201Y-102487713D01*
X134410205Y-102487714D01*
X134552621Y-102508190D01*
X134552624Y-102508190D01*
X139348026Y-102508190D01*
X139348036Y-102508190D01*
X139455492Y-102496637D01*
X139507003Y-102485431D01*
X139541233Y-102474037D01*
X139609533Y-102451306D01*
X139609537Y-102451303D01*
X139609540Y-102451303D01*
X139730579Y-102373515D01*
X139783383Y-102327760D01*
X139877603Y-102219026D01*
X139937374Y-102088149D01*
X139957059Y-102021110D01*
X139957060Y-102021106D01*
X139977536Y-101878690D01*
X139977536Y-97502690D01*
X143038446Y-97502690D01*
X143175377Y-97740037D01*
X143191970Y-97801832D01*
X143220672Y-118626821D01*
X143201080Y-118693888D01*
X143148339Y-118739715D01*
X143096435Y-118750992D01*
X131345799Y-118728523D01*
X131278797Y-118708710D01*
X131233143Y-118655819D01*
X131222036Y-118604523D01*
X131222036Y-115153329D01*
X132709536Y-115153329D01*
X132709536Y-115352050D01*
X132740623Y-115548327D01*
X132802029Y-115737319D01*
X132802030Y-115737322D01*
X132861959Y-115854937D01*
X132892249Y-115914384D01*
X133009055Y-116075154D01*
X133149572Y-116215671D01*
X133310342Y-116332477D01*
X133397185Y-116376725D01*
X133487403Y-116422695D01*
X133487406Y-116422696D01*
X133519067Y-116432983D01*
X133676400Y-116484103D01*
X133872675Y-116515190D01*
X133872676Y-116515190D01*
X134071396Y-116515190D01*
X134071397Y-116515190D01*
X134267672Y-116484103D01*
X134456668Y-116422695D01*
X134633730Y-116332477D01*
X134794500Y-116215671D01*
X134935017Y-116075154D01*
X135051823Y-115914384D01*
X135142041Y-115737322D01*
X135203449Y-115548326D01*
X135234536Y-115352051D01*
X135234536Y-115281401D01*
X137846536Y-115281401D01*
X137846536Y-115523978D01*
X137878197Y-115764475D01*
X137940983Y-115998794D01*
X138033809Y-116222895D01*
X138033813Y-116222904D01*
X138056010Y-116261351D01*
X138155100Y-116432979D01*
X138155102Y-116432982D01*
X138155103Y-116432983D01*
X138302769Y-116625426D01*
X138302775Y-116625433D01*
X138474292Y-116796950D01*
X138474298Y-116796955D01*
X138666747Y-116944626D01*
X138876824Y-117065914D01*
X139100936Y-117158744D01*
X139335247Y-117221528D01*
X139515622Y-117245274D01*
X139575747Y-117253190D01*
X139575748Y-117253190D01*
X139818325Y-117253190D01*
X139866424Y-117246857D01*
X140058825Y-117221528D01*
X140293136Y-117158744D01*
X140517248Y-117065914D01*
X140727325Y-116944626D01*
X140919774Y-116796955D01*
X141091301Y-116625428D01*
X141238972Y-116432979D01*
X141360260Y-116222902D01*
X141453090Y-115998790D01*
X141515874Y-115764479D01*
X141547536Y-115523978D01*
X141547536Y-115281402D01*
X141515874Y-115040901D01*
X141453090Y-114806590D01*
X141360260Y-114582478D01*
X141238972Y-114372401D01*
X141091301Y-114179952D01*
X141091296Y-114179946D01*
X140919779Y-114008429D01*
X140919772Y-114008423D01*
X140727329Y-113860757D01*
X140727328Y-113860756D01*
X140727325Y-113860754D01*
X140517248Y-113739466D01*
X140517241Y-113739463D01*
X140293140Y-113646637D01*
X140058821Y-113583851D01*
X139818325Y-113552190D01*
X139818324Y-113552190D01*
X139575748Y-113552190D01*
X139575747Y-113552190D01*
X139335250Y-113583851D01*
X139100931Y-113646637D01*
X138876830Y-113739463D01*
X138876821Y-113739467D01*
X138666742Y-113860757D01*
X138474299Y-114008423D01*
X138474292Y-114008429D01*
X138302775Y-114179946D01*
X138302769Y-114179953D01*
X138155103Y-114372396D01*
X138033813Y-114582475D01*
X138033809Y-114582484D01*
X137940983Y-114806585D01*
X137878197Y-115040904D01*
X137846536Y-115281401D01*
X135234536Y-115281401D01*
X135234536Y-115153329D01*
X135203449Y-114957054D01*
X135142041Y-114768058D01*
X135142041Y-114768057D01*
X135051822Y-114590995D01*
X134935017Y-114430226D01*
X134794500Y-114289709D01*
X134633730Y-114172903D01*
X134456668Y-114082684D01*
X134456665Y-114082683D01*
X134267673Y-114021277D01*
X134169534Y-114005733D01*
X134071397Y-113990190D01*
X133872675Y-113990190D01*
X133807250Y-114000552D01*
X133676398Y-114021277D01*
X133487406Y-114082683D01*
X133487403Y-114082684D01*
X133310341Y-114172903D01*
X133149569Y-114289711D01*
X133009057Y-114430223D01*
X132892249Y-114590995D01*
X132802030Y-114768057D01*
X132802029Y-114768060D01*
X132740623Y-114957052D01*
X132709536Y-115153329D01*
X131222036Y-115153329D01*
X131222036Y-113002690D01*
X119596036Y-113002690D01*
X119528997Y-112983005D01*
X119483242Y-112930201D01*
X119472036Y-112878690D01*
X119472036Y-105457109D01*
X121086804Y-105457109D01*
X121086804Y-106477552D01*
X121121289Y-106695283D01*
X121189407Y-106904934D01*
X121189408Y-106904937D01*
X121289491Y-107101356D01*
X121419056Y-107279689D01*
X121419060Y-107279694D01*
X121574940Y-107435574D01*
X121574945Y-107435578D01*
X121730496Y-107548591D01*
X121753282Y-107565146D01*
X121881679Y-107630568D01*
X121949697Y-107665226D01*
X121949700Y-107665227D01*
X122054525Y-107699286D01*
X122159353Y-107733346D01*
X122377082Y-107767831D01*
X122377083Y-107767831D01*
X122597525Y-107767831D01*
X122597526Y-107767831D01*
X122815255Y-107733346D01*
X123024910Y-107665226D01*
X123221326Y-107565146D01*
X123399669Y-107435573D01*
X123555546Y-107279696D01*
X123685119Y-107101353D01*
X123785199Y-106904937D01*
X123853319Y-106695282D01*
X123887804Y-106477553D01*
X123887804Y-105457109D01*
X123873834Y-105368908D01*
X127736804Y-105368908D01*
X127736804Y-106565753D01*
X127767594Y-106760157D01*
X127828421Y-106947360D01*
X127906885Y-107101353D01*
X127917780Y-107122736D01*
X128033476Y-107281977D01*
X128172658Y-107421159D01*
X128331899Y-107536855D01*
X128387418Y-107565143D01*
X128507274Y-107626213D01*
X128507276Y-107626213D01*
X128507279Y-107626215D01*
X128607621Y-107658818D01*
X128694477Y-107687040D01*
X128888882Y-107717831D01*
X128888887Y-107717831D01*
X129085726Y-107717831D01*
X129280130Y-107687040D01*
X129467329Y-107626215D01*
X129642709Y-107536855D01*
X129801950Y-107421159D01*
X129941132Y-107281977D01*
X130056828Y-107122736D01*
X130146188Y-106947356D01*
X130207013Y-106760157D01*
X130217288Y-106695282D01*
X130237804Y-106565753D01*
X130237804Y-105368908D01*
X130207013Y-105174504D01*
X130159971Y-105029725D01*
X130146188Y-104987306D01*
X130146186Y-104987303D01*
X130146186Y-104987301D01*
X130056827Y-104811925D01*
X129941132Y-104652685D01*
X129801950Y-104513503D01*
X129642709Y-104397807D01*
X129467333Y-104308448D01*
X129280130Y-104247621D01*
X129085726Y-104216831D01*
X129085721Y-104216831D01*
X128888887Y-104216831D01*
X128888882Y-104216831D01*
X128694477Y-104247621D01*
X128507274Y-104308448D01*
X128331898Y-104397807D01*
X128241045Y-104463816D01*
X128172658Y-104513503D01*
X128172656Y-104513505D01*
X128172655Y-104513505D01*
X128033478Y-104652682D01*
X128033478Y-104652683D01*
X128033476Y-104652685D01*
X127983789Y-104721072D01*
X127917780Y-104811925D01*
X127828421Y-104987301D01*
X127767594Y-105174504D01*
X127736804Y-105368908D01*
X123873834Y-105368908D01*
X123853319Y-105239380D01*
X123785199Y-105029725D01*
X123785199Y-105029724D01*
X123750541Y-104961706D01*
X123685119Y-104833309D01*
X123668564Y-104810523D01*
X123555551Y-104654972D01*
X123555547Y-104654967D01*
X123399667Y-104499087D01*
X123399662Y-104499083D01*
X123221329Y-104369518D01*
X123221328Y-104369517D01*
X123221326Y-104369516D01*
X123101473Y-104308447D01*
X123024910Y-104269435D01*
X123024907Y-104269434D01*
X122815256Y-104201316D01*
X122706390Y-104184073D01*
X122597526Y-104166831D01*
X122377082Y-104166831D01*
X122304505Y-104178326D01*
X122159351Y-104201316D01*
X121949700Y-104269434D01*
X121949697Y-104269435D01*
X121753278Y-104369518D01*
X121574945Y-104499083D01*
X121574940Y-104499087D01*
X121419060Y-104654967D01*
X121419056Y-104654972D01*
X121289491Y-104833305D01*
X121189408Y-105029724D01*
X121189407Y-105029727D01*
X121121289Y-105239378D01*
X121086804Y-105457109D01*
X119472036Y-105457109D01*
X119472036Y-103752690D01*
X119489108Y-101007109D01*
X121086803Y-101007109D01*
X121086803Y-101927552D01*
X121121288Y-102145283D01*
X121189406Y-102354934D01*
X121189407Y-102354937D01*
X121216576Y-102408257D01*
X121261607Y-102496635D01*
X121289490Y-102551356D01*
X121419055Y-102729689D01*
X121419059Y-102729694D01*
X121574939Y-102885574D01*
X121574944Y-102885578D01*
X121730495Y-102998591D01*
X121753281Y-103015146D01*
X121881678Y-103080568D01*
X121949696Y-103115226D01*
X121949699Y-103115227D01*
X122054524Y-103149286D01*
X122159352Y-103183346D01*
X122377081Y-103217831D01*
X122377082Y-103217831D01*
X122597524Y-103217831D01*
X122597525Y-103217831D01*
X122815254Y-103183346D01*
X123024909Y-103115226D01*
X123221325Y-103015146D01*
X123399668Y-102885573D01*
X123555545Y-102729696D01*
X123685118Y-102551353D01*
X123785198Y-102354937D01*
X123853318Y-102145282D01*
X123887803Y-101927553D01*
X123887803Y-101007109D01*
X127586803Y-101007109D01*
X127586803Y-101927552D01*
X127621288Y-102145283D01*
X127689406Y-102354934D01*
X127689407Y-102354937D01*
X127716576Y-102408257D01*
X127761607Y-102496635D01*
X127789490Y-102551356D01*
X127919055Y-102729689D01*
X127919059Y-102729694D01*
X128074939Y-102885574D01*
X128074944Y-102885578D01*
X128230495Y-102998591D01*
X128253281Y-103015146D01*
X128381678Y-103080568D01*
X128449696Y-103115226D01*
X128449699Y-103115227D01*
X128554524Y-103149286D01*
X128659352Y-103183346D01*
X128877081Y-103217831D01*
X128877082Y-103217831D01*
X129097524Y-103217831D01*
X129097525Y-103217831D01*
X129315254Y-103183346D01*
X129524909Y-103115226D01*
X129721325Y-103015146D01*
X129899668Y-102885573D01*
X130055545Y-102729696D01*
X130185118Y-102551353D01*
X130285198Y-102354937D01*
X130353318Y-102145282D01*
X130387803Y-101927553D01*
X130387803Y-101007109D01*
X130353318Y-100789380D01*
X130285198Y-100579725D01*
X130285198Y-100579724D01*
X130250540Y-100511706D01*
X130185118Y-100383309D01*
X130168563Y-100360523D01*
X130055550Y-100204972D01*
X130055546Y-100204967D01*
X129899666Y-100049087D01*
X129899661Y-100049083D01*
X129721328Y-99919518D01*
X129721327Y-99919517D01*
X129721325Y-99919516D01*
X129658399Y-99887453D01*
X129524909Y-99819435D01*
X129524906Y-99819434D01*
X129315255Y-99751316D01*
X129206389Y-99734073D01*
X129097525Y-99716831D01*
X128877081Y-99716831D01*
X128804504Y-99728326D01*
X128659350Y-99751316D01*
X128449699Y-99819434D01*
X128449696Y-99819435D01*
X128253277Y-99919518D01*
X128074944Y-100049083D01*
X128074939Y-100049087D01*
X127919059Y-100204967D01*
X127919055Y-100204972D01*
X127789490Y-100383305D01*
X127689407Y-100579724D01*
X127689406Y-100579727D01*
X127621288Y-100789378D01*
X127586803Y-101007109D01*
X123887803Y-101007109D01*
X123853318Y-100789380D01*
X123785198Y-100579725D01*
X123785198Y-100579724D01*
X123750540Y-100511706D01*
X123685118Y-100383309D01*
X123668563Y-100360523D01*
X123555550Y-100204972D01*
X123555546Y-100204967D01*
X123399666Y-100049087D01*
X123399661Y-100049083D01*
X123221328Y-99919518D01*
X123221327Y-99919517D01*
X123221325Y-99919516D01*
X123158399Y-99887453D01*
X123024909Y-99819435D01*
X123024906Y-99819434D01*
X122815255Y-99751316D01*
X122706389Y-99734073D01*
X122597525Y-99716831D01*
X122377081Y-99716831D01*
X122304504Y-99728326D01*
X122159350Y-99751316D01*
X121949699Y-99819434D01*
X121949696Y-99819435D01*
X121753277Y-99919518D01*
X121574944Y-100049083D01*
X121574939Y-100049087D01*
X121419059Y-100204967D01*
X121419055Y-100204972D01*
X121289490Y-100383305D01*
X121189407Y-100579724D01*
X121189406Y-100579727D01*
X121121288Y-100789378D01*
X121086803Y-101007109D01*
X119489108Y-101007109D01*
X119510899Y-97502690D01*
X131222036Y-97502690D01*
X131838273Y-97502690D01*
X131905312Y-97522375D01*
G37*
%TD.AperFunction*%
%TD*%
%TA.AperFunction,Conductor*%
%TO.N,GND*%
G36*
X106670412Y-61865678D02*
G01*
X106713358Y-61920791D01*
X106722036Y-61966364D01*
X106722036Y-62002692D01*
X108913584Y-65898776D01*
X108929295Y-65966856D01*
X108905704Y-66032623D01*
X108870497Y-66065174D01*
X105829767Y-67936393D01*
X105762356Y-67954763D01*
X105695714Y-67933772D01*
X105657900Y-67893659D01*
X103285699Y-63860918D01*
X103268678Y-63793158D01*
X103290992Y-63726948D01*
X103331058Y-63690391D01*
X106536515Y-61858702D01*
X106604488Y-61842532D01*
X106670412Y-61865678D01*
G37*
%TD.AperFunction*%
%TD*%
%TA.AperFunction,Conductor*%
%TO.N,GND*%
G36*
X115255202Y-97872375D02*
G01*
X115300957Y-97925179D01*
X115310901Y-97994337D01*
X115293702Y-98041786D01*
X115237222Y-98133355D01*
X115237222Y-98133356D01*
X115182037Y-98299893D01*
X115182037Y-98299894D01*
X115182036Y-98299894D01*
X115171536Y-98402673D01*
X115171536Y-99602691D01*
X115171537Y-99602708D01*
X115182036Y-99705486D01*
X115182037Y-99705489D01*
X115237221Y-99872021D01*
X115237224Y-99872028D01*
X115263422Y-99914502D01*
X115281861Y-99981894D01*
X115281860Y-99981936D01*
X115224331Y-103031029D01*
X115203385Y-103097685D01*
X115149728Y-103142436D01*
X115100353Y-103152690D01*
X110046036Y-103152690D01*
X109978997Y-103133005D01*
X109933242Y-103080201D01*
X109922036Y-103028690D01*
X109922036Y-97976690D01*
X109941721Y-97909651D01*
X109994525Y-97863896D01*
X110046036Y-97852690D01*
X115188163Y-97852690D01*
X115255202Y-97872375D01*
G37*
%TD.AperFunction*%
%TD*%
%TA.AperFunction,Conductor*%
%TO.N,+V_SW*%
G36*
X116337677Y-85934689D02*
G01*
X116373137Y-85973696D01*
X116716787Y-86568916D01*
X116733260Y-86636816D01*
X116729175Y-86663008D01*
X116703775Y-86757804D01*
X116698673Y-86933175D01*
X116734151Y-87104991D01*
X116776445Y-87199245D01*
X116776454Y-87199264D01*
X117476453Y-88411696D01*
X117476455Y-88411701D01*
X117476459Y-88411707D01*
X117476460Y-88411708D01*
X117536948Y-88495476D01*
X117668008Y-88612109D01*
X117822432Y-88695375D01*
X117822434Y-88695375D01*
X117822437Y-88695377D01*
X117917224Y-88720774D01*
X117976885Y-88757138D01*
X117992519Y-88778549D01*
X118218610Y-89170149D01*
X118311138Y-89330412D01*
X115508092Y-90948752D01*
X115508091Y-90948750D01*
X114522183Y-89221844D01*
X114497737Y-89200335D01*
X114495199Y-89196136D01*
X114469508Y-89151638D01*
X114469504Y-89151632D01*
X114469502Y-89151629D01*
X114453982Y-89130375D01*
X114434153Y-89103217D01*
X114323173Y-89011583D01*
X114323171Y-89011582D01*
X114190876Y-88954930D01*
X114190871Y-88954929D01*
X114047965Y-88937840D01*
X114047964Y-88937841D01*
X113906038Y-88961708D01*
X113851201Y-88985966D01*
X113532189Y-89170149D01*
X113519742Y-89176430D01*
X113513497Y-89179152D01*
X113501114Y-89183003D01*
X113462466Y-89201398D01*
X113460560Y-89202230D01*
X113457037Y-89202674D01*
X113427194Y-89211501D01*
X113345659Y-89222236D01*
X113345657Y-89222236D01*
X113205660Y-89269758D01*
X113169058Y-89290890D01*
X113140192Y-89307557D01*
X112736705Y-89540508D01*
X112719916Y-89548585D01*
X112641139Y-89579431D01*
X112618140Y-89585961D01*
X111626809Y-89766459D01*
X111557328Y-89759102D01*
X111502854Y-89715348D01*
X111497210Y-89706465D01*
X111423867Y-89579431D01*
X111302721Y-89369601D01*
X111286249Y-89301703D01*
X111309101Y-89235676D01*
X111348105Y-89200219D01*
X111922750Y-88868448D01*
X111991459Y-88816959D01*
X112082198Y-88702796D01*
X112085321Y-88695377D01*
X112138770Y-88568387D01*
X112147947Y-88495474D01*
X112156982Y-88423695D01*
X112147603Y-88360777D01*
X112157188Y-88291573D01*
X112202669Y-88238533D01*
X112208197Y-88235144D01*
X116203754Y-85928307D01*
X116271650Y-85911836D01*
X116337677Y-85934689D01*
G37*
%TD.AperFunction*%
%TD*%
%TA.AperFunction,Conductor*%
%TO.N,+V_SW*%
G36*
X137985790Y-88772375D02*
G01*
X138026157Y-88814723D01*
X140371278Y-92879599D01*
X143038446Y-97502690D01*
X139977536Y-97502690D01*
X139977536Y-97376690D01*
X139965983Y-97269234D01*
X139954777Y-97217723D01*
X139954673Y-97217412D01*
X139920652Y-97115192D01*
X139920649Y-97115186D01*
X139842864Y-96994152D01*
X139842861Y-96994147D01*
X139842856Y-96994141D01*
X139797112Y-96941349D01*
X139797108Y-96941346D01*
X139797106Y-96941343D01*
X139688372Y-96847123D01*
X139688369Y-96847121D01*
X139688367Y-96847120D01*
X139557501Y-96787354D01*
X139557496Y-96787352D01*
X139557495Y-96787352D01*
X139490456Y-96767667D01*
X139490458Y-96767667D01*
X139490453Y-96767666D01*
X139442980Y-96760840D01*
X139348036Y-96747190D01*
X139348034Y-96747190D01*
X136101536Y-96747190D01*
X136034497Y-96727505D01*
X135988742Y-96674701D01*
X135977536Y-96623190D01*
X135977536Y-90876700D01*
X135977536Y-90876690D01*
X135965983Y-90769234D01*
X135954777Y-90717723D01*
X135954673Y-90717412D01*
X135920652Y-90615192D01*
X135920649Y-90615186D01*
X135842864Y-90494152D01*
X135842861Y-90494147D01*
X135842856Y-90494141D01*
X135797112Y-90441349D01*
X135797108Y-90441346D01*
X135797106Y-90441343D01*
X135688372Y-90347123D01*
X135688369Y-90347121D01*
X135688367Y-90347120D01*
X135557493Y-90287350D01*
X135553351Y-90285806D01*
X135554053Y-90283922D01*
X135502218Y-90250515D01*
X135473275Y-90186921D01*
X135472036Y-90169433D01*
X135472036Y-88876690D01*
X135491721Y-88809651D01*
X135544525Y-88763896D01*
X135596036Y-88752690D01*
X137918751Y-88752690D01*
X137985790Y-88772375D01*
G37*
%TD.AperFunction*%
%TD*%
%TA.AperFunction,Conductor*%
%TO.N,+V_SW*%
G36*
X127647495Y-90704911D02*
G01*
X127865305Y-90736977D01*
X127928762Y-90766216D01*
X127966338Y-90825121D01*
X127971241Y-90860568D01*
X127946249Y-94254880D01*
X115472039Y-94252690D01*
X115472043Y-94252048D01*
X115508092Y-90948752D01*
X118311138Y-89330412D01*
X127647495Y-90704911D01*
G37*
%TD.AperFunction*%
%TD*%
%TA.AperFunction,Conductor*%
%TO.N,GND*%
G36*
X135415075Y-90772375D02*
G01*
X135460830Y-90825179D01*
X135472036Y-90876690D01*
X135472036Y-96794357D01*
X135722036Y-97252690D01*
X139348036Y-97252690D01*
X139415075Y-97272375D01*
X139460830Y-97325179D01*
X139472036Y-97376690D01*
X139472036Y-101878690D01*
X139452351Y-101945729D01*
X139399547Y-101991484D01*
X139348036Y-102002690D01*
X134552621Y-102002690D01*
X134485582Y-101983005D01*
X134439827Y-101930201D01*
X134439308Y-101929051D01*
X131732723Y-95839236D01*
X131722036Y-95788875D01*
X131722036Y-94252690D01*
X131722036Y-90752690D01*
X135348036Y-90752690D01*
X135415075Y-90772375D01*
G37*
%TD.AperFunction*%
%TD*%
%TA.AperFunction,Conductor*%
%TO.N,GND*%
G36*
X87023258Y-74535517D02*
G01*
X87066204Y-74590630D01*
X87074882Y-74636203D01*
X87074882Y-75072530D01*
X89266430Y-78968614D01*
X89282141Y-79036694D01*
X89258550Y-79102461D01*
X89223343Y-79135012D01*
X85543413Y-81399585D01*
X85476002Y-81417955D01*
X85409360Y-81396964D01*
X85371545Y-81356849D01*
X82810878Y-77003715D01*
X82793855Y-76935951D01*
X82816169Y-76869741D01*
X82856234Y-76833185D01*
X86889361Y-74528540D01*
X86957334Y-74512371D01*
X87023258Y-74535517D01*
G37*
%TD.AperFunction*%
%TD*%
%TA.AperFunction,Conductor*%
%TO.N,+12V*%
G36*
X105957573Y-103772375D02*
G01*
X106003328Y-103825179D01*
X106013272Y-103894337D01*
X105984247Y-103957893D01*
X105937987Y-103991251D01*
X105729214Y-104077727D01*
X105729205Y-104077731D01*
X105589733Y-104158256D01*
X105519149Y-104199008D01*
X105519126Y-104199021D01*
X105326683Y-104346687D01*
X105326676Y-104346693D01*
X105155159Y-104518210D01*
X105155153Y-104518217D01*
X105007487Y-104710660D01*
X104886197Y-104920739D01*
X104886193Y-104920748D01*
X104793367Y-105144849D01*
X104730581Y-105379168D01*
X104698920Y-105619665D01*
X104698920Y-105862242D01*
X104730581Y-106102739D01*
X104793367Y-106337058D01*
X104886193Y-106561159D01*
X104886196Y-106561166D01*
X105007484Y-106771243D01*
X105007486Y-106771246D01*
X105007487Y-106771247D01*
X105155153Y-106963690D01*
X105155159Y-106963697D01*
X105326676Y-107135214D01*
X105326682Y-107135219D01*
X105519131Y-107282890D01*
X105729208Y-107404178D01*
X105953320Y-107497008D01*
X106187631Y-107559792D01*
X106368006Y-107583538D01*
X106428131Y-107591454D01*
X106428132Y-107591454D01*
X106670709Y-107591454D01*
X106718808Y-107585121D01*
X106911209Y-107559792D01*
X107145520Y-107497008D01*
X107369632Y-107404178D01*
X107579709Y-107282890D01*
X107772158Y-107135219D01*
X107943685Y-106963692D01*
X108091356Y-106771243D01*
X108212644Y-106561166D01*
X108305474Y-106337054D01*
X108368258Y-106102743D01*
X108399920Y-105862242D01*
X108399920Y-105619666D01*
X108368258Y-105379165D01*
X108305474Y-105144854D01*
X108212644Y-104920742D01*
X108091356Y-104710665D01*
X107943685Y-104518216D01*
X107943680Y-104518210D01*
X107772163Y-104346693D01*
X107772156Y-104346687D01*
X107579713Y-104199021D01*
X107579712Y-104199020D01*
X107579709Y-104199018D01*
X107369632Y-104077730D01*
X107369625Y-104077727D01*
X107160853Y-103991251D01*
X107106450Y-103947410D01*
X107084385Y-103881116D01*
X107101664Y-103813417D01*
X107152801Y-103765806D01*
X107208306Y-103752690D01*
X114887983Y-103752690D01*
X114905090Y-103757713D01*
X114922920Y-103757714D01*
X114937917Y-103767352D01*
X114955022Y-103772375D01*
X114966696Y-103785847D01*
X114981698Y-103795489D01*
X115000778Y-103825181D01*
X115001721Y-103827246D01*
X115006579Y-103839593D01*
X115023419Y-103890186D01*
X115023421Y-103890190D01*
X115042962Y-103920597D01*
X115049562Y-103932195D01*
X115050540Y-103934152D01*
X115051800Y-103936911D01*
X115052333Y-103937741D01*
X115052343Y-103937760D01*
X115088560Y-103994113D01*
X115089343Y-103995374D01*
X115089578Y-103995699D01*
X115089586Y-103995708D01*
X115090145Y-103996353D01*
X115100755Y-104010526D01*
X115101203Y-104011224D01*
X115101208Y-104011231D01*
X115107418Y-104018397D01*
X115107420Y-104018400D01*
X115115358Y-104027562D01*
X115117721Y-104030289D01*
X115117726Y-104030294D01*
X115146966Y-104064039D01*
X115146969Y-104064041D01*
X115146972Y-104064045D01*
X115147614Y-104064601D01*
X115160127Y-104077113D01*
X115160662Y-104077730D01*
X115183811Y-104104443D01*
X115214218Y-104123983D01*
X115228375Y-104134580D01*
X115255699Y-104158256D01*
X115286958Y-104172531D01*
X115288593Y-104173278D01*
X115300428Y-104179474D01*
X115302289Y-104180579D01*
X115304852Y-104182227D01*
X115305756Y-104182639D01*
X115305758Y-104182641D01*
X115358607Y-104206776D01*
X115411412Y-104252530D01*
X115431097Y-104319570D01*
X115411413Y-104386609D01*
X115394779Y-104407252D01*
X115313390Y-104488641D01*
X115165725Y-104681083D01*
X115044435Y-104891162D01*
X115044431Y-104891171D01*
X114951605Y-105115272D01*
X114888819Y-105349591D01*
X114857158Y-105590088D01*
X114857158Y-105832665D01*
X114888819Y-106073162D01*
X114951605Y-106307481D01*
X115044431Y-106531582D01*
X115044434Y-106531589D01*
X115165722Y-106741666D01*
X115165724Y-106741669D01*
X115165725Y-106741670D01*
X115313391Y-106934113D01*
X115313397Y-106934120D01*
X115484914Y-107105637D01*
X115484921Y-107105643D01*
X115523467Y-107135220D01*
X115677369Y-107253313D01*
X115887446Y-107374601D01*
X116111558Y-107467431D01*
X116345869Y-107530215D01*
X116526244Y-107553961D01*
X116586369Y-107561877D01*
X116586370Y-107561877D01*
X116828947Y-107561877D01*
X116877046Y-107555544D01*
X117069447Y-107530215D01*
X117303758Y-107467431D01*
X117527870Y-107374601D01*
X117737947Y-107253313D01*
X117930396Y-107105642D01*
X118101923Y-106934115D01*
X118249594Y-106741666D01*
X118370882Y-106531589D01*
X118463712Y-106307477D01*
X118526496Y-106073166D01*
X118558158Y-105832665D01*
X118558158Y-105590089D01*
X118526496Y-105349588D01*
X118463712Y-105115277D01*
X118370882Y-104891165D01*
X118249594Y-104681088D01*
X118101923Y-104488639D01*
X118101918Y-104488633D01*
X118083156Y-104469871D01*
X118049671Y-104408548D01*
X118054655Y-104338856D01*
X118096527Y-104282923D01*
X118161991Y-104258506D01*
X118170837Y-104258190D01*
X118842536Y-104258190D01*
X118909575Y-104277875D01*
X118955330Y-104330679D01*
X118966536Y-104382190D01*
X118966536Y-112878697D01*
X118970919Y-112919463D01*
X118970920Y-112919473D01*
X118972036Y-112929846D01*
X118972036Y-113002690D01*
X118981688Y-113002690D01*
X118989295Y-113037657D01*
X118992717Y-113047940D01*
X118992719Y-113047948D01*
X119023420Y-113140189D01*
X119023422Y-113140193D01*
X119101207Y-113261227D01*
X119101215Y-113261238D01*
X119146959Y-113314030D01*
X119146962Y-113314033D01*
X119146966Y-113314037D01*
X119255700Y-113408257D01*
X119386577Y-113468028D01*
X119453616Y-113487713D01*
X119453620Y-113487714D01*
X119596036Y-113508190D01*
X130592536Y-113508190D01*
X130659575Y-113527875D01*
X130705330Y-113580679D01*
X130716536Y-113632190D01*
X130716536Y-118603084D01*
X130696851Y-118670123D01*
X130644047Y-118715878D01*
X130592299Y-118727084D01*
X100345799Y-118669251D01*
X100278797Y-118649438D01*
X100233143Y-118596547D01*
X100222036Y-118545251D01*
X100222036Y-103876690D01*
X100241721Y-103809651D01*
X100294525Y-103763896D01*
X100346036Y-103752690D01*
X105890534Y-103752690D01*
X105957573Y-103772375D01*
G37*
%TD.AperFunction*%
%TD*%
%TA.AperFunction,Conductor*%
%TO.N,GND*%
G36*
X95252905Y-90403374D02*
G01*
X95295851Y-90458487D01*
X95304529Y-90504060D01*
X95304529Y-90540388D01*
X97496077Y-94436472D01*
X97511788Y-94504552D01*
X97488197Y-94570319D01*
X97452990Y-94602870D01*
X94412260Y-96474089D01*
X94344849Y-96492459D01*
X94278207Y-96471468D01*
X94240393Y-96431355D01*
X91868192Y-92398614D01*
X91851171Y-92330854D01*
X91873485Y-92264644D01*
X91913551Y-92228087D01*
X95119008Y-90396398D01*
X95186981Y-90380228D01*
X95252905Y-90403374D01*
G37*
%TD.AperFunction*%
%TD*%
%TA.AperFunction,Conductor*%
%TO.N,V+*%
G36*
X117498316Y-73922563D02*
G01*
X107322517Y-79797563D01*
X106643305Y-78621135D01*
X106643816Y-78572400D01*
X106605516Y-78416470D01*
X106589960Y-78383856D01*
X106576055Y-78359772D01*
X106340790Y-77952281D01*
X106340787Y-77952278D01*
X106340779Y-77952263D01*
X106320312Y-77922483D01*
X106204423Y-77811349D01*
X106161962Y-77787423D01*
X103572517Y-73302372D01*
X113748316Y-67427372D01*
X117498316Y-73922563D01*
G37*
%TD.AperFunction*%
%TD*%
%TA.AperFunction,Conductor*%
%TO.N,GND*%
G36*
X97870412Y-66665678D02*
G01*
X97913358Y-66720791D01*
X97922036Y-66766364D01*
X97922036Y-66802692D01*
X100113584Y-70698776D01*
X100129295Y-70766856D01*
X100105704Y-70832623D01*
X100070497Y-70865174D01*
X97029767Y-72736393D01*
X96962356Y-72754763D01*
X96895714Y-72733772D01*
X96857900Y-72693659D01*
X94485699Y-68660918D01*
X94468678Y-68593158D01*
X94490992Y-68526948D01*
X94531058Y-68490391D01*
X97736515Y-66658702D01*
X97804488Y-66642532D01*
X97870412Y-66665678D01*
G37*
%TD.AperFunction*%
%TD*%
%TA.AperFunction,Conductor*%
%TO.N,GND*%
G36*
X131722036Y-94252690D02*
G01*
X129096036Y-94252690D01*
X129028997Y-94233005D01*
X128983242Y-94180201D01*
X128972036Y-94128690D01*
X128972036Y-90876690D01*
X128991721Y-90809651D01*
X129044525Y-90763896D01*
X129096036Y-90752690D01*
X131722036Y-90752690D01*
X131722036Y-94252690D01*
G37*
%TD.AperFunction*%
%TD*%
%TA.AperFunction,Conductor*%
%TO.N,GND*%
G36*
X122500397Y-82320208D02*
G01*
X122536100Y-82357938D01*
X123385079Y-83752690D01*
X125907151Y-87896093D01*
X125925193Y-87963593D01*
X125903878Y-88030132D01*
X125865027Y-88066895D01*
X123577689Y-89439297D01*
X123510076Y-89456909D01*
X123443674Y-89435171D01*
X123407971Y-89397441D01*
X120036919Y-83859284D01*
X120018878Y-83791786D01*
X120040193Y-83725247D01*
X120079040Y-83688487D01*
X122366383Y-82316081D01*
X122433995Y-82298470D01*
X122500397Y-82320208D01*
G37*
%TD.AperFunction*%
%TD*%
%TA.AperFunction,Conductor*%
%TO.N,GND*%
G36*
X92062097Y-84201543D02*
G01*
X92105043Y-84256656D01*
X92113721Y-84302229D01*
X92113721Y-84338557D01*
X94305269Y-88234641D01*
X94320980Y-88302721D01*
X94297389Y-88368488D01*
X94262182Y-88401039D01*
X91221452Y-90272258D01*
X91154041Y-90290628D01*
X91087399Y-90269637D01*
X91049585Y-90229524D01*
X88677384Y-86196783D01*
X88660363Y-86129023D01*
X88682677Y-86062813D01*
X88722743Y-86026256D01*
X91928200Y-84194567D01*
X91996173Y-84178397D01*
X92062097Y-84201543D01*
G37*
%TD.AperFunction*%
%TD*%
%TA.AperFunction,Conductor*%
%TO.N,Net-(D3-K)*%
G36*
X117210272Y-79946069D02*
G01*
X117245732Y-79985076D01*
X119532357Y-83945627D01*
X119544763Y-83975602D01*
X119548557Y-83989795D01*
X119548562Y-83989813D01*
X119548564Y-83989819D01*
X119548566Y-83989825D01*
X119578400Y-84059611D01*
X119605122Y-84122117D01*
X119939935Y-84672167D01*
X120170102Y-85050299D01*
X120171567Y-85052770D01*
X120187282Y-85079990D01*
X120197880Y-85103836D01*
X120198251Y-85104985D01*
X120198253Y-85104991D01*
X120220987Y-85155656D01*
X120240544Y-85199239D01*
X120240556Y-85199264D01*
X120940555Y-86411696D01*
X120940557Y-86411701D01*
X120940561Y-86411707D01*
X120940562Y-86411708D01*
X121001050Y-86495476D01*
X121001052Y-86495478D01*
X121001053Y-86495479D01*
X121001858Y-86496371D01*
X121017215Y-86517476D01*
X122382232Y-88881754D01*
X122398705Y-88949654D01*
X122375852Y-89015681D01*
X122336845Y-89051141D01*
X121876008Y-89317206D01*
X121808108Y-89333679D01*
X121795947Y-89332497D01*
X118685998Y-88874650D01*
X118622541Y-88845411D01*
X118596672Y-88813972D01*
X118430295Y-88525799D01*
X118430287Y-88525787D01*
X118400780Y-88480468D01*
X118400769Y-88480451D01*
X118385135Y-88459040D01*
X118385134Y-88459039D01*
X118385124Y-88459025D01*
X118355845Y-88423133D01*
X118350925Y-88417102D01*
X118350923Y-88417100D01*
X118239984Y-88325504D01*
X118239979Y-88325500D01*
X118239975Y-88325497D01*
X118224202Y-88315883D01*
X118180315Y-88289133D01*
X118180307Y-88289130D01*
X118048055Y-88232498D01*
X118048045Y-88232495D01*
X118032731Y-88228392D01*
X118024333Y-88226141D01*
X117997574Y-88215510D01*
X117972681Y-88202087D01*
X117949105Y-88185579D01*
X117924504Y-88163686D01*
X117906410Y-88143648D01*
X117905049Y-88141763D01*
X117898196Y-88131176D01*
X117230252Y-86974265D01*
X117224514Y-86963042D01*
X117223559Y-86960913D01*
X117215266Y-86935258D01*
X117208606Y-86903001D01*
X117206098Y-86874333D01*
X117206920Y-86846046D01*
X117211093Y-86817562D01*
X117217451Y-86793839D01*
X117228637Y-86740906D01*
X117232722Y-86714714D01*
X117238188Y-86660864D01*
X117224510Y-86517635D01*
X117224471Y-86517476D01*
X117218577Y-86493182D01*
X117208037Y-86449735D01*
X117154563Y-86316166D01*
X116810916Y-85720951D01*
X116810916Y-85720950D01*
X116747185Y-85633670D01*
X116747183Y-85633668D01*
X116747181Y-85633665D01*
X116711721Y-85594658D01*
X116711719Y-85594656D01*
X116630900Y-85522923D01*
X116630897Y-85522922D01*
X116568064Y-85490529D01*
X116503015Y-85456993D01*
X116436988Y-85434140D01*
X116436985Y-85434139D01*
X116436984Y-85434138D01*
X116436982Y-85434138D01*
X116295707Y-85406909D01*
X116295704Y-85406908D01*
X116152475Y-85420585D01*
X116152472Y-85420585D01*
X116087454Y-85436358D01*
X116084975Y-85436897D01*
X115951007Y-85490529D01*
X115951004Y-85490530D01*
X111955452Y-87797365D01*
X111943975Y-87804194D01*
X111938488Y-87807557D01*
X111927178Y-87814698D01*
X111818931Y-87909480D01*
X111773449Y-87962520D01*
X111773448Y-87962522D01*
X111696287Y-88083964D01*
X111656470Y-88222212D01*
X111656465Y-88222233D01*
X111648833Y-88277339D01*
X111648832Y-88277346D01*
X111646883Y-88291425D01*
X111646882Y-88291429D01*
X111647303Y-88372858D01*
X111647282Y-88374172D01*
X111637275Y-88406335D01*
X111627958Y-88438686D01*
X111626893Y-88439706D01*
X111626526Y-88440888D01*
X111619590Y-88446705D01*
X111585298Y-88479573D01*
X111095361Y-88762438D01*
X111095347Y-88762448D01*
X111008074Y-88826174D01*
X110969075Y-88861627D01*
X110969071Y-88861631D01*
X110951211Y-88881754D01*
X110897331Y-88942459D01*
X110877671Y-88980594D01*
X110829456Y-89031159D01*
X110518673Y-89210590D01*
X110450773Y-89227063D01*
X110384746Y-89204210D01*
X110349286Y-89165203D01*
X109917467Y-88417272D01*
X109917465Y-88417268D01*
X109885997Y-88374172D01*
X109882112Y-88368851D01*
X109846896Y-88339774D01*
X109771134Y-88277218D01*
X109771132Y-88277217D01*
X109638829Y-88220563D01*
X109623565Y-88218738D01*
X109495925Y-88203475D01*
X109495923Y-88203476D01*
X109354000Y-88227341D01*
X109299163Y-88251600D01*
X108477795Y-88725816D01*
X108409895Y-88742289D01*
X108343868Y-88719436D01*
X108300677Y-88664515D01*
X108292672Y-88603707D01*
X108293986Y-88592722D01*
X108270118Y-88450793D01*
X108245864Y-88395965D01*
X108245862Y-88395961D01*
X108245860Y-88395957D01*
X107747990Y-87533625D01*
X107747988Y-87533621D01*
X107728271Y-87506619D01*
X107712635Y-87485204D01*
X107682859Y-87460618D01*
X107601656Y-87393570D01*
X107589841Y-87388511D01*
X107579155Y-87383935D01*
X107525277Y-87339451D01*
X107504002Y-87272899D01*
X107522085Y-87205410D01*
X107565964Y-87162561D01*
X109056973Y-86301728D01*
X110455368Y-83782714D01*
X110501777Y-83735518D01*
X117076349Y-79939687D01*
X117144245Y-79923216D01*
X117210272Y-79946069D01*
G37*
%TD.AperFunction*%
%TD*%
%TA.AperFunction,Conductor*%
%TO.N,+V_SW*%
G36*
X127946249Y-94254880D02*
G01*
X128548253Y-94474003D01*
X128599554Y-94509321D01*
X128601211Y-94511233D01*
X128646966Y-94564037D01*
X128755700Y-94658257D01*
X128886577Y-94718028D01*
X128953616Y-94737713D01*
X128953620Y-94737714D01*
X129096036Y-94758190D01*
X129307144Y-94758190D01*
X129349556Y-94765669D01*
X131134950Y-95415533D01*
X131191212Y-95456959D01*
X131216146Y-95522228D01*
X131216536Y-95532053D01*
X131216536Y-95788873D01*
X131221359Y-95834837D01*
X131222036Y-95847777D01*
X131222036Y-97502690D01*
X119510899Y-97502690D01*
X119531103Y-94253402D01*
X127946249Y-94254880D01*
G37*
%TD.AperFunction*%
%TD*%
%TA.AperFunction,Conductor*%
%TO.N,+V_SW*%
G36*
X119531102Y-94253402D02*
G01*
X119472036Y-103752690D01*
X115596036Y-103752690D01*
X115587350Y-103750139D01*
X115578389Y-103751428D01*
X115554348Y-103740449D01*
X115528997Y-103733005D01*
X115523069Y-103726164D01*
X115514833Y-103722403D01*
X115500543Y-103700168D01*
X115483242Y-103680201D01*
X115480954Y-103669686D01*
X115477059Y-103663625D01*
X115472036Y-103628690D01*
X115472036Y-103589908D01*
X115491721Y-103522869D01*
X115516613Y-103494682D01*
X115527155Y-103485890D01*
X115623406Y-103378954D01*
X115685635Y-103249227D01*
X115706467Y-103182932D01*
X115706579Y-103182581D01*
X115706581Y-103182571D01*
X115706582Y-103182569D01*
X115729741Y-103040565D01*
X115787271Y-99991430D01*
X115787274Y-99991259D01*
X115769440Y-99848488D01*
X115751001Y-99781096D01*
X115751000Y-99781091D01*
X115704917Y-99675032D01*
X115704604Y-99674282D01*
X115704575Y-99674025D01*
X115701303Y-99665460D01*
X115683562Y-99611924D01*
X115677908Y-99585485D01*
X115677671Y-99583164D01*
X115677036Y-99570627D01*
X115677036Y-98434748D01*
X115677677Y-98422159D01*
X115677911Y-98419866D01*
X115683560Y-98393463D01*
X115693922Y-98362193D01*
X115706085Y-98336110D01*
X115723944Y-98307158D01*
X115768945Y-98214049D01*
X115786144Y-98166600D01*
X115811256Y-98066273D01*
X115811255Y-97922393D01*
X115801311Y-97853235D01*
X115760776Y-97715186D01*
X115682988Y-97594147D01*
X115682983Y-97594141D01*
X115637239Y-97541349D01*
X115637235Y-97541346D01*
X115637233Y-97541343D01*
X115528499Y-97447123D01*
X115528498Y-97447122D01*
X115521796Y-97441315D01*
X115522740Y-97440224D01*
X115483239Y-97394633D01*
X115472036Y-97343127D01*
X115472036Y-94253401D01*
X115472038Y-94252690D01*
X119531102Y-94253402D01*
G37*
%TD.AperFunction*%
%TD*%
%TA.AperFunction,Conductor*%
%TO.N,GND*%
G36*
X100889935Y-79686216D02*
G01*
X100897752Y-79690582D01*
X100897869Y-79690733D01*
X101177970Y-80057337D01*
X101180270Y-80065991D01*
X101175776Y-80073737D01*
X101174831Y-80074388D01*
X100358606Y-80579602D01*
X100349768Y-80581043D01*
X100344175Y-80577927D01*
X100003047Y-80236799D01*
X99999620Y-80228526D01*
X100000782Y-80223444D01*
X100289969Y-79623817D01*
X100296648Y-79617855D01*
X100301866Y-79617281D01*
X100889935Y-79686216D01*
G37*
%TD.AperFunction*%
%TD*%
%TA.AperFunction,Conductor*%
%TO.N,Net-(LED3-A)*%
G36*
X103157031Y-78298218D02*
G01*
X103163990Y-78301570D01*
X103504733Y-78642313D01*
X103508160Y-78650586D01*
X103504733Y-78658859D01*
X103503117Y-78660208D01*
X102902119Y-79076002D01*
X102893365Y-79077891D01*
X102889841Y-79076641D01*
X102417622Y-78817937D01*
X102412012Y-78810957D01*
X102412171Y-78803895D01*
X102603209Y-78244950D01*
X102609127Y-78238231D01*
X102615590Y-78237109D01*
X103157031Y-78298218D01*
G37*
%TD.AperFunction*%
%TD*%
%TA.AperFunction,Conductor*%
%TO.N,GND*%
G36*
X113906366Y-90061283D02*
G01*
X114457292Y-90245156D01*
X114464055Y-90251026D01*
X114465235Y-90257363D01*
X114423456Y-90695968D01*
X114420082Y-90703132D01*
X114078273Y-91044941D01*
X114070000Y-91048368D01*
X114061727Y-91044941D01*
X114061276Y-91044463D01*
X113734761Y-90677471D01*
X113731823Y-90669013D01*
X113732196Y-90666690D01*
X113891377Y-90069372D01*
X113896817Y-90062262D01*
X113905694Y-90061082D01*
X113906366Y-90061283D01*
G37*
%TD.AperFunction*%
%TD*%
%TA.AperFunction,Conductor*%
%TO.N,GND*%
G36*
X112088820Y-90776902D02*
G01*
X112093959Y-90784235D01*
X112092407Y-90793055D01*
X112091684Y-90794067D01*
X111607986Y-91400576D01*
X111600426Y-91404873D01*
X111264404Y-91450871D01*
X111255742Y-91448598D01*
X111251225Y-91440866D01*
X111251117Y-91439279D01*
X111251117Y-91253951D01*
X111251385Y-91251460D01*
X111316680Y-90951846D01*
X111321790Y-90944492D01*
X111325574Y-90942915D01*
X112080002Y-90775350D01*
X112088820Y-90776902D01*
G37*
%TD.AperFunction*%
%TD*%
%TA.AperFunction,Conductor*%
%TO.N,GND*%
G36*
X112916902Y-90018005D02*
G01*
X112922347Y-90022875D01*
X113162286Y-90438460D01*
X113163455Y-90447338D01*
X113159456Y-90453452D01*
X112909022Y-90653483D01*
X112903367Y-90655924D01*
X112139277Y-90764572D01*
X112130604Y-90762344D01*
X112126047Y-90754636D01*
X112128275Y-90745963D01*
X112128387Y-90745815D01*
X112604560Y-90138370D01*
X112609498Y-90134696D01*
X112907949Y-90017830D01*
X112916902Y-90018005D01*
G37*
%TD.AperFunction*%
%TD*%
%TA.AperFunction,Conductor*%
%TO.N,GND*%
G36*
X113733970Y-89644967D02*
G01*
X113734295Y-89645716D01*
X113894377Y-90053037D01*
X113894214Y-90061991D01*
X113894207Y-90062007D01*
X113675239Y-90562472D01*
X113668783Y-90568678D01*
X113662772Y-90569351D01*
X113107933Y-90485515D01*
X113100265Y-90480890D01*
X113099562Y-90479817D01*
X112858697Y-90062627D01*
X112857530Y-90053753D01*
X112862981Y-90046648D01*
X112863794Y-90046220D01*
X113718378Y-89639431D01*
X113727320Y-89638970D01*
X113733970Y-89644967D01*
G37*
%TD.AperFunction*%
%TD*%
%TA.AperFunction,Conductor*%
%TO.N,GND*%
G36*
X110523004Y-90459202D02*
G01*
X111522373Y-91249176D01*
X111526739Y-91256995D01*
X111526818Y-91258355D01*
X111526818Y-91452691D01*
X111608088Y-92331093D01*
X111605438Y-92339647D01*
X111597516Y-92343821D01*
X111592451Y-92343171D01*
X109471384Y-91574336D01*
X109464774Y-91568295D01*
X109464371Y-91559349D01*
X109466887Y-91555279D01*
X110507269Y-90460322D01*
X110515451Y-90456686D01*
X110523004Y-90459202D01*
G37*
%TD.AperFunction*%
%TD*%
%TA.AperFunction,Conductor*%
%TO.N,Net-(U1-BOOT)*%
G36*
X105957016Y-90701625D02*
G01*
X106266025Y-90854412D01*
X106271922Y-90861151D01*
X106272145Y-90867909D01*
X106168320Y-91257985D01*
X106162881Y-91265099D01*
X106154005Y-91266282D01*
X106153967Y-91266272D01*
X105764238Y-91161149D01*
X105757143Y-91155686D01*
X105755609Y-91149100D01*
X105777796Y-90805098D01*
X105781748Y-90797063D01*
X105783622Y-90795719D01*
X105945981Y-90701980D01*
X105954858Y-90700812D01*
X105957016Y-90701625D01*
G37*
%TD.AperFunction*%
%TD*%
%TA.AperFunction,Conductor*%
%TO.N,Net-(U1-BOOT)*%
G36*
X107163307Y-88436521D02*
G01*
X107170416Y-88441965D01*
X107171595Y-88450842D01*
X107171588Y-88450867D01*
X107011740Y-89044792D01*
X107006281Y-89051890D01*
X106998839Y-89053341D01*
X106450015Y-88977428D01*
X106442289Y-88972900D01*
X106441493Y-88971700D01*
X106347207Y-88808393D01*
X106346040Y-88799517D01*
X106346500Y-88798146D01*
X106555173Y-88284889D01*
X106561463Y-88278517D01*
X106569027Y-88277992D01*
X107163307Y-88436521D01*
G37*
%TD.AperFunction*%
%TD*%
%TA.AperFunction,Conductor*%
%TO.N,Vsense*%
G36*
X108049920Y-94574103D02*
G01*
X108054538Y-94581775D01*
X108052378Y-94590465D01*
X108052119Y-94590803D01*
X107567185Y-95199498D01*
X107559350Y-95203834D01*
X107557660Y-95203902D01*
X107195328Y-95192329D01*
X107187169Y-95188640D01*
X107185575Y-95186493D01*
X107092077Y-95024550D01*
X107090910Y-95015675D01*
X107091894Y-95013185D01*
X107263042Y-94693603D01*
X107269968Y-94687929D01*
X107271604Y-94687560D01*
X108041230Y-94571943D01*
X108049920Y-94574103D01*
G37*
%TD.AperFunction*%
%TD*%
%TA.AperFunction,Conductor*%
%TO.N,Vsense*%
G36*
X102696315Y-87350009D02*
G01*
X102701915Y-87356997D01*
X102702380Y-87360263D01*
X102702380Y-87542817D01*
X102701804Y-87546443D01*
X102361129Y-88591475D01*
X102355307Y-88598279D01*
X102347725Y-88599325D01*
X101617233Y-88454215D01*
X101609786Y-88449242D01*
X101608035Y-88445007D01*
X101463970Y-87715841D01*
X101465728Y-87707062D01*
X101472179Y-87702341D01*
X102687414Y-87349028D01*
X102696315Y-87350009D01*
G37*
%TD.AperFunction*%
%TD*%
%TA.AperFunction,Conductor*%
%TO.N,Vsense*%
G36*
X105466424Y-78441214D02*
G01*
X105789168Y-78549522D01*
X105795920Y-78555403D01*
X105796912Y-78562936D01*
X105729338Y-78896593D01*
X105724337Y-78904022D01*
X105718008Y-78905970D01*
X105387289Y-78909831D01*
X105378976Y-78906501D01*
X105377026Y-78903991D01*
X105283865Y-78742632D01*
X105282698Y-78733758D01*
X105283933Y-78730822D01*
X105452638Y-78446337D01*
X105459806Y-78440970D01*
X105466424Y-78441214D01*
G37*
%TD.AperFunction*%
%TD*%
M02*
