%TF.GenerationSoftware,KiCad,Pcbnew,9.0.5*%
%TF.CreationDate,2025-10-28T18:52:09+09:00*%
%TF.ProjectId,2025_power,32303235-5f70-46f7-9765-722e6b696361,rev?*%
%TF.SameCoordinates,Original*%
%TF.FileFunction,Copper,L2,Bot*%
%TF.FilePolarity,Positive*%
%FSLAX46Y46*%
G04 Gerber Fmt 4.6, Leading zero omitted, Abs format (unit mm)*
G04 Created by KiCad (PCBNEW 9.0.5) date 2025-10-28 18:52:09*
%MOMM*%
%LPD*%
G01*
G04 APERTURE LIST*
G04 Aperture macros list*
%AMRoundRect*
0 Rectangle with rounded corners*
0 $1 Rounding radius*
0 $2 $3 $4 $5 $6 $7 $8 $9 X,Y pos of 4 corners*
0 Add a 4 corners polygon primitive as box body*
4,1,4,$2,$3,$4,$5,$6,$7,$8,$9,$2,$3,0*
0 Add four circle primitives for the rounded corners*
1,1,$1+$1,$2,$3*
1,1,$1+$1,$4,$5*
1,1,$1+$1,$6,$7*
1,1,$1+$1,$8,$9*
0 Add four rect primitives between the rounded corners*
20,1,$1+$1,$2,$3,$4,$5,0*
20,1,$1+$1,$4,$5,$6,$7,0*
20,1,$1+$1,$6,$7,$8,$9,0*
20,1,$1+$1,$8,$9,$2,$3,0*%
%AMHorizOval*
0 Thick line with rounded ends*
0 $1 width*
0 $2 $3 position (X,Y) of the first rounded end (center of the circle)*
0 $4 $5 position (X,Y) of the second rounded end (center of the circle)*
0 Add line between two ends*
20,1,$1,$2,$3,$4,$5,0*
0 Add two circle primitives to create the rounded ends*
1,1,$1,$2,$3*
1,1,$1,$4,$5*%
G04 Aperture macros list end*
%TA.AperFunction,ComponentPad*%
%ADD10RoundRect,0.250000X-0.600000X-0.750000X0.600000X-0.750000X0.600000X0.750000X-0.600000X0.750000X0*%
%TD*%
%TA.AperFunction,ComponentPad*%
%ADD11O,1.700000X2.000000*%
%TD*%
%TA.AperFunction,ComponentPad*%
%ADD12RoundRect,0.250000X-0.349519X0.894615X-0.949519X-0.144615X0.349519X-0.894615X0.949519X0.144615X0*%
%TD*%
%TA.AperFunction,ComponentPad*%
%ADD13HorizOval,1.700000X-0.129904X0.075000X0.129904X-0.075000X0*%
%TD*%
%TA.AperFunction,ComponentPad*%
%ADD14C,1.524000*%
%TD*%
%TA.AperFunction,ComponentPad*%
%ADD15RoundRect,0.250000X0.349519X-0.894615X0.949519X0.144615X-0.349519X0.894615X-0.949519X-0.144615X0*%
%TD*%
%TA.AperFunction,ComponentPad*%
%ADD16R,1.524000X1.524000*%
%TD*%
%TA.AperFunction,ComponentPad*%
%ADD17C,1.900000*%
%TD*%
%TA.AperFunction,ViaPad*%
%ADD18C,0.600000*%
%TD*%
%TA.AperFunction,Conductor*%
%ADD19C,0.200000*%
%TD*%
G04 APERTURE END LIST*
D10*
%TO.P,J1,1,Pin_1*%
%TO.N,GND*%
X87545181Y-115284609D03*
D11*
%TO.P,J1,2,Pin_2*%
%TO.N,+12V*%
X90045181Y-115284609D03*
%TD*%
D12*
%TO.P,J6,1,Pin_1*%
%TO.N,GND*%
X88945000Y-83250000D03*
D13*
%TO.P,J6,2,Pin_2*%
%TO.N,V+*%
X87695000Y-85415064D03*
%TD*%
D10*
%TO.P,J2,1,Pin_1*%
%TO.N,GND*%
X100496169Y-115271592D03*
D11*
%TO.P,J2,2,Pin_2*%
%TO.N,+12V*%
X102996169Y-115271592D03*
%TD*%
D14*
%TO.P,TP4,1,1*%
%TO.N,Net-(D3-K)*%
X101750000Y-100000000D03*
%TD*%
D12*
%TO.P,J8,1,Pin_1*%
%TO.N,GND*%
X98358458Y-66889969D03*
D13*
%TO.P,J8,2,Pin_2*%
%TO.N,V+*%
X97108458Y-69055033D03*
%TD*%
D14*
%TO.P,TP2,1,1*%
%TO.N,+V_SW*%
X90750000Y-104500000D03*
%TD*%
%TO.P,TP3,1,1*%
%TO.N,Vsense*%
X96250000Y-89750000D03*
%TD*%
D15*
%TO.P,J9,1,Pin_1*%
%TO.N,GND*%
X138391543Y-82360032D03*
D13*
%TO.P,J9,2,Pin_2*%
%TO.N,V+*%
X139641543Y-80194968D03*
%TD*%
D12*
%TO.P,J7,1,Pin_1*%
%TO.N,GND*%
X103108458Y-58639969D03*
D13*
%TO.P,J7,2,Pin_2*%
%TO.N,V+*%
X101858458Y-60805033D03*
%TD*%
D12*
%TO.P,J3,1,Pin_1*%
%TO.N,GND*%
X93608458Y-75139969D03*
D13*
%TO.P,J3,2,Pin_2*%
%TO.N,V+*%
X92358458Y-77305033D03*
%TD*%
D15*
%TO.P,J5,1,Pin_1*%
%TO.N,GND*%
X124391543Y-106360032D03*
D13*
%TO.P,J5,2,Pin_2*%
%TO.N,V+*%
X125641543Y-104194968D03*
%TD*%
D15*
%TO.P,J4,1,Pin_1*%
%TO.N,GND*%
X133891543Y-90360032D03*
D13*
%TO.P,J4,2,Pin_2*%
%TO.N,V+*%
X135141543Y-88194968D03*
%TD*%
D16*
%TO.P,SW1,1,A*%
%TO.N,+V_SW*%
X87460000Y-107250000D03*
D14*
%TO.P,SW1,2,B*%
%TO.N,+12V*%
X90000000Y-107250000D03*
%TO.P,SW1,3,C*%
%TO.N,unconnected-(SW1-C-Pad3)*%
X92540000Y-107250000D03*
%TD*%
%TO.P,TP5,1,1*%
%TO.N,V+*%
X117500000Y-109000000D03*
%TD*%
D15*
%TO.P,J10,1,Pin_1*%
%TO.N,GND*%
X129141543Y-98360032D03*
D13*
%TO.P,J10,2,Pin_2*%
%TO.N,V+*%
X130391543Y-96194968D03*
%TD*%
D14*
%TO.P,TP1,1,1*%
%TO.N,GND*%
X109750000Y-116500000D03*
%TD*%
D17*
%TO.P,RV1,1,1*%
%TO.N,unconnected-(RV1-Pad1)*%
X103960000Y-96340000D03*
%TO.P,RV1,2,2*%
%TO.N,GND*%
X106500000Y-98880000D03*
%TO.P,RV1,3,3*%
%TO.N,Vsense*%
X109040000Y-96340000D03*
%TD*%
D18*
%TO.N,Vsense*%
X103250000Y-92500000D03*
%TO.N,GND*%
X93750000Y-95250000D03*
X100000000Y-110900000D03*
X101300000Y-110100000D03*
X92300000Y-111300000D03*
X101300000Y-110900000D03*
X93300000Y-110500000D03*
X94500000Y-96250000D03*
X93300000Y-109600000D03*
X94400000Y-109600000D03*
X100000000Y-110100000D03*
X94400000Y-111300000D03*
X94500000Y-95250000D03*
X95400000Y-111300000D03*
X93300000Y-111300000D03*
X95400000Y-110500000D03*
X94500000Y-97250000D03*
X92300000Y-109600000D03*
X93750000Y-97250000D03*
X94400000Y-110500000D03*
X95400000Y-109600000D03*
X93750000Y-96250000D03*
X92300000Y-110500000D03*
%TO.N,V+*%
X103750000Y-74500000D03*
X118100000Y-83100000D03*
X116000000Y-101000000D03*
X106750000Y-70500000D03*
X100500000Y-74500000D03*
X114200000Y-83000000D03*
X117000000Y-105000000D03*
X118000000Y-107250000D03*
X102750000Y-76750000D03*
X117000000Y-103000000D03*
X113000000Y-107250000D03*
X115000000Y-101000000D03*
X115000000Y-103000000D03*
X106750000Y-69500000D03*
X113000000Y-106000000D03*
X115000000Y-105000000D03*
X105750000Y-70500000D03*
X107250000Y-66500000D03*
X103750000Y-69500000D03*
X117000000Y-74900000D03*
X117000000Y-102000000D03*
X105750000Y-68500000D03*
X117000000Y-84400000D03*
X103250000Y-75750000D03*
X119400000Y-77500000D03*
X100500000Y-76750000D03*
X104750000Y-68500000D03*
X113000000Y-108250000D03*
X115000000Y-106000000D03*
X102750000Y-77750000D03*
X116000000Y-106000000D03*
X120100000Y-76200000D03*
X100000000Y-75750000D03*
X116000000Y-85600000D03*
X101000000Y-75750000D03*
X101000000Y-73500000D03*
X116000000Y-102000000D03*
X121000000Y-75000000D03*
X116000000Y-108250000D03*
X114000000Y-105000000D03*
X104000000Y-68500000D03*
X117000000Y-106000000D03*
X106750000Y-67500000D03*
X115000000Y-107250000D03*
X118000000Y-102000000D03*
X118000000Y-103000000D03*
X118800000Y-76100000D03*
X115000000Y-102000000D03*
X105750000Y-67500000D03*
X116000000Y-105000000D03*
X118750000Y-82000000D03*
X115000000Y-104000000D03*
X104750000Y-67500000D03*
X104750000Y-69500000D03*
X114000000Y-108250000D03*
X116100000Y-83000000D03*
X118200000Y-77300000D03*
X117000000Y-81900000D03*
X116000000Y-107250000D03*
X102500000Y-74500000D03*
X115000000Y-109250000D03*
X101500000Y-74500000D03*
X116000000Y-109250000D03*
X105750000Y-69500000D03*
X117000000Y-101000000D03*
X106250000Y-66500000D03*
X114400000Y-80600000D03*
X114000000Y-106000000D03*
X101500000Y-77750000D03*
X107750000Y-69500000D03*
X114000000Y-107250000D03*
X119000000Y-73900000D03*
X117000000Y-107250000D03*
X118000000Y-106000000D03*
X99500000Y-76750000D03*
X106750000Y-68500000D03*
X101500000Y-76750000D03*
X121200000Y-76300000D03*
X117700000Y-73800000D03*
X102000000Y-75750000D03*
X113300000Y-81600000D03*
X117000000Y-104000000D03*
X108750000Y-67500000D03*
X113400000Y-84100000D03*
X120800000Y-77500000D03*
X105250000Y-66500000D03*
X118300000Y-74900000D03*
X122300000Y-75100000D03*
X120300000Y-74000000D03*
X102000000Y-73500000D03*
X112500000Y-82900000D03*
X122300000Y-76400000D03*
X115000000Y-108250000D03*
X116000000Y-103000000D03*
X118000000Y-101000000D03*
X116000000Y-104000000D03*
X118000000Y-105000000D03*
X119600000Y-74900000D03*
X107750000Y-67500000D03*
X118400000Y-72800000D03*
X104750000Y-74500000D03*
X104250000Y-75750000D03*
X103750000Y-76750000D03*
X107750000Y-68500000D03*
X114000000Y-109250000D03*
X115100000Y-84300000D03*
X118000000Y-104000000D03*
X117600000Y-76100000D03*
X115300000Y-81700000D03*
X116200000Y-76000000D03*
X103000000Y-73500000D03*
%TO.N,Vsense*%
X101750000Y-92750000D03*
X98000000Y-91750000D03*
%TD*%
D19*
%TO.N,Vsense*%
X107090000Y-96340000D02*
X109040000Y-96340000D01*
X103250000Y-92500000D02*
X107090000Y-96340000D01*
X100750000Y-91750000D02*
X101750000Y-92750000D01*
X98000000Y-91750000D02*
X100750000Y-91750000D01*
%TD*%
%TA.AperFunction,Conductor*%
%TO.N,GND*%
G36*
X100193039Y-94769685D02*
G01*
X100238794Y-94822489D01*
X100250000Y-94874000D01*
X100250000Y-97626000D01*
X100230315Y-97693039D01*
X100177511Y-97738794D01*
X100126000Y-97750000D01*
X93374000Y-97750000D01*
X93306961Y-97730315D01*
X93261206Y-97677511D01*
X93250000Y-97626000D01*
X93250000Y-94874000D01*
X93269685Y-94806961D01*
X93322489Y-94761206D01*
X93374000Y-94750000D01*
X100126000Y-94750000D01*
X100193039Y-94769685D01*
G37*
%TD.AperFunction*%
%TD*%
%TA.AperFunction,Conductor*%
%TO.N,V+*%
G36*
X101390822Y-53945415D02*
G01*
X144723188Y-78929842D01*
X144771433Y-78980381D01*
X144784695Y-79048980D01*
X144770282Y-79096324D01*
X126863969Y-112154131D01*
X126863159Y-112155629D01*
X126833608Y-112206814D01*
X126831819Y-112213487D01*
X126828531Y-112219558D01*
X126828531Y-112219559D01*
X126815178Y-112275421D01*
X126814361Y-112278641D01*
X126799500Y-112334104D01*
X126799500Y-112334108D01*
X126799500Y-112341013D01*
X126797894Y-112347732D01*
X126799500Y-112406812D01*
X126799500Y-119276692D01*
X126779815Y-119343731D01*
X126727011Y-119389486D01*
X126675737Y-119400692D01*
X102629737Y-119446669D01*
X102562660Y-119427112D01*
X102516804Y-119374396D01*
X102505500Y-119322669D01*
X102505500Y-116852834D01*
X102525185Y-116785795D01*
X102577989Y-116740040D01*
X102647147Y-116730096D01*
X102667812Y-116734901D01*
X102679926Y-116738838D01*
X102889882Y-116772092D01*
X102889883Y-116772092D01*
X103102455Y-116772092D01*
X103102456Y-116772092D01*
X103312412Y-116738838D01*
X103514581Y-116673149D01*
X103703985Y-116576643D01*
X103797664Y-116508582D01*
X103875955Y-116451701D01*
X103875957Y-116451698D01*
X103875961Y-116451696D01*
X103927018Y-116400639D01*
X108487500Y-116400639D01*
X108487500Y-116599360D01*
X108518587Y-116795637D01*
X108579993Y-116984629D01*
X108579994Y-116984632D01*
X108670213Y-117161694D01*
X108787019Y-117322464D01*
X108927536Y-117462981D01*
X109088306Y-117579787D01*
X109175149Y-117624035D01*
X109265367Y-117670005D01*
X109265370Y-117670006D01*
X109332853Y-117691932D01*
X109454364Y-117731413D01*
X109650639Y-117762500D01*
X109650640Y-117762500D01*
X109849360Y-117762500D01*
X109849361Y-117762500D01*
X110045636Y-117731413D01*
X110234632Y-117670005D01*
X110411694Y-117579787D01*
X110572464Y-117462981D01*
X110712981Y-117322464D01*
X110829787Y-117161694D01*
X110920005Y-116984632D01*
X110981413Y-116795636D01*
X111012500Y-116599361D01*
X111012500Y-116400639D01*
X110981413Y-116204364D01*
X110924341Y-116028712D01*
X110924341Y-116028711D01*
X120774500Y-116028711D01*
X120774500Y-116271288D01*
X120806161Y-116511785D01*
X120868947Y-116746104D01*
X120961773Y-116970205D01*
X120961776Y-116970212D01*
X121083064Y-117180289D01*
X121083066Y-117180292D01*
X121083067Y-117180293D01*
X121230733Y-117372736D01*
X121230739Y-117372743D01*
X121402256Y-117544260D01*
X121402262Y-117544265D01*
X121594711Y-117691936D01*
X121804788Y-117813224D01*
X122028900Y-117906054D01*
X122263211Y-117968838D01*
X122443586Y-117992584D01*
X122503711Y-118000500D01*
X122503712Y-118000500D01*
X122746289Y-118000500D01*
X122794388Y-117994167D01*
X122986789Y-117968838D01*
X123221100Y-117906054D01*
X123445212Y-117813224D01*
X123655289Y-117691936D01*
X123847738Y-117544265D01*
X124019265Y-117372738D01*
X124166936Y-117180289D01*
X124288224Y-116970212D01*
X124381054Y-116746100D01*
X124443838Y-116511789D01*
X124475500Y-116271288D01*
X124475500Y-116028712D01*
X124443838Y-115788211D01*
X124381054Y-115553900D01*
X124288224Y-115329788D01*
X124166936Y-115119711D01*
X124019265Y-114927262D01*
X124019260Y-114927256D01*
X123847743Y-114755739D01*
X123847736Y-114755733D01*
X123655293Y-114608067D01*
X123655292Y-114608066D01*
X123655289Y-114608064D01*
X123445212Y-114486776D01*
X123439959Y-114484600D01*
X123221104Y-114393947D01*
X122986785Y-114331161D01*
X122746289Y-114299500D01*
X122746288Y-114299500D01*
X122503712Y-114299500D01*
X122503711Y-114299500D01*
X122263214Y-114331161D01*
X122028895Y-114393947D01*
X121804794Y-114486773D01*
X121804785Y-114486777D01*
X121594706Y-114608067D01*
X121402263Y-114755733D01*
X121402256Y-114755739D01*
X121230739Y-114927256D01*
X121230733Y-114927263D01*
X121083067Y-115119706D01*
X120961777Y-115329785D01*
X120961773Y-115329794D01*
X120868947Y-115553895D01*
X120806161Y-115788214D01*
X120774500Y-116028711D01*
X110924341Y-116028711D01*
X110920007Y-116015373D01*
X110920005Y-116015367D01*
X110829786Y-115838305D01*
X110793393Y-115788214D01*
X110712981Y-115677536D01*
X110572464Y-115537019D01*
X110411694Y-115420213D01*
X110234632Y-115329994D01*
X110234629Y-115329993D01*
X110045637Y-115268587D01*
X109947498Y-115253043D01*
X109849361Y-115237500D01*
X109650639Y-115237500D01*
X109585214Y-115247862D01*
X109454362Y-115268587D01*
X109265370Y-115329993D01*
X109265367Y-115329994D01*
X109088305Y-115420213D01*
X108927533Y-115537021D01*
X108787021Y-115677533D01*
X108670213Y-115838305D01*
X108579994Y-116015367D01*
X108579993Y-116015370D01*
X108518587Y-116204362D01*
X108487500Y-116400639D01*
X103927018Y-116400639D01*
X104026273Y-116301384D01*
X104026275Y-116301380D01*
X104026278Y-116301378D01*
X104151217Y-116129412D01*
X104151216Y-116129412D01*
X104151220Y-116129408D01*
X104247726Y-115940004D01*
X104313415Y-115737835D01*
X104346669Y-115527879D01*
X104346669Y-115015305D01*
X104313415Y-114805349D01*
X104247726Y-114603180D01*
X104151220Y-114413776D01*
X104151218Y-114413773D01*
X104151217Y-114413771D01*
X104026278Y-114241805D01*
X103875955Y-114091482D01*
X103703989Y-113966543D01*
X103514583Y-113870036D01*
X103514582Y-113870035D01*
X103514581Y-113870035D01*
X103312412Y-113804346D01*
X103312410Y-113804345D01*
X103312409Y-113804345D01*
X103151126Y-113778800D01*
X103102456Y-113771092D01*
X102889882Y-113771092D01*
X102870322Y-113774190D01*
X102679925Y-113804345D01*
X102667813Y-113808281D01*
X102597972Y-113810273D01*
X102538140Y-113774190D01*
X102507315Y-113711487D01*
X102505500Y-113690348D01*
X102505500Y-108900678D01*
X116238000Y-108900678D01*
X116238000Y-109099321D01*
X116269075Y-109295520D01*
X116269075Y-109295523D01*
X116330457Y-109484437D01*
X116420641Y-109661432D01*
X116447730Y-109698715D01*
X116447731Y-109698716D01*
X117119000Y-109027447D01*
X117119000Y-109050160D01*
X117144964Y-109147061D01*
X117195124Y-109233940D01*
X117266060Y-109304876D01*
X117352939Y-109355036D01*
X117449840Y-109381000D01*
X117472553Y-109381000D01*
X116801283Y-110052268D01*
X116801283Y-110052269D01*
X116838567Y-110079358D01*
X117015562Y-110169542D01*
X117204477Y-110230924D01*
X117400679Y-110262000D01*
X117599321Y-110262000D01*
X117795520Y-110230924D01*
X117795523Y-110230924D01*
X117984437Y-110169542D01*
X118161425Y-110079362D01*
X118198716Y-110052268D01*
X117527448Y-109381000D01*
X117550160Y-109381000D01*
X117647061Y-109355036D01*
X117733940Y-109304876D01*
X117804876Y-109233940D01*
X117855036Y-109147061D01*
X117881000Y-109050160D01*
X117881000Y-109027447D01*
X118552268Y-109698715D01*
X118579362Y-109661425D01*
X118669542Y-109484437D01*
X118730924Y-109295523D01*
X118730924Y-109295520D01*
X118762000Y-109099321D01*
X118762000Y-108900678D01*
X118730924Y-108704479D01*
X118730924Y-108704476D01*
X118669542Y-108515562D01*
X118579358Y-108338567D01*
X118552268Y-108301283D01*
X117881000Y-108972551D01*
X117881000Y-108949840D01*
X117855036Y-108852939D01*
X117804876Y-108766060D01*
X117733940Y-108695124D01*
X117647061Y-108644964D01*
X117550160Y-108619000D01*
X117527447Y-108619000D01*
X118198716Y-107947731D01*
X118198715Y-107947730D01*
X118161432Y-107920641D01*
X117984437Y-107830457D01*
X117795522Y-107769075D01*
X117599321Y-107738000D01*
X117400679Y-107738000D01*
X117204479Y-107769075D01*
X117204476Y-107769075D01*
X117015562Y-107830457D01*
X116838564Y-107920643D01*
X116801283Y-107947729D01*
X116801282Y-107947730D01*
X117472554Y-108619000D01*
X117449840Y-108619000D01*
X117352939Y-108644964D01*
X117266060Y-108695124D01*
X117195124Y-108766060D01*
X117144964Y-108852939D01*
X117119000Y-108949840D01*
X117119000Y-108972552D01*
X116447730Y-108301282D01*
X116447729Y-108301283D01*
X116420643Y-108338564D01*
X116330457Y-108515562D01*
X116269075Y-108704476D01*
X116269075Y-108704479D01*
X116238000Y-108900678D01*
X102505500Y-108900678D01*
X102505500Y-108624010D01*
X102505500Y-108624000D01*
X102493947Y-108516544D01*
X102482741Y-108465033D01*
X102479666Y-108455793D01*
X102448616Y-108362502D01*
X102448613Y-108362496D01*
X102370828Y-108241462D01*
X102370825Y-108241457D01*
X102370820Y-108241451D01*
X102325076Y-108188659D01*
X102325072Y-108188656D01*
X102325070Y-108188653D01*
X102216336Y-108094433D01*
X102216331Y-108094430D01*
X102085465Y-108034664D01*
X102085460Y-108034662D01*
X102085459Y-108034662D01*
X102018420Y-108014977D01*
X102018422Y-108014977D01*
X102018417Y-108014976D01*
X101956354Y-108006053D01*
X101876000Y-107994500D01*
X101875998Y-107994500D01*
X93779945Y-107994500D01*
X93712906Y-107974815D01*
X93667151Y-107922011D01*
X93657207Y-107852853D01*
X93669461Y-107814204D01*
X93710003Y-107734637D01*
X93710006Y-107734629D01*
X93729963Y-107673206D01*
X93771413Y-107545636D01*
X93802500Y-107349361D01*
X93802500Y-107150639D01*
X93771413Y-106954364D01*
X93717954Y-106789833D01*
X93710006Y-106765370D01*
X93710005Y-106765367D01*
X93664035Y-106675149D01*
X93619787Y-106588306D01*
X93511157Y-106438789D01*
X122689290Y-106438789D01*
X122694391Y-106614156D01*
X122739800Y-106783623D01*
X122823066Y-106938047D01*
X122939698Y-107069107D01*
X122939699Y-107069109D01*
X123023458Y-107129590D01*
X123023465Y-107129595D01*
X123023471Y-107129598D01*
X123023475Y-107129601D01*
X123965027Y-107673205D01*
X124409121Y-107929602D01*
X124409130Y-107929606D01*
X124503386Y-107971903D01*
X124503387Y-107971903D01*
X124503389Y-107971904D01*
X124675206Y-108007381D01*
X124850574Y-108002279D01*
X125020038Y-107956871D01*
X125174461Y-107873606D01*
X125305521Y-107756973D01*
X125366010Y-107673206D01*
X126016017Y-106547358D01*
X126058318Y-106453090D01*
X126092608Y-106287021D01*
X126093795Y-106281274D01*
X126090638Y-106172722D01*
X126088694Y-106105905D01*
X126043286Y-105936441D01*
X125960020Y-105782017D01*
X125960019Y-105782016D01*
X125956734Y-105775923D01*
X125942242Y-105707573D01*
X125967005Y-105642238D01*
X126023159Y-105600663D01*
X126033784Y-105597297D01*
X126223478Y-105546468D01*
X126417607Y-105460036D01*
X126595814Y-105344308D01*
X126595820Y-105344303D01*
X126753728Y-105202120D01*
X126753737Y-105202109D01*
X126795861Y-105150089D01*
X126795861Y-105150088D01*
X125891542Y-104627980D01*
X125948550Y-104595067D01*
X126041642Y-104501975D01*
X126107468Y-104387961D01*
X126141543Y-104260794D01*
X126141543Y-104194968D01*
X127045861Y-104717076D01*
X127045862Y-104717076D01*
X127069855Y-104654576D01*
X127114035Y-104446726D01*
X127114036Y-104446717D01*
X127125156Y-104234524D01*
X127125156Y-104234517D01*
X127102943Y-104023183D01*
X127047948Y-103817938D01*
X126961515Y-103623806D01*
X126845787Y-103445600D01*
X126845783Y-103445595D01*
X126703599Y-103287685D01*
X126538460Y-103153959D01*
X126538456Y-103153956D01*
X126533047Y-103150833D01*
X126074554Y-103944966D01*
X126041642Y-103887961D01*
X125948550Y-103794869D01*
X125834536Y-103729043D01*
X125707369Y-103694968D01*
X125641542Y-103694968D01*
X126100036Y-102900834D01*
X126100035Y-102900833D01*
X126094622Y-102897708D01*
X125896244Y-102821559D01*
X125896247Y-102821559D01*
X125688397Y-102777379D01*
X125688388Y-102777378D01*
X125476195Y-102766258D01*
X125476188Y-102766258D01*
X125264854Y-102788471D01*
X125059609Y-102843466D01*
X124865475Y-102929900D01*
X124687272Y-103045627D01*
X124529354Y-103187818D01*
X124487222Y-103239845D01*
X125391543Y-103761955D01*
X125334536Y-103794869D01*
X125241444Y-103887961D01*
X125175618Y-104001975D01*
X125141543Y-104129142D01*
X125141543Y-104194967D01*
X125138705Y-104193329D01*
X124237223Y-103672857D01*
X124213230Y-103735360D01*
X124169050Y-103943209D01*
X124169049Y-103943218D01*
X124157929Y-104155411D01*
X124157929Y-104155418D01*
X124180142Y-104366752D01*
X124230968Y-104556440D01*
X124229305Y-104626290D01*
X124190142Y-104684152D01*
X124125914Y-104711656D01*
X124114799Y-104712481D01*
X123932514Y-104717784D01*
X123763047Y-104763193D01*
X123702879Y-104795636D01*
X123608625Y-104846458D01*
X123551201Y-104897560D01*
X123477565Y-104963090D01*
X123417075Y-105046858D01*
X122767071Y-106172702D01*
X122767061Y-106172722D01*
X122724768Y-106266973D01*
X122689290Y-106438789D01*
X93511157Y-106438789D01*
X93502981Y-106427536D01*
X93362464Y-106287019D01*
X93201694Y-106170213D01*
X93024632Y-106079994D01*
X93024629Y-106079993D01*
X92835637Y-106018587D01*
X92737498Y-106003043D01*
X92639361Y-105987500D01*
X92440639Y-105987500D01*
X92375214Y-105997862D01*
X92244362Y-106018587D01*
X92055370Y-106079993D01*
X92055367Y-106079994D01*
X91878305Y-106170213D01*
X91717533Y-106287021D01*
X91577021Y-106427533D01*
X91460213Y-106588305D01*
X91380485Y-106744780D01*
X91332510Y-106795576D01*
X91264689Y-106812371D01*
X91198554Y-106789833D01*
X91159515Y-106744780D01*
X91140179Y-106706832D01*
X91079787Y-106588306D01*
X90962981Y-106427536D01*
X90822464Y-106287019D01*
X90661694Y-106170213D01*
X90484632Y-106079994D01*
X90484629Y-106079993D01*
X90295637Y-106018587D01*
X90197498Y-106003043D01*
X90099361Y-105987500D01*
X89900639Y-105987500D01*
X89835214Y-105997862D01*
X89704362Y-106018587D01*
X89515370Y-106079993D01*
X89515367Y-106079994D01*
X89338305Y-106170213D01*
X89177533Y-106287021D01*
X89037021Y-106427533D01*
X89037021Y-106427534D01*
X89037019Y-106427536D01*
X89018453Y-106453090D01*
X88946817Y-106551688D01*
X88891487Y-106594353D01*
X88821873Y-106600332D01*
X88760078Y-106567726D01*
X88725721Y-106506887D01*
X88722499Y-106478802D01*
X88722499Y-106440129D01*
X88722498Y-106440123D01*
X88722497Y-106440116D01*
X88716091Y-106380517D01*
X88681219Y-106287021D01*
X88665797Y-106245671D01*
X88665793Y-106245664D01*
X88579547Y-106130455D01*
X88579544Y-106130452D01*
X88464335Y-106044206D01*
X88464328Y-106044202D01*
X88329482Y-105993908D01*
X88329483Y-105993908D01*
X88269883Y-105987501D01*
X88269881Y-105987500D01*
X88269873Y-105987500D01*
X88269864Y-105987500D01*
X86650129Y-105987500D01*
X86650123Y-105987501D01*
X86590516Y-105993908D01*
X86455671Y-106044202D01*
X86455664Y-106044206D01*
X86340455Y-106130452D01*
X86340452Y-106130455D01*
X86254206Y-106245664D01*
X86254202Y-106245671D01*
X86203908Y-106380517D01*
X86197501Y-106440116D01*
X86197501Y-106440123D01*
X86197500Y-106440135D01*
X86197500Y-108059870D01*
X86197501Y-108059876D01*
X86203908Y-108119483D01*
X86254202Y-108254328D01*
X86254206Y-108254335D01*
X86340452Y-108369544D01*
X86340455Y-108369547D01*
X86455664Y-108455793D01*
X86455671Y-108455797D01*
X86590517Y-108506091D01*
X86590516Y-108506091D01*
X86597444Y-108506835D01*
X86650127Y-108512500D01*
X88269872Y-108512499D01*
X88329483Y-108506091D01*
X88464331Y-108455796D01*
X88579546Y-108369546D01*
X88665796Y-108254331D01*
X88716091Y-108119483D01*
X88722500Y-108059873D01*
X88722499Y-108021197D01*
X88742182Y-107954161D01*
X88794985Y-107908405D01*
X88864143Y-107898460D01*
X88927699Y-107927483D01*
X88946817Y-107948312D01*
X89037019Y-108072464D01*
X89177536Y-108212981D01*
X89338306Y-108329787D01*
X89355538Y-108338567D01*
X89515367Y-108420005D01*
X89515370Y-108420006D01*
X89609866Y-108450709D01*
X89704364Y-108481413D01*
X89900639Y-108512500D01*
X89900640Y-108512500D01*
X90099360Y-108512500D01*
X90099361Y-108512500D01*
X90295636Y-108481413D01*
X90336354Y-108468182D01*
X90406194Y-108466188D01*
X90466027Y-108502268D01*
X90496856Y-108564969D01*
X90497410Y-108603760D01*
X90494500Y-108623998D01*
X90494500Y-110120500D01*
X90474815Y-110187539D01*
X90422011Y-110233294D01*
X90370500Y-110244500D01*
X86624000Y-110244500D01*
X86623991Y-110244500D01*
X86623990Y-110244501D01*
X86516549Y-110256052D01*
X86516537Y-110256054D01*
X86465027Y-110267260D01*
X86362502Y-110301383D01*
X86362496Y-110301386D01*
X86241462Y-110379171D01*
X86241451Y-110379179D01*
X86188659Y-110424923D01*
X86094433Y-110533664D01*
X86094430Y-110533668D01*
X86034664Y-110664534D01*
X86014976Y-110731582D01*
X85994500Y-110874001D01*
X85994500Y-113720311D01*
X85996480Y-113765007D01*
X85998423Y-113786876D01*
X86004354Y-113831250D01*
X86004354Y-113831251D01*
X86049610Y-113967829D01*
X86071472Y-114011649D01*
X86071474Y-114011652D01*
X86080802Y-114030348D01*
X86080803Y-114030351D01*
X86162705Y-114148645D01*
X86201677Y-114180136D01*
X86210561Y-114191631D01*
X86218199Y-114211188D01*
X86230151Y-114228451D01*
X86230654Y-114243079D01*
X86235979Y-114256714D01*
X86231831Y-114277295D01*
X86232553Y-114298279D01*
X86230151Y-114306459D01*
X86205182Y-114381810D01*
X86194681Y-114484592D01*
X86194681Y-116084610D01*
X86194682Y-116084627D01*
X86205181Y-116187405D01*
X86205182Y-116187408D01*
X86230161Y-116262789D01*
X86232563Y-116332618D01*
X86196831Y-116392659D01*
X86193664Y-116395501D01*
X86188656Y-116399840D01*
X86094433Y-116508578D01*
X86094430Y-116508582D01*
X86034664Y-116639448D01*
X86014976Y-116706496D01*
X85994500Y-116848915D01*
X85994500Y-119354713D01*
X85974815Y-119421752D01*
X85922011Y-119467507D01*
X85870737Y-119478713D01*
X75625599Y-119498302D01*
X75558522Y-119478745D01*
X75512666Y-119426029D01*
X75501362Y-119374131D01*
X75501497Y-119276692D01*
X75505973Y-116028711D01*
X77174500Y-116028711D01*
X77174500Y-116271288D01*
X77206161Y-116511785D01*
X77268947Y-116746104D01*
X77361773Y-116970205D01*
X77361776Y-116970212D01*
X77483064Y-117180289D01*
X77483066Y-117180292D01*
X77483067Y-117180293D01*
X77630733Y-117372736D01*
X77630739Y-117372743D01*
X77802256Y-117544260D01*
X77802262Y-117544265D01*
X77994711Y-117691936D01*
X78204788Y-117813224D01*
X78428900Y-117906054D01*
X78663211Y-117968838D01*
X78843586Y-117992584D01*
X78903711Y-118000500D01*
X78903712Y-118000500D01*
X79146289Y-118000500D01*
X79194388Y-117994167D01*
X79386789Y-117968838D01*
X79621100Y-117906054D01*
X79845212Y-117813224D01*
X80055289Y-117691936D01*
X80247738Y-117544265D01*
X80419265Y-117372738D01*
X80566936Y-117180289D01*
X80688224Y-116970212D01*
X80781054Y-116746100D01*
X80843838Y-116511789D01*
X80875500Y-116271288D01*
X80875500Y-116028712D01*
X80843838Y-115788211D01*
X80781054Y-115553900D01*
X80688224Y-115329788D01*
X80566936Y-115119711D01*
X80419265Y-114927262D01*
X80419260Y-114927256D01*
X80247743Y-114755739D01*
X80247736Y-114755733D01*
X80055293Y-114608067D01*
X80055292Y-114608066D01*
X80055289Y-114608064D01*
X79845212Y-114486776D01*
X79839959Y-114484600D01*
X79621104Y-114393947D01*
X79386785Y-114331161D01*
X79146289Y-114299500D01*
X79146288Y-114299500D01*
X78903712Y-114299500D01*
X78903711Y-114299500D01*
X78663214Y-114331161D01*
X78428895Y-114393947D01*
X78204794Y-114486773D01*
X78204785Y-114486777D01*
X77994706Y-114608067D01*
X77802263Y-114755733D01*
X77802256Y-114755739D01*
X77630739Y-114927256D01*
X77630733Y-114927263D01*
X77483067Y-115119706D01*
X77361777Y-115329785D01*
X77361773Y-115329794D01*
X77268947Y-115553895D01*
X77206161Y-115788214D01*
X77174500Y-116028711D01*
X75505973Y-116028711D01*
X75521999Y-104400639D01*
X89487500Y-104400639D01*
X89487500Y-104599360D01*
X89518587Y-104795637D01*
X89579993Y-104984629D01*
X89579994Y-104984632D01*
X89664299Y-105150088D01*
X89670213Y-105161694D01*
X89787019Y-105322464D01*
X89927536Y-105462981D01*
X90088306Y-105579787D01*
X90175149Y-105624035D01*
X90265367Y-105670005D01*
X90265370Y-105670006D01*
X90359866Y-105700709D01*
X90454364Y-105731413D01*
X90650639Y-105762500D01*
X90650640Y-105762500D01*
X90849360Y-105762500D01*
X90849361Y-105762500D01*
X91045636Y-105731413D01*
X91234632Y-105670005D01*
X91411694Y-105579787D01*
X91572464Y-105462981D01*
X91712981Y-105322464D01*
X91829787Y-105161694D01*
X91920005Y-104984632D01*
X91981413Y-104795636D01*
X92012500Y-104599361D01*
X92012500Y-104400639D01*
X91981413Y-104204364D01*
X91948628Y-104103460D01*
X91920006Y-104015370D01*
X91920005Y-104015367D01*
X91874035Y-103925149D01*
X91829787Y-103838306D01*
X91712981Y-103677536D01*
X91572464Y-103537019D01*
X91411694Y-103420213D01*
X91234632Y-103329994D01*
X91234629Y-103329993D01*
X91216687Y-103324164D01*
X91045637Y-103268587D01*
X90947498Y-103253043D01*
X90849361Y-103237500D01*
X90650639Y-103237500D01*
X90585214Y-103247862D01*
X90454362Y-103268587D01*
X90265370Y-103329993D01*
X90265367Y-103329994D01*
X90088305Y-103420213D01*
X89927533Y-103537021D01*
X89787021Y-103677533D01*
X89670213Y-103838305D01*
X89579994Y-104015367D01*
X89579993Y-104015370D01*
X89518587Y-104204362D01*
X89487500Y-104400639D01*
X75521999Y-104400639D01*
X75528201Y-99900639D01*
X100487500Y-99900639D01*
X100487500Y-100099361D01*
X100490861Y-100120579D01*
X100518587Y-100295637D01*
X100579993Y-100484629D01*
X100579994Y-100484632D01*
X100670213Y-100661694D01*
X100787019Y-100822464D01*
X100927536Y-100962981D01*
X101088306Y-101079787D01*
X101175149Y-101124035D01*
X101265367Y-101170005D01*
X101265370Y-101170006D01*
X101359866Y-101200709D01*
X101454364Y-101231413D01*
X101650639Y-101262500D01*
X101650640Y-101262500D01*
X101849360Y-101262500D01*
X101849361Y-101262500D01*
X102045636Y-101231413D01*
X102234632Y-101170005D01*
X102411694Y-101079787D01*
X102572464Y-100962981D01*
X102712981Y-100822464D01*
X102829787Y-100661694D01*
X102920005Y-100484632D01*
X102981413Y-100295636D01*
X103012500Y-100099361D01*
X103012500Y-99900639D01*
X102981413Y-99704364D01*
X102920005Y-99515368D01*
X102920005Y-99515367D01*
X102829786Y-99338305D01*
X102712981Y-99177536D01*
X102572464Y-99037019D01*
X102411694Y-98920213D01*
X102301406Y-98864018D01*
X102234632Y-98829994D01*
X102234629Y-98829993D01*
X102045637Y-98768587D01*
X102028275Y-98765837D01*
X105049500Y-98765837D01*
X105049500Y-98994162D01*
X105085215Y-99219660D01*
X105155770Y-99436803D01*
X105259421Y-99640228D01*
X105393621Y-99824937D01*
X105555063Y-99986379D01*
X105739772Y-100120579D01*
X105835884Y-100169550D01*
X105943196Y-100224229D01*
X105943198Y-100224229D01*
X105943201Y-100224231D01*
X106059592Y-100262049D01*
X106160339Y-100294784D01*
X106385838Y-100330500D01*
X106385843Y-100330500D01*
X106614162Y-100330500D01*
X106839660Y-100294784D01*
X107056799Y-100224231D01*
X107260228Y-100120579D01*
X107444937Y-99986379D01*
X107606379Y-99824937D01*
X107740579Y-99640228D01*
X107844231Y-99436799D01*
X107914784Y-99219660D01*
X107938629Y-99069109D01*
X107950500Y-98994162D01*
X107950500Y-98765837D01*
X107926475Y-98614156D01*
X107914784Y-98540340D01*
X107914783Y-98540336D01*
X107914783Y-98540335D01*
X107893066Y-98473497D01*
X107881788Y-98438789D01*
X127439290Y-98438789D01*
X127444391Y-98614156D01*
X127489800Y-98783623D01*
X127573066Y-98938047D01*
X127689698Y-99069107D01*
X127689699Y-99069109D01*
X127773458Y-99129590D01*
X127773465Y-99129595D01*
X127773471Y-99129598D01*
X127773475Y-99129601D01*
X128134962Y-99338305D01*
X129159121Y-99929602D01*
X129159130Y-99929606D01*
X129253386Y-99971903D01*
X129253387Y-99971903D01*
X129253389Y-99971904D01*
X129425206Y-100007381D01*
X129600574Y-100002279D01*
X129770038Y-99956871D01*
X129924461Y-99873606D01*
X130055521Y-99756973D01*
X130116010Y-99673206D01*
X130766017Y-98547358D01*
X130808318Y-98453090D01*
X130833425Y-98331489D01*
X130843795Y-98281274D01*
X130840638Y-98172722D01*
X130838694Y-98105905D01*
X130793286Y-97936441D01*
X130766898Y-97887503D01*
X130706734Y-97775923D01*
X130692242Y-97707573D01*
X130717005Y-97642238D01*
X130773159Y-97600663D01*
X130783784Y-97597297D01*
X130973478Y-97546468D01*
X131167607Y-97460036D01*
X131345814Y-97344308D01*
X131345820Y-97344303D01*
X131503728Y-97202120D01*
X131503737Y-97202109D01*
X131545861Y-97150089D01*
X131545861Y-97150088D01*
X130641542Y-96627980D01*
X130698550Y-96595067D01*
X130791642Y-96501975D01*
X130857468Y-96387961D01*
X130891543Y-96260794D01*
X130891543Y-96194968D01*
X131795861Y-96717076D01*
X131795862Y-96717076D01*
X131819855Y-96654576D01*
X131864035Y-96446726D01*
X131864036Y-96446717D01*
X131875156Y-96234524D01*
X131875156Y-96234517D01*
X131852943Y-96023183D01*
X131797948Y-95817938D01*
X131711515Y-95623806D01*
X131595787Y-95445600D01*
X131595783Y-95445595D01*
X131453599Y-95287685D01*
X131288460Y-95153959D01*
X131288456Y-95153956D01*
X131283047Y-95150833D01*
X130824554Y-95944966D01*
X130791642Y-95887961D01*
X130698550Y-95794869D01*
X130584536Y-95729043D01*
X130457369Y-95694968D01*
X130391542Y-95694968D01*
X130850036Y-94900834D01*
X130850035Y-94900833D01*
X130844622Y-94897708D01*
X130646244Y-94821559D01*
X130646247Y-94821559D01*
X130438397Y-94777379D01*
X130438388Y-94777378D01*
X130226195Y-94766258D01*
X130226188Y-94766258D01*
X130014854Y-94788471D01*
X129809609Y-94843466D01*
X129615475Y-94929900D01*
X129437272Y-95045627D01*
X129279354Y-95187818D01*
X129237222Y-95239845D01*
X130141543Y-95761955D01*
X130084536Y-95794869D01*
X129991444Y-95887961D01*
X129925618Y-96001975D01*
X129891543Y-96129142D01*
X129891543Y-96194967D01*
X129888705Y-96193329D01*
X128987223Y-95672857D01*
X128963230Y-95735360D01*
X128919050Y-95943209D01*
X128919049Y-95943218D01*
X128907929Y-96155411D01*
X128907929Y-96155418D01*
X128930142Y-96366752D01*
X128980968Y-96556440D01*
X128979305Y-96626290D01*
X128940142Y-96684152D01*
X128875914Y-96711656D01*
X128864799Y-96712481D01*
X128682514Y-96717784D01*
X128513047Y-96763193D01*
X128378229Y-96835887D01*
X128358625Y-96846458D01*
X128331453Y-96870639D01*
X128227565Y-96963090D01*
X128167075Y-97046858D01*
X127517071Y-98172702D01*
X127517061Y-98172722D01*
X127474768Y-98266973D01*
X127439290Y-98438789D01*
X107881788Y-98438789D01*
X107844229Y-98323196D01*
X107780750Y-98198613D01*
X107740579Y-98119772D01*
X107606379Y-97935063D01*
X107444937Y-97773621D01*
X107260228Y-97639421D01*
X107056803Y-97535770D01*
X106839660Y-97465215D01*
X106614162Y-97429500D01*
X106614157Y-97429500D01*
X106385843Y-97429500D01*
X106385838Y-97429500D01*
X106160339Y-97465215D01*
X105943196Y-97535770D01*
X105739771Y-97639421D01*
X105555061Y-97773622D01*
X105393622Y-97935061D01*
X105259421Y-98119771D01*
X105155770Y-98323196D01*
X105085215Y-98540339D01*
X105049500Y-98765837D01*
X102028275Y-98765837D01*
X101947498Y-98753043D01*
X101849361Y-98737500D01*
X101650639Y-98737500D01*
X101585214Y-98747862D01*
X101454362Y-98768587D01*
X101265370Y-98829993D01*
X101265367Y-98829994D01*
X101088305Y-98920213D01*
X100927533Y-99037021D01*
X100787021Y-99177533D01*
X100670213Y-99338305D01*
X100579994Y-99515367D01*
X100579993Y-99515370D01*
X100518587Y-99704362D01*
X100499490Y-99824937D01*
X100487500Y-99900639D01*
X75528201Y-99900639D01*
X75530064Y-98549140D01*
X75546656Y-98487349D01*
X77631281Y-94874000D01*
X92744500Y-94874000D01*
X92744500Y-97626000D01*
X92744501Y-97626009D01*
X92756052Y-97733450D01*
X92756054Y-97733462D01*
X92767260Y-97784972D01*
X92801383Y-97887497D01*
X92801386Y-97887503D01*
X92879171Y-98008537D01*
X92879179Y-98008548D01*
X92924923Y-98061340D01*
X92924926Y-98061343D01*
X92924930Y-98061347D01*
X93033664Y-98155567D01*
X93033667Y-98155568D01*
X93033668Y-98155569D01*
X93127925Y-98198616D01*
X93164541Y-98215338D01*
X93231580Y-98235023D01*
X93231584Y-98235024D01*
X93374000Y-98255500D01*
X93374003Y-98255500D01*
X100125990Y-98255500D01*
X100126000Y-98255500D01*
X100233456Y-98243947D01*
X100284967Y-98232741D01*
X100319197Y-98221347D01*
X100387497Y-98198616D01*
X100387501Y-98198613D01*
X100387504Y-98198613D01*
X100508543Y-98120825D01*
X100561347Y-98075070D01*
X100655567Y-97966336D01*
X100715338Y-97835459D01*
X100735023Y-97768420D01*
X100735024Y-97768416D01*
X100755500Y-97626000D01*
X100755500Y-94874000D01*
X100743947Y-94766544D01*
X100732741Y-94715033D01*
X100732637Y-94714722D01*
X100698616Y-94612502D01*
X100698613Y-94612496D01*
X100620828Y-94491462D01*
X100620825Y-94491457D01*
X100620820Y-94491451D01*
X100575076Y-94438659D01*
X100575072Y-94438656D01*
X100575070Y-94438653D01*
X100466336Y-94344433D01*
X100466333Y-94344431D01*
X100466331Y-94344430D01*
X100335465Y-94284664D01*
X100335460Y-94284662D01*
X100335459Y-94284662D01*
X100268420Y-94264977D01*
X100268422Y-94264977D01*
X100268417Y-94264976D01*
X100206347Y-94256052D01*
X100126000Y-94244500D01*
X93374000Y-94244500D01*
X93373991Y-94244500D01*
X93373990Y-94244501D01*
X93266549Y-94256052D01*
X93266537Y-94256054D01*
X93215027Y-94267260D01*
X93112502Y-94301383D01*
X93112496Y-94301386D01*
X92991462Y-94379171D01*
X92991451Y-94379179D01*
X92938659Y-94424923D01*
X92844433Y-94533664D01*
X92844430Y-94533668D01*
X92784664Y-94664534D01*
X92764976Y-94731582D01*
X92759949Y-94766549D01*
X92744500Y-94874000D01*
X77631281Y-94874000D01*
X79479078Y-91671153D01*
X97199500Y-91671153D01*
X97199500Y-91828846D01*
X97230261Y-91983489D01*
X97230264Y-91983501D01*
X97290602Y-92129172D01*
X97290609Y-92129185D01*
X97378210Y-92260288D01*
X97378213Y-92260292D01*
X97489707Y-92371786D01*
X97489711Y-92371789D01*
X97620814Y-92459390D01*
X97620827Y-92459397D01*
X97740185Y-92508836D01*
X97766503Y-92519737D01*
X97921153Y-92550499D01*
X97921156Y-92550500D01*
X97921158Y-92550500D01*
X98078844Y-92550500D01*
X98078845Y-92550499D01*
X98233497Y-92519737D01*
X98254964Y-92510843D01*
X98260120Y-92508842D01*
X98676357Y-92357926D01*
X98718624Y-92350500D01*
X100449903Y-92350500D01*
X100516942Y-92370185D01*
X100537583Y-92386818D01*
X100701263Y-92550499D01*
X100817235Y-92666471D01*
X100841872Y-92701609D01*
X101028868Y-93101339D01*
X101028883Y-93101370D01*
X101030655Y-93105157D01*
X101040606Y-93129179D01*
X101048321Y-93140726D01*
X101051915Y-93147716D01*
X101051932Y-93147750D01*
X101054175Y-93152111D01*
X101055028Y-93153630D01*
X101110434Y-93234183D01*
X101113029Y-93237569D01*
X101128208Y-93260286D01*
X101128215Y-93260294D01*
X101239707Y-93371786D01*
X101239711Y-93371789D01*
X101370814Y-93459390D01*
X101370827Y-93459397D01*
X101516498Y-93519735D01*
X101516503Y-93519737D01*
X101671153Y-93550499D01*
X101671156Y-93550500D01*
X101671158Y-93550500D01*
X101828844Y-93550500D01*
X101828845Y-93550499D01*
X101983497Y-93519737D01*
X102129179Y-93459394D01*
X102260289Y-93371789D01*
X102371789Y-93260289D01*
X102459394Y-93129179D01*
X102472643Y-93097192D01*
X102516483Y-93042790D01*
X102582776Y-93020724D01*
X102650476Y-93038002D01*
X102674885Y-93056964D01*
X102739707Y-93121786D01*
X102739711Y-93121789D01*
X102870814Y-93209390D01*
X102870827Y-93209397D01*
X102993705Y-93260294D01*
X103016503Y-93269737D01*
X103081147Y-93282595D01*
X103171849Y-93300638D01*
X103233760Y-93333023D01*
X103235339Y-93334574D01*
X104737420Y-94836655D01*
X104770905Y-94897978D01*
X104765921Y-94967670D01*
X104724049Y-95023603D01*
X104658585Y-95048020D01*
X104593445Y-95034821D01*
X104516806Y-94995771D01*
X104299660Y-94925215D01*
X104074162Y-94889500D01*
X104074157Y-94889500D01*
X103845843Y-94889500D01*
X103845838Y-94889500D01*
X103620339Y-94925215D01*
X103403196Y-94995770D01*
X103199771Y-95099421D01*
X103015061Y-95233622D01*
X102853622Y-95395061D01*
X102719421Y-95579771D01*
X102615770Y-95783196D01*
X102545215Y-96000339D01*
X102509500Y-96225837D01*
X102509500Y-96454162D01*
X102545215Y-96679660D01*
X102615770Y-96896803D01*
X102719421Y-97100228D01*
X102853621Y-97284937D01*
X103015063Y-97446379D01*
X103199772Y-97580579D01*
X103288896Y-97625990D01*
X103403196Y-97684229D01*
X103403198Y-97684229D01*
X103403201Y-97684231D01*
X103475040Y-97707573D01*
X103620339Y-97754784D01*
X103845838Y-97790500D01*
X103845843Y-97790500D01*
X104074162Y-97790500D01*
X104299660Y-97754784D01*
X104516799Y-97684231D01*
X104720228Y-97580579D01*
X104904937Y-97446379D01*
X105066379Y-97284937D01*
X105200579Y-97100228D01*
X105304231Y-96896799D01*
X105374784Y-96679660D01*
X105394300Y-96556440D01*
X105410500Y-96454162D01*
X105410500Y-96225837D01*
X105374784Y-96000339D01*
X105304229Y-95783196D01*
X105265178Y-95706555D01*
X105252282Y-95637886D01*
X105278558Y-95573145D01*
X105335665Y-95532888D01*
X105405470Y-95529896D01*
X105463344Y-95562579D01*
X106605139Y-96704374D01*
X106605149Y-96704385D01*
X106609479Y-96708715D01*
X106609480Y-96708716D01*
X106721284Y-96820520D01*
X106808095Y-96870639D01*
X106808097Y-96870641D01*
X106846151Y-96892611D01*
X106858215Y-96899577D01*
X107010943Y-96940500D01*
X107169057Y-96940500D01*
X107642048Y-96940500D01*
X107709087Y-96960185D01*
X107752533Y-97008205D01*
X107799421Y-97100228D01*
X107933621Y-97284937D01*
X108095063Y-97446379D01*
X108279772Y-97580579D01*
X108368896Y-97625990D01*
X108483196Y-97684229D01*
X108483198Y-97684229D01*
X108483201Y-97684231D01*
X108555040Y-97707573D01*
X108700339Y-97754784D01*
X108925838Y-97790500D01*
X108925843Y-97790500D01*
X109154162Y-97790500D01*
X109379660Y-97754784D01*
X109596799Y-97684231D01*
X109800228Y-97580579D01*
X109984937Y-97446379D01*
X110146379Y-97284937D01*
X110280579Y-97100228D01*
X110384231Y-96896799D01*
X110454784Y-96679660D01*
X110474300Y-96556440D01*
X110490500Y-96454162D01*
X110490500Y-96225837D01*
X110454784Y-96000339D01*
X110384229Y-95783196D01*
X110280578Y-95579771D01*
X110268087Y-95562579D01*
X110146379Y-95395063D01*
X109984937Y-95233621D01*
X109800228Y-95099421D01*
X109596803Y-94995770D01*
X109379660Y-94925215D01*
X109154162Y-94889500D01*
X109154157Y-94889500D01*
X108925843Y-94889500D01*
X108925838Y-94889500D01*
X108700339Y-94925215D01*
X108483196Y-94995770D01*
X108279771Y-95099421D01*
X108095061Y-95233622D01*
X107933622Y-95395061D01*
X107799421Y-95579771D01*
X107752533Y-95671795D01*
X107704558Y-95722591D01*
X107642048Y-95739500D01*
X107390097Y-95739500D01*
X107323058Y-95719815D01*
X107302416Y-95703181D01*
X104084574Y-92485339D01*
X104051089Y-92424016D01*
X104050638Y-92421849D01*
X104019738Y-92266510D01*
X104019737Y-92266503D01*
X104017163Y-92260288D01*
X103959397Y-92120827D01*
X103959390Y-92120814D01*
X103871789Y-91989711D01*
X103871786Y-91989707D01*
X103760292Y-91878213D01*
X103760288Y-91878210D01*
X103629185Y-91790609D01*
X103629172Y-91790602D01*
X103483501Y-91730264D01*
X103483489Y-91730261D01*
X103328845Y-91699500D01*
X103328842Y-91699500D01*
X103171158Y-91699500D01*
X103171155Y-91699500D01*
X103016510Y-91730261D01*
X103016498Y-91730264D01*
X102870827Y-91790602D01*
X102870814Y-91790609D01*
X102739711Y-91878210D01*
X102739707Y-91878213D01*
X102628213Y-91989707D01*
X102628210Y-91989711D01*
X102540609Y-92120814D01*
X102540603Y-92120826D01*
X102527355Y-92152809D01*
X102483513Y-92207211D01*
X102417219Y-92229275D01*
X102349520Y-92211995D01*
X102325114Y-92193035D01*
X102260292Y-92128213D01*
X102260284Y-92128207D01*
X102129181Y-92040607D01*
X102129182Y-92040607D01*
X102107744Y-92031727D01*
X102102657Y-92029485D01*
X101701609Y-91841873D01*
X101666471Y-91817236D01*
X101237590Y-91388355D01*
X101237588Y-91388352D01*
X101118717Y-91269481D01*
X101118716Y-91269480D01*
X101031904Y-91219360D01*
X101031904Y-91219359D01*
X101031900Y-91219358D01*
X100981785Y-91190423D01*
X100829057Y-91149499D01*
X100670943Y-91149499D01*
X100663347Y-91149499D01*
X100663331Y-91149500D01*
X98718625Y-91149500D01*
X98676358Y-91142074D01*
X98261490Y-90991652D01*
X98261456Y-90991640D01*
X98257516Y-90990212D01*
X98233497Y-90980263D01*
X98219991Y-90977576D01*
X98208178Y-90973779D01*
X98206520Y-90973312D01*
X98109793Y-90955377D01*
X98105598Y-90954822D01*
X98101292Y-90953965D01*
X98078842Y-90949500D01*
X97921158Y-90949500D01*
X97921155Y-90949500D01*
X97766510Y-90980261D01*
X97766498Y-90980264D01*
X97620827Y-91040602D01*
X97620814Y-91040609D01*
X97489711Y-91128210D01*
X97489707Y-91128213D01*
X97378213Y-91239707D01*
X97378210Y-91239711D01*
X97290609Y-91370814D01*
X97290602Y-91370827D01*
X97230264Y-91516498D01*
X97230261Y-91516510D01*
X97199500Y-91671153D01*
X79479078Y-91671153D01*
X80644759Y-89650639D01*
X94987500Y-89650639D01*
X94987500Y-89849360D01*
X95018587Y-90045637D01*
X95079993Y-90234629D01*
X95079994Y-90234632D01*
X95103759Y-90281272D01*
X95170213Y-90411694D01*
X95287019Y-90572464D01*
X95427536Y-90712981D01*
X95588306Y-90829787D01*
X95675149Y-90874035D01*
X95765367Y-90920005D01*
X95765370Y-90920006D01*
X95820896Y-90938047D01*
X95954364Y-90981413D01*
X96150639Y-91012500D01*
X96150640Y-91012500D01*
X96349360Y-91012500D01*
X96349361Y-91012500D01*
X96545636Y-90981413D01*
X96734632Y-90920005D01*
X96911694Y-90829787D01*
X97072464Y-90712981D01*
X97212981Y-90572464D01*
X97310101Y-90438789D01*
X132189290Y-90438789D01*
X132194391Y-90614156D01*
X132239800Y-90783623D01*
X132323066Y-90938047D01*
X132439698Y-91069107D01*
X132439699Y-91069109D01*
X132521547Y-91128210D01*
X132523465Y-91129595D01*
X132523471Y-91129598D01*
X132523475Y-91129601D01*
X133193602Y-91516498D01*
X133909121Y-91929602D01*
X133909130Y-91929606D01*
X134003386Y-91971903D01*
X134003387Y-91971903D01*
X134003389Y-91971904D01*
X134175206Y-92007381D01*
X134350574Y-92002279D01*
X134520038Y-91956871D01*
X134674461Y-91873606D01*
X134805521Y-91756973D01*
X134866010Y-91673206D01*
X135516017Y-90547358D01*
X135558318Y-90453090D01*
X135593795Y-90281272D01*
X135588694Y-90105905D01*
X135543286Y-89936441D01*
X135460020Y-89782017D01*
X135460019Y-89782016D01*
X135456734Y-89775923D01*
X135442242Y-89707573D01*
X135467005Y-89642238D01*
X135523159Y-89600663D01*
X135533784Y-89597297D01*
X135723478Y-89546468D01*
X135917607Y-89460036D01*
X136095814Y-89344308D01*
X136095820Y-89344303D01*
X136253728Y-89202120D01*
X136253737Y-89202109D01*
X136295861Y-89150089D01*
X136295861Y-89150088D01*
X135391542Y-88627980D01*
X135448550Y-88595067D01*
X135541642Y-88501975D01*
X135607468Y-88387961D01*
X135641543Y-88260794D01*
X135641543Y-88194968D01*
X136545861Y-88717076D01*
X136545862Y-88717076D01*
X136569855Y-88654576D01*
X136614035Y-88446726D01*
X136614036Y-88446717D01*
X136625156Y-88234524D01*
X136625156Y-88234517D01*
X136602943Y-88023183D01*
X136547948Y-87817938D01*
X136461515Y-87623806D01*
X136345787Y-87445600D01*
X136345783Y-87445595D01*
X136203599Y-87287685D01*
X136038460Y-87153959D01*
X136038456Y-87153956D01*
X136033047Y-87150833D01*
X135574554Y-87944966D01*
X135541642Y-87887961D01*
X135448550Y-87794869D01*
X135334536Y-87729043D01*
X135207369Y-87694968D01*
X135141542Y-87694968D01*
X135600036Y-86900834D01*
X135600035Y-86900833D01*
X135594622Y-86897708D01*
X135396244Y-86821559D01*
X135396247Y-86821559D01*
X135188397Y-86777379D01*
X135188388Y-86777378D01*
X134976195Y-86766258D01*
X134976188Y-86766258D01*
X134764854Y-86788471D01*
X134559609Y-86843466D01*
X134365475Y-86929900D01*
X134187272Y-87045627D01*
X134029354Y-87187818D01*
X133987222Y-87239845D01*
X134891543Y-87761955D01*
X134834536Y-87794869D01*
X134741444Y-87887961D01*
X134675618Y-88001975D01*
X134641543Y-88129142D01*
X134641543Y-88194967D01*
X134638705Y-88193329D01*
X133737223Y-87672857D01*
X133713230Y-87735360D01*
X133669050Y-87943209D01*
X133669049Y-87943218D01*
X133657929Y-88155411D01*
X133657929Y-88155418D01*
X133680142Y-88366752D01*
X133730968Y-88556440D01*
X133729305Y-88626290D01*
X133690142Y-88684152D01*
X133625914Y-88711656D01*
X133614799Y-88712481D01*
X133432514Y-88717784D01*
X133263047Y-88763193D01*
X133128229Y-88835887D01*
X133108625Y-88846458D01*
X133051201Y-88897560D01*
X132977565Y-88963090D01*
X132917075Y-89046858D01*
X132267071Y-90172702D01*
X132267061Y-90172722D01*
X132224768Y-90266973D01*
X132189290Y-90438789D01*
X97310101Y-90438789D01*
X97329787Y-90411694D01*
X97336037Y-90399426D01*
X97346506Y-90378883D01*
X97420005Y-90234632D01*
X97420006Y-90234629D01*
X97422219Y-90227815D01*
X97481413Y-90045636D01*
X97512500Y-89849361D01*
X97512500Y-89650639D01*
X97481413Y-89454364D01*
X97420005Y-89265368D01*
X97420005Y-89265367D01*
X97329786Y-89088305D01*
X97299673Y-89046858D01*
X97212981Y-88927536D01*
X97072464Y-88787019D01*
X96911694Y-88670213D01*
X96881005Y-88654576D01*
X96734632Y-88579994D01*
X96734629Y-88579993D01*
X96545637Y-88518587D01*
X96440752Y-88501975D01*
X96349361Y-88487500D01*
X96150639Y-88487500D01*
X96085214Y-88497862D01*
X95954362Y-88518587D01*
X95765370Y-88579993D01*
X95765367Y-88579994D01*
X95588305Y-88670213D01*
X95427533Y-88787021D01*
X95287021Y-88927533D01*
X95170213Y-89088305D01*
X95079994Y-89265367D01*
X95079993Y-89265370D01*
X95018587Y-89454362D01*
X94987500Y-89650639D01*
X80644759Y-89650639D01*
X82989254Y-85586848D01*
X83111182Y-85375507D01*
X86211386Y-85375507D01*
X86211386Y-85375514D01*
X86233599Y-85586848D01*
X86288594Y-85792093D01*
X86375028Y-85986227D01*
X86490755Y-86164431D01*
X86490759Y-86164436D01*
X86632942Y-86322345D01*
X86798084Y-86456074D01*
X86803493Y-86459197D01*
X86803494Y-86459197D01*
X87261987Y-85665062D01*
X87294901Y-85722071D01*
X87387993Y-85815163D01*
X87502007Y-85880989D01*
X87629174Y-85915064D01*
X87694998Y-85915064D01*
X87236506Y-86709197D01*
X87241922Y-86712324D01*
X87440298Y-86788472D01*
X87648144Y-86832652D01*
X87648151Y-86832653D01*
X87860347Y-86843773D01*
X87860354Y-86843773D01*
X88071687Y-86821560D01*
X88276935Y-86766564D01*
X88471064Y-86680132D01*
X88649271Y-86564404D01*
X88649277Y-86564399D01*
X88807185Y-86422216D01*
X88807194Y-86422205D01*
X88849318Y-86370185D01*
X88849318Y-86370184D01*
X87945000Y-85848075D01*
X88002007Y-85815163D01*
X88095099Y-85722071D01*
X88160925Y-85608057D01*
X88195000Y-85480890D01*
X88195000Y-85415064D01*
X89099318Y-85937172D01*
X89099319Y-85937172D01*
X89123312Y-85874672D01*
X89167492Y-85666822D01*
X89167493Y-85666813D01*
X89178613Y-85454620D01*
X89178613Y-85454613D01*
X89156400Y-85243279D01*
X89105573Y-85053592D01*
X89107236Y-84983742D01*
X89146398Y-84925880D01*
X89210626Y-84898375D01*
X89221742Y-84897550D01*
X89228661Y-84897348D01*
X89228663Y-84897349D01*
X89404031Y-84892247D01*
X89573495Y-84846839D01*
X89727918Y-84763574D01*
X89858978Y-84646941D01*
X89919467Y-84563174D01*
X90569474Y-83437326D01*
X90611775Y-83343058D01*
X90647252Y-83171240D01*
X90642151Y-82995873D01*
X90596743Y-82826409D01*
X90513477Y-82671985D01*
X90396845Y-82540925D01*
X90396844Y-82540924D01*
X90396845Y-82540924D01*
X90389631Y-82535716D01*
X90313078Y-82480437D01*
X90313074Y-82480434D01*
X90313067Y-82480430D01*
X90240942Y-82438789D01*
X136689290Y-82438789D01*
X136694391Y-82614156D01*
X136739800Y-82783623D01*
X136823066Y-82938047D01*
X136939698Y-83069107D01*
X136939699Y-83069109D01*
X137023458Y-83129590D01*
X137023465Y-83129595D01*
X137023471Y-83129598D01*
X137023475Y-83129601D01*
X137556472Y-83437326D01*
X138409121Y-83929602D01*
X138409130Y-83929606D01*
X138503386Y-83971903D01*
X138503387Y-83971903D01*
X138503389Y-83971904D01*
X138675206Y-84007381D01*
X138850574Y-84002279D01*
X139020038Y-83956871D01*
X139174461Y-83873606D01*
X139305521Y-83756973D01*
X139366010Y-83673206D01*
X140016017Y-82547358D01*
X140058318Y-82453090D01*
X140093795Y-82281272D01*
X140088694Y-82105905D01*
X140043286Y-81936441D01*
X139960020Y-81782017D01*
X139960019Y-81782016D01*
X139956734Y-81775923D01*
X139942242Y-81707573D01*
X139967005Y-81642238D01*
X140023159Y-81600663D01*
X140033784Y-81597297D01*
X140223478Y-81546468D01*
X140417607Y-81460036D01*
X140595814Y-81344308D01*
X140595820Y-81344303D01*
X140753728Y-81202120D01*
X140753737Y-81202109D01*
X140795861Y-81150089D01*
X140795861Y-81150088D01*
X139891542Y-80627980D01*
X139948550Y-80595067D01*
X140041642Y-80501975D01*
X140107468Y-80387961D01*
X140141543Y-80260794D01*
X140141543Y-80194968D01*
X141045861Y-80717076D01*
X141045862Y-80717076D01*
X141069855Y-80654576D01*
X141114035Y-80446726D01*
X141114036Y-80446717D01*
X141125156Y-80234524D01*
X141125156Y-80234517D01*
X141102943Y-80023183D01*
X141047948Y-79817938D01*
X140961515Y-79623806D01*
X140845787Y-79445600D01*
X140845783Y-79445595D01*
X140703599Y-79287685D01*
X140538460Y-79153959D01*
X140538456Y-79153956D01*
X140533047Y-79150833D01*
X140074554Y-79944966D01*
X140041642Y-79887961D01*
X139948550Y-79794869D01*
X139834536Y-79729043D01*
X139707369Y-79694968D01*
X139641542Y-79694968D01*
X140100036Y-78900834D01*
X140100035Y-78900833D01*
X140094622Y-78897708D01*
X139896244Y-78821559D01*
X139896247Y-78821559D01*
X139688397Y-78777379D01*
X139688388Y-78777378D01*
X139476195Y-78766258D01*
X139476188Y-78766258D01*
X139264854Y-78788471D01*
X139059609Y-78843466D01*
X138865475Y-78929900D01*
X138687272Y-79045627D01*
X138529354Y-79187818D01*
X138487222Y-79239845D01*
X139391543Y-79761955D01*
X139334536Y-79794869D01*
X139241444Y-79887961D01*
X139175618Y-80001975D01*
X139141543Y-80129142D01*
X139141543Y-80194967D01*
X139138705Y-80193329D01*
X138237223Y-79672857D01*
X138213230Y-79735360D01*
X138169050Y-79943209D01*
X138169049Y-79943218D01*
X138157929Y-80155411D01*
X138157929Y-80155418D01*
X138180142Y-80366752D01*
X138230968Y-80556440D01*
X138229305Y-80626290D01*
X138190142Y-80684152D01*
X138125914Y-80711656D01*
X138114799Y-80712481D01*
X137932514Y-80717784D01*
X137763047Y-80763193D01*
X137628229Y-80835887D01*
X137608625Y-80846458D01*
X137551201Y-80897560D01*
X137477565Y-80963090D01*
X137417075Y-81046858D01*
X136767071Y-82172702D01*
X136767061Y-82172722D01*
X136724768Y-82266973D01*
X136689290Y-82438789D01*
X90240942Y-82438789D01*
X88927433Y-81680436D01*
X88927412Y-81680425D01*
X88833156Y-81638128D01*
X88833152Y-81638127D01*
X88661337Y-81602650D01*
X88485971Y-81607752D01*
X88316504Y-81653161D01*
X88181686Y-81725855D01*
X88162082Y-81736426D01*
X88110852Y-81782017D01*
X88031022Y-81853058D01*
X87970532Y-81936826D01*
X87320528Y-83062670D01*
X87320518Y-83062690D01*
X87278225Y-83156941D01*
X87242747Y-83328757D01*
X87247848Y-83504124D01*
X87247849Y-83504127D01*
X87293257Y-83673591D01*
X87376523Y-83828015D01*
X87376524Y-83828016D01*
X87379809Y-83834108D01*
X87394300Y-83902458D01*
X87369537Y-83967793D01*
X87313383Y-84009368D01*
X87302758Y-84012734D01*
X87113065Y-84063562D01*
X86918932Y-84149996D01*
X86740729Y-84265723D01*
X86582811Y-84407914D01*
X86540679Y-84459941D01*
X87445000Y-84982051D01*
X87387993Y-85014965D01*
X87294901Y-85108057D01*
X87229075Y-85222071D01*
X87195000Y-85349238D01*
X87195000Y-85415062D01*
X86290680Y-84892953D01*
X86266687Y-84955456D01*
X86222507Y-85163305D01*
X86222506Y-85163314D01*
X86211386Y-85375507D01*
X83111182Y-85375507D01*
X83147865Y-85311923D01*
X83148454Y-85310901D01*
X83186161Y-85245543D01*
X87791011Y-77265476D01*
X90874844Y-77265476D01*
X90874844Y-77265483D01*
X90897057Y-77476817D01*
X90952052Y-77682062D01*
X91038486Y-77876196D01*
X91154213Y-78054400D01*
X91154217Y-78054405D01*
X91296400Y-78212314D01*
X91461542Y-78346043D01*
X91466951Y-78349166D01*
X91466952Y-78349166D01*
X91925445Y-77555031D01*
X91958359Y-77612040D01*
X92051451Y-77705132D01*
X92165465Y-77770958D01*
X92292632Y-77805033D01*
X92358456Y-77805033D01*
X91899964Y-78599166D01*
X91905380Y-78602293D01*
X92103756Y-78678441D01*
X92311602Y-78722621D01*
X92311609Y-78722622D01*
X92523805Y-78733742D01*
X92523812Y-78733742D01*
X92735145Y-78711529D01*
X92940393Y-78656533D01*
X93134522Y-78570101D01*
X93312729Y-78454373D01*
X93312735Y-78454368D01*
X93470643Y-78312185D01*
X93470652Y-78312174D01*
X93512776Y-78260154D01*
X93512776Y-78260153D01*
X92608458Y-77738044D01*
X92665465Y-77705132D01*
X92758557Y-77612040D01*
X92824383Y-77498026D01*
X92858458Y-77370859D01*
X92858458Y-77305033D01*
X93762776Y-77827141D01*
X93762777Y-77827141D01*
X93786770Y-77764641D01*
X93830950Y-77556791D01*
X93830951Y-77556782D01*
X93842071Y-77344589D01*
X93842071Y-77344582D01*
X93819858Y-77133248D01*
X93769031Y-76943561D01*
X93770694Y-76873711D01*
X93809856Y-76815849D01*
X93874084Y-76788344D01*
X93885200Y-76787519D01*
X93892119Y-76787317D01*
X93892121Y-76787318D01*
X94067489Y-76782216D01*
X94236953Y-76736808D01*
X94391376Y-76653543D01*
X94522436Y-76536910D01*
X94582925Y-76453143D01*
X95232932Y-75327295D01*
X95275233Y-75233027D01*
X95310710Y-75061209D01*
X95305609Y-74885842D01*
X95260201Y-74716378D01*
X95176935Y-74561954D01*
X95060303Y-74430894D01*
X95060302Y-74430893D01*
X95060301Y-74430891D01*
X94976542Y-74370410D01*
X94976525Y-74370399D01*
X93590891Y-73570405D01*
X93590870Y-73570394D01*
X93496614Y-73528097D01*
X93496610Y-73528096D01*
X93324795Y-73492619D01*
X93149429Y-73497721D01*
X92979962Y-73543130D01*
X92845144Y-73615824D01*
X92825540Y-73626395D01*
X92768116Y-73677497D01*
X92694480Y-73743027D01*
X92633990Y-73826795D01*
X91983986Y-74952639D01*
X91983976Y-74952659D01*
X91941683Y-75046910D01*
X91906205Y-75218726D01*
X91911306Y-75394093D01*
X91911307Y-75394096D01*
X91956715Y-75563560D01*
X92039981Y-75717984D01*
X92039982Y-75717985D01*
X92043267Y-75724077D01*
X92057758Y-75792427D01*
X92032995Y-75857762D01*
X91976841Y-75899337D01*
X91966216Y-75902703D01*
X91776523Y-75953531D01*
X91582390Y-76039965D01*
X91404187Y-76155692D01*
X91246269Y-76297883D01*
X91204137Y-76349910D01*
X92108458Y-76872020D01*
X92051451Y-76904934D01*
X91958359Y-76998026D01*
X91892533Y-77112040D01*
X91858458Y-77239207D01*
X91858458Y-77305031D01*
X90954138Y-76782922D01*
X90930145Y-76845425D01*
X90885965Y-77053274D01*
X90885964Y-77053283D01*
X90874844Y-77265476D01*
X87791011Y-77265476D01*
X92551624Y-69015476D01*
X95624844Y-69015476D01*
X95624844Y-69015483D01*
X95647057Y-69226817D01*
X95702052Y-69432062D01*
X95788486Y-69626196D01*
X95904213Y-69804400D01*
X95904217Y-69804405D01*
X96046400Y-69962314D01*
X96211542Y-70096043D01*
X96216951Y-70099166D01*
X96216952Y-70099166D01*
X96675445Y-69305031D01*
X96708359Y-69362040D01*
X96801451Y-69455132D01*
X96915465Y-69520958D01*
X97042632Y-69555033D01*
X97108456Y-69555033D01*
X96649964Y-70349166D01*
X96655380Y-70352293D01*
X96853756Y-70428441D01*
X97061602Y-70472621D01*
X97061609Y-70472622D01*
X97273805Y-70483742D01*
X97273812Y-70483742D01*
X97485145Y-70461529D01*
X97690393Y-70406533D01*
X97884522Y-70320101D01*
X98062729Y-70204373D01*
X98062735Y-70204368D01*
X98220643Y-70062185D01*
X98220652Y-70062174D01*
X98262776Y-70010154D01*
X98262776Y-70010153D01*
X97358458Y-69488044D01*
X97415465Y-69455132D01*
X97508557Y-69362040D01*
X97574383Y-69248026D01*
X97608458Y-69120859D01*
X97608458Y-69055033D01*
X98512776Y-69577141D01*
X98512777Y-69577141D01*
X98536770Y-69514641D01*
X98580950Y-69306791D01*
X98580951Y-69306782D01*
X98592071Y-69094589D01*
X98592071Y-69094582D01*
X98569858Y-68883248D01*
X98519031Y-68693561D01*
X98520694Y-68623711D01*
X98559856Y-68565849D01*
X98624084Y-68538344D01*
X98635200Y-68537519D01*
X98642119Y-68537317D01*
X98642121Y-68537318D01*
X98817489Y-68532216D01*
X98986953Y-68486808D01*
X99141376Y-68403543D01*
X99272436Y-68286910D01*
X99332925Y-68203143D01*
X99982932Y-67077295D01*
X100025233Y-66983027D01*
X100060710Y-66811209D01*
X100055609Y-66635842D01*
X100010201Y-66466378D01*
X99926935Y-66311954D01*
X99810303Y-66180894D01*
X99810302Y-66180893D01*
X99810301Y-66180891D01*
X99726542Y-66120410D01*
X99726525Y-66120399D01*
X98340891Y-65320405D01*
X98340870Y-65320394D01*
X98246614Y-65278097D01*
X98246610Y-65278096D01*
X98074795Y-65242619D01*
X97899429Y-65247721D01*
X97729962Y-65293130D01*
X97595144Y-65365824D01*
X97575540Y-65376395D01*
X97518116Y-65427497D01*
X97444480Y-65493027D01*
X97383990Y-65576795D01*
X96733986Y-66702639D01*
X96733976Y-66702659D01*
X96691683Y-66796910D01*
X96656205Y-66968726D01*
X96661306Y-67144093D01*
X96661307Y-67144096D01*
X96706715Y-67313560D01*
X96789981Y-67467984D01*
X96789982Y-67467985D01*
X96793267Y-67474077D01*
X96807758Y-67542427D01*
X96782995Y-67607762D01*
X96726841Y-67649337D01*
X96716216Y-67652703D01*
X96526523Y-67703531D01*
X96332390Y-67789965D01*
X96154187Y-67905692D01*
X95996269Y-68047883D01*
X95954137Y-68099910D01*
X96858458Y-68622020D01*
X96801451Y-68654934D01*
X96708359Y-68748026D01*
X96642533Y-68862040D01*
X96608458Y-68989207D01*
X96608458Y-69055031D01*
X95704138Y-68532922D01*
X95680145Y-68595425D01*
X95635965Y-68803274D01*
X95635964Y-68803283D01*
X95624844Y-69015476D01*
X92551624Y-69015476D01*
X97312237Y-60765476D01*
X100374844Y-60765476D01*
X100374844Y-60765483D01*
X100397057Y-60976817D01*
X100452052Y-61182062D01*
X100538486Y-61376196D01*
X100654213Y-61554400D01*
X100654217Y-61554405D01*
X100796400Y-61712314D01*
X100961542Y-61846043D01*
X100966951Y-61849166D01*
X100966952Y-61849166D01*
X101425445Y-61055031D01*
X101458359Y-61112040D01*
X101551451Y-61205132D01*
X101665465Y-61270958D01*
X101792632Y-61305033D01*
X101858456Y-61305033D01*
X101399964Y-62099166D01*
X101405380Y-62102293D01*
X101603756Y-62178441D01*
X101811602Y-62222621D01*
X101811609Y-62222622D01*
X102023805Y-62233742D01*
X102023812Y-62233742D01*
X102235145Y-62211529D01*
X102440393Y-62156533D01*
X102634522Y-62070101D01*
X102812729Y-61954373D01*
X102812735Y-61954368D01*
X102970643Y-61812185D01*
X102970652Y-61812174D01*
X103012776Y-61760154D01*
X103012776Y-61760153D01*
X102108458Y-61238044D01*
X102165465Y-61205132D01*
X102258557Y-61112040D01*
X102324383Y-60998026D01*
X102358458Y-60870859D01*
X102358458Y-60805033D01*
X103262776Y-61327141D01*
X103262777Y-61327141D01*
X103286770Y-61264641D01*
X103330950Y-61056791D01*
X103330951Y-61056782D01*
X103342071Y-60844589D01*
X103342071Y-60844582D01*
X103319858Y-60633248D01*
X103269031Y-60443561D01*
X103270694Y-60373711D01*
X103309856Y-60315849D01*
X103374084Y-60288344D01*
X103385200Y-60287519D01*
X103392119Y-60287317D01*
X103392121Y-60287318D01*
X103567489Y-60282216D01*
X103736953Y-60236808D01*
X103891376Y-60153543D01*
X104022436Y-60036910D01*
X104082925Y-59953143D01*
X104732932Y-58827295D01*
X104775233Y-58733027D01*
X104810710Y-58561209D01*
X104805609Y-58385842D01*
X104760201Y-58216378D01*
X104676935Y-58061954D01*
X104560303Y-57930894D01*
X104560302Y-57930893D01*
X104560301Y-57930891D01*
X104476542Y-57870410D01*
X104476525Y-57870399D01*
X103090891Y-57070405D01*
X103090870Y-57070394D01*
X102996614Y-57028097D01*
X102996610Y-57028096D01*
X102824795Y-56992619D01*
X102649429Y-56997721D01*
X102479962Y-57043130D01*
X102345144Y-57115824D01*
X102325540Y-57126395D01*
X102268116Y-57177497D01*
X102194480Y-57243027D01*
X102133990Y-57326795D01*
X101483986Y-58452639D01*
X101483976Y-58452659D01*
X101441683Y-58546910D01*
X101406205Y-58718726D01*
X101411306Y-58894093D01*
X101411307Y-58894096D01*
X101456715Y-59063560D01*
X101539981Y-59217984D01*
X101539982Y-59217985D01*
X101543267Y-59224077D01*
X101557758Y-59292427D01*
X101532995Y-59357762D01*
X101476841Y-59399337D01*
X101466216Y-59402703D01*
X101276523Y-59453531D01*
X101082390Y-59539965D01*
X100904187Y-59655692D01*
X100746269Y-59797883D01*
X100704137Y-59849910D01*
X101608458Y-60372020D01*
X101551451Y-60404934D01*
X101458359Y-60498026D01*
X101392533Y-60612040D01*
X101358458Y-60739207D01*
X101358458Y-60805031D01*
X100454138Y-60282922D01*
X100430145Y-60345425D01*
X100385965Y-60553274D01*
X100385964Y-60553283D01*
X100374844Y-60765476D01*
X97312237Y-60765476D01*
X101221487Y-53990862D01*
X101272042Y-53942636D01*
X101340646Y-53929398D01*
X101390822Y-53945415D01*
G37*
%TD.AperFunction*%
%TD*%
%TA.AperFunction,Conductor*%
%TO.N,GND*%
G36*
X92371358Y-108501527D02*
G01*
X92440635Y-108512500D01*
X92440639Y-108512500D01*
X92639365Y-108512500D01*
X92708642Y-108501527D01*
X92728041Y-108500000D01*
X101876000Y-108500000D01*
X101943039Y-108519685D01*
X101988794Y-108572489D01*
X102000000Y-108624000D01*
X102000000Y-114121054D01*
X101980315Y-114188093D01*
X101927511Y-114233848D01*
X101858353Y-114243792D01*
X101794797Y-114214767D01*
X101770461Y-114186151D01*
X101688484Y-114053246D01*
X101564514Y-113929276D01*
X101415293Y-113837235D01*
X101415288Y-113837233D01*
X101248866Y-113782086D01*
X101248859Y-113782085D01*
X101146155Y-113771592D01*
X100746169Y-113771592D01*
X100746169Y-114838580D01*
X100689162Y-114805667D01*
X100561995Y-114771592D01*
X100430343Y-114771592D01*
X100303176Y-114805667D01*
X100246169Y-114838580D01*
X100246169Y-113771592D01*
X99846197Y-113771592D01*
X99846181Y-113771593D01*
X99743471Y-113782086D01*
X99577049Y-113837233D01*
X99577044Y-113837235D01*
X99427823Y-113929276D01*
X99303853Y-114053246D01*
X99211812Y-114202467D01*
X99211810Y-114202472D01*
X99156663Y-114368894D01*
X99156662Y-114368901D01*
X99146169Y-114471605D01*
X99146169Y-115021592D01*
X100063157Y-115021592D01*
X100030244Y-115078599D01*
X99996169Y-115205766D01*
X99996169Y-115337418D01*
X100030244Y-115464585D01*
X100063157Y-115521592D01*
X99146170Y-115521592D01*
X99146170Y-116071578D01*
X99156663Y-116174289D01*
X99211810Y-116340711D01*
X99211812Y-116340716D01*
X99303853Y-116489937D01*
X99427823Y-116613907D01*
X99577044Y-116705948D01*
X99577049Y-116705950D01*
X99743471Y-116761097D01*
X99743478Y-116761098D01*
X99846188Y-116771591D01*
X100246168Y-116771591D01*
X100246169Y-116771590D01*
X100246169Y-115704604D01*
X100303176Y-115737517D01*
X100430343Y-115771592D01*
X100561995Y-115771592D01*
X100689162Y-115737517D01*
X100746169Y-115704604D01*
X100746169Y-116771591D01*
X101146141Y-116771591D01*
X101146155Y-116771590D01*
X101248866Y-116761097D01*
X101415288Y-116705950D01*
X101415293Y-116705948D01*
X101564514Y-116613907D01*
X101688484Y-116489937D01*
X101770461Y-116357032D01*
X101822409Y-116310308D01*
X101891372Y-116299085D01*
X101955454Y-116326929D01*
X101994310Y-116384997D01*
X102000000Y-116422129D01*
X102000000Y-119324109D01*
X101980315Y-119391148D01*
X101927511Y-119436903D01*
X101876237Y-119448109D01*
X86624237Y-119477272D01*
X86557160Y-119457715D01*
X86511304Y-119404999D01*
X86500000Y-119353272D01*
X86500000Y-116848914D01*
X86519685Y-116781875D01*
X86572489Y-116736120D01*
X86641647Y-116726176D01*
X86663005Y-116731208D01*
X86792486Y-116774114D01*
X86792490Y-116774115D01*
X86895200Y-116784608D01*
X87295180Y-116784608D01*
X87295181Y-116784607D01*
X87295181Y-115717621D01*
X87352188Y-115750534D01*
X87479355Y-115784609D01*
X87611007Y-115784609D01*
X87738174Y-115750534D01*
X87795181Y-115717621D01*
X87795181Y-116784608D01*
X88195153Y-116784608D01*
X88195167Y-116784607D01*
X88297878Y-116774114D01*
X88464300Y-116718967D01*
X88464305Y-116718965D01*
X88613526Y-116626924D01*
X88737498Y-116502952D01*
X88832996Y-116348125D01*
X88884944Y-116301400D01*
X88953906Y-116290177D01*
X89017989Y-116318021D01*
X89026216Y-116325540D01*
X89165394Y-116464718D01*
X89337360Y-116589657D01*
X89337362Y-116589658D01*
X89337365Y-116589660D01*
X89526769Y-116686166D01*
X89728938Y-116751855D01*
X89938894Y-116785109D01*
X89938895Y-116785109D01*
X90151467Y-116785109D01*
X90151468Y-116785109D01*
X90361424Y-116751855D01*
X90563593Y-116686166D01*
X90752997Y-116589660D01*
X90774970Y-116573695D01*
X90924967Y-116464718D01*
X90924969Y-116464715D01*
X90924973Y-116464713D01*
X91075285Y-116314401D01*
X91075287Y-116314397D01*
X91075290Y-116314395D01*
X91200229Y-116142429D01*
X91200228Y-116142429D01*
X91200232Y-116142425D01*
X91296738Y-115953021D01*
X91362427Y-115750852D01*
X91395681Y-115540896D01*
X91395681Y-115028322D01*
X91362427Y-114818366D01*
X91296738Y-114616197D01*
X91200232Y-114426793D01*
X91200230Y-114426790D01*
X91200229Y-114426788D01*
X91075290Y-114254822D01*
X90924967Y-114104499D01*
X90753001Y-113979560D01*
X90563595Y-113883053D01*
X90563594Y-113883052D01*
X90563593Y-113883052D01*
X90361424Y-113817363D01*
X90361422Y-113817362D01*
X90361421Y-113817362D01*
X90200138Y-113791817D01*
X90151468Y-113784109D01*
X89938894Y-113784109D01*
X89890223Y-113791817D01*
X89728941Y-113817362D01*
X89526766Y-113883053D01*
X89337360Y-113979560D01*
X89165396Y-114104498D01*
X89026216Y-114243678D01*
X88964893Y-114277162D01*
X88895201Y-114272178D01*
X88839268Y-114230306D01*
X88832996Y-114221093D01*
X88737496Y-114066263D01*
X88613526Y-113942293D01*
X88464305Y-113850252D01*
X88464300Y-113850250D01*
X88297878Y-113795103D01*
X88297871Y-113795102D01*
X88195167Y-113784609D01*
X87795181Y-113784609D01*
X87795181Y-114851597D01*
X87738174Y-114818684D01*
X87611007Y-114784609D01*
X87479355Y-114784609D01*
X87352188Y-114818684D01*
X87295181Y-114851597D01*
X87295181Y-113784609D01*
X86895209Y-113784609D01*
X86895193Y-113784610D01*
X86792483Y-113795103D01*
X86663004Y-113838008D01*
X86593175Y-113840410D01*
X86533133Y-113804678D01*
X86501941Y-113742157D01*
X86500000Y-113720302D01*
X86500000Y-110874000D01*
X86519685Y-110806961D01*
X86572489Y-110761206D01*
X86624000Y-110750000D01*
X91000000Y-110750000D01*
X91000000Y-108624000D01*
X91019685Y-108556961D01*
X91072489Y-108511206D01*
X91124000Y-108500000D01*
X92351959Y-108500000D01*
X92371358Y-108501527D01*
G37*
%TD.AperFunction*%
%TD*%
%TA.AperFunction,Conductor*%
%TO.N,Vsense*%
G36*
X101407949Y-92262576D02*
G01*
X101718713Y-92407953D01*
X101904373Y-92494806D01*
X101910414Y-92501416D01*
X101910013Y-92510362D01*
X101909164Y-92511872D01*
X101752015Y-92748734D01*
X101748734Y-92752015D01*
X101511872Y-92909164D01*
X101503084Y-92910883D01*
X101495655Y-92905883D01*
X101494806Y-92904373D01*
X101421997Y-92748734D01*
X101262576Y-92407951D01*
X101262176Y-92399007D01*
X101264900Y-92394724D01*
X101394723Y-92264901D01*
X101402995Y-92261475D01*
X101407949Y-92262576D01*
G37*
%TD.AperFunction*%
%TD*%
%TA.AperFunction,Conductor*%
%TO.N,Vsense*%
G36*
X98071282Y-91460389D02*
G01*
X98586525Y-91647204D01*
X98593134Y-91653244D01*
X98594236Y-91658202D01*
X98594236Y-91841797D01*
X98590809Y-91850070D01*
X98586524Y-91852796D01*
X98071290Y-92039608D01*
X98062344Y-92039207D01*
X98056303Y-92032597D01*
X98055837Y-92030939D01*
X97999469Y-91752318D01*
X97999469Y-91747680D01*
X98055835Y-91469067D01*
X98060834Y-91461641D01*
X98069622Y-91459922D01*
X98071282Y-91460389D01*
G37*
%TD.AperFunction*%
%TD*%
M02*
