M48
; DRILL file {KiCad 9.0.5} date 2025-12-02T14:51:34+0900
; FORMAT={-:-/ absolute / inch / decimal}
; #@! TF.CreationDate,2025-12-02T14:51:34+09:00
; #@! TF.GenerationSoftware,Kicad,Pcbnew,9.0.5
; #@! TF.FileFunction,Plated,1,2,PTH
FMAT,2
INCH
; #@! TA.AperFunction,Plated,PTH,ViaDrill
T1C0.0118
; #@! TA.AperFunction,Plated,PTH,ComponentDrill
T2C0.0276
; #@! TA.AperFunction,Plated,PTH,ComponentDrill
T3C0.0300
; #@! TA.AperFunction,Plated,PTH,ComponentDrill
T4C0.0394
; #@! TA.AperFunction,Plated,PTH,ComponentDrill
T5C0.0669
%
G90
G05
T1
X3.3119Y-3.0257
X3.3434Y-3.0099
X3.3749Y-2.9903
X3.3788Y-3.1674
X3.4064Y-2.9706
X3.4143Y-3.1477
X3.4457Y-3.1281
X3.4812Y-3.1084
X3.5245Y-3.3997
X3.552Y-3.384
X3.5796Y-3.3682
X3.5954Y-3.5218
X3.6111Y-3.3525
X3.619Y-3.4981
X3.6505Y-3.4785
X3.6505Y-3.6438
X3.678Y-3.4588
X3.678Y-3.6241
X3.7095Y-3.6084
X3.7174Y-3.758
X3.7371Y-3.5926
X3.745Y-3.7383
X3.7528Y-2.7068
X3.7725Y-3.7225
X3.7843Y-2.6911
X3.8001Y-3.7068
X3.8119Y-2.6753
X3.8158Y-2.821
X3.8434Y-2.6596
X3.8513Y-2.8131
X3.8828Y-2.7934
X3.9103Y-2.7737
X3.9272Y-3.1693
X4.089Y-3.5158
X4.0954Y-2.5178
X4.1105Y-3.1397
X4.1269Y-2.4981
X4.1533Y-3.706
X4.1544Y-2.6241
X4.1583Y-2.4785
X4.1662Y-2.6517
X4.1699Y-3.3213
X4.1859Y-2.6044
X4.1898Y-2.4627
X4.1898Y-3.1911
X4.1938Y-2.6359
X4.2135Y-2.5887
X4.2253Y-2.6162
X4.245Y-2.569
X4.2568Y-2.5966
X4.3591Y-3.9666
X4.3591Y-4.006
X4.3946Y-3.9666
X4.3946Y-4.006
X4.43Y-3.9666
X4.43Y-4.0021
X4.4694Y-3.9666
X4.4694Y-4.0021
X4.5048Y-3.9666
X4.5048Y-4.0021
X4.5127Y-3.5926
X4.7528Y-3.3072
X4.7824Y-3.2875
X4.8119Y-3.2678
X4.8217Y-3.4155
X4.8414Y-3.445
X4.8513Y-3.3958
X4.8513Y-3.4745
X4.8709Y-3.4253
X4.8808Y-3.3761
X4.8808Y-3.4548
X4.8808Y-3.4844
X4.9005Y-3.4056
X4.9103Y-3.4647
X4.9202Y-3.4351
X5.2646Y-3.7304
X5.2646Y-3.7698
X5.2646Y-3.8092
X5.2646Y-3.8387
X5.2646Y-3.8781
X5.304Y-3.7304
X5.304Y-3.7698
X5.304Y-3.8092
X5.304Y-3.8387
X5.304Y-3.8781
X5.304Y-3.9174
X5.304Y-3.9568
T3
X4.0004Y-3.4824
X4.3648Y-3.398
X4.5687Y-3.5003
X4.6859Y-2.9273
X5.2745Y-4.5375
T4
X3.1138Y-3.1051
X3.16Y-3.192
X3.2814Y-3.4115
X3.3277Y-3.4984
X3.4488Y-3.7166
X3.495Y-3.8035
X3.6161Y-4.0316
X3.6623Y-4.1185
X4.5366Y-2.2863
X4.5858Y-2.3716
X4.7236Y-2.6111
X4.7728Y-2.6964
X4.9106Y-2.9359
X4.9598Y-3.0212
X5.0942Y-3.2552
X5.1434Y-3.3405
T5
X4.039Y-4.163
X4.1949Y-4.163
X4.4389Y-4.1619
X4.5948Y-4.1619
T2
G00X4.8223Y-4.0105
M15
G01X4.8223Y-3.979
M16
G05
G00X4.8223Y-4.1877
M15
G01X4.8223Y-4.1562
M16
G05
G00X4.8223Y-4.3649
M15
G01X4.8223Y-4.3334
M16
G05
G00X4.8223Y-4.542
M15
G01X4.8223Y-4.5105
M16
G05
G00X5.0782Y-4.0105
M15
G01X5.0782Y-3.979
M16
G05
G00X5.0782Y-4.1877
M15
G01X5.0782Y-4.1562
M16
G05
G00X5.0782Y-4.3649
M15
G01X5.0782Y-4.3334
M16
G05
G00X5.0782Y-4.542
M15
G01X5.0782Y-4.5105
M16
G05
M30
