%
M48
M72
T01C0.0236
T02C0.0315
T03C0.0320
T04C0.0400
T05C0.0433
T06C0.0787
T07C0.1417
%
T01
X19661Y8843
T02
X15646Y11410
T03
X14411Y12276
X13911Y11410
X16911Y12910
X17411Y13776
X17411Y17410
X17911Y18276
X22911Y13910
X23411Y14776
X24281Y16610
X24781Y17476
X25813Y19051
X26313Y19917
X21911Y12276
X21411Y11410
X20228Y9593
X21094Y9093
X22055Y8664
X22921Y8164
X21661Y7209
X20295Y6843
X20661Y5477
X7411Y18776
X6911Y17910
X8411Y20910
X8911Y21776
X10411Y23910
X10911Y24776
X12411Y26910
X12911Y27776
T04
X10911Y28776
X10411Y27910
X8911Y25776
X8411Y24910
X6911Y22776
X6411Y21910
X5411Y19776
X4911Y18910
X15277Y13910
X15777Y14776
X16277Y15642
X23411Y10410
X23911Y11276
X24911Y12910
X25411Y13776
X26254Y15481
X26754Y16347
X27726Y18055
X28226Y18921
X17661Y6343
X15661Y6343
X15661Y1843
X14661Y1843
X6661Y1843
X5661Y1843
T05
X11661Y5977
X12161Y6843
X12661Y7709
T06
X10661Y10843
X16661Y21343
T07
X1864Y1856
X19289Y1856
M30
