G75*
G70*
%OFA0B0*%
%FSLAX24Y24*%
%IPPOS*%
%LPD*%
%AMOC8*
5,1,8,0,0,1.08239X$1,22.5*
%
%ADD10C,0.0600*%
%ADD11C,0.0096*%
%ADD12C,0.0650*%
%ADD13C,0.0126*%
%ADD14C,0.0630*%
%ADD15C,0.1000*%
%ADD16OC8,0.1000*%
%ADD17C,0.1181*%
%ADD18C,0.0500*%
%ADD19C,0.0472*%
D10*
X005661Y001543D02*
X005661Y002143D01*
X006661Y002143D02*
X006661Y001543D01*
X014661Y001543D02*
X014661Y002143D01*
X015661Y002143D02*
X015661Y001543D01*
X023151Y010560D02*
X023671Y010260D01*
X024171Y011126D02*
X023651Y011426D01*
X024651Y013060D02*
X025171Y012760D01*
X025671Y013626D02*
X025151Y013926D01*
X025994Y015631D02*
X026514Y015331D01*
X027014Y016197D02*
X026494Y016497D01*
X027466Y018205D02*
X027986Y017905D01*
X028486Y018771D02*
X027966Y019071D01*
X016537Y015492D02*
X016017Y015792D01*
X015517Y014926D02*
X016037Y014626D01*
X015537Y013760D02*
X015017Y014060D01*
X006671Y021760D02*
X006151Y022060D01*
X006651Y022926D02*
X007171Y022626D01*
X008671Y024760D02*
X008151Y025060D01*
X008651Y025926D02*
X009171Y025626D01*
X010671Y027760D02*
X010151Y028060D01*
X010651Y028926D02*
X011171Y028626D01*
X005671Y019626D02*
X005151Y019926D01*
X004651Y019060D02*
X005171Y018760D01*
D11*
X014027Y011488D02*
X014075Y011536D01*
X014116Y011383D01*
X014037Y011246D01*
X013884Y011205D01*
X013747Y011284D01*
X013706Y011437D01*
X013785Y011574D01*
X013938Y011615D01*
X014075Y011536D01*
X014013Y011489D01*
X014039Y011393D01*
X013990Y011308D01*
X013894Y011282D01*
X013809Y011331D01*
X013783Y011427D01*
X013832Y011512D01*
X013928Y011538D01*
X014013Y011489D01*
X013951Y011442D01*
X013962Y011403D01*
X013943Y011370D01*
X013904Y011359D01*
X013871Y011378D01*
X013860Y011417D01*
X013879Y011450D01*
X013918Y011461D01*
X013951Y011442D01*
X014527Y012354D02*
X014575Y012402D01*
X014616Y012249D01*
X014537Y012112D01*
X014384Y012071D01*
X014247Y012150D01*
X014206Y012303D01*
X014285Y012440D01*
X014438Y012481D01*
X014575Y012402D01*
X014513Y012355D01*
X014539Y012259D01*
X014490Y012174D01*
X014394Y012148D01*
X014309Y012197D01*
X014283Y012293D01*
X014332Y012378D01*
X014428Y012404D01*
X014513Y012355D01*
X014451Y012308D01*
X014462Y012269D01*
X014443Y012236D01*
X014404Y012225D01*
X014371Y012244D01*
X014360Y012283D01*
X014379Y012316D01*
X014418Y012327D01*
X014451Y012308D01*
X017027Y012988D02*
X017075Y013036D01*
X017116Y012883D01*
X017037Y012746D01*
X016884Y012705D01*
X016747Y012784D01*
X016706Y012937D01*
X016785Y013074D01*
X016938Y013115D01*
X017075Y013036D01*
X017013Y012989D01*
X017039Y012893D01*
X016990Y012808D01*
X016894Y012782D01*
X016809Y012831D01*
X016783Y012927D01*
X016832Y013012D01*
X016928Y013038D01*
X017013Y012989D01*
X016951Y012942D01*
X016962Y012903D01*
X016943Y012870D01*
X016904Y012859D01*
X016871Y012878D01*
X016860Y012917D01*
X016879Y012950D01*
X016918Y012961D01*
X016951Y012942D01*
X017527Y013854D02*
X017575Y013902D01*
X017616Y013749D01*
X017537Y013612D01*
X017384Y013571D01*
X017247Y013650D01*
X017206Y013803D01*
X017285Y013940D01*
X017438Y013981D01*
X017575Y013902D01*
X017513Y013855D01*
X017539Y013759D01*
X017490Y013674D01*
X017394Y013648D01*
X017309Y013697D01*
X017283Y013793D01*
X017332Y013878D01*
X017428Y013904D01*
X017513Y013855D01*
X017451Y013808D01*
X017462Y013769D01*
X017443Y013736D01*
X017404Y013725D01*
X017371Y013744D01*
X017360Y013783D01*
X017379Y013816D01*
X017418Y013827D01*
X017451Y013808D01*
X017527Y017488D02*
X017575Y017536D01*
X017616Y017383D01*
X017537Y017246D01*
X017384Y017205D01*
X017247Y017284D01*
X017206Y017437D01*
X017285Y017574D01*
X017438Y017615D01*
X017575Y017536D01*
X017513Y017489D01*
X017539Y017393D01*
X017490Y017308D01*
X017394Y017282D01*
X017309Y017331D01*
X017283Y017427D01*
X017332Y017512D01*
X017428Y017538D01*
X017513Y017489D01*
X017451Y017442D01*
X017462Y017403D01*
X017443Y017370D01*
X017404Y017359D01*
X017371Y017378D01*
X017360Y017417D01*
X017379Y017450D01*
X017418Y017461D01*
X017451Y017442D01*
X018027Y018354D02*
X018075Y018402D01*
X018116Y018249D01*
X018037Y018112D01*
X017884Y018071D01*
X017747Y018150D01*
X017706Y018303D01*
X017785Y018440D01*
X017938Y018481D01*
X018075Y018402D01*
X018013Y018355D01*
X018039Y018259D01*
X017990Y018174D01*
X017894Y018148D01*
X017809Y018197D01*
X017783Y018293D01*
X017832Y018378D01*
X017928Y018404D01*
X018013Y018355D01*
X017951Y018308D01*
X017962Y018269D01*
X017943Y018236D01*
X017904Y018225D01*
X017871Y018244D01*
X017860Y018283D01*
X017879Y018316D01*
X017918Y018327D01*
X017951Y018308D01*
X020150Y009709D02*
X020102Y009757D01*
X020255Y009798D01*
X020392Y009719D01*
X020433Y009566D01*
X020354Y009429D01*
X020201Y009388D01*
X020064Y009467D01*
X020023Y009620D01*
X020102Y009757D01*
X020149Y009695D01*
X020245Y009721D01*
X020330Y009672D01*
X020356Y009576D01*
X020307Y009491D01*
X020211Y009465D01*
X020126Y009514D01*
X020100Y009610D01*
X020149Y009695D01*
X020196Y009633D01*
X020235Y009644D01*
X020268Y009625D01*
X020279Y009586D01*
X020260Y009553D01*
X020221Y009542D01*
X020188Y009561D01*
X020177Y009600D01*
X020196Y009633D01*
X021016Y009209D02*
X020968Y009257D01*
X021121Y009298D01*
X021258Y009219D01*
X021299Y009066D01*
X021220Y008929D01*
X021067Y008888D01*
X020930Y008967D01*
X020889Y009120D01*
X020968Y009257D01*
X021015Y009195D01*
X021111Y009221D01*
X021196Y009172D01*
X021222Y009076D01*
X021173Y008991D01*
X021077Y008965D01*
X020992Y009014D01*
X020966Y009110D01*
X021015Y009195D01*
X021062Y009133D01*
X021101Y009144D01*
X021134Y009125D01*
X021145Y009086D01*
X021126Y009053D01*
X021087Y009042D01*
X021054Y009061D01*
X021043Y009100D01*
X021062Y009133D01*
X022133Y008548D02*
X022181Y008500D01*
X022028Y008459D01*
X021891Y008538D01*
X021850Y008691D01*
X021929Y008828D01*
X022082Y008869D01*
X022219Y008790D01*
X022260Y008637D01*
X022181Y008500D01*
X022134Y008562D01*
X022038Y008536D01*
X021953Y008585D01*
X021927Y008681D01*
X021976Y008766D01*
X022072Y008792D01*
X022157Y008743D01*
X022183Y008647D01*
X022134Y008562D01*
X022087Y008624D01*
X022048Y008613D01*
X022015Y008632D01*
X022004Y008671D01*
X022023Y008704D01*
X022062Y008715D01*
X022095Y008696D01*
X022106Y008657D01*
X022087Y008624D01*
X022999Y008048D02*
X023047Y008000D01*
X022894Y007959D01*
X022757Y008038D01*
X022716Y008191D01*
X022795Y008328D01*
X022948Y008369D01*
X023085Y008290D01*
X023126Y008137D01*
X023047Y008000D01*
X023000Y008062D01*
X022904Y008036D01*
X022819Y008085D01*
X022793Y008181D01*
X022842Y008266D01*
X022938Y008292D01*
X023023Y008243D01*
X023049Y008147D01*
X023000Y008062D01*
X022953Y008124D01*
X022914Y008113D01*
X022881Y008132D01*
X022870Y008171D01*
X022889Y008204D01*
X022928Y008215D01*
X022961Y008196D01*
X022972Y008157D01*
X022953Y008124D01*
X021777Y007287D02*
X021825Y007335D01*
X021866Y007182D01*
X021787Y007045D01*
X021634Y007004D01*
X021497Y007083D01*
X021456Y007236D01*
X021535Y007373D01*
X021688Y007414D01*
X021825Y007335D01*
X021763Y007288D01*
X021789Y007192D01*
X021740Y007107D01*
X021644Y007081D01*
X021559Y007130D01*
X021533Y007226D01*
X021582Y007311D01*
X021678Y007337D01*
X021763Y007288D01*
X021701Y007241D01*
X021712Y007202D01*
X021693Y007169D01*
X021654Y007158D01*
X021621Y007177D01*
X021610Y007216D01*
X021629Y007249D01*
X021668Y007260D01*
X021701Y007241D01*
X020411Y006921D02*
X020459Y006969D01*
X020500Y006816D01*
X020421Y006679D01*
X020268Y006638D01*
X020131Y006717D01*
X020090Y006870D01*
X020169Y007007D01*
X020322Y007048D01*
X020459Y006969D01*
X020397Y006922D01*
X020423Y006826D01*
X020374Y006741D01*
X020278Y006715D01*
X020193Y006764D01*
X020167Y006860D01*
X020216Y006945D01*
X020312Y006971D01*
X020397Y006922D01*
X020335Y006875D01*
X020346Y006836D01*
X020327Y006803D01*
X020288Y006792D01*
X020255Y006811D01*
X020244Y006850D01*
X020263Y006883D01*
X020302Y006894D01*
X020335Y006875D01*
X020777Y005555D02*
X020825Y005603D01*
X020866Y005450D01*
X020787Y005313D01*
X020634Y005272D01*
X020497Y005351D01*
X020456Y005504D01*
X020535Y005641D01*
X020688Y005682D01*
X020825Y005603D01*
X020763Y005556D01*
X020789Y005460D01*
X020740Y005375D01*
X020644Y005349D01*
X020559Y005398D01*
X020533Y005494D01*
X020582Y005579D01*
X020678Y005605D01*
X020763Y005556D01*
X020701Y005509D01*
X020712Y005470D01*
X020693Y005437D01*
X020654Y005426D01*
X020621Y005445D01*
X020610Y005484D01*
X020629Y005517D01*
X020668Y005528D01*
X020701Y005509D01*
D12*
X012943Y007546D02*
X012380Y007871D01*
X011880Y007005D02*
X012443Y006680D01*
X011943Y005814D02*
X011380Y006139D01*
D13*
X022064Y012379D02*
X022127Y012442D01*
X022181Y012241D01*
X022077Y012060D01*
X021876Y012006D01*
X021695Y012110D01*
X021641Y012311D01*
X021745Y012492D01*
X021946Y012546D01*
X022127Y012442D01*
X022045Y012379D01*
X022079Y012254D01*
X022014Y012142D01*
X021889Y012108D01*
X021777Y012173D01*
X021743Y012298D01*
X021808Y012410D01*
X021933Y012444D01*
X022045Y012379D01*
X021965Y012317D01*
X021978Y012268D01*
X021952Y012222D01*
X021903Y012209D01*
X021857Y012235D01*
X021844Y012284D01*
X021870Y012330D01*
X021919Y012343D01*
X021965Y012317D01*
X023564Y014879D02*
X023627Y014942D01*
X023681Y014741D01*
X023577Y014560D01*
X023376Y014506D01*
X023195Y014610D01*
X023141Y014811D01*
X023245Y014992D01*
X023446Y015046D01*
X023627Y014942D01*
X023545Y014879D01*
X023579Y014754D01*
X023514Y014642D01*
X023389Y014608D01*
X023277Y014673D01*
X023243Y014798D01*
X023308Y014910D01*
X023433Y014944D01*
X023545Y014879D01*
X023465Y014817D01*
X023478Y014768D01*
X023452Y014722D01*
X023403Y014709D01*
X023357Y014735D01*
X023344Y014784D01*
X023370Y014830D01*
X023419Y014843D01*
X023465Y014817D01*
X024934Y017579D02*
X024997Y017642D01*
X025051Y017441D01*
X024947Y017260D01*
X024746Y017206D01*
X024565Y017310D01*
X024511Y017511D01*
X024615Y017692D01*
X024816Y017746D01*
X024997Y017642D01*
X024915Y017579D01*
X024949Y017454D01*
X024884Y017342D01*
X024759Y017308D01*
X024647Y017373D01*
X024613Y017498D01*
X024678Y017610D01*
X024803Y017644D01*
X024915Y017579D01*
X024835Y017517D01*
X024848Y017468D01*
X024822Y017422D01*
X024773Y017409D01*
X024727Y017435D01*
X024714Y017484D01*
X024740Y017530D01*
X024789Y017543D01*
X024835Y017517D01*
X026466Y020020D02*
X026529Y020083D01*
X026583Y019882D01*
X026479Y019701D01*
X026278Y019647D01*
X026097Y019751D01*
X026043Y019952D01*
X026147Y020133D01*
X026348Y020187D01*
X026529Y020083D01*
X026447Y020020D01*
X026481Y019895D01*
X026416Y019783D01*
X026291Y019749D01*
X026179Y019814D01*
X026145Y019939D01*
X026210Y020051D01*
X026335Y020085D01*
X026447Y020020D01*
X026367Y019958D01*
X026380Y019909D01*
X026354Y019863D01*
X026305Y019850D01*
X026259Y019876D01*
X026246Y019925D01*
X026272Y019971D01*
X026321Y019984D01*
X026367Y019958D01*
X013064Y027879D02*
X013127Y027942D01*
X013181Y027741D01*
X013077Y027560D01*
X012876Y027506D01*
X012695Y027610D01*
X012641Y027811D01*
X012745Y027992D01*
X012946Y028046D01*
X013127Y027942D01*
X013045Y027879D01*
X013079Y027754D01*
X013014Y027642D01*
X012889Y027608D01*
X012777Y027673D01*
X012743Y027798D01*
X012808Y027910D01*
X012933Y027944D01*
X013045Y027879D01*
X012965Y027817D01*
X012978Y027768D01*
X012952Y027722D01*
X012903Y027709D01*
X012857Y027735D01*
X012844Y027784D01*
X012870Y027830D01*
X012919Y027843D01*
X012965Y027817D01*
X011064Y024879D02*
X011127Y024942D01*
X011181Y024741D01*
X011077Y024560D01*
X010876Y024506D01*
X010695Y024610D01*
X010641Y024811D01*
X010745Y024992D01*
X010946Y025046D01*
X011127Y024942D01*
X011045Y024879D01*
X011079Y024754D01*
X011014Y024642D01*
X010889Y024608D01*
X010777Y024673D01*
X010743Y024798D01*
X010808Y024910D01*
X010933Y024944D01*
X011045Y024879D01*
X010965Y024817D01*
X010978Y024768D01*
X010952Y024722D01*
X010903Y024709D01*
X010857Y024735D01*
X010844Y024784D01*
X010870Y024830D01*
X010919Y024843D01*
X010965Y024817D01*
X009064Y021879D02*
X009127Y021942D01*
X009181Y021741D01*
X009077Y021560D01*
X008876Y021506D01*
X008695Y021610D01*
X008641Y021811D01*
X008745Y021992D01*
X008946Y022046D01*
X009127Y021942D01*
X009045Y021879D01*
X009079Y021754D01*
X009014Y021642D01*
X008889Y021608D01*
X008777Y021673D01*
X008743Y021798D01*
X008808Y021910D01*
X008933Y021944D01*
X009045Y021879D01*
X008965Y021817D01*
X008978Y021768D01*
X008952Y021722D01*
X008903Y021709D01*
X008857Y021735D01*
X008844Y021784D01*
X008870Y021830D01*
X008919Y021843D01*
X008965Y021817D01*
X007564Y018879D02*
X007627Y018942D01*
X007681Y018741D01*
X007577Y018560D01*
X007376Y018506D01*
X007195Y018610D01*
X007141Y018811D01*
X007245Y018992D01*
X007446Y019046D01*
X007627Y018942D01*
X007545Y018879D01*
X007579Y018754D01*
X007514Y018642D01*
X007389Y018608D01*
X007277Y018673D01*
X007243Y018798D01*
X007308Y018910D01*
X007433Y018944D01*
X007545Y018879D01*
X007465Y018817D01*
X007478Y018768D01*
X007452Y018722D01*
X007403Y018709D01*
X007357Y018735D01*
X007344Y018784D01*
X007370Y018830D01*
X007419Y018843D01*
X007465Y018817D01*
D14*
X006911Y017910D03*
X008411Y020910D03*
X010411Y023910D03*
X012411Y026910D03*
X024281Y016610D03*
X025813Y019051D03*
X022911Y013910D03*
X021411Y011410D03*
D15*
X015661Y006343D03*
D16*
X017661Y006343D03*
D17*
X010661Y010843D03*
X016661Y021343D03*
D18*
X019661Y008843D03*
D19*
X015646Y011410D03*
M02*
