G75*
G70*
%OFA0B0*%
%FSLAX24Y24*%
%IPPOS*%
%LPD*%
%AMOC8*
5,1,8,0,0,1.08239X$1,22.5*
%
%ADD10C,0.0160*%
%ADD11C,0.0000*%
D10*
X000260Y000343D02*
X021161Y000343D01*
X021161Y003343D01*
X030020Y019669D01*
X020161Y025343D01*
X010161Y031169D01*
X000264Y014299D01*
X000260Y014229D02*
X000260Y000343D01*
D11*
X001155Y001856D02*
X001157Y001909D01*
X001163Y001962D01*
X001173Y002014D01*
X001186Y002065D01*
X001204Y002115D01*
X001225Y002164D01*
X001250Y002211D01*
X001278Y002255D01*
X001310Y002298D01*
X001344Y002338D01*
X001382Y002376D01*
X001422Y002410D01*
X001465Y002442D01*
X001510Y002470D01*
X001556Y002495D01*
X001605Y002516D01*
X001655Y002534D01*
X001706Y002547D01*
X001758Y002557D01*
X001811Y002563D01*
X001864Y002565D01*
X001917Y002563D01*
X001970Y002557D01*
X002022Y002547D01*
X002073Y002534D01*
X002123Y002516D01*
X002172Y002495D01*
X002219Y002470D01*
X002263Y002442D01*
X002306Y002410D01*
X002346Y002376D01*
X002384Y002338D01*
X002418Y002298D01*
X002450Y002255D01*
X002478Y002210D01*
X002503Y002164D01*
X002524Y002115D01*
X002542Y002065D01*
X002555Y002014D01*
X002565Y001962D01*
X002571Y001909D01*
X002573Y001856D01*
X002571Y001803D01*
X002565Y001750D01*
X002555Y001698D01*
X002542Y001647D01*
X002524Y001597D01*
X002503Y001548D01*
X002478Y001501D01*
X002450Y001457D01*
X002418Y001414D01*
X002384Y001374D01*
X002346Y001336D01*
X002306Y001302D01*
X002263Y001270D01*
X002218Y001242D01*
X002172Y001217D01*
X002123Y001196D01*
X002073Y001178D01*
X002022Y001165D01*
X001970Y001155D01*
X001917Y001149D01*
X001864Y001147D01*
X001811Y001149D01*
X001758Y001155D01*
X001706Y001165D01*
X001655Y001178D01*
X001605Y001196D01*
X001556Y001217D01*
X001509Y001242D01*
X001465Y001270D01*
X001422Y001302D01*
X001382Y001336D01*
X001344Y001374D01*
X001310Y001414D01*
X001278Y001457D01*
X001250Y001502D01*
X001225Y001548D01*
X001204Y001597D01*
X001186Y001647D01*
X001173Y001698D01*
X001163Y001750D01*
X001157Y001803D01*
X001155Y001856D01*
X018580Y001856D02*
X018582Y001909D01*
X018588Y001962D01*
X018598Y002014D01*
X018611Y002065D01*
X018629Y002115D01*
X018650Y002164D01*
X018675Y002211D01*
X018703Y002255D01*
X018735Y002298D01*
X018769Y002338D01*
X018807Y002376D01*
X018847Y002410D01*
X018890Y002442D01*
X018935Y002470D01*
X018981Y002495D01*
X019030Y002516D01*
X019080Y002534D01*
X019131Y002547D01*
X019183Y002557D01*
X019236Y002563D01*
X019289Y002565D01*
X019342Y002563D01*
X019395Y002557D01*
X019447Y002547D01*
X019498Y002534D01*
X019548Y002516D01*
X019597Y002495D01*
X019644Y002470D01*
X019688Y002442D01*
X019731Y002410D01*
X019771Y002376D01*
X019809Y002338D01*
X019843Y002298D01*
X019875Y002255D01*
X019903Y002210D01*
X019928Y002164D01*
X019949Y002115D01*
X019967Y002065D01*
X019980Y002014D01*
X019990Y001962D01*
X019996Y001909D01*
X019998Y001856D01*
X019996Y001803D01*
X019990Y001750D01*
X019980Y001698D01*
X019967Y001647D01*
X019949Y001597D01*
X019928Y001548D01*
X019903Y001501D01*
X019875Y001457D01*
X019843Y001414D01*
X019809Y001374D01*
X019771Y001336D01*
X019731Y001302D01*
X019688Y001270D01*
X019643Y001242D01*
X019597Y001217D01*
X019548Y001196D01*
X019498Y001178D01*
X019447Y001165D01*
X019395Y001155D01*
X019342Y001149D01*
X019289Y001147D01*
X019236Y001149D01*
X019183Y001155D01*
X019131Y001165D01*
X019080Y001178D01*
X019030Y001196D01*
X018981Y001217D01*
X018934Y001242D01*
X018890Y001270D01*
X018847Y001302D01*
X018807Y001336D01*
X018769Y001374D01*
X018735Y001414D01*
X018703Y001457D01*
X018675Y001502D01*
X018650Y001548D01*
X018629Y001597D01*
X018611Y001647D01*
X018598Y001698D01*
X018588Y001750D01*
X018582Y001803D01*
X018580Y001856D01*
M02*
